<?xml version="1.0" encoding="UTF-8"?>
<!DOCTYPE svg PUBLIC "-//W3C//DTD SVG 1.1//EN" "http://www.w3.org/Graphics/SVG/1.1/DTD/svg11.dtd">
<!-- Creator: CorelDRAW X8 -->
<svg xmlns="http://www.w3.org/2000/svg" xml:space="preserve" width="62px" height="71px" version="1.1" shape-rendering="geometricPrecision" text-rendering="geometricPrecision" image-rendering="optimizeQuality" fill-rule="evenodd" clip-rule="evenodd"
viewBox="0 0 70287102 80398753"
 >
 <g id="Слой_x0020_1">
  <metadata id="CorelCorpID_0Corel-Layer"/>
  <g id="_811913104">
   <g>
    <path fill="#00ADD9" fill-rule="nonzero" d="M20039381 14036629l-2468272 -4272828 16338306 -9433276 2468272 4272828 -16338306 9433276zm-2468272 -4272828l2468272 4272828c-1179493,681041 -2689510,277215 -3370550,-902278 -681041,-1179493 -277214,-2689510 902278,-3370550zm-13870034 13706104l-3701075 -2136414 1232803 -2136414 16338306 -9433276 2468272 4272828 -16338306 9433276zm-2468272 -4272828l2468272 4272828c-1179493,681041 -2689510,277215 -3370550,-902278 -681041,-1179493 -277215,-2689510 902278,-3370550zm3701075 21002966l-4933878 0 0 -18866552 4933878 0 0 18866552zm-4933878 0l4933878 0c0,1362081 -1104858,2466939 -2466939,2466939 -1362081,0 -2466939,-1104858 -2466939,-2466939zm4933878 18865219l-3701075 2136415 -1232803 -2136415 0 -18865219 4933878 0 0 18865219zm-4933878 0l4933878 0c0,1362081 -1104858,2466939 -2466939,2466939 -1362081,0 -2466939,-1104858 -2466939,-2466939zm20039381 7296862l-2468272 4272829 -16338306 -9433276 2468272 -4272829 16338306 9433276zm-2468272 4272829l2468272 -4272829c1179493,681040 1583319,2191057 902279,3370550 -681041,1179493 -2191058,1583319 -3370551,902279zm18806578 5160447l0 4272829 -2468272 0 -16338306 -9433276 2468272 -4272829 16338306 9433276zm-2468272 4272829l2468272 -4272829c1179493,681040 1583319,2191057 902279,3370550 -681041,1179493 -2191058,1583319 -3370551,902279zm16338306 -13706105l2468272 4272829 -16338306 9433276 -2468272 -4272829 16338306 -9433276zm2468272 4272829l-2468272 -4272829c1179493,-681041 2689510,-277214 3370551,902278 681040,1179493 277214,2689510 -902279,3370551zm13870035 -13706105l3701074 2136414 -1232803 2136415 -16338306 9433276 -2468272 -4272829 16338307 -9433276zm2468271 4272829l-2468271 -4272829c1179492,-681041 2689509,-277214 3370550,902278 681040,1179493 277214,2689510 -902279,3370551zm-3701075 -21001634l4933878 0 0 18865219 -4933878 0 0 -18865219zm4933878 0l-4933878 0c0,-1362081 1104859,-2466939 2466939,-2466939 1362081,0 2466939,1104858 2466939,2466939zm-4933878 -18866552l3701075 -2136414 1232803 2136414 0 18866552 -4933878 0 0 -18866552zm4933878 0l-4933878 0c0,-1362081 1104859,-2466939 2466939,-2466939 1362081,0 2466939,1104858 2466939,2466939zm-20039381 -7296862l2468272 -4272828 16338306 9433276 -2468271 4272828 -16338307 -9433276zm2468272 -4272828l-2468272 4272828c-1179492,-681040 -1583319,-2191057 -902278,-3370550 681040,-1179493 2191057,-1583319 3370550,-902278zm-18806578 -5160448l0 -4272828 2468272 0 16338306 9433276 -2468272 4272828 -16338306 -9433276zm2468272 -4272828l-2468272 4272828c-1179492,-681040 -1583319,-2191057 -902278,-3370550 681040,-1179493 2191057,-1583319 3370550,-902278z"/>
   </g>
   <g>
    <path fill="#00ADD9" fill-rule="nonzero" d="M3701075 19197077l-2468272 4272828c-1179493,-681040 -1583319,-2191057 -902278,-3370550 681040,-1179493 2191057,-1583319 3370550,-902278zm16338306 9433276l-2468272 4272828 -16338306 -9433276 2468272 -4272828 16338306 9433276zm-2468272 4272828l2468272 -4272828c1179493,681040 1583319,2191057 902279,3370550 -681041,1179493 -2191058,1583319 -3370551,902278zm18806578 5160448l0 4272828 -2468272 0 -16338306 -9433276 2468272 -4272828 16338306 9433276zm-2468272 4272828l2468272 -4272828c1179493,681040 1583319,2191057 902279,3370550 -681041,1179493 -2191058,1583319 -3370551,902278zm16338306 -13706104l2468272 4272828 -16338306 9433276 -2468272 -4272828 16338306 -9433276zm2468272 4272828l-2468272 -4272828c1179493,-681041 2689510,-277215 3370551,902278 681040,1179493 277214,2689510 -902279,3370550zm13870035 -13706104l2468271 4272828 -16338306 9433276 -2468272 -4272828 16338307 -9433276zm2468271 4272828l-2468271 -4272828c1179492,-681041 2689509,-277215 3370550,902278 681040,1179493 277214,2689510 -902279,3370550z"/>
   </g>
   <g>
    <path fill="#00ADD9" fill-rule="nonzero" d="M37610490 40200043l-4933878 0c0,-1362081 1104858,-2466939 2466939,-2466939 1362081,0 2466939,1104858 2466939,2466939zm0 37731771l-4933878 0 0 -37731771 4933878 0 0 37731771zm-4933878 0l4933878 0c0,1362081 -1104858,2466939 -2466939,2466939 -1362081,0 -2466939,-1104858 -2466939,-2466939z"/>
   </g>
  </g>
 </g>
</svg>
