<?xml version="1.0" encoding="UTF-8"?>
<!DOCTYPE svg PUBLIC "-//W3C//DTD SVG 1.1//EN" "http://www.w3.org/Graphics/SVG/1.1/DTD/svg11.dtd">
<!-- Creator: CorelDRAW X8 -->
<svg xmlns="http://www.w3.org/2000/svg" xml:space="preserve" width="62px" height="70px" version="1.1" shape-rendering="geometricPrecision" text-rendering="geometricPrecision" image-rendering="optimizeQuality" fill-rule="evenodd" clip-rule="evenodd"
viewBox="0 0 6200000 6992400"
 xmlns:xlink="http://www.w3.org/1999/xlink">
 <g id="Слой_x0020_1">
  <metadata id="CorelCorpID_0Corel-Layer"/>
  <path fill="#00ADD9" fill-rule="nonzero" d="M5597058 1885741l-2497058 1382955 -2497058 -1382955 2497058 -1455625 2497058 1455625zm-2696898 1727426l0 2836810 -2500480 -1424009 0 -2797644 2500480 1384843zm2900160 -1384843l0 2797644 -2500480 1424009 0 -2836810 2500480 -1384843zm-2600400 -2201427c-59810,-34565 -135901,-37042 -199840,0l-2898980 1690266c-61580,34211 -99566,101571 -101100,172943l0 3251355c0,79747 46952,148641 114430,180611l2884234 1642606c61580,36924 141092,36924 202672,0l2884234 -1642606c67478,-31970 114430,-100864 114430,-180611l-826 -3240856c3539,-74203 -33267,-144984 -99094,-182970l-2900160 -1690738z"/>
 </g>
</svg>
