<?xml version="1.0" encoding="UTF-8"?>
<!DOCTYPE svg PUBLIC "-//W3C//DTD SVG 1.1//EN" "http://www.w3.org/Graphics/SVG/1.1/DTD/svg11.dtd">
<!-- Creator: CorelDRAW X8 -->
<svg xmlns="http://www.w3.org/2000/svg" xml:space="preserve" width="66px" height="71px" version="1.1" shape-rendering="geometricPrecision" text-rendering="geometricPrecision" image-rendering="optimizeQuality" fill-rule="evenodd" clip-rule="evenodd"
viewBox="0 0 552192 593005"
 >
 <g id="Слой_x0020_1">
  <metadata id="CorelCorpID_0Corel-Layer"/>
  <g id="_811915024">
   <g>
    <path fill="#00ADD9" fill-rule="nonzero" d="M552192 273904l0 0 -118 4758 -354 4728 -599 4629 -806 4571 -1052 4522 -1249 4404 -1454 4305 -1671 4237 -1858 4118 -2055 4011 -2231 3882 -2418 3765 -2595 3657 -2752 3499 -2910 3352 -3077 3224 -3224 3077 -3352 2910 -3499 2752 -3657 2605 -3765 2408 -3882 2231 -4011 2055 -4118 1858 -4237 1671 -4305 1454 -4404 1259 -4522 1041 -4571 807 -4629 599 -4728 354 -4758 118 0 -36390 2929 -78 2861 -216 2841 -364 2781 -492 2694 -629 2693 -766 2634 -885 2546 -1003 2487 -1130 2438 -1248 2369 -1367 2290 -1464 2202 -1563 2143 -1691 2054 -1769 1966 -1878 1878 -1966 1769 -2054 1691 -2143 1572 -2202 1455 -2290 1367 -2369 1248 -2438 1130 -2487 1003 -2546 885 -2634 776 -2693 619 -2694 492 -2782 364 -2840 216 -2861 79 -2929 0 0 36389 0zm-92861 -92861l0 0 4758 118 4728 354 4629 599 4571 806 4522 1042 4404 1259 4305 1454 4237 1671 4118 1858 4011 2055 3882 2231 3765 2408 3657 2605 3499 2752 3352 2910 3224 3077 3077 3224 2910 3352 2752 3499 2595 3657 2418 3765 2231 3882 2055 4011 1858 4118 1671 4237 1454 4305 1249 4404 1052 4522 806 4571 599 4629 354 4728 118 4758 -36389 0 -79 -2929 -216 -2861 -364 -2840 -492 -2782 -619 -2694 -776 -2693 -885 -2634 -1003 -2546 -1130 -2487 -1248 -2438 -1367 -2369 -1455 -2290 -1572 -2202 -1691 -2143 -1769 -2054 -1878 -1966 -1966 -1878 -2054 -1769 -2143 -1691 -2202 -1563 -2290 -1464 -2369 -1367 -2438 -1248 -2487 -1130 -2546 -1003 -2634 -885 -2693 -766 -2694 -629 -2781 -492 -2841 -364 -2861 -216 -2929 -79 0 0 0 -36389zm-92861 92861l0 0 118 -4758 354 -4728 600 -4629 806 -4571 1051 -4522 1249 -4404 1454 -4305 1672 -4237 1857 -4118 2055 -4011 2231 -3882 2418 -3765 2595 -3657 2753 -3499 2909 -3352 3077 -3224 3224 -3077 3352 -2910 3499 -2752 3657 -2605 3765 -2408 3882 -2231 4011 -2055 4118 -1858 4237 -1671 4305 -1454 4404 -1259 4522 -1042 4571 -806 4629 -599 4728 -354 4758 -118 0 36389 -2929 79 -2861 216 -2840 364 -2782 492 -2694 629 -2693 766 -2634 885 -2546 1003 -2487 1130 -2438 1248 -2369 1367 -2290 1464 -2202 1563 -2143 1691 -2054 1769 -1966 1878 -1878 1966 -1769 2054 -1691 2143 -1572 2202 -1455 2290 -1366 2369 -1249 2438 -1130 2487 -1003 2546 -885 2634 -776 2693 -619 2694 -492 2782 -364 2840 -216 2861 -78 2929 0 0 -36390 0zm92861 92861l0 0 -4758 -118 -4728 -354 -4629 -599 -4571 -807 -4522 -1041 -4404 -1259 -4305 -1454 -4237 -1671 -4118 -1858 -4011 -2055 -3882 -2231 -3765 -2408 -3657 -2605 -3499 -2752 -3352 -2910 -3224 -3077 -3077 -3224 -2909 -3352 -2753 -3499 -2595 -3657 -2418 -3765 -2231 -3882 -2055 -4011 -1857 -4118 -1672 -4237 -1454 -4305 -1249 -4404 -1051 -4522 -806 -4571 -600 -4629 -354 -4728 -118 -4758 36390 0 78 2929 216 2861 364 2840 492 2782 619 2694 776 2693 885 2634 1003 2546 1130 2487 1249 2438 1366 2369 1455 2290 1572 2202 1691 2143 1769 2054 1878 1966 1966 1878 2054 1769 2143 1691 2202 1563 2290 1464 2369 1367 2438 1248 2487 1130 2546 1003 2634 885 2693 766 2694 629 2782 492 2840 364 2861 216 2929 78 0 0 0 36390z"/>
   </g>
   <g>
    <path fill="#00ADD9" fill-rule="nonzero" d="M368957 408276l0 0 -118 4757 -354 4728 -599 4630 -806 4571 -1052 4522 -1249 4403 -1454 4306 -1671 4236 -1858 4119 -2055 4010 -2231 3883 -2418 3765 -2595 3657 -2752 3499 -2910 3352 -3077 3224 -3224 3077 -3352 2909 -3499 2753 -3657 2604 -3765 2409 -3882 2231 -4011 2054 -4118 1858 -4237 1671 -4305 1455 -4404 1258 -4522 1042 -4571 806 -4629 600 -4728 354 -4758 118 0 -36390 2929 -78 2861 -217 2840 -363 2782 -492 2694 -629 2693 -767 2634 -884 2546 -1003 2487 -1130 2438 -1249 2369 -1366 2290 -1465 2202 -1563 2143 -1690 2054 -1770 1966 -1877 1878 -1966 1769 -2054 1691 -2143 1572 -2202 1455 -2291 1367 -2368 1248 -2438 1130 -2487 1003 -2546 885 -2634 776 -2694 619 -2693 492 -2782 364 -2841 216 -2860 79 -2929 0 0 36389 0zm-92861 -92861l0 0 4758 118 4728 354 4629 599 4571 806 4522 1042 4404 1258 4305 1455 4237 1671 4118 1858 4011 2054 3882 2232 3765 2408 3657 2605 3499 2752 3352 2910 3224 3076 3077 3225 2910 3351 2752 3500 2595 3657 2418 3764 2231 3883 2055 4011 1858 4118 1671 4237 1454 4305 1249 4404 1052 4521 806 4571 599 4630 354 4728 118 4758 -36389 0 -79 -2930 -216 -2860 -364 -2841 -492 -2782 -619 -2693 -776 -2693 -885 -2635 -1003 -2545 -1130 -2487 -1248 -2438 -1367 -2369 -1455 -2290 -1572 -2202 -1691 -2143 -1769 -2055 -1878 -1965 -1966 -1878 -2054 -1769 -2143 -1691 -2202 -1563 -2290 -1465 -2369 -1366 -2438 -1248 -2487 -1131 -2546 -1002 -2634 -885 -2693 -767 -2694 -629 -2782 -491 -2840 -364 -2861 -216 -2929 -79 0 0 0 -36389zm-92861 92861l0 0 118 -4758 354 -4728 599 -4630 807 -4571 1051 -4521 1249 -4404 1454 -4305 1671 -4237 1858 -4118 2055 -4011 2231 -3883 2418 -3764 2595 -3657 2752 -3500 2910 -3351 3077 -3225 3224 -3076 3352 -2910 3499 -2752 3657 -2605 3765 -2408 3882 -2232 4011 -2054 4118 -1858 4237 -1671 4305 -1455 4404 -1258 4522 -1042 4571 -806 4629 -599 4728 -354 4758 -118 0 36389 -2929 79 -2861 216 -2840 364 -2782 491 -2694 629 -2693 767 -2634 885 -2546 1002 -2487 1131 -2438 1248 -2369 1366 -2290 1465 -2202 1563 -2143 1691 -2054 1769 -1966 1878 -1878 1965 -1769 2055 -1691 2143 -1572 2202 -1455 2290 -1367 2369 -1248 2438 -1130 2487 -1003 2545 -885 2635 -776 2693 -619 2693 -492 2782 -364 2841 -216 2860 -78 2930 0 0 -36390 0zm92861 92861l0 0 -4758 -118 -4728 -354 -4629 -600 -4571 -806 -4522 -1042 -4404 -1258 -4305 -1455 -4237 -1671 -4118 -1858 -4011 -2054 -3882 -2231 -3765 -2409 -3657 -2604 -3499 -2753 -3352 -2909 -3224 -3077 -3077 -3224 -2910 -3352 -2752 -3499 -2595 -3657 -2418 -3765 -2231 -3883 -2055 -4010 -1858 -4119 -1671 -4236 -1454 -4306 -1249 -4403 -1051 -4522 -807 -4571 -599 -4630 -354 -4728 -118 -4757 36390 0 78 2929 216 2860 364 2841 492 2782 619 2693 776 2694 885 2634 1003 2546 1130 2487 1248 2438 1367 2368 1455 2291 1572 2202 1691 2143 1769 2054 1878 1966 1966 1877 2054 1770 2143 1690 2202 1563 2290 1465 2369 1366 2438 1249 2487 1130 2546 1003 2634 884 2693 767 2694 629 2782 492 2840 363 2861 217 2929 78 0 0 0 36390z"/>
   </g>
   <g>
    <path fill="#00ADD9" fill-rule="nonzero" d="M185722 184719l0 0 -118 4758 -354 4728 -599 4630 -807 4571 -1051 4521 -1249 4404 -1454 4305 -1672 4237 -1857 4119 -2055 4010 -2231 3883 -2418 3765 -2595 3656 -2753 3500 -2909 3351 -3077 3225 -3224 3076 -3352 2910 -3499 2752 -3657 2605 -3765 2408 -3882 2232 -4011 2054 -4118 1858 -4237 1671 -4305 1455 -4404 1258 -4522 1042 -4571 806 -4629 599 -4728 354 -4758 118 0 -36389 2929 -79 2861 -216 2840 -364 2782 -491 2694 -629 2693 -767 2634 -885 2546 -1002 2487 -1131 2438 -1248 2369 -1366 2290 -1465 2202 -1563 2143 -1691 2054 -1769 1966 -1878 1878 -1965 1769 -2055 1691 -2143 1572 -2202 1455 -2290 1367 -2369 1248 -2438 1130 -2487 1003 -2545 885 -2635 776 -2693 619 -2693 492 -2782 364 -2841 216 -2860 78 -2930 0 0 36390 0zm-92861 -92861l0 0 4758 118 4728 354 4629 600 4571 806 4522 1042 4404 1258 4305 1455 4237 1671 4118 1858 4011 2054 3882 2231 3765 2409 3657 2604 3499 2753 3352 2909 3224 3077 3077 3224 2909 3352 2753 3499 2595 3657 2418 3765 2231 3883 2055 4010 1857 4119 1672 4236 1454 4306 1249 4403 1051 4522 807 4571 599 4630 354 4728 118 4757 -36390 0 -78 -2929 -216 -2860 -364 -2841 -492 -2782 -619 -2693 -776 -2694 -885 -2634 -1003 -2546 -1130 -2487 -1248 -2438 -1367 -2368 -1455 -2291 -1572 -2202 -1691 -2142 -1769 -2055 -1878 -1966 -1966 -1877 -2054 -1770 -2143 -1690 -2202 -1563 -2290 -1465 -2369 -1366 -2438 -1249 -2487 -1130 -2546 -1003 -2634 -884 -2693 -767 -2694 -629 -2782 -492 -2840 -363 -2861 -217 -2929 -78 0 0 0 -36390zm-92861 92861l0 0 118 -4757 354 -4728 599 -4630 806 -4571 1052 -4522 1249 -4403 1454 -4306 1671 -4236 1858 -4119 2055 -4010 2231 -3883 2418 -3765 2595 -3657 2752 -3499 2910 -3352 3077 -3224 3224 -3077 3352 -2909 3499 -2753 3657 -2604 3765 -2409 3882 -2231 4011 -2054 4118 -1858 4237 -1671 4305 -1455 4404 -1258 4522 -1042 4571 -806 4629 -600 4728 -354 4758 -118 0 36390 -2929 78 -2861 217 -2840 363 -2782 492 -2694 629 -2693 767 -2634 884 -2546 1003 -2487 1130 -2438 1249 -2369 1366 -2290 1465 -2202 1563 -2143 1690 -2054 1770 -1966 1877 -1878 1966 -1769 2055 -1691 2142 -1572 2202 -1455 2291 -1367 2368 -1248 2438 -1130 2487 -1003 2546 -885 2634 -776 2694 -619 2693 -492 2782 -364 2841 -216 2860 -79 2929 0 0 -36389 0zm92861 92861l0 0 -4758 -118 -4728 -354 -4629 -599 -4571 -806 -4522 -1042 -4404 -1258 -4305 -1455 -4237 -1671 -4118 -1858 -4011 -2054 -3882 -2232 -3765 -2408 -3657 -2605 -3499 -2752 -3352 -2910 -3224 -3076 -3077 -3225 -2910 -3351 -2752 -3500 -2595 -3656 -2418 -3765 -2231 -3883 -2055 -4010 -1858 -4119 -1671 -4237 -1454 -4305 -1249 -4404 -1052 -4521 -806 -4571 -599 -4630 -354 -4728 -118 -4758 36389 0 79 2930 216 2860 364 2841 492 2782 619 2693 776 2693 885 2635 1003 2545 1130 2487 1248 2438 1367 2369 1455 2290 1572 2202 1691 2143 1769 2055 1878 1965 1966 1878 2054 1769 2143 1691 2202 1563 2290 1465 2369 1366 2438 1248 2487 1131 2546 1002 2634 885 2693 767 2694 629 2782 491 2840 364 2861 216 2929 79 0 0 0 36389z"/>
   </g>
   <g>
    <path fill="#00ADD9" fill-rule="nonzero" d="M70095 259307c-29,-10046 8100,-18234 18146,-18264 10046,-29 18234,8100 18264,18146l-36410 118zm1052 315533l-1052 -315533 36410 -118 1051 315533 -36409 118zm36409 -118c30,10046 -8099,18234 -18145,18263 -10046,30 -18234,-8099 -18264,-18145l36409 -118z"/>
   </g>
   <g>
    <path fill="#00ADD9" fill-rule="nonzero" d="M106652 110348c-88,10046 -8336,18116 -18381,18028 -10046,-89 -18117,-8336 -18028,-18382l36409 354zm904 -91967l-904 91967 -36409 -354 904 -91966 36409 353zm-36409 -353c89,-10046 8336,-18116 18382,-18028 10046,88 18116,8336 18027,18381l-36409 -353z"/>
   </g>
   <g>
    <path fill="#00ADD9" fill-rule="nonzero" d="M259012 18146c30,-10046 8227,-18166 18273,-18136 10046,29 18166,8227 18136,18273l-36409 -137zm-1121 315375l1121 -315375 36409 137 -1120 315376 -36410 -138zm36410 138c-30,10046 -8228,18165 -18274,18135 -10046,-29 -18165,-8227 -18136,-18273l36410 138z"/>
   </g>
   <g>
    <path fill="#00ADD9" fill-rule="nonzero" d="M257911 482932c0,-10046 8159,-18204 18205,-18204 10046,0 18204,8158 18204,18204l-36409 0zm-20 91868l20 -91868 36409 0 -19 91868 -36410 0zm36410 0c0,10046 -8159,18205 -18205,18205 -10046,0 -18205,-8159 -18205,-18205l36410 0z"/>
   </g>
   <g>
    <path fill="#00ADD9" fill-rule="nonzero" d="M478666 574800c0,10046 -8159,18205 -18205,18205 -10045,0 -18204,-8159 -18204,-18205l36409 0zm0 -226230l0 226230 -36409 0 0 -226230 36409 0zm-36409 0c0,-10046 8159,-18204 18204,-18204 10046,0 18205,8158 18205,18204l-36409 0z"/>
   </g>
   <g>
    <path fill="#00ADD9" fill-rule="nonzero" d="M477536 199238c0,10046 -8159,18204 -18205,18204 -10046,0 -18205,-8158 -18205,-18204l36410 0zm0 -181024l0 181024 -36410 0 0 -181024 36410 0zm-36410 0c0,-10046 8159,-18204 18205,-18204 10046,0 18205,8158 18205,18204l-36410 0z"/>
   </g>
  </g>
 </g>
</svg>
