<?xml version="1.0" encoding="UTF-8"?>
<!DOCTYPE svg PUBLIC "-//W3C//DTD SVG 1.1//EN" "http://www.w3.org/Graphics/SVG/1.1/DTD/svg11.dtd">
<!-- Creator: CorelDRAW X8 -->
<svg xmlns="http://www.w3.org/2000/svg" xml:space="preserve" width="72px" height="72px" version="1.1" shape-rendering="geometricPrecision" text-rendering="geometricPrecision" image-rendering="optimizeQuality" fill-rule="evenodd" clip-rule="evenodd"
viewBox="0 0 434158 434158"
 >
 <g id="Слой_x0020_1">
  <metadata id="CorelCorpID_0Corel-Layer"/>
  <g id="_811919088">
   <g>
    <path fill="#00ADD9" fill-rule="nonzero" d="M434158 217079l-26497 0 0 0 -243 -9822 -737 -9679 -1209 -9536 -1681 -9385 -2125 -9222 -2568 -9035 -2998 -8856 -3405 -8649 -3820 -8434 -4206 -8212 -4593 -7991 -4950 -7726 -5323 -7476 -5651 -7204 -5995 -6910 -6317 -6632 -6624 -6309 -6910 -5995 -7204 -5651 -7476 -5323 -7726 -4950 -7990 -4593 -8213 -4206 -8434 -3820 -8649 -3405 -8856 -2998 -9035 -2568 -9221 -2125 -9386 -1681 -9536 -1209 -9679 -736 -9822 -244 0 -26497 11153 286 11024 837 10866 1381 10688 1910 10508 2425 10309 2926 10087 3412 9865 3892 9621 4349 9357 4793 9093 5222 8813 5652 8506 6052 8191 6438 7883 6825 7526 7182 7189 7533 6825 7883 6438 8191 6052 8506 5652 8813 5222 9093 4793 9357 4349 9622 3892 9864 3412 10087 2926 10309 2425 10508 1910 10688 1381 10867 837 11023 286 11153 0 0zm-217079 217079l0 -26497 0 0 9822 -243 9679 -737 9536 -1209 9386 -1681 9221 -2125 9035 -2568 8856 -2998 8649 -3405 8434 -3820 8213 -4206 7990 -4593 7726 -4950 7476 -5323 7204 -5651 6910 -5995 6624 -6317 6317 -6624 5995 -6910 5651 -7204 5323 -7476 4950 -7726 4593 -7990 4206 -8213 3820 -8434 3405 -8649 2998 -8856 2568 -9035 2125 -9221 1681 -9386 1209 -9536 737 -9679 243 -9822 26497 0 -286 11153 -837 11024 -1381 10866 -1910 10688 -2425 10508 -2926 10309 -3412 10087 -3892 9865 -4349 9621 -4793 9357 -5222 9093 -5652 8813 -6052 8506 -6438 8191 -6825 7883 -7189 7526 -7526 7189 -7883 6825 -8191 6438 -8506 6052 -8813 5652 -9093 5222 -9357 4793 -9621 4349 -9865 3892 -10087 3412 -10309 2926 -10508 2425 -10688 1910 -10866 1381 -11024 837 -11153 286 0 0zm-217079 -217079l26497 0 0 0 244 9822 736 9679 1209 9536 1681 9386 2125 9221 2568 9035 2998 8856 3405 8649 3820 8434 4206 8213 4593 7990 4950 7726 5323 7476 5651 7204 5995 6910 6309 6624 6632 6317 6910 5995 7204 5651 7476 5323 7726 4950 7991 4593 8212 4206 8434 3820 8649 3405 8856 2998 9035 2568 9222 2125 9385 1681 9536 1209 9679 737 9822 243 0 26497 -11153 -286 -11023 -837 -10867 -1381 -10688 -1910 -10508 -2425 -10309 -2926 -10087 -3412 -9864 -3892 -9622 -4349 -9357 -4793 -9093 -5222 -8813 -5652 -8506 -6052 -8191 -6438 -7883 -6825 -7533 -7189 -7182 -7526 -6825 -7883 -6438 -8191 -6052 -8506 -5652 -8813 -5222 -9093 -4793 -9357 -4349 -9621 -3892 -9865 -3412 -10087 -2926 -10309 -2425 -10508 -1910 -10688 -1381 -10866 -837 -11024 -286 -11153 0 0zm217079 -217079l0 26497 0 0 -9822 244 -9679 736 -9536 1209 -9385 1681 -9222 2125 -9035 2568 -8856 2998 -8649 3405 -8434 3820 -8212 4206 -7991 4593 -7726 4950 -7476 5323 -7204 5651 -6917 5995 -6625 6309 -6309 6625 -5995 6917 -5651 7204 -5323 7476 -4950 7726 -4593 7991 -4206 8212 -3820 8434 -3405 8649 -2998 8856 -2568 9035 -2125 9222 -1681 9385 -1209 9536 -736 9679 -244 9822 -26497 0 286 -11153 837 -11023 1381 -10867 1910 -10688 2425 -10508 2926 -10309 3412 -10087 3892 -9864 4349 -9622 4793 -9357 5222 -9093 5652 -8813 6052 -8506 6438 -8191 6825 -7876 7182 -7540 7540 -7182 7876 -6825 8191 -6438 8506 -6052 8813 -5652 9093 -5222 9357 -4793 9622 -4349 9864 -3892 10087 -3412 10309 -2926 10508 -2425 10688 -1910 10867 -1381 11023 -837 11153 -286 0 0z"/>
   </g>
   <g id="_811916912">
    <path fill="#00ADD9" d="M339958 299926c-2017,0 -4063,-508 -5937,-1595 -5695,-3284 -7641,-10559 -4357,-16253 17369,-30075 21976,-65106 12984,-98650 -8985,-33544 -30496,-61579 -60570,-78941 -40097,-23149 -89915,-23142 -130005,0 -5694,3284 -12969,1338 -16253,-4357 -3291,-5687 -1338,-12969 4350,-16253 23721,-13692 50312,-20538 76909,-20538 26590,0 53181,6846 76902,20538 35576,20546 61029,53710 71659,93392 10638,39688 5179,81130 -15366,116705 -2204,3820 -6202,5952 -10316,5952z"/>
    <path fill="#00ADD9" d="M268035 228976l-101919 0c-6567,0 -11897,-5330 -11897,-11897 0,-6574 5330,-11904 11897,-11904l101919 0c6574,0 11904,5330 11904,11904 0,6567 -5337,11897 -11904,11897z"/>
    <path fill="#00ADD9" d="M288029 188750l-94178 0c-6567,0 -11897,-5329 -11897,-11896 0,-6574 5330,-11904 11897,-11904l94178 0c6568,0 11904,5330 11904,11904 0,6567 -5336,11896 -11904,11896z"/>
    <path fill="#00ADD9" d="M193865 188758c-4113,0 -8112,-2139 -10315,-5952l-47744 -82690c-3284,-5694 -1338,-12970 4356,-16260 5688,-3277 12970,-1331 16254,4356l47743 82690c3291,5694 1338,12970 -4356,16260 -1874,1080 -3920,1596 -5938,1596z"/>
    <path fill="#00ADD9" d="M240300 269201l-94178 0c-6568,0 -11897,-5330 -11897,-11897 0,-6574 5329,-11903 11897,-11903l94178 0c6574,0 11904,5329 11904,11903 0,6567 -5330,11897 -11904,11897z"/>
    <path fill="#00ADD9" d="M288051 351891c-4113,0 -8112,-2132 -10316,-5952l-47744 -82690c-3283,-5687 -1330,-12970 4364,-16253 5702,-3291 12970,-1338 16253,4356l47737 82690c3284,5687 1338,12970 -4356,16253 -1875,1088 -3921,1596 -5938,1596z"/>
    <path fill="#00ADD9" d="M217079 370819c-26597,0 -53188,-6846 -76909,-20545 -35576,-20538 -61029,-53710 -71659,-93392 -10638,-39681 -5172,-81130 15366,-116705 3291,-5695 10566,-7640 16253,-4357 5695,3284 7648,10566 4357,16253 -17362,30075 -21976,65113 -12984,98650 8985,33544 30496,61579 60570,78941 40097,23157 89908,23157 130005,0 5701,-3284 12969,-1331 16260,4364 3284,5687 1331,12962 -4357,16253 -23721,13685 -50312,20538 -76902,20538z"/>
   </g>
  </g>
 </g>
</svg>
