<?xml version="1.0" encoding="UTF-8"?>
<!DOCTYPE svg PUBLIC "-//W3C//DTD SVG 1.1//EN" "http://www.w3.org/Graphics/SVG/1.1/DTD/svg11.dtd">
<!-- Creator: CorelDRAW X8 -->
<svg xmlns="http://www.w3.org/2000/svg" xml:space="preserve" width="67px" height="53px" version="1.1" shape-rendering="geometricPrecision" text-rendering="geometricPrecision" image-rendering="optimizeQuality" fill-rule="evenodd" clip-rule="evenodd"
viewBox="0 0 1116404 877169"
 >
 <g id="Слой_x0020_1">
  <metadata id="CorelCorpID_0Corel-Layer"/>
  <path fill="#00ADD9" d="M51104 747437c7236,1104 28056,10745 37618,13663 34346,10529 55067,11613 88506,16286 41483,5836 106467,1636 145268,-6053 14294,-2839 28332,-5994 42173,-10233 12736,-3904 26321,-10785 38584,-13821 0,24350 4929,32492 -17705,46096 -40083,24093 -97555,30698 -144105,31329 -5777,59 -9680,1242 -15852,1242 -47318,-39 -120307,-8241 -159306,-33280 -6250,-4022 -14057,-8498 -15713,-16207 -3372,-15536 -355,-26262 0,-27465l532 -1557zm193395 129732l-29357 0c-59227,-1499 -116266,-11850 -154338,-28924 -23422,-10528 -56368,-30501 -60035,-58458 -335,-2602 -572,-10962 -769,-23304l0 -287421c375,-11692 2386,-21885 11810,-32079 23423,-25295 40714,-34503 73482,-45011 33576,-10805 65359,-15635 100394,-18060 65438,-4574 147220,256 207670,28115 24369,11218 55146,30303 59128,59345 2386,17311 2149,214886 2051,234917 -119,19638 -789,38506 -1164,58064 -315,16049 237,35667 -10627,48620 -35705,42607 -116403,62126 -198245,64196zm-195524 -229003c23008,5797 27366,15635 80067,24764 80974,14057 201459,12855 274211,-24764 0,23403 5678,34799 -16719,47082 -42666,23403 -95564,30836 -143947,31487 -5757,79 -9701,1203 -15891,1222 -10016,0 -20328,-985 -30797,-1104 -21648,-315 -63762,-7374 -83774,-13071 -15477,-4377 -31151,-10667 -44854,-18948 -22535,-13604 -18296,-22397 -18296,-46668zm353194 -96569c1695,3766 1557,22161 828,26814 -2563,17015 -39669,30047 -53431,34286 -79318,24488 -233596,25809 -292863,-23482 -7787,-6467 -7728,-11218 -7728,-20741 19,-27859 -3155,-15300 53766,-256 29692,7847 70583,15398 101104,15102 37993,-394 72239,99 110035,-6289 15852,-2682 31585,-6152 46826,-11278 5461,-1833 39274,-14866 41463,-14156zm-353194 -68612c11514,-21116 52405,-32906 74290,-38486 35154,-8990 66285,-11277 102346,-11672 28194,-315 75158,4673 101972,10785 14255,3273 74172,21648 75217,38407 1143,17744 -59326,35627 -73108,39038 -34996,8655 -67074,11001 -103016,10942 -33301,-79 -70130,-2050 -102524,-10252 -21057,-5343 -63722,-19263 -75177,-38762zm667606 -216167c1696,3706 1597,22259 966,26932 -2366,16640 -40201,30244 -53647,34089 -32532,9267 -65950,16049 -99921,16266 -53648,355 -151617,-1538 -192942,-40773 -6999,-6684 -7748,-11100 -7729,-20820 119,-34543 1696,-2366 100986,10745 50749,6704 113407,7374 162678,-1203 15891,-2740 31703,-6388 47180,-10942 6211,-1814 39649,-15241 42429,-14294zm-183793 -266818l4061 0c68060,217 166641,9069 215911,60627 17212,18020 16167,31427 16187,54416l0 208459c-16187,8083 -32551,16364 -47614,26439 -16266,10863 -25651,20800 -44460,28450 -54554,22161 -140260,17646 -200256,15320 -30008,-4023 -27583,-9228 -51716,-21215 -45189,-22437 -66463,-22851 -111632,-34168l0 -210765c20,-21826 -2267,-40556 9897,-59602 33991,-53273 151302,-67744 209622,-67961zm-169401 166305c23068,5935 27406,14866 79653,25178 81171,16029 201854,12460 274645,-25178 0,23482 5679,33991 -16423,47398 -29397,17823 -65162,24487 -98975,28588 -18868,2287 -42054,3766 -61199,3746 -38840,-20 -77346,-3864 -115063,-13643 -13348,-3470 -57275,-20269 -60844,-34839 -2090,-8497 -1794,-22200 -1794,-31250zm1144 -66068c-2386,-16661 61475,-35588 74034,-38743 62933,-15950 140970,-14491 204160,-236 13880,3154 74901,21451 74389,38998 -513,15911 -60194,35253 -73699,38506 -28391,6822 -73285,11810 -102248,11613 -33202,-237 -69144,-3648 -101557,-11298 -15083,-3529 -72556,-21293 -75079,-38840zm696037 503509c-8872,100907 -93494,173403 -194854,166463 -100730,-6901 -175119,-95446 -168139,-195722 6901,-99645 97319,-173698 196313,-166325 99468,7473 175434,96077 166680,195584zm55836 -29357l0 26873c-6763,117941 -101696,218592 -215477,223304 -42331,1775 -65083,1420 -104969,-13150 -27031,-9898 -52346,-25533 -73758,-44736 -48718,-43612 -71944,-92962 -79278,-157630 -14452,-127228 88939,-246195 214886,-255915 130579,-10055 246135,81920 258044,213604 217,2563 414,5106 552,7650zm-242646 -126715c-23462,5067 -15004,30658 -20032,66561 -1932,13841 -4613,69894 -3923,83853 710,14274 29574,36317 41029,45563 10489,8439 39294,34661 50592,37146 13604,2996 22160,-7374 22476,-20111 236,-10745 -9562,-19617 -15852,-27543 -12894,-16305 -26636,-31960 -39866,-47891 -4081,-4948 -6782,-69262 -7058,-79495 -158,-4909 -907,-15359 -1499,-20150 -926,-7354 -216,-13781 -1222,-20445 -1814,-12343 -12559,-20071 -24645,-17488zm-374783 -4555c-1104,1242 -395,690 -1163,2287 906,9720 7570,30856 7985,50138 15930,0 31900,-20 47850,0 8459,0 15142,-1183 22753,-1183 8616,0 14964,-867 22831,-1104 13506,-394 8853,-2997 20840,-26991 3293,-6526 15122,-27011 15595,-32236 -40457,10272 -101025,7098 -136691,9089zm6822 197082l0 50118c17823,0 90063,1361 100591,-4199 2524,-2898 -8636,-41621 -10903,-45643 -3845,-6841 -6092,-1794 -13308,-1360 -6171,355 -13210,-513 -19362,19 -19933,1657 -36632,1065 -57018,1065zm0 -97949l0 50098 21332 1479c7492,1005 14078,867 21984,848l43257 -2327 1932 -39077c710,-4614 1498,-8517 1498,-13308 -8517,0 -14077,1182 -21608,1182l-68395 1105zm-7985 -96846c768,-1597 59,-1045 1163,-2287l-2642 808 1479 1479z"/>
 </g>
</svg>
