<?xml version="1.0" encoding="UTF-8"?>
<!DOCTYPE svg PUBLIC "-//W3C//DTD SVG 1.1//EN" "http://www.w3.org/Graphics/SVG/1.1/DTD/svg11.dtd">
<!-- Creator: CorelDRAW X8 -->
<svg xmlns="http://www.w3.org/2000/svg" xml:space="preserve" width="62px" height="71px" version="1.1" shape-rendering="geometricPrecision" text-rendering="geometricPrecision" image-rendering="optimizeQuality" fill-rule="evenodd" clip-rule="evenodd"
viewBox="0 0 1027984 1173402"
 >
 <g id="Слой_x0020_1">
  <metadata id="CorelCorpID_0Corel-Layer"/>
  <g id="_811907792">
   <g>
    <path fill="#00ADD9" fill-rule="nonzero" d="M1027984 659420l-72009 0 0 0 -583 -22797 -1712 -22447 -2801 -22116 -3890 -21766 -4941 -21358 -5952 -20988 -6944 -20501 -7897 -20055 -8851 -19568 -9764 -19043 -10640 -18537 -11496 -17934 -12332 -17312 -13110 -16708 -13908 -16048 -14627 -15366 -15367 -14628 -16047 -13907 -16709 -13110 -17312 -12333 -17934 -11495 -18537 -10640 -19043 -9765 -19568 -8850 -20054 -7897 -20502 -6945 -20988 -5952 -21358 -4940 -21766 -3891 -22116 -2801 -22447 -1711 -22797 -584 0 -72009 26415 662 26104 1984 25695 3267 25345 4513 24859 5758 24412 6924 23886 8073 23361 9220 22797 10289 22155 11360 21533 12391 20851 13363 20152 14316 19393 15250 18654 16164 17856 17000 17001 17857 16164 18653 15250 19393 14316 20152 13363 20852 12390 21532 11360 22156 10290 22797 9220 23361 8072 23886 6925 24411 5757 24859 4513 25345 3268 25695 1984 26104 661 26415 0 0zm-514002 513982l0 -72008 0 0 22797 -584 22447 -1712 22116 -2801 21766 -3890 21358 -4941 20988 -5952 20502 -6944 20054 -7897 19568 -8850 19043 -9765 18537 -10640 17934 -11496 17312 -12332 16709 -13110 16047 -13908 15367 -14627 14627 -15367 13908 -16028 13110 -16708 12332 -17331 11496 -17935 10640 -18517 9764 -19063 8851 -19548 7897 -20055 6944 -20521 5952 -20968 4941 -21377 3890 -21747 2801 -22136 1712 -22446 583 -22778 72009 0 -661 26396 -1984 26103 -3268 25715 -4513 25326 -5757 24878 -6925 24392 -8072 23906 -9220 23361 -10290 22777 -11360 22175 -12390 21513 -13363 20852 -14316 20132 -15250 19432 -16164 18634 -17001 17857 -17856 17000 -18654 16164 -19393 15250 -20152 14316 -20851 13363 -21533 12391 -22155 11359 -22797 10290 -23361 9220 -23886 8072 -24412 6925 -24859 5758 -25345 4512 -25695 3268 -26104 1984 -26415 661 0 0zm-513982 -513982l72009 0 0 0 583 22778 1712 22446 2801 22136 3890 21747 4941 21377 5952 20968 6944 20521 7898 20055 8850 19548 9764 19063 10640 18517 11496 17935 12332 17331 13110 16708 13908 16028 14628 15367 15366 14627 16028 13908 16709 13110 17331 12332 17934 11496 18518 10640 19062 9765 19549 8850 20054 7897 20521 6944 20969 5952 21377 4941 21746 3890 22136 2801 22447 1712 22777 584 0 72008 -26395 -661 -26104 -1984 -25714 -3268 -25326 -4512 -24878 -5758 -24392 -6925 -23906 -8072 -23361 -9220 -22778 -10290 -22174 -11359 -21513 -12391 -20852 -13363 -20132 -14316 -19432 -15250 -18635 -16164 -17856 -17000 -17001 -17857 -16164 -18634 -15249 -19432 -14317 -20132 -13363 -20852 -12390 -21513 -11360 -22175 -10290 -22777 -9219 -23361 -8073 -23906 -6924 -24392 -5758 -24878 -4513 -25326 -3268 -25715 -1984 -26103 -661 -26396 0 0zm513982 -514002l0 72009 0 0 -22777 584 -22447 1711 -22136 2801 -21746 3891 -21377 4940 -20969 5952 -20521 6945 -20054 7897 -19549 8850 -19062 9765 -18518 10640 -17934 11495 -17331 12333 -16709 13110 -16028 13907 -15366 14628 -14628 15366 -13908 16048 -13110 16708 -12332 17312 -11496 17934 -10640 18537 -9764 19043 -8850 19568 -7898 20055 -6944 20501 -5952 20988 -4941 21358 -3890 21766 -2801 22116 -1712 22447 -583 22797 -72009 0 661 -26415 1984 -26104 3268 -25695 4513 -25345 5758 -24859 6924 -24411 8073 -23886 9219 -23361 10290 -22797 11360 -22156 12390 -21532 13363 -20852 14317 -20152 15249 -19393 16164 -18653 17001 -17857 17856 -17000 18635 -16164 19432 -15250 20132 -14316 20852 -13363 21513 -12391 22174 -11360 22778 -10289 23361 -9220 23906 -8073 24392 -6924 24878 -5758 25326 -4513 25714 -3267 26104 -1984 26395 -662 0 0z"/>
   </g>
   <g>
    <path fill="#00ADD9" fill-rule="nonzero" d="M648547 659420l-72009 0 0 0 -97 -3268 -234 -3229 -389 -3073 -564 -3093 -681 -3015 -856 -2917 -972 -2938 -1089 -2781 -1284 -2782 -1401 -2762 -1459 -2567 -1633 -2510 -1732 -2450 -1867 -2354 -1984 -2315 -2081 -2178 -2179 -2082 -2315 -1984 -2353 -1867 -2451 -1731 -2509 -1634 -2568 -1459 -2762 -1400 -2781 -1284 -2782 -1089 -2937 -973 -2918 -856 -3015 -681 -3093 -564 -3073 -389 -3229 -233 -3268 -97 0 -72009 6886 175 6769 505 6808 856 6594 1187 6555 1498 6419 1828 6205 2101 6205 2451 5933 2684 5719 2918 5718 3287 5466 3501 5291 3754 5077 4007 4843 4202 4668 4454 4455 4668 4201 4844 4007 5077 3754 5290 3502 5466 3287 5719 2918 5719 2684 5932 2451 6205 2100 6205 1829 6419 1498 6555 1186 6594 856 6808 506 6769 175 6886 0 0zm-134565 134565l0 -72009 0 0 3268 -98 3229 -233 3073 -389 3015 -545 3093 -719 2918 -837 2937 -992 2840 -1109 2665 -1206 2762 -1419 2665 -1537 2470 -1576 2451 -1750 2412 -1887 2256 -1945 2179 -2082 2081 -2178 1945 -2276 1906 -2412 1732 -2431 1633 -2529 1479 -2587 1361 -2684 1304 -2840 1089 -2782 972 -2898 856 -2957 681 -3015 564 -3073 389 -3073 234 -3229 97 -3268 72009 0 -175 6886 -506 6769 -856 6808 -1186 6613 -1498 6517 -1829 6419 -2100 6243 -2451 6166 -2665 5914 -2957 5796 -3267 5661 -3502 5485 -3754 5271 -3968 5057 -4240 4883 -4455 4668 -4668 4454 -4902 4241 -5018 3948 -5291 3774 -5505 3521 -5621 3209 -5719 2937 -6049 2762 -6147 2393 -6205 2120 -6419 1809 -6477 1498 -6672 1206 -6808 856 -6769 505 -6886 176 0 0zm-134564 -134565l72009 0 0 0 97 3268 234 3229 389 3073 544 3015 720 3073 836 2957 992 2898 1109 2840 1225 2723 1382 2685 1556 2684 1575 2490 1751 2431 1906 2470 1926 2218 2081 2178 2179 2082 2236 1925 2451 1907 2432 1750 2490 1576 2684 1556 2684 1381 2723 1225 2840 1109 2898 992 2957 837 3073 719 3015 545 3074 389 3229 233 3267 98 0 72009 -6885 -176 -6769 -505 -6808 -856 -6672 -1206 -6458 -1498 -6419 -1809 -6244 -2120 -6108 -2393 -6030 -2742 -5796 -2976 -5563 -3190 -5524 -3521 -5272 -3774 -5018 -3929 -4921 -4260 -4669 -4454 -4454 -4668 -4260 -4941 -3929 -4999 -3774 -5271 -3520 -5524 -3190 -5563 -2976 -5797 -2743 -6030 -2392 -6108 -2121 -6243 -1809 -6419 -1497 -6458 -1206 -6672 -856 -6808 -506 -6769 -175 -6886 0 0zm134564 -134564l0 72009 0 0 -3267 97 -3229 233 -3074 389 -3073 564 -3015 681 -2957 856 -2898 973 -2781 1089 -2840 1303 -2685 1362 -2587 1478 -2528 1634 -2432 1731 -2412 1906 -2275 1945 -2179 2082 -2081 2178 -1945 2257 -1887 2412 -1751 2450 -1575 2471 -1537 2665 -1420 2762 -1206 2665 -1109 2839 -992 2938 -836 2917 -720 3093 -544 3015 -389 3073 -234 3229 -97 3268 -72009 0 175 -6886 506 -6769 856 -6808 1206 -6672 1497 -6477 1809 -6419 2121 -6205 2392 -6146 2762 -6050 2937 -5718 3210 -5622 3520 -5505 3774 -5290 3949 -5019 4240 -4902 4454 -4668 4669 -4454 4882 -4241 5057 -3968 5272 -3754 5485 -3501 5660 -3268 5797 -2956 5913 -2665 6166 -2451 6244 -2101 6419 -1828 6516 -1498 6614 -1187 6808 -856 6769 -505 6885 -175 0 0z"/>
   </g>
   <g>
    <path fill="#00ADD9" fill-rule="nonzero" d="M550006 560860c0,19879 -16144,36024 -36024,36024 -19879,0 -36024,-16145 -36024,-36024l72048 0zm0 -226783l0 226783 -72048 0 0 -226783 72048 0zm-72048 0c0,-19879 16145,-36024 36024,-36024 19880,0 36024,16145 36024,36024l-72048 0z"/>
   </g>
   <g>
    <path fill="#00ADD9" fill-rule="nonzero" d="M826507 295972l50924 50923c-14044,14044 -36880,14044 -50924,0 -14044,-14044 -14044,-36879 0,-50923zm92491 -92491l50924 50923 -92491 92491 -50924 -50923 92491 -92491zm50924 50923l-50924 -50923c14044,-14044 36880,-14044 50924,0 14044,14043 14044,36879 0,50923z"/>
   </g>
   <g>
    <path fill="#00ADD9" fill-rule="nonzero" d="M447945 0l0 72048c-19879,0 -36024,-16145 -36024,-36024 0,-19879 16145,-36024 36024,-36024zm130810 0l0 72048 -130810 0 0 -72048 130810 0zm0 72048l0 -72048c19880,0 36024,16145 36024,36024 0,19879 -16144,36024 -36024,36024z"/>
   </g>
   <g>
    <path fill="#00ADD9" fill-rule="nonzero" d="M549364 50612l-72047 0c0,-19879 16144,-36023 36023,-36023 19880,0 36024,16144 36024,36023zm0 130811l-72047 0 0 -130811 72047 0 0 130811zm-72047 0l72047 0c0,19879 -16144,36024 -36024,36024 -19879,0 -36023,-16145 -36023,-36024z"/>
   </g>
  </g>
 </g>
</svg>
