<?xml version="1.0" encoding="UTF-8"?>
<!DOCTYPE svg PUBLIC "-//W3C//DTD SVG 1.1//EN" "http://www.w3.org/Graphics/SVG/1.1/DTD/svg11.dtd">
<!-- Creator: CorelDRAW X8 -->
<svg xmlns="http://www.w3.org/2000/svg" xml:space="preserve" width="72px" height="72px" version="1.1" shape-rendering="geometricPrecision" text-rendering="geometricPrecision" image-rendering="optimizeQuality" fill-rule="evenodd" clip-rule="evenodd"
viewBox="0 0 7200000 7193740"
 >
 <g id="Слой_x0020_1">
  <metadata id="CorelCorpID_0Corel-Layer"/>
  <path fill="#00ADD9" fill-rule="nonzero" d="M4227638 2410866c174449,55040 330590,151299 456732,277441l21732 22205 1109055 -723425c-19015,-63780 -29291,-131221 -29291,-201024 0,-194409 79016,-370630 206339,-498071 128267,-127323 304134,-206220 497952,-206220 194292,0 370630,78897 497953,206220 127323,127441 206221,303662 206221,498071 0,193819 -78898,369567 -206221,497126 -127323,128150 -303661,207047 -497953,207047 -172440,0 -330826,-62480 -453425,-166063l-1110354 724252c55984,133583 86929,280040 86929,433937 0,39095 -2008,77599 -5787,115630l864212 205866c33307,-63425 75945,-121181 126142,-171496l827 -827c127441,-127322 303307,-206220 497126,-206220 194291,0 370630,78898 497953,206220 127322,128386 206220,304134 206220,497953 0,194410 -78898,370630 -206220,497953 -127323,127323 -303662,206339 -497953,206339 -193819,0 -369685,-79016 -497126,-206339 -112087,-111260 -186614,-260197 -203504,-425906l-901417 -214606c-54095,107480 -125079,205158 -209410,289488 -25276,25276 -51850,49370 -79370,72166l396614 641456c97205,-27519 199725,-42165 305788,-42165 310039,0 590787,125787 793937,328937 203149,203150 328937,484016 328937,793937 0,310158 -125788,590906 -328937,794055 -203150,203150 -483898,328937 -793937,328937 -309922,0 -590906,-125787 -794056,-328937 -203149,-203149 -328937,-483897 -328937,-794055 0,-309921 125788,-590787 328937,-793937 38859,-38858 80552,-74882 124843,-107717l-385630 -623503c-113740,38622 -235512,59763 -362126,59763 -136653,0 -267520,-24567 -388701,-69212l-797008 1063937c95552,120708 152835,272598 152835,437716 0,194292 -79016,370630 -206339,497953 -127322,127323 -303661,206339 -497952,206339 -193819,0 -369685,-79016 -497126,-206339 -128150,-127323 -207166,-303661 -207166,-497953 0,-193819 79016,-369685 206339,-497126l827 -826c127441,-127323 303307,-206339 497126,-206339 77126,0 151299,12638 220866,35433l778819 -1039724c-19488,-16890 -38386,-34607 -56575,-52796 -189921,-189921 -312165,-447756 -327284,-733582l-620433 -138780c-56338,126142 -135236,240118 -231614,336496 -203149,203150 -483897,328937 -794055,328937 -309921,0 -590905,-125787 -794055,-328937 -203031,-203149 -328937,-484134 -328937,-794055 0,-310039 125906,-590905 328937,-793937 203150,-203150 484134,-328937 794055,-328937 310158,0 590906,125787 794055,328937 203150,203032 328937,483898 328937,793937 0,22087 -590,43937 -1890,65669l576142 128741c55158,-172678 150945,-327402 276142,-452599 189094,-189094 445984,-311338 730748,-327165l138898 -1016103c-76772,-35078 -146339,-83858 -205394,-142795l-827 -827c-127323,-127559 -206220,-303307 -206220,-497126 0,-194409 78897,-370630 206220,-497952 128386,-127441 304134,-206339 497953,-206339 194409,0 370630,78898 497953,206339 127322,127322 206338,303543 206338,497952 0,193819 -79016,369567 -206338,497126 -103229,103937 -238701,175630 -389882,198898l-138189 1010551zm-1862244 3414803c-54449,-53622 -129567,-87283 -212126,-87283 -82796,0 -157796,33307 -211772,86811l-827 827c-53504,53976 -86811,128976 -86811,211771 0,82559 33662,157677 87638,211772 53622,54213 128740,87638 211772,87638 82559,0 157677,-33662 211771,-87638 53977,-54095 87638,-129213 87638,-211772 0,-83031 -33425,-158149 -87283,-212126zm4336535 -4251378c-54094,-54094 -129212,-87637 -211772,-87637 -83031,0 -158149,33425 -212126,87165 -53622,54567 -87283,129567 -87283,212244 0,82795 33307,157795 86811,211654l827 826c53976,53622 128976,86811 211771,86811 82560,0 157678,-33543 211772,-87637 54213,-53623 87638,-128741 87638,-211654 0,-82677 -33661,-157677 -87638,-211772zm6024 2343071c-54449,-53622 -129567,-87283 -212126,-87283 -82796,0 -157796,33307 -211772,86929l-827 709c-53504,53976 -86811,128976 -86811,211771 0,82559 33662,157677 87638,211772 53622,54212 128740,87638 211772,87638 82559,0 157677,-33544 211771,-87638 53977,-54095 87638,-129213 87638,-211772 0,-82913 -33425,-158031 -87283,-212126zm-2238425 -3424842c-54095,-54095 -129095,-87638 -211772,-87638 -82913,0 -158032,33425 -212126,87283 -53622,54449 -87284,129449 -87284,212126 0,82796 33308,157796 86930,211654l826 827c53859,53622 128859,86811 211654,86811 82677,0 157677,-33544 211772,-87638 54212,-53622 87637,-128740 87637,-211654 0,-82677 -33543,-157677 -87637,-211771zm-2838780 1946220c-129803,-129803 -309449,-210354 -507756,-210354 -198307,0 -377953,80551 -507756,210354 -129921,129803 -210354,309567 -210354,507756 0,198307 80433,377953 210354,507874 129803,129803 309449,210236 507756,210236 198307,0 377953,-80433 507756,-210236 129921,-129921 210354,-309567 210354,-507874 0,-198189 -80433,-377953 -210354,-507756zm4184409 3124252c-129921,-129803 -309566,-210354 -507755,-210354 -198308,0 -377953,80551 -507874,210354 -129804,129921 -210237,309567 -210237,507756 0,198307 80433,377953 210237,507874 129921,129803 309566,210236 507874,210236 198189,0 377834,-80433 507755,-210236 129804,-129921 210355,-309567 210355,-507874 0,-198189 -80551,-377835 -210355,-507756zm-1416968 -2588386c-129921,-129921 -309567,-210354 -507756,-210354 -198307,0 -377953,80433 -507874,210354 -129803,129803 -210236,309449 -210236,507756 0,198307 80433,377953 210236,507756 129921,129921 309567,210354 507874,210354 198189,0 377835,-80433 507756,-210354 129803,-129803 210354,-309449 210354,-507756 0,-198307 -80551,-377953 -210354,-507756z"/>
 </g>
</svg>
