<?xml version="1.0" encoding="UTF-8"?>
<!DOCTYPE svg PUBLIC "-//W3C//DTD SVG 1.1//EN" "http://www.w3.org/Graphics/SVG/1.1/DTD/svg11.dtd">
<svg xmlns="http://www.w3.org/2000/svg" xml:space="preserve" width="70px" height="71px" version="1.1" shape-rendering="geometricPrecision" text-rendering="geometricPrecision" image-rendering="optimizeQuality" fill-rule="evenodd" clip-rule="evenodd"
viewBox="0 0 646198 652572"
 >
 <g>
  <g>
   <g>
    <path fill="#00ADD9" fill-rule="nonzero" d="M362522 124634l-46973 -27120 15099 -26152 46973 27120 0 0 -15099 26152zm15099 -26152c7213,4166 9693,13413 5527,20625 -4167,7213 -13414,9693 -20626,5527l15099 -26152zm31874 53271l-46973 -27119 15099 -26152 46973 27120 7550 13076 -22649 13075zm15099 -26151c7213,4166 9693,13413 5526,20625 -4166,7213 -13413,9693 -20625,5526l15099 -26151zm-22649 67315l0 -54239 30199 0 0 54239 0 0 -30199 0zm30199 0c0,8344 -6767,15110 -15099,15110 -8333,0 -15100,-6766 -15100,-15110l30199 0zm-30199 54240l0 -54240 30199 0 0 54240 -7550 13076 -22649 -13076zm30199 0c0,8344 -6767,15110 -15099,15110 -8333,0 -15100,-6766 -15100,-15110l30199 0zm-69622 14044l46973 -27120 15099 26152 -46973 27119 -15099 -26151zm15099 26151c-7212,4167 -16459,1687 -20625,-5526 -4167,-7212 -1686,-16459 5526,-20625l15099 26151zm-62072 980l46973 -27131 15099 26151 -46973 27131 -15099 0 0 -26151zm15099 26151c-7212,4167 -16459,1686 -20625,-5526 -4166,-7212 -1686,-16459 5526,-20625l15099 26151zm-46972 -53282l46972 27131 -15099 26151 -46973 -27131 15100 -26162 0 11zm-15100 26151c-7212,-4166 -9692,-13413 -5526,-20625 4167,-7212 13413,-9693 20626,-5526l-15100 26151zm-31884 -53282l46984 27120 -15100 26173 -46983 -27119 -7550 -13087 22649 -13087zm-15099 26174c-7224,-4167 -9704,-13413 -5537,-20637 4166,-7223 13413,-9703 20636,-5537l-15099 26174zm22648 -67327l0 54240 -30198 0 0 -54240 0 0 30198 0zm-30198 0c0,-8343 6766,-15110 15099,-15110 8333,0 15099,6767 15099,15110l-30198 0zm30198 -54239l0 54239 -30198 0 0 -54239 7550 -13087 22648 13087zm-30198 0c0,-8344 6766,-15110 15099,-15110 8333,0 15099,6766 15099,15110l-30198 0zm69633 -14033l-46984 27119 -15099 -26173 46983 -27120 15100 26163 0 11zm-15100 -26174c7224,-4166 16470,-1686 20637,5537 4166,7223 1686,16470 -5537,20637l-15100 -26174zm62072 -957l-46972 27120 -15100 -26152 46973 -27120 15099 0 0 26152zm-15099 -26152c7213,-4166 16459,-1686 20626,5526 4166,7213 1686,16459 -5527,20626l-15099 -26152z"/>
   </g>
   <g>
    <path fill="#00ADD9" fill-rule="nonzero" d="M208528 391350l-46973 -27120 15099 -26152 46973 27120 0 0 -15099 26152zm15099 -26152c7212,4167 9693,13413 5526,20626 -4166,7212 -13413,9692 -20625,5526l15099 -26152zm31874 53272l-46973 -27120 15099 -26152 46973 27120 7549 13076 -22648 13076zm15099 -26152c7212,4166 9692,13413 5526,20625 -4166,7213 -13413,9693 -20625,5527l15099 -26152zm-22649 67326l0 -54250 30198 0 0 54250 0 0 -30198 0zm30198 0c0,8344 -6766,15110 -15099,15110 -8333,0 -15099,-6766 -15099,-15110l30198 0zm-30198 54240l0 -54240 30198 0 0 54240 -7549 13076 -22649 -13076zm30198 0c0,8344 -6766,15110 -15099,15110 -8333,0 -15099,-6766 -15099,-15110l30198 0zm-69621 14044l46973 -27120 15099 26152 -46973 27120 0 0 -15099 -26152zm15099 26152c-7212,4166 -16459,1686 -20625,-5527 -4167,-7212 -1687,-16459 5526,-20625l15099 26152zm-62072 968l46973 -27120 15099 26152 -46973 27119 -15099 0 0 -26151zm15099 26151c-7212,4167 -16459,1687 -20625,-5526 -4167,-7212 -1687,-16459 5526,-20625l15099 26151zm-46973 -53271l46973 27120 -15099 26151 -46973 -27119 0 0 15099 -26152zm-15099 26152c-7212,-4167 -9693,-13413 -5526,-20626 4166,-7212 13413,-9693 20625,-5526l-15099 26152zm-31874 -53272l46973 27120 -15099 26152 -46973 -27120 -7549 -13076 22648 -13076zm-15099 26152c-7212,-4167 -9692,-13413 -5526,-20626 4166,-7212 13413,-9692 20625,-5526l-15099 26152zm22649 -67316l0 54240 -30198 0 0 -54240 0 0 30198 0zm-30198 0c0,-8343 6766,-15110 15099,-15110 8333,0 15099,6767 15099,15110l-30198 0zm30198 -54250l0 54250 -30198 0 0 -54250 7549 -13076 22649 13076zm-30198 0c0,-8344 6766,-15110 15099,-15110 8333,0 15099,6766 15099,15110l-30198 0zm69621 -14044l-46973 27120 -15099 -26152 46973 -27120 0 0 15099 26152zm-15099 -26152c7212,-4166 16459,-1686 20625,5526 4167,7213 1687,16459 -5526,20626l-15099 -26152zm62072 -968l-46973 27120 -15099 -26152 46973 -27120 15099 0 0 26152zm-15099 -26152c7212,-4166 16459,-1686 20625,5527 4167,7212 1686,16459 -5526,20625l-15099 -26152z"/>
   </g>
   <g>
    <path fill="#00ADD9" fill-rule="nonzero" d="M516516 391350l-46972 -27120 15099 -26152 46973 27120 0 0 -15100 26152zm15100 -26152c7212,4167 9692,13413 5526,20626 -4167,7212 -13413,9692 -20626,5526l15100 -26152zm31873 53272l-46973 -27120 15100 -26152 46973 27120 7549 13076 -22649 13076zm15100 -26152c7212,4166 9692,13413 5526,20625 -4167,7213 -13413,9693 -20626,5527l15100 -26152zm-22649 67326l0 -54250 30198 0 0 54250 0 0 -30198 0zm30198 0c0,8344 -6766,15110 -15099,15110 -8333,0 -15099,-6766 -15099,-15110l30198 0zm-30198 54240l0 -54240 30198 0 0 54240 -7549 13076 -22649 -13076zm30198 0c0,8344 -6766,15110 -15099,15110 -8333,0 -15099,-6766 -15099,-15110l30198 0zm-69622 14044l46973 -27120 15100 26152 -46973 27120 0 0 -15100 -26152zm15100 26152c-7213,4166 -16459,1686 -20626,-5527 -4166,-7212 -1686,-16459 5526,-20625l15100 26152zm-62072 968l46972 -27120 15100 26152 -46973 27119 -15099 0 0 -26151zm15099 26151c-7213,4167 -16459,1687 -20626,-5526 -4166,-7212 -1686,-16459 5527,-20625l15099 26151zm-46973 -53271l46973 27120 -15099 26151 -46973 -27119 15099 -26163 0 11zm-15099 26152c-7213,-4167 -9693,-13413 -5526,-20626 4166,-7212 13413,-9693 20625,-5526l-15099 26152zm-31885 -53283l46984 27120 -15099 26173 -46984 -27119 -7550 -13087 22649 -13087zm-15099 26174c-7223,-4167 -9703,-13413 -5537,-20637 4166,-7223 13413,-9703 20636,-5537l-15099 26174zm22649 -67327l0 54240 -30199 0 0 -54240 0 0 30199 0zm-30199 0c0,-8343 6767,-15110 15100,-15110 8332,0 15099,6767 15099,15110l-30199 0zm30199 -54250l0 54250 -30199 0 0 -54250 7550 -13087 22649 13087zm-30199 0c0,-8344 6767,-15110 15100,-15110 8332,0 15099,6766 15099,15110l-30199 0zm69633 -14033l-46984 27120 -15099 -26174 46984 -27120 15099 26163 0 11zm-15099 -26174c7223,-4166 16470,-1686 20636,5537 4166,7224 1686,16470 -5537,20637l-15099 -26174zm62072 -957l-46973 27120 -15099 -26152 46973 -27120 15099 0 0 26152zm-15099 -26152c7212,-4166 16459,-1686 20625,5527 4166,7212 1686,16459 -5526,20625l-15099 -26152z"/>
   </g>
   <g>
    <path fill="#00ADD9" fill-rule="nonzero" d="M392546 72646l-76997 -44460 15099 -26173 76998 44459 -15100 26174zm15100 -26174c7212,4167 9692,13413 5526,20637 -4167,7223 -13413,9703 -20626,5537l15100 -26174zm61898 70623l-76998 -44449 15100 -26174 76997 44450 7560 13086 -22659 13087zm15099 -26173c7223,4166 9703,13413 5537,20636 -4166,7223 -13413,9703 -20636,5537l15099 -26173zm-22660 101995l0 -88909 30220 0 0 88909 0 0 -30220 0zm30220 0c0,8344 -6766,15110 -15110,15110 -8343,0 -15110,-6766 -15110,-15110l30220 0zm-30220 88909l0 -88909 30220 0 0 88909 -7560 13087 -22660 -13087zm30220 0c0,8344 -6766,15110 -15110,15110 -8343,0 -15110,-6766 -15110,-15110l30220 0zm-99657 31374l76998 -44460 15099 26173 -76997 44460 0 0 -15100 -26173zm15100 26173c-7213,4166 -16459,1686 -20626,-5537 -4166,-7223 -1686,-16470 5526,-20636l15100 26173zm-92097 18276l76997 -44449 15100 26173 -76998 44449 -15099 0 0 -26173zm15099 26173c-7223,4166 -16469,1686 -20636,-5537 -4166,-7223 -1686,-16470 5537,-20636l15099 26173zm-76997 -70622l76997 44449 -15099 26173 -76997 -44449 0 0 15099 -26173zm-15099 26173c-7223,-4167 -9703,-13413 -5537,-20636 4166,-7224 13413,-9704 20636,-5537l-15099 26173zm-61898 -70633l76997 44460 -15099 26173 -76997 -44460 -7561 -13087 22660 -13086zm-15099 26173c-7213,-4166 -9693,-13413 -5526,-20636 4166,-7224 13413,-9704 20625,-5537l-15099 26173zm22660 -101996l0 88909 -30221 0 0 -88909 0 0 30221 0zm-30221 0c0,-8343 6767,-15110 15110,-15110 8344,0 15111,6767 15111,15110l-30221 0zm30221 -88909l0 88909 -30221 0 0 -88909 7561 -13086 22660 13086zm-30221 0c0,-8344 6767,-15110 15110,-15110 8344,0 15111,6766 15111,15110l-30221 0zm99657 -31362l-76997 44449 -15099 -26173 76997 -44450 15099 26174zm-15099 -26174c7223,-4166 16470,-1686 20636,5538 4167,7223 1686,16469 -5537,20636l-15099 -26174zm92096 -18286l-76997 44460 -15099 -26174 76997 -44459 15099 0 0 26173zm-15099 -26173c7213,-4167 16459,-1687 20626,5537 4166,7223 1686,16469 -5527,20636l-15099 -26173z"/>
   </g>
   <g>
    <path fill="#00ADD9" fill-rule="nonzero" d="M546541 339373l-76997 -44460 15099 -26173 76997 44460 -15099 26173zm15099 -26173c7212,4166 9693,13413 5526,20636 -4166,7223 -13413,9703 -20625,5537l15099 -26173zm61898 70622l-76997 -44449 15099 -26173 76997 44449 7561 13086 -22660 13087zm15099 -26173c7223,4166 9704,13413 5537,20636 -4166,7223 -13413,9703 -20636,5537l15099 -26173zm-22659 101995l0 -88909 30220 0 0 88909 0 0 -30220 0zm30220 0c0,8344 -6767,15110 -15110,15110 -8344,0 -15110,-6766 -15110,-15110l30220 0zm-30220 88909l0 -88909 30220 0 0 88909 -7561 13087 -22659 -13087zm30220 0c0,8344 -6767,15110 -15110,15110 -8344,0 -15110,-6766 -15110,-15110l30220 0zm-99657 31374l76997 -44460 15099 26173 -76997 44460 0 0 -15099 -26173zm15099 26173c-7212,4166 -16459,1686 -20625,-5537 -4167,-7223 -1687,-16470 5526,-20636l15099 26173zm-92096 18276l76997 -44449 15099 26173 -76997 44449 -15099 0 0 -26173zm15099 26173c-7223,4166 -16470,1686 -20636,-5537 -4167,-7223 -1687,-16470 5537,-20636l15099 26173zm-76997 -70622l76997 44449 -15099 26173 -76998 -44449 0 0 15100 -26173zm-15100 26173c-7223,-4166 -9703,-13413 -5537,-20636 4167,-7224 13413,-9704 20637,-5537l-15100 26173zm-61898 -70633l76998 44460 -15100 26173 -76997 -44460 -7560 -13087 22659 -13086zm-15099 26173c-7212,-4166 -9692,-13413 -5526,-20636 4166,-7224 13413,-9704 20625,-5537l-15099 26173zm22660 -101996l0 88909 -30220 0 0 -88909 0 0 30220 0zm-30220 0c0,-8343 6766,-15110 15110,-15110 8344,0 15110,6767 15110,15110l-30220 0zm30220 -88909l0 88909 -30220 0 0 -88909 7560 -13086 22660 13086zm-30220 0c0,-8343 6766,-15110 15110,-15110 8344,0 15110,6767 15110,15110l-30220 0zm99657 -31362l-76998 44449 -15099 -26173 76997 -44449 15100 26173zm-15100 -26173c7224,-4167 16470,-1687 20637,5537 4166,7223 1686,16469 -5537,20636l-15100 -26173zm92097 -18287l-76997 44460 -15100 -26173 76998 -44460 15099 0 0 26173zm-15099 -26173c7212,-4167 16459,-1687 20625,5537 4166,7223 1686,16470 -5526,20636l-15099 -26173z"/>
   </g>
   <g>
    <path fill="#00ADD9" fill-rule="nonzero" d="M238552 339373l-76997 -44460 15099 -26173 76997 44460 -15099 26173zm15099 -26173c7213,4166 9693,13413 5526,20636 -4166,7223 -13413,9703 -20625,5537l15099 -26173zm61898 70622l-76997 -44449 15099 -26173 76997 44449 7561 13086 -22660 13087zm15099 -26173c7224,4166 9704,13413 5538,20636 -4167,7223 -13414,9703 -20637,5537l15099 -26173zm-22659 101995l0 -88909 30220 0 0 88909 0 0 -30220 0zm30220 0c0,8344 -6766,15110 -15110,15110 -8344,0 -15110,-6766 -15110,-15110l30220 0zm-30220 88909l0 -88909 30220 0 0 88909 -7561 13087 -22659 -13087zm30220 0c0,8344 -6766,15110 -15110,15110 -8344,0 -15110,-6766 -15110,-15110l30220 0zm-99657 31374l76997 -44460 15099 26173 -76997 44460 0 0 -15099 -26173zm15099 26173c-7212,4166 -16459,1686 -20625,-5537 -4167,-7223 -1686,-16470 5526,-20636l15099 26173zm-92096 18287l76997 -44460 15099 26173 -76997 44460 -15099 0 0 -26173zm15099 26173c-7212,4166 -16459,1686 -20625,-5537 -4167,-7223 -1687,-16470 5526,-20636l15099 26173zm-76997 -70633l76997 44460 -15099 26173 -76997 -44460 0 0 15099 -26173zm-15099 26173c-7213,-4166 -9693,-13413 -5527,-20636 4167,-7224 13413,-9704 20626,-5537l-15099 26173zm-61898 -70633l76997 44460 -15099 26173 -76998 -44460 -7560 -13087 22660 -13086zm-15100 26173c-7212,-4166 -9692,-13413 -5526,-20636 4167,-7224 13413,-9704 20626,-5537l-15100 26173zm22660 -101996l0 88909 -30220 0 0 -88909 0 0 30220 0zm-30220 0c0,-8343 6766,-15110 15110,-15110 8344,0 15110,6767 15110,15110l-30220 0zm30220 -88909l0 88909 -30220 0 0 -88909 7560 -13086 22660 13086zm-30220 0c0,-8343 6766,-15110 15110,-15110 8344,0 15110,6767 15110,15110l-30220 0zm99657 -31362l-76997 44449 -15100 -26173 76998 -44449 15099 26173zm-15099 -26173c7223,-4167 16470,-1687 20636,5537 4166,7223 1686,16469 -5537,20636l-15099 -26173zm92096 -18287l-76997 44460 -15099 -26173 76997 -44460 15099 0 0 26173zm-15099 -26173c7212,-4167 16459,-1687 20625,5537 4167,7223 1686,16470 -5526,20636l-15099 -26173z"/>
   </g>
  </g>
 </g>
</svg>
