<?xml version="1.0" encoding="UTF-8"?>
<!DOCTYPE svg PUBLIC "-//W3C//DTD SVG 1.1//EN" "http://www.w3.org/Graphics/SVG/1.1/DTD/svg11.dtd">
<!-- Creator: CorelDRAW X8 -->
<svg xmlns="http://www.w3.org/2000/svg" xml:space="preserve" width="65px" height="65px" version="1.1" shape-rendering="geometricPrecision" text-rendering="geometricPrecision" image-rendering="optimizeQuality" fill-rule="evenodd" clip-rule="evenodd"
viewBox="0 0 1411317 1411241"
 xmlns:xlink="http://www.w3.org/1999/xlink">
 <g id="Слой_x0020_1">
  <metadata id="CorelCorpID_0Corel-Layer"/>
  <path fill="#00ADD9" fill-rule="nonzero" d="M918354 124222c-22490,-8155 -34107,-33005 -25952,-55495 8155,-22490 33004,-34107 55494,-25952 136942,49981 254137,141455 336353,259137 80037,114580 127068,253880 127068,403747 0,194641 -79061,371050 -206796,498810 -127607,127761 -304067,206772 -498862,206772 -23978,0 -43442,-19465 -43442,-43442 0,-9053 2770,-17464 7514,-24414l112707 -195205c11976,-20695 38518,-27748 59213,-15772 20695,11976 27748,38518 15772,59213l-73831 127864c139711,-17541 264959,-81678 359613,-176332 111989,-111810 181229,-266523 181229,-437494 0,-131838 -41134,-254034 -111117,-354202 -72061,-103167 -174870,-183383 -294963,-227235zm-441675 1156745c22183,8796 33056,33979 24260,56161 -8796,22183 -33979,33056 -56161,24260 -132121,-52494 -244623,-143968 -323351,-260112 -76626,-113041 -121427,-249367 -121427,-395617 0,-194667 79036,-371101 206771,-498862 127633,-127786 304092,-206797 498888,-206797 23977,0 43441,19464 43441,43442 0,9052 -2769,17464 -7513,24413l-112708 195180c-11976,20695 -38518,27748 -59213,15772 -20695,-11976 -27747,-38518 -15771,-59213l73830 -127838c-139736,17541 -264984,81703 -359638,176357 -111989,111810 -181204,266548 -181204,437546 0,128735 39160,248289 106143,347098 69086,101911 167766,182152 283653,228210zm496964 -883657c0,94320 -28388,180511 -74266,243468 -18695,25696 -40313,47622 -64188,64881 23875,17258 45493,39184 64188,64880 45878,62957 74266,149148 74266,243469 0,23977 -19438,43416 -43416,43416l-449137 0c-23977,0 -43416,-19439 -43416,-43416 0,-94321 28389,-180512 74266,-243469 18695,-25696 40314,-47622 64189,-64880 -23875,-17259 -45494,-39185 -64189,-64881 -45877,-62957 -74266,-149148 -74266,-243468 0,-23978 19439,-43416 43416,-43416l449137 0c23978,0 43416,19438 43416,43416zm-89268 573282c-6616,-58316 -26362,-110066 -54853,-149174 -32518,-44673 -76421,-72343 -123863,-72343 -47443,0 -91346,27670 -123863,72343 -28491,39108 -48237,90858 -54854,149174l357433 0zm-54853 -380692c28491,-39108 48237,-90859 54853,-149174l-357433 0c6617,58315 26363,110066 54854,149174 32517,44672 76420,72343 123863,72343 47442,0 91345,-27671 123863,-72343z"/>
 </g>
</svg>
