<?xml version="1.0" encoding="UTF-8"?>
<!DOCTYPE svg PUBLIC "-//W3C//DTD SVG 1.1//EN" "http://www.w3.org/Graphics/SVG/1.1/DTD/svg11.dtd">
<!-- Creator: CorelDRAW X8 -->
<svg xmlns="http://www.w3.org/2000/svg" xml:space="preserve" width="72px" height="72px" version="1.1" shape-rendering="geometricPrecision" text-rendering="geometricPrecision" image-rendering="optimizeQuality" fill-rule="evenodd" clip-rule="evenodd"
viewBox="0 0 5164740 5164740"
 >
 <g id="Слой_x0020_1">
  <metadata id="CorelCorpID_0Corel-Layer"/>
  <path fill="#00ADD9" fill-rule="nonzero" d="M4185575 979250c410184,410183 663953,977037 663953,1603120 0,626083 -253769,1192937 -663953,1603120 -410098,410184 -977037,664038 -1603120,664038 -626083,0 -1193022,-253769 -1603205,-663953 -410269,-410268 -664038,-977122 -664038,-1603205 0,-626083 253769,-1192937 664038,-1603205 410183,-410184 977122,-663953 1603205,-663953 626083,0 1193022,253854 1603120,664038zm-2425189 2337111c0,108758 -81867,175902 -245430,201602 -53102,8085 -117438,12170 -192837,12170 -23403,0 -51911,-426 -85271,-1107 -35061,-851 -58208,-1276 -69271,-1276 -205688,0 -330360,-36253 -374186,-109099 -15404,-25615 -23063,-59655 -23063,-102376l0 -443543c0,-43060 23914,-64591 72165,-64591 39061,0 64507,2128 76591,6127 25189,8511 37699,27999 37699,58464l0 435714c0,34721 27828,57783 83484,68931 26381,5277 69442,7830 129352,7830l192157 0c60251,0 103312,-2553 129182,-7830 55315,-10637 83058,-33529 83058,-68335l0 -436310c0,-30465 12510,-49783 37529,-57953 12085,-4340 37530,-6638 75910,-6638 48762,0 72931,21531 72931,64591l0 443629zm925636 146798c0,43231 -24594,64591 -73782,64591 -35912,0 -60421,-2468 -72846,-7149 -23147,-8935 -34635,-27998 -34635,-57442l0 -339295c0,-20254 -47912,-30551 -143480,-30551l-215218 0c-98632,0 -148075,10382 -148075,31146l0 338700c0,43231 -24339,64591 -73016,64591 -35912,0 -60506,-2468 -72761,-7149 -22892,-8935 -34210,-27998 -34210,-57442l0 -337849c0,-114970 109098,-172328 327211,-172328l216325 0c84845,0 154457,9957 209006,30040 76846,28509 115481,75655 115481,141437l0 338700zm240664 0c0,43231 -24168,64591 -72676,64591 -35061,0 -59144,-2553 -72080,-7744 -22551,-8936 -34040,-27743 -34040,-56847l0 -403546c0,-22637 8170,-39487 24679,-50805 -31061,-14382 -46379,-35657 -46379,-64081 0,-24083 11573,-43060 34380,-57187 20509,-12680 45359,-18892 74718,-18892 30296,0 55571,6212 76080,18892 23062,14127 34551,33104 34551,57187 0,27658 -14467,48337 -43401,62464 15998,10042 24168,27572 24168,52422l0 403546zm563279 -431034c0,43146 -24253,64592 -73271,64592l-185859 0 0 366442c0,43231 -24254,64591 -73016,64591 -35913,0 -60337,-2468 -72846,-7149 -22637,-8935 -34126,-28168 -34126,-57442l0 -366442 -23147 0c-22892,0 -41274,-7234 -54975,-21701 -12339,-13531 -18211,-29530 -18211,-48507 0,-18978 5872,-35062 18211,-48422 13701,-14467 32083,-21701 54975,-21701l23147 0 0 -83739c0,-42975 24339,-64506 72591,-64506 35827,0 60336,2468 72676,7149 23232,9020 34721,27998 34721,57357l0 83739 185859 0c49018,0 73271,25275 73271,75739zm861897 322616c0,115396 -95058,173009 -285342,173009l-448053 0c-48082,0 -72080,-21360 -72080,-64591 0,-50380 23998,-75655 72080,-75655l448649 0c37529,0 58464,-85 62634,-510 25530,-3574 38295,-14297 38295,-31998l0 -19743c0,-18467 -29956,-27573 -89781,-27573l-215134 0c-213346,0 -319977,-55826 -319977,-167903l0 -29104c0,-73527 51571,-121183 155223,-143309 46720,-9616 130714,-14382 251386,-14382 49188,0 73697,21445 73697,64676l0 11574c0,42720 -24509,64081 -73356,64081l-95398 0c-87653,0 -131480,5616 -131480,17190l0 27828c0,17871 46891,26806 140926,26806l219559 0c69783,0 127310,10127 172924,30041 63570,28083 95228,73101 95228,135054l0 24509zm-2372428 -1347054c0,101780 -50124,175052 -150457,219985 -69953,30976 -157351,46294 -262705,46294l-540728 0 0 234877c0,40338 -14637,66208 -43571,77612 -14552,5276 -45103,7999 -90632,7999 -56762,0 -85015,-28423 -85015,-85611l0 -782582c0,-57188 28253,-85697 85015,-85697l682250 0c91653,0 175562,15659 252407,47146 102291,41784 153436,102121 153436,180668l0 139309zm-219218 -5786l0 -122205c0,-27487 -25445,-44082 -76506,-49358 -5616,-510 -41869,-766 -109183,-766l-548983 0 0 253940 549834 0c58464,0 97440,-2553 117098,-7319 45103,-10808 67740,-35487 67740,-74292zm1266037 345422c0,92504 -45358,159989 -135735,202028 -65016,30041 -144074,45103 -237600,45103l-259045 0c-94717,0 -177775,-16850 -249174,-50805 -92419,-44337 -138799,-109694 -138799,-196326l0 -260237c0,-90547 48167,-158457 144671,-204326 71739,-33529 152585,-50124 242621,-50124l259726 0c248834,0 373335,84420 373335,252918l0 261769zm-214623 0l0 -272066c0,-27487 -21870,-44848 -65527,-52166 -16084,-3064 -48847,-4511 -97950,-4511l-252493 0c-118715,0 -178115,22892 -178115,68506l0 260237c0,40848 59655,61187 178881,61187l252407 0c108588,0 162797,-20339 162797,-61187zm1543636 124672c2553,11403 3829,22466 3829,33274 0,32508 -10382,58719 -31317,78122 -20764,19403 -46039,29275 -74973,29275 -41359,0 -74633,-18467 -99823,-54890l-137777 -200667 -662166 0 -136331 200071c-21105,31317 -46635,46891 -76505,46891 -25956,0 -49614,-10553 -71144,-31487 -21360,-20935 -31913,-42125 -31913,-63741 0,-9361 2468,-17701 7319,-25189l518261 -792625c24594,-37785 65187,-58038 121608,-61017 21701,-936 44848,3830 69613,14127 28423,12339 45018,27998 50039,47145l551280 780711zm-474605 -305255l-195731 -289767 -196582 289767 392313 0zm-1298206 -2166740c-712971,0 -1358712,289086 -1825998,756372 -467371,467371 -756457,1113027 -756457,1825998 0,712971 289086,1358627 756457,1825998 467286,467286 1113027,756372 1825998,756372 712971,0 1358712,-289171 1825913,-756457 467286,-467286 756372,-1112942 756372,-1825913 0,-712971 -289086,-1358627 -756372,-1825913 -467201,-467286 -1112942,-756457 -1825913,-756457z"/>
 </g>
</svg>
