<?xml version="1.0" encoding="UTF-8"?>
<!DOCTYPE svg PUBLIC "-//W3C//DTD SVG 1.1//EN" "http://www.w3.org/Graphics/SVG/1.1/DTD/svg11.dtd">
<!-- Creator: CorelDRAW X8 -->
<svg xmlns="http://www.w3.org/2000/svg" xml:space="preserve" width="72px" height="72px" version="1.1" shape-rendering="geometricPrecision" text-rendering="geometricPrecision" image-rendering="optimizeQuality" fill-rule="evenodd" clip-rule="evenodd"
viewBox="0 0 4702019 4702019"
 >
 <g id="Слой_x0020_1">
  <metadata id="CorelCorpID_0Corel-Layer"/>
  <path fill="#00ADD9" fill-rule="nonzero" d="M3810580 891516c373434,373435 604468,889502 604468,1459493 0,569991 -231034,1086059 -604468,1459493 -373357,373435 -889502,604546 -1459493,604546 -569991,0 -1086136,-231034 -1459571,-604468 -373511,-373512 -604545,-889580 -604545,-1459571 0,-569991 231034,-1086058 604545,-1459570 373435,-373434 889580,-604468 1459571,-604468 569991,0 1086136,231111 1459493,604545zm-2466061 1840365c0,32385 -16193,48655 -48423,48655l-189816 0 0 384824c0,32385 -16115,48500 -48268,48500 -26032,0 -43309,-1550 -51754,-4571 -16115,-6431 -24250,-21074 -24250,-43929l0 -384824 -189119 0c-32617,0 -48887,-16270 -48887,-48655 0,-38970 16270,-58339 48887,-58339l503052 0c32385,0 48578,19369 48578,58339zm554108 273026c0,12318 -3332,23707 -9994,34244 -7903,12009 -17897,17975 -30139,17975l-422864 0c4881,34864 43852,52296 117222,52296 6430,0 14952,0 25644,0 10769,0 17742,0 21151,0 32230,0 48500,18827 48500,56325 0,32153 -16270,48113 -48500,48113 -59347,0 -99479,-1163 -120475,-3254 -49662,-5424 -86773,-17742 -111566,-36801 -36568,-28899 -54853,-62834 -54853,-102114l0 -147669c0,-50437 27117,-88400 81195,-113735 40985,-19291 89640,-28898 146043,-28898l164946 0c45633,0 86153,8135 121327,24327 48190,22546 72363,56790 72363,102423l0 96768zm-117376 -55628l0 -33702c0,-10847 -11079,-18284 -33392,-22081 -8678,-1472 -32695,-3486 -71976,-5888 -309,0 -42301,0 -125743,0 -36569,0 -59269,542 -68256,1705 -32773,3873 -49198,13713 -49198,29518l0 30448 348565 0zm773520 128843c0,90492 -65544,135738 -196556,135738l-215694 0c-44936,0 -87083,-9143 -126363,-27504 -51754,-24560 -77786,-59270 -77786,-104206l0 -50979c0,-48500 24715,-84449 74145,-108156 36103,-17277 78483,-25955 126983,-25955l280695 0c-13713,-5733 -36568,-8910 -68488,-9452 16657,0 -6973,0 -70891,0 -32230,0 -48422,-15960 -48422,-48112l0 -8678c0,-32385 16192,-48577 48422,-48577 78406,0 136203,5578 173159,16735 67249,20686 100796,61206 100796,122024l0 157122zm-119623 -74920l-297508 0c-52916,0 -79335,9297 -79335,27814l0 50437c0,18129 27272,27117 81892,27117l219025 0c43386,0 67946,-6741 73525,-19989 2711,-6431 3563,-34864 2401,-85379zm947764 162158c0,32385 -15960,48500 -48112,48500 -23785,0 -40210,-1860 -48810,-5424 -15263,-6663 -22933,-20996 -22933,-43076l0 -246916c0,-21151 -31533,-31688 -94521,-31688 -7825,0 -17277,155 -28201,387 -11002,310 -17122,465 -18594,465 -22856,0 -39281,1860 -48965,5423 -15805,6121 -23785,18440 -23785,36802l0 235527c0,22080 -7593,36413 -22701,43076 -8600,3564 -25025,5424 -49042,5424 -32695,0 -49120,-16115 -49120,-48345l0 -236225c0,-18594 -7283,-30680 -21693,-36259 -8135,-3408 -23088,-5035 -45091,-5035 -1705,0 -8600,-233 -20841,-698 -12241,-387 -22856,-542 -31688,-542 -63763,0 -95605,11002 -95605,32927l0 245832c0,21925 -7748,36258 -23166,42921 -8212,3564 -24482,5424 -48500,5424 -32075,0 -48267,-16115 -48267,-48500l0 -236767c0,-97542 69263,-146352 207868,-146352 52606,0 85146,620 97465,1782 32695,3564 63375,13248 92506,29208 27582,-15108 58727,-24637 93204,-28511 16425,-1550 49120,-2479 97929,-2479 133724,0 200663,48810 200663,146352l0 236767zm575027 -81350c0,86618 -63375,129850 -190126,129850l-298515 0c-31998,0 -47958,-16115 -47958,-48500 0,-37809 15960,-56790 47958,-56790l298902 0c25025,0 38971,-155 41682,-465 16968,-2712 25568,-10692 25568,-23940l0 -14876c0,-13868 -19989,-20686 -59812,-20686l-143331 0c-142013,0 -213136,-41992 -213136,-126053l0 -21848c0,-55163 34399,-91035 103353,-107615 31145,-7205 87083,-10846 167658,-10846 32695,0 48965,16192 48965,48577l0 8678c0,32152 -16270,48112 -48810,48112l-63608 0c-58417,0 -87625,4261 -87625,13016l0 20841c0,13404 31223,20066 93901,20066l146197 0c46563,0 84914,7593 115207,22546 42379,21151 63530,55008 63530,101494l0 18439zm-2156157 -1256196c0,92661 -45633,159368 -136978,200275 -63685,28202 -143253,42147 -239168,42147l-492283 0 0 213834c0,36724 -13325,60276 -39667,70658 -13249,4804 -41063,7283 -82512,7283 -51677,0 -77399,-25877 -77399,-77941l0 -712469c0,-52064 25722,-78019 77399,-78019l621125 0c83442,0 159833,14256 229794,42922 93126,38041 139689,92971 139689,164482l0 126828zm-199578 -5268l0 -111256c0,-25025 -23166,-40133 -69651,-44936 -5114,-465 -38118,-697 -99402,-697l-499798 0 0 231188 500573 0c53226,0 88710,-2324 106607,-6663 41062,-9839 61671,-32307 61671,-67636zm1152610 314475c0,84216 -41294,145655 -123574,183928 -59192,27349 -131167,41062 -216313,41062l-235837 0c-86231,0 -161847,-15340 -226850,-46253 -84139,-40365 -126363,-99867 -126363,-178737l0 -236922c0,-82434 43851,-144260 131709,-186020 65312,-30525 138915,-45633 220884,-45633l236457 0c226540,0 339887,76856 339887,230258l0 238317zm-195394 0l0 -247691c0,-25025 -19912,-40830 -59657,-47493 -14643,-2789 -44471,-4106 -89175,-4106l-229871 0c-108079,0 -162157,20841 -162157,62368l0 236922c0,37188 54310,55705 162854,55705l229794 0c98860,0 148212,-18517 148212,-55705zm1405337 113502c2324,10382 3486,20454 3486,30293 0,29596 -9452,53459 -28511,71123 -18904,17665 -41914,26652 -68256,26652 -37653,0 -67947,-16812 -90879,-49972l-125434 -182689 -602841 0 -124116 182146c-19214,28512 -42457,42690 -69651,42690 -23631,0 -45169,-9607 -64770,-28666 -19447,-19059 -29054,-38351 -29054,-58030 0,-8522 2247,-16115 6663,-22933l471829 -721611c22391,-34400 59347,-52839 110713,-55551 19757,-852 40830,3487 63376,12861 25877,11234 40984,25490 45555,42922l501890 710765zm-432084 -277906l-178194 -263806 -178970 263806 357164 0zm-1181586 -1972617c-649094,0 -1236982,263186 -1662403,688607 -425498,425498 -688684,1013308 -688684,1662402 0,649094 263186,1236905 688684,1662403 425421,425421 1013309,688607 1662403,688607 649094,0 1236982,-263264 1662325,-688685 425421,-425420 688607,-1013231 688607,-1662325 0,-649094 -263186,-1236904 -688607,-1662325 -425343,-425421 -1013231,-688684 -1662325,-688684z"/>
 </g>
</svg>
