<?xml version="1.0" encoding="UTF-8"?>
<!DOCTYPE svg PUBLIC "-//W3C//DTD SVG 1.1//EN" "http://www.w3.org/Graphics/SVG/1.1/DTD/svg11.dtd">
<!-- Creator: CorelDRAW X8 -->
<svg xmlns="http://www.w3.org/2000/svg" xml:space="preserve" width="65px" height="73px" version="1.1" shape-rendering="geometricPrecision" text-rendering="geometricPrecision" image-rendering="optimizeQuality" fill-rule="evenodd" clip-rule="evenodd"
viewBox="0 0 1550795 1757925"
 >
 <g id="Слой_x0020_1">
  <metadata id="CorelCorpID_0Corel-Layer"/>
  <path fill="#00ADD9" fill-rule="nonzero" d="M1166175 707887c23125,0 41881,18781 41881,41881 0,23125 -18756,41907 -41881,41907l-648093 0 -107220 0c-7359,0 -13645,-2913 -20697,-9940l-333 -307 -485 -332 -307 -358 -511 -434 -153 -230 -665 -537 -127 -128 -665 -715 -51 -77 -613 -690 -77 0 -664 -792 -128 -128 -485 -587 -205 -230 -460 -563 -230 -306 -383 -511 -255 -384 -307 -408 -358 -511 -255 -307 -333 -562 -204 -358 -460 -588 -77 -230 -536 -741 0 -179 -281 -511 -179 -255 0 -77 -486 -818 -25 -127 -409 -844 -128 -204 -281 -690 -128 -332 -281 -639 -204 -434 -179 -511 -256 -537 -153 -409 -230 -664 -128 -307 -255 -766 0 -179 -307 -920 0 -128 -281 -945 -255 -1048 -51 -128 -205 -869 0 -230 -153 -792 0 -153 -102 -153 -52 -716 -127 -460 -51 -664 -77 -537 -51 -434 -77 -716 0 -357 -102 -869 0 -153 -26 -997 0 -128 0 -1073 0 -1073 0 -102 26 -1022 0 -179 102 -792 0 -409 77 -665 51 -485 77 -588 127 -639 51 -434 52 -664 102 -230 0 -128 153 -767 0 -255 205 -895 51 -127 255 -997 281 -971 0 -128 307 -894 77 -179 178 -792 128 -332 230 -614 153 -434 256 -511 179 -537 204 -434 281 -639 128 -332 281 -690 128 -179 409 -843 25 -128 486 -818 0 -76 460 -843 102 -103 434 -792 128 -179 409 -638 204 -307 333 -613 255 -307 358 -511 307 -358 255 -409 434 -485 179 -307 537 -613 128 -179 587 -613 26 -153 664 -793 77 0 613 -664 51 -77 665 -690 127 -127 665 -588 153 -179 511 -460 307 -332 485 -383 333 -307 184132 -183928c16252,-16201 42750,-16175 58976,127 16201,16226 16150,42750 -128,58976l-115012 114936 648042 0zm-337935 -498968c171843,11524 328455,79162 451568,184772l95465 -95567c21183,-21081 55603,-21081 76786,0 21183,21183 21183,55577 0,76760l-94979 94980c120532,136630 193715,316112 193715,512613 0,214106 -86803,408000 -227113,548336 -140335,140310 -334127,227112 -548233,227112 -214107,0 -408001,-86802 -548336,-227112 -140310,-140336 -227113,-334230 -227113,-548336 0,-214004 86803,-407898 227113,-548234 128095,-128070 300730,-211500 492554,-225119l0 -100550 -44257 0c-29923,0 -54198,-24352 -54198,-54274 0,-29948 24275,-54300 54198,-54300l197088 0c30024,0 54299,24352 54299,54300 0,29922 -24275,54274 -54299,54274l-44258 0 0 100345zm428494 292272c-123087,-123215 -293345,-199388 -481285,-199388 -188043,0 -358301,76173 -481388,199388 -123215,123088 -199388,293345 -199388,481286 0,188042 76173,358300 199388,481388 123087,123215 293345,199387 481388,199387 187940,0 358198,-76172 481285,-199387 123215,-123088 199388,-293346 199388,-481388 0,-187941 -76173,-358198 -199388,-481286zm-779537 583778l-47502 0 0 -130140 460 -21362 741 -23407c-7871,7922 -13390,13058 -16431,15536l-25834 20800 -22946 -28619 72442 -57698 39070 0 0 224890zm276021 -51029c0,17631 -6107,31072 -18373,40322 -12239,9225 -30561,13850 -54964,13850 -12495,0 -23150,-844 -31966,-2504 -8841,-1738 -17069,-4217 -24786,-7513l0 -38738c8713,4089 18525,7513 29436,10272 10937,2786 20545,4165 28824,4165 17069,0 25578,-4931 25578,-14820 0,-3654 -1150,-6644 -3424,-8969 -2248,-2300 -6132,-4932 -11652,-7870 -5570,-2888 -12904,-6312 -22154,-10247 -13236,-5494 -22946,-10656 -29130,-15383 -6184,-4702 -10707,-10119 -13543,-16200 -2836,-6158 -4191,-13645 -4191,-22589 0,-15204 5877,-27035 17734,-35365 11805,-8356 28619,-12495 50339,-12495 20748,0 40833,4497 60432,13492l-14131 33755c-8611,-3680 -16635,-6720 -24147,-9097 -7461,-2351 -15127,-3501 -22895,-3501 -13850,0 -20775,3706 -20775,11218 0,4216 2249,7870 6721,10937 4446,3091 14233,7640 29283,13696 13390,5443 23253,10553 29513,15280 6235,4702 10860,10119 13850,16252 2939,6209 4421,13543 4421,22052zm107858 -90712c-9966,0 -17734,3168 -23407,9454 -5621,6312 -8866,15230 -9710,26780l65875 0c-204,-11550 -3194,-20468 -9071,-26780 -5826,-6286 -13773,-9454 -23687,-9454zm6618 144884c-27725,0 -49342,-7666 -64930,-22921 -15587,-15281 -23355,-36924 -23355,-64904 0,-28798 7181,-51080 21567,-66820 14437,-15741 34343,-23611 59793,-23611 24301,0 43210,6925 56753,20723 13543,13875 20314,32912 20314,57340l0 22717 -110924 0c511,13338 4446,23789 11805,31276 7410,7513 17785,11244 31123,11244 10349,0 20161,-1099 29412,-3246 9173,-2172 18832,-5570 28925,-10297l0 36336c-8253,4088 -17018,7180 -26370,9173 -9276,1993 -20672,2990 -34113,2990zm178026 0c-53508,0 -80210,-29386 -80210,-88132 0,-29232 7231,-51540 21771,-66973 14590,-15434 35441,-23151 62578,-23151 19906,0 37742,3884 53533,11652l-13849 36259c-7411,-2938 -14233,-5391 -20570,-7282 -6363,-1891 -12700,-2837 -19063,-2837 -24402,0 -36591,17325 -36591,51975 0,33576 12189,50390 36591,50390 8969,0 17325,-1201 25042,-3629 7666,-2402 15383,-6184 23049,-11294l0 40220c-7564,4829 -15230,8177 -22998,10016 -7717,1840 -17478,2786 -29283,2786zm85576 -25195c0,-8612 2300,-15102 6925,-19523 4625,-4420 11268,-6618 20110,-6618 8534,0 15101,2249 19803,6772 4676,4523 6976,10962 6976,19369 0,8100 -2351,14488 -7078,19164 -4702,4676 -11269,6976 -19701,6976 -8612,0 -15281,-2248 -19957,-6822 -4727,-4574 -7078,-11014 -7078,-19318zm29309 187250l-184057 183929c-16302,16200 -42826,16174 -59001,-128 -16251,-16226 -16175,-42750 128,-58976l114962 -114936 -648017 0c-23126,0 -41881,-18781 -41881,-41881 0,-23125 18755,-41906 41881,-41906l648093 0 108957 0c4191,0 7104,587 9404,1661 3475,1635 6771,5519 9531,8279l358 306 459 332 307 358 537 435 179 230 638 536 128 128 665 715 25 77 639 690 51 0 664 792 128 128 537 588 153 230 486 562 255 306 383 511 281 384 282 409 306 511 256 306 409 562 178 358 409 588 77 230 537 741 0 179 332 511 179 255 0 77 434 818 51 127 409 844 128 204 332 690 128 332 204 639 204 434 205 511 255 537 128 409 256 664 127 307 256 766 0 179 307 920 0 102 281 971 255 1048 77 128 153 869 0 230 205 792 0 153 76 153 51 716 128 460 77 664 76 537 0 434 103 716 0 357 76 869 0 154 51 996 0 128 0 1073 0 1073 0 102 -51 1023 0 178 -76 793 0 408 -103 665 0 485 -76 588 -128 639 -77 434 -51 665 -76 230 0 127 -205 767 0 255 -153 895 -77 128 -255 996 -281 971 0 128 -307 894 -26 179 -230 792 -127 332 -256 614 -128 434 -255 511 -205 537 -204 434 -204 639 -128 332 -332 690 -128 179 -409 843 -51 128 -434 818 0 76 -511 844 -77 102 -460 792 -128 179 -358 639 -178 306 -409 613 -256 307 -306 511 -282 358 -281 409 -485 485 -153 307 -537 613 -102 179 -588 613 -77 154 -664 792 -51 0 -639 664 -25 77 -665 690 -128 127 -638 588 -179 179 -537 460 -307 332 -459 383 -358 307z"/>
 </g>
</svg>
