<?xml version="1.0" encoding="UTF-8"?>
<!DOCTYPE svg PUBLIC "-//W3C//DTD SVG 1.1//EN" "http://www.w3.org/Graphics/SVG/1.1/DTD/svg11.dtd">
<!-- Creator: CorelDRAW X8 -->
<svg xmlns="http://www.w3.org/2000/svg" xml:space="preserve" width="71px" height="71px" version="1.1" shape-rendering="geometricPrecision" text-rendering="geometricPrecision" image-rendering="optimizeQuality" fill-rule="evenodd" clip-rule="evenodd"
viewBox="0 0 328191 327940"
 >
 <g id="Слой_x0020_1">
  <metadata id="CorelCorpID_0Corel-Layer"/>
  <g id="_811914768">
   <g>
    <path fill="#00ADD9" fill-rule="nonzero" d="M318116 76667c5559,0 10075,4516 10075,10075 0,5560 -4516,10076 -10075,10076l0 -20151zm-308041 0l308041 0 0 20151 -308041 0 -7121 -17197 7121 -2954zm0 20151c-5560,0 -10075,-4516 -10075,-10076 0,-5559 4515,-10075 10075,-10075l0 20151zm83794 -79627l-76673 76673 -14242 -14243 76673 -76672 14242 14242zm-14242 -14242c3928,-3928 10314,-3928 14242,0 3928,3927 3928,10314 0,14242l-14242 -14242z"/>
   </g>
   <g>
    <path fill="#00ADD9" fill-rule="nonzero" d="M10075 231128l0 20150c-5560,0 -10075,-4515 -10075,-10075 0,-5559 4515,-10075 10075,-10075zm308035 0l7121 2954 -7121 17196 -308035 0 0 -20150 308035 0zm0 20150l0 -20150c5560,0 10075,4516 10075,10075 0,5560 -4515,10075 -10075,10075zm-83788 -79626l14242 -14243 76667 76673 -14242 14242 -76667 -76672zm14242 -14243l-14242 14243c-3928,-3928 -3928,-10315 0,-14243 3927,-3927 10314,-3927 14242,0z"/>
   </g>
   <g>
    <path fill="#00ADD9" fill-rule="nonzero" d="M318116 96818l0 -20151c5559,0 10075,4516 10075,10075 0,5560 -4516,10076 -10075,10076zm-308041 0l-7121 -2954 7121 -17197 308041 0 0 20151 -308041 0zm0 -20151l0 20151c-5560,0 -10075,-4516 -10075,-10076 0,-5559 4515,-10075 10075,-10075zm83794 79627l-14242 14242 -76673 -76672 14242 -14243 76673 76673zm-14242 14242l14242 -14242c3928,3928 3928,10315 0,14242 -3928,3928 -10314,3928 -14242,0z"/>
   </g>
   <g>
    <path fill="#00ADD9" fill-rule="nonzero" d="M10075 251278c-5560,0 -10075,-4515 -10075,-10075 0,-5559 4515,-10075 10075,-10075l0 20150zm308035 0l-308035 0 0 -20150 308035 0 7121 17196 -7121 2954zm0 -20150c5560,0 10075,4516 10075,10075 0,5560 -4515,10075 -10075,10075l0 -20150zm-83788 79627l76667 -76673 14242 14242 -76667 76673 -14242 -14242zm14242 14242c-3928,3928 -10315,3928 -14242,0 -3928,-3927 -3928,-10314 0,-14242l14242 14242z"/>
   </g>
  </g>
 </g>
</svg>
