<?xml version="1.0" encoding="utf-8" ?>
<svg xmlns="http://www.w3.org/2000/svg" width="839" height="518">
  <defs>
    <clipPath id="clip_0">
      <rect x="-181" y="-273" width="1200" height="1084" clip-rule="evenodd"/>
    </clipPath>
  </defs>
  <g clip-path="url(#clip_0)">
    <path fill="rgb(255,255,255)" fill-opacity="0.14509805" stroke="none"
          d="M20 0L608 0Q608.512 0 609.021 0.023315Q609.53 0.04663 610.034 0.0932124Q610.539 0.139795 611.038 0.20955Q611.536 0.279305 612.029 0.37209Q612.521 0.464874 613.006 0.5805Q613.491 0.696126 613.967 0.834357Q614.443 0.972587 614.91 1.13314Q615.377 1.29369 615.833 1.47624Q616.29 1.65879 616.735 1.86296Q617.18 2.06714 617.612 2.29252Q618.045 2.51789 618.465 2.76402Q618.884 3.01014 619.29 3.27651Q619.695 3.54288 620.086 3.82895Q620.477 4.11502 620.852 4.42021Q621.227 4.7254 621.586 5.04909Q621.944 5.37277 622.286 5.71429Q622.627 6.0558 622.951 6.41446Q623.275 6.77312 623.58 7.14818Q623.885 7.52324 624.171 7.91394Q624.457 8.30465 624.724 8.71019Q624.99 9.11574 625.236 9.53531Q625.482 9.95487 625.708 10.3876Q625.933 10.8203 626.137 11.2653Q626.341 11.7103 626.524 12.1667Q626.706 12.6231 626.867 13.0899Q627.027 13.5567 627.166 14.033Q627.304 14.5093 627.42 14.9941Q627.535 15.4789 627.628 15.9713Q627.721 16.4636 627.79 16.9625Q627.86 17.4613 627.907 17.9657Q627.953 18.47 627.977 18.9789Q628 19.4877 628 20L628 278Q628 278.512 627.977 279.021Q627.953 279.53 627.907 280.034Q627.86 280.539 627.79 281.038Q627.721 281.536 627.628 282.029Q627.535 282.521 627.42 283.006Q627.304 283.491 627.166 283.967Q627.027 284.443 626.867 284.91Q626.706 285.377 626.524 285.833Q626.341 286.29 626.137 286.735Q625.933 287.18 625.708 287.612Q625.482 288.045 625.236 288.465Q624.99 288.884 624.724 289.29Q624.457 289.695 624.171 290.086Q623.885 290.477 623.58 290.852Q623.275 291.227 622.951 291.586Q622.627 291.944 622.286 292.286Q621.944 292.627 621.586 292.951Q621.227 293.275 620.852 293.58Q620.477 293.885 620.086 294.171Q619.695 294.457 619.29 294.724Q618.884 294.99 618.465 295.236Q618.045 295.482 617.612 295.707Q617.18 295.933 616.735 296.137Q616.29 296.341 615.833 296.524Q615.377 296.706 614.91 296.867Q614.443 297.027 613.967 297.166Q613.491 297.304 613.006 297.42Q612.521 297.535 612.029 297.628Q611.536 297.721 611.038 297.79Q610.539 297.86 610.034 297.907Q609.53 297.953 609.021 297.977Q608.512 298 608 298L20 298Q19.4877 298 18.9789 297.977Q18.47 297.953 17.9657 297.907Q17.4613 297.86 16.9625 297.79Q16.4636 297.721 15.9713 297.628Q15.4789 297.535 14.9941 297.42Q14.5093 297.304 14.033 297.166Q13.5567 297.027 13.0899 296.867Q12.6231 296.706 12.1667 296.524Q11.7103 296.341 11.2653 296.137Q10.8203 295.933 10.3876 295.707Q9.95487 295.482 9.53531 295.236Q9.11574 294.99 8.71019 294.724Q8.30465 294.457 7.91394 294.171Q7.52324 293.885 7.14818 293.58Q6.77312 293.275 6.41446 292.951Q6.0558 292.627 5.71429 292.286Q5.37277 291.944 5.04909 291.586Q4.7254 291.227 4.42021 290.852Q4.11503 290.477 3.82895 290.086Q3.54288 289.695 3.27651 289.29Q3.01014 288.884 2.76402 288.465Q2.51789 288.045 2.29252 287.612Q2.06714 287.18 1.86296 286.735Q1.65879 286.29 1.47624 285.833Q1.29369 285.377 1.13314 284.91Q0.972587 284.443 0.834357 283.967Q0.696126 283.491 0.5805 283.006Q0.464874 282.521 0.37209 282.029Q0.279305 281.536 0.20955 281.038Q0.139795 280.539 0.0932124 280.034Q0.04663 279.53 0.023315 279.021Q0 278.512 0 278L0 20Q0 19.4877 0.023315 18.9789Q0.04663 18.47 0.0932124 17.9657Q0.139795 17.4613 0.20955 16.9625Q0.279305 16.4636 0.37209 15.9713Q0.464874 15.4789 0.5805 14.9941Q0.696126 14.5093 0.834357 14.033Q0.972587 13.5567 1.13314 13.0899Q1.29369 12.6231 1.47624 12.1667Q1.65879 11.7103 1.86296 11.2653Q2.06714 10.8203 2.29252 10.3876Q2.51789 9.95487 2.76402 9.53531Q3.01014 9.11574 3.27651 8.71019Q3.54288 8.30465 3.82895 7.91394Q4.11502 7.52324 4.42021 7.14818Q4.7254 6.77312 5.04909 6.41446Q5.37277 6.0558 5.71429 5.71429Q6.0558 5.37277 6.41446 5.04909Q6.77312 4.7254 7.14818 4.42021Q7.52324 4.11503 7.91394 3.82895Q8.30465 3.54288 8.71019 3.27651Q9.11574 3.01014 9.53531 2.76402Q9.95487 2.51789 10.3876 2.29252Q10.8203 2.06714 11.2653 1.86296Q11.7103 1.65879 12.1667 1.47624Q12.6231 1.29369 13.0899 1.13314Q13.5567 0.972587 14.033 0.834357Q14.5093 0.696126 14.9941 0.5805Q15.4789 0.464874 15.9713 0.37209Q16.4636 0.279305 16.9625 0.20955Q17.4613 0.139795 17.9657 0.0932124Q18.47 0.04663 18.9789 0.023315Q19.4877 0 20 0L608 0Q608.512 0 609.021 0.023315Q609.53 0.04663 610.034 0.0932124Q610.539 0.139795 611.038 0.20955Q611.536 0.279305 612.029 0.37209Q612.521 0.464874 613.006 0.5805Q613.491 0.696126 613.967 0.834357Q614.443 0.972587 614.91 1.13314Q615.377 1.29369 615.833 1.47624Q616.29 1.65879 616.735 1.86296Q617.18 2.06714 617.612 2.29252Q618.045 2.51789 618.465 2.76402Q618.884 3.01014 619.29 3.27651Q619.695 3.54288 620.086 3.82895Q620.477 4.11502 620.852 4.42021Q621.227 4.7254 621.586 5.04909Q621.944 5.37277 622.286 5.71429Q622.627 6.0558 622.951 6.41446Q623.275 6.77312 623.58 7.14818Q623.885 7.52324 624.171 7.91394Q624.457 8.30465 624.724 8.71019Q624.99 9.11574 625.236 9.53531Q625.482 9.95487 625.708 10.3876Q625.933 10.8203 626.137 11.2653Q626.341 11.7103 626.524 12.1667Q626.706 12.6231 626.867 13.0899Q627.027 13.5567 627.166 14.033Q627.304 14.5093 627.42 14.9941Q627.535 15.4789 627.628 15.9713Q627.721 16.4636 627.79 16.9625Q627.86 17.4613 627.907 17.9657Q627.953 18.47 627.977 18.9789Q628 19.4877 628 20L628 278Q628 278.512 627.977 279.021Q627.953 279.53 627.907 280.034Q627.86 280.539 627.79 281.038Q627.721 281.536 627.628 282.029Q627.535 282.521 627.42 283.006Q627.304 283.491 627.166 283.967Q627.027 284.443 626.867 284.91Q626.706 285.377 626.524 285.833Q626.341 286.29 626.137 286.735Q625.933 287.18 625.708 287.612Q625.482 288.045 625.236 288.465Q624.99 288.884 624.724 289.29Q624.457 289.695 624.171 290.086Q623.885 290.477 623.58 290.852Q623.275 291.227 622.951 291.586Q622.627 291.944 622.286 292.286Q621.944 292.627 621.586 292.951Q621.227 293.275 620.852 293.58Q620.477 293.885 620.086 294.171Q619.695 294.457 619.29 294.724Q618.884 294.99 618.465 295.236Q618.045 295.482 617.612 295.707Q617.18 295.933 616.735 296.137Q616.29 296.341 615.833 296.524Q615.377 296.706 614.91 296.867Q614.443 297.027 613.967 297.166Q613.491 297.304 613.006 297.42Q612.521 297.535 612.029 297.628Q611.536 297.721 611.038 297.79Q610.539 297.86 610.034 297.907Q609.53 297.953 609.021 297.977Q608.512 298 608 298L20 298Q19.4877 298 18.9789 297.977Q18.47 297.953 17.9657 297.907Q17.4613 297.86 16.9625 297.79Q16.4636 297.721 15.9713 297.628Q15.4789 297.535 14.9941 297.42Q14.5093 297.304 14.033 297.166Q13.5567 297.027 13.0899 296.867Q12.6231 296.706 12.1667 296.524Q11.7103 296.341 11.2653 296.137Q10.8203 295.933 10.3876 295.707Q9.95487 295.482 9.53531 295.236Q9.11574 294.99 8.71019 294.724Q8.30465 294.457 7.91394 294.171Q7.52324 293.885 7.14818 293.58Q6.77312 293.275 6.41446 292.951Q6.0558 292.627 5.71429 292.286Q5.37277 291.944 5.04909 291.586Q4.7254 291.227 4.42021 290.852Q4.11503 290.477 3.82895 290.086Q3.54288 289.695 3.27651 289.29Q3.01014 288.884 2.76402 288.465Q2.51789 288.045 2.29252 287.612Q2.06714 287.18 1.86296 286.735Q1.65879 286.29 1.47624 285.833Q1.29369 285.377 1.13314 284.91Q0.972587 284.443 0.834357 283.967Q0.696126 283.491 0.5805 283.006Q0.464874 282.521 0.37209 282.029Q0.279305 281.536 0.20955 281.038Q0.139795 280.539 0.0932124 280.034Q0.04663 279.53 0.023315 279.021Q0 278.512 0 278L0 20Q0 19.4877 0.023315 18.9789Q0.04663 18.47 0.0932124 17.9657Q0.139795 17.4613 0.20955 16.9625Q0.279305 16.4636 0.37209 15.9713Q0.464874 15.4789 0.5805 14.9941Q0.696126 14.5093 0.834357 14.033Q0.972587 13.5567 1.13314 13.0899Q1.29369 12.6231 1.47624 12.1667Q1.65879 11.7103 1.86296 11.2653Q2.06714 10.8203 2.29252 10.3876Q2.51789 9.95487 2.76402 9.53531Q3.01014 9.11574 3.27651 8.71019Q3.54288 8.30465 3.82895 7.91394Q4.11502 7.52324 4.42021 7.14818Q4.7254 6.77312 5.04909 6.41446Q5.37277 6.0558 5.71429 5.71429Q6.0558 5.37277 6.41446 5.04909Q6.77312 4.7254 7.14818 4.42021Q7.52324 4.11503 7.91394 3.82895Q8.30465 3.54288 8.71019 3.27651Q9.11574 3.01014 9.53531 2.76402Q9.95487 2.51789 10.3876 2.29252Q10.8203 2.06714 11.2653 1.86296Q11.7103 1.65879 12.1667 1.47624Q12.6231 1.29369 13.0899 1.13314Q13.5567 0.972587 14.033 0.834357Q14.5093 0.696126 14.9941 0.5805Q15.4789 0.464874 15.9713 0.37209Q16.4636 0.279305 16.9625 0.20955Q17.4613 0.139795 17.9657 0.0932124Q18.47 0.04663 18.9789 0.023315Q19.4877 0 20 0Z"/>
  </g>
  <defs>
    <clipPath id="clip_1">
      <path
        d="M628 20Q628 19.4877 627.977 18.9789Q627.953 18.47 627.907 17.9657Q627.86 17.4613 627.79 16.9625Q627.721 16.4636 627.628 15.9713Q627.535 15.4789 627.42 14.9941Q627.304 14.5093 627.166 14.033Q627.027 13.5567 626.867 13.0899Q626.706 12.6231 626.524 12.1667Q626.341 11.7103 626.137 11.2653Q625.933 10.8203 625.708 10.3876Q625.482 9.95487 625.236 9.53531Q624.99 9.11574 624.724 8.71019Q624.457 8.30465 624.171 7.91394Q623.885 7.52324 623.58 7.14818Q623.275 6.77312 622.951 6.41446Q622.627 6.0558 622.286 5.71429Q621.944 5.37277 621.586 5.04909Q621.227 4.7254 620.852 4.42021Q620.477 4.11503 620.086 3.82895Q619.695 3.54288 619.29 3.27651Q618.884 3.01014 618.465 2.76402Q618.045 2.51789 617.612 2.29252Q617.18 2.06714 616.735 1.86296Q616.29 1.65879 615.833 1.47624Q615.377 1.29369 614.91 1.13314Q614.443 0.972587 613.967 0.834357Q613.491 0.696126 613.006 0.5805Q612.521 0.464874 612.029 0.37209Q611.536 0.279305 611.038 0.20955Q610.539 0.139795 610.034 0.0932124Q609.53 0.04663 609.021 0.023315Q608.512 0 608 0L20 0Q19.4877 0 18.9789 0.023315Q18.47 0.04663 17.9657 0.0932124Q17.4613 0.139795 16.9625 0.20955Q16.4636 0.279305 15.9713 0.37209Q15.4789 0.464874 14.9941 0.5805Q14.5093 0.696126 14.033 0.834357Q13.5567 0.972587 13.0899 1.13314Q12.6231 1.29369 12.1667 1.47624Q11.7103 1.65879 11.2653 1.86296Q10.8203 2.06714 10.3876 2.29252Q9.95487 2.51789 9.53531 2.76402Q9.11574 3.01014 8.71019 3.27651Q8.30465 3.54288 7.91394 3.82895Q7.52324 4.11502 7.14818 4.42021Q6.77312 4.7254 6.41446 5.04909Q6.0558 5.37277 5.71429 5.71429Q5.37277 6.0558 5.04909 6.41446Q4.7254 6.77312 4.42021 7.14818Q4.11503 7.52324 3.82895 7.91394Q3.54288 8.30465 3.27651 8.71019Q3.01014 9.11574 2.76402 9.53531Q2.51789 9.95487 2.29252 10.3876Q2.06714 10.8203 1.86296 11.2653Q1.65879 11.7103 1.47624 12.1667Q1.29369 12.6231 1.13314 13.0899Q0.972587 13.5567 0.834357 14.033Q0.696126 14.5093 0.5805 14.9941Q0.464874 15.4789 0.37209 15.9713Q0.279305 16.4636 0.20955 16.9625Q0.139795 17.4613 0.0932124 17.9657Q0.04663 18.47 0.023315 18.9789Q0 19.4877 0 20L0 278Q0 278.512 0.023315 279.021Q0.04663 279.53 0.0932124 280.034Q0.139795 280.539 0.20955 281.038Q0.279305 281.536 0.37209 282.029Q0.464874 282.521 0.5805 283.006Q0.696126 283.491 0.834357 283.967Q0.972587 284.443 1.13314 284.91Q1.29369 285.377 1.47624 285.833Q1.65879 286.29 1.86296 286.735Q2.06714 287.18 2.29252 287.612Q2.51789 288.045 2.76402 288.465Q3.01014 288.884 3.27651 289.29Q3.54288 289.695 3.82895 290.086Q4.11502 290.477 4.42021 290.852Q4.7254 291.227 5.04909 291.586Q5.37277 291.944 5.71429 292.286Q6.0558 292.627 6.41446 292.951Q6.77312 293.275 7.14818 293.58Q7.52324 293.885 7.91394 294.171Q8.30465 294.457 8.71019 294.724Q9.11574 294.99 9.53531 295.236Q9.95487 295.482 10.3876 295.707Q10.8203 295.933 11.2653 296.137Q11.7103 296.341 12.1667 296.524Q12.6231 296.706 13.0899 296.867Q13.5567 297.027 14.033 297.166Q14.5093 297.304 14.9941 297.42Q15.4789 297.535 15.9713 297.628Q16.4636 297.721 16.9625 297.79Q17.4613 297.86 17.9657 297.907Q18.47 297.953 18.9789 297.977Q19.4877 298 20 298L608 298Q608.512 298 609.021 297.977Q609.53 297.953 610.034 297.907Q610.539 297.86 611.038 297.79Q611.536 297.721 612.029 297.628Q612.521 297.535 613.006 297.42Q613.491 297.304 613.967 297.166Q614.443 297.027 614.91 296.867Q615.377 296.706 615.833 296.524Q616.29 296.341 616.735 296.137Q617.18 295.933 617.612 295.707Q618.045 295.482 618.465 295.236Q618.884 294.99 619.29 294.724Q619.695 294.457 620.086 294.171Q620.477 293.885 620.852 293.58Q621.227 293.275 621.586 292.951Q621.944 292.627 622.286 292.286Q622.627 291.944 622.951 291.586Q623.275 291.227 623.58 290.852Q623.885 290.477 624.171 290.086Q624.457 289.695 624.724 289.29Q624.99 288.884 625.236 288.465Q625.482 288.045 625.708 287.612Q625.933 287.18 626.137 286.735Q626.341 286.29 626.524 285.833Q626.706 285.377 626.867 284.91Q627.027 284.443 627.166 283.967Q627.304 283.491 627.42 283.006Q627.535 282.521 627.628 282.029Q627.721 281.536 627.79 281.038Q627.86 280.539 627.907 280.034Q627.953 279.53 627.977 279.021Q628 278.512 628 278L628 20Z"
        clip-rule="evenodd"/>
    </clipPath>
  </defs>
  <g clip-path="url(#clip_1)">
    <path fill="none" stroke="rgb(1,13,40)" stroke-width="34" stroke-miterlimit="4" stroke-opacity="0.14509805"
          d="M20 0L608 0Q608.512 0 609.021 0.023315Q609.53 0.04663 610.034 0.0932124Q610.539 0.139795 611.038 0.20955Q611.536 0.279305 612.029 0.37209Q612.521 0.464874 613.006 0.5805Q613.491 0.696126 613.967 0.834357Q614.443 0.972587 614.91 1.13314Q615.377 1.29369 615.833 1.47624Q616.29 1.65879 616.735 1.86296Q617.18 2.06714 617.612 2.29252Q618.045 2.51789 618.465 2.76402Q618.884 3.01014 619.29 3.27651Q619.695 3.54288 620.086 3.82895Q620.477 4.11502 620.852 4.42021Q621.227 4.7254 621.586 5.04909Q621.944 5.37277 622.286 5.71429Q622.627 6.0558 622.951 6.41446Q623.275 6.77312 623.58 7.14818Q623.885 7.52324 624.171 7.91394Q624.457 8.30465 624.724 8.71019Q624.99 9.11574 625.236 9.53531Q625.482 9.95487 625.708 10.3876Q625.933 10.8203 626.137 11.2653Q626.341 11.7103 626.524 12.1667Q626.706 12.6231 626.867 13.0899Q627.027 13.5567 627.166 14.033Q627.304 14.5093 627.42 14.9941Q627.535 15.4789 627.628 15.9713Q627.721 16.4636 627.79 16.9625Q627.86 17.4613 627.907 17.9657Q627.953 18.47 627.977 18.9789Q628 19.4877 628 20L628 278Q628 278.512 627.977 279.021Q627.953 279.53 627.907 280.034Q627.86 280.539 627.79 281.038Q627.721 281.536 627.628 282.029Q627.535 282.521 627.42 283.006Q627.304 283.491 627.166 283.967Q627.027 284.443 626.867 284.91Q626.706 285.377 626.524 285.833Q626.341 286.29 626.137 286.735Q625.933 287.18 625.708 287.612Q625.482 288.045 625.236 288.465Q624.99 288.884 624.724 289.29Q624.457 289.695 624.171 290.086Q623.885 290.477 623.58 290.852Q623.275 291.227 622.951 291.586Q622.627 291.944 622.286 292.286Q621.944 292.627 621.586 292.951Q621.227 293.275 620.852 293.58Q620.477 293.885 620.086 294.171Q619.695 294.457 619.29 294.724Q618.884 294.99 618.465 295.236Q618.045 295.482 617.612 295.707Q617.18 295.933 616.735 296.137Q616.29 296.341 615.833 296.524Q615.377 296.706 614.91 296.867Q614.443 297.027 613.967 297.166Q613.491 297.304 613.006 297.42Q612.521 297.535 612.029 297.628Q611.536 297.721 611.038 297.79Q610.539 297.86 610.034 297.907Q609.53 297.953 609.021 297.977Q608.512 298 608 298L20 298Q19.4877 298 18.9789 297.977Q18.47 297.953 17.9657 297.907Q17.4613 297.86 16.9625 297.79Q16.4636 297.721 15.9713 297.628Q15.4789 297.535 14.9941 297.42Q14.5093 297.304 14.033 297.166Q13.5567 297.027 13.0899 296.867Q12.6231 296.706 12.1667 296.524Q11.7103 296.341 11.2653 296.137Q10.8203 295.933 10.3876 295.707Q9.95487 295.482 9.53531 295.236Q9.11574 294.99 8.71019 294.724Q8.30465 294.457 7.91394 294.171Q7.52324 293.885 7.14818 293.58Q6.77312 293.275 6.41446 292.951Q6.0558 292.627 5.71429 292.286Q5.37277 291.944 5.04909 291.586Q4.7254 291.227 4.42021 290.852Q4.11503 290.477 3.82895 290.086Q3.54288 289.695 3.27651 289.29Q3.01014 288.884 2.76402 288.465Q2.51789 288.045 2.29252 287.612Q2.06714 287.18 1.86296 286.735Q1.65879 286.29 1.47624 285.833Q1.29369 285.377 1.13314 284.91Q0.972587 284.443 0.834357 283.967Q0.696126 283.491 0.5805 283.006Q0.464874 282.521 0.37209 282.029Q0.279305 281.536 0.20955 281.038Q0.139795 280.539 0.0932124 280.034Q0.04663 279.53 0.023315 279.021Q0 278.512 0 278L0 20Q0 19.4877 0.023315 18.9789Q0.04663 18.47 0.0932124 17.9657Q0.139795 17.4613 0.20955 16.9625Q0.279305 16.4636 0.37209 15.9713Q0.464874 15.4789 0.5805 14.9941Q0.696126 14.5093 0.834357 14.033Q0.972587 13.5567 1.13314 13.0899Q1.29369 12.6231 1.47624 12.1667Q1.65879 11.7103 1.86296 11.2653Q2.06714 10.8203 2.29252 10.3876Q2.51789 9.95487 2.76402 9.53531Q3.01014 9.11574 3.27651 8.71019Q3.54288 8.30465 3.82895 7.91394Q4.11502 7.52324 4.42021 7.14818Q4.7254 6.77312 5.04909 6.41446Q5.37277 6.0558 5.71429 5.71429Q6.0558 5.37277 6.41446 5.04909Q6.77312 4.7254 7.14818 4.42021Q7.52324 4.11503 7.91394 3.82895Q8.30465 3.54288 8.71019 3.27651Q9.11574 3.01014 9.53531 2.76402Q9.95487 2.51789 10.3876 2.29252Q10.8203 2.06714 11.2653 1.86296Q11.7103 1.65879 12.1667 1.47624Q12.6231 1.29369 13.0899 1.13314Q13.5567 0.972587 14.033 0.834357Q14.5093 0.696126 14.9941 0.5805Q15.4789 0.464874 15.9713 0.37209Q16.4636 0.279305 16.9625 0.20955Q17.4613 0.139795 17.9657 0.0932124Q18.47 0.04663 18.9789 0.023315Q19.4877 0 20 0L608 0Q608.512 0 609.021 0.023315Q609.53 0.04663 610.034 0.0932124Q610.539 0.139795 611.038 0.20955Q611.536 0.279305 612.029 0.37209Q612.521 0.464874 613.006 0.5805Q613.491 0.696126 613.967 0.834357Q614.443 0.972587 614.91 1.13314Q615.377 1.29369 615.833 1.47624Q616.29 1.65879 616.735 1.86296Q617.18 2.06714 617.612 2.29252Q618.045 2.51789 618.465 2.76402Q618.884 3.01014 619.29 3.27651Q619.695 3.54288 620.086 3.82895Q620.477 4.11502 620.852 4.42021Q621.227 4.7254 621.586 5.04909Q621.944 5.37277 622.286 5.71429Q622.627 6.0558 622.951 6.41446Q623.275 6.77312 623.58 7.14818Q623.885 7.52324 624.171 7.91394Q624.457 8.30465 624.724 8.71019Q624.99 9.11574 625.236 9.53531Q625.482 9.95487 625.708 10.3876Q625.933 10.8203 626.137 11.2653Q626.341 11.7103 626.524 12.1667Q626.706 12.6231 626.867 13.0899Q627.027 13.5567 627.166 14.033Q627.304 14.5093 627.42 14.9941Q627.535 15.4789 627.628 15.9713Q627.721 16.4636 627.79 16.9625Q627.86 17.4613 627.907 17.9657Q627.953 18.47 627.977 18.9789Q628 19.4877 628 20L628 278Q628 278.512 627.977 279.021Q627.953 279.53 627.907 280.034Q627.86 280.539 627.79 281.038Q627.721 281.536 627.628 282.029Q627.535 282.521 627.42 283.006Q627.304 283.491 627.166 283.967Q627.027 284.443 626.867 284.91Q626.706 285.377 626.524 285.833Q626.341 286.29 626.137 286.735Q625.933 287.18 625.708 287.612Q625.482 288.045 625.236 288.465Q624.99 288.884 624.724 289.29Q624.457 289.695 624.171 290.086Q623.885 290.477 623.58 290.852Q623.275 291.227 622.951 291.586Q622.627 291.944 622.286 292.286Q621.944 292.627 621.586 292.951Q621.227 293.275 620.852 293.58Q620.477 293.885 620.086 294.171Q619.695 294.457 619.29 294.724Q618.884 294.99 618.465 295.236Q618.045 295.482 617.612 295.707Q617.18 295.933 616.735 296.137Q616.29 296.341 615.833 296.524Q615.377 296.706 614.91 296.867Q614.443 297.027 613.967 297.166Q613.491 297.304 613.006 297.42Q612.521 297.535 612.029 297.628Q611.536 297.721 611.038 297.79Q610.539 297.86 610.034 297.907Q609.53 297.953 609.021 297.977Q608.512 298 608 298L20 298Q19.4877 298 18.9789 297.977Q18.47 297.953 17.9657 297.907Q17.4613 297.86 16.9625 297.79Q16.4636 297.721 15.9713 297.628Q15.4789 297.535 14.9941 297.42Q14.5093 297.304 14.033 297.166Q13.5567 297.027 13.0899 296.867Q12.6231 296.706 12.1667 296.524Q11.7103 296.341 11.2653 296.137Q10.8203 295.933 10.3876 295.707Q9.95487 295.482 9.53531 295.236Q9.11574 294.99 8.71019 294.724Q8.30465 294.457 7.91394 294.171Q7.52324 293.885 7.14818 293.58Q6.77312 293.275 6.41446 292.951Q6.0558 292.627 5.71429 292.286Q5.37277 291.944 5.04909 291.586Q4.7254 291.227 4.42021 290.852Q4.11503 290.477 3.82895 290.086Q3.54288 289.695 3.27651 289.29Q3.01014 288.884 2.76402 288.465Q2.51789 288.045 2.29252 287.612Q2.06714 287.18 1.86296 286.735Q1.65879 286.29 1.47624 285.833Q1.29369 285.377 1.13314 284.91Q0.972587 284.443 0.834357 283.967Q0.696126 283.491 0.5805 283.006Q0.464874 282.521 0.37209 282.029Q0.279305 281.536 0.20955 281.038Q0.139795 280.539 0.0932124 280.034Q0.04663 279.53 0.023315 279.021Q0 278.512 0 278L0 20Q0 19.4877 0.023315 18.9789Q0.04663 18.47 0.0932124 17.9657Q0.139795 17.4613 0.20955 16.9625Q0.279305 16.4636 0.37209 15.9713Q0.464874 15.4789 0.5805 14.9941Q0.696126 14.5093 0.834357 14.033Q0.972587 13.5567 1.13314 13.0899Q1.29369 12.6231 1.47624 12.1667Q1.65879 11.7103 1.86296 11.2653Q2.06714 10.8203 2.29252 10.3876Q2.51789 9.95487 2.76402 9.53531Q3.01014 9.11574 3.27651 8.71019Q3.54288 8.30465 3.82895 7.91394Q4.11502 7.52324 4.42021 7.14818Q4.7254 6.77312 5.04909 6.41446Q5.37277 6.0558 5.71429 5.71429Q6.0558 5.37277 6.41446 5.04909Q6.77312 4.7254 7.14818 4.42021Q7.52324 4.11503 7.91394 3.82895Q8.30465 3.54288 8.71019 3.27651Q9.11574 3.01014 9.53531 2.76402Q9.95487 2.51789 10.3876 2.29252Q10.8203 2.06714 11.2653 1.86296Q11.7103 1.65879 12.1667 1.47624Q12.6231 1.29369 13.0899 1.13314Q13.5567 0.972587 14.033 0.834357Q14.5093 0.696126 14.9941 0.5805Q15.4789 0.464874 15.9713 0.37209Q16.4636 0.279305 16.9625 0.20955Q17.4613 0.139795 17.9657 0.0932124Q18.47 0.04663 18.9789 0.023315Q19.4877 0 20 0Z"/>
  </g>
  <defs>
    <clipPath id="clip_2">
      <rect x="-181" y="-273" width="1200" height="1084" clip-rule="evenodd"/>
    </clipPath>
  </defs>
  <g clip-path="url(#clip_2)">
    <path fill="rgb(255,255,255)" fill-opacity="0.40784314" stroke="none" transform="translate(106 100)"
          d="M20 0L608 0Q608.512 0 609.021 0.023315Q609.53 0.04663 610.034 0.0932124Q610.539 0.139795 611.038 0.20955Q611.536 0.279305 612.029 0.37209Q612.521 0.464874 613.006 0.5805Q613.491 0.696126 613.967 0.834357Q614.443 0.972587 614.91 1.13314Q615.377 1.29369 615.833 1.47624Q616.29 1.65879 616.735 1.86296Q617.18 2.06714 617.612 2.29252Q618.045 2.51789 618.465 2.76402Q618.884 3.01014 619.29 3.27651Q619.695 3.54288 620.086 3.82895Q620.477 4.11502 620.852 4.42021Q621.227 4.7254 621.586 5.04909Q621.944 5.37277 622.286 5.71429Q622.627 6.0558 622.951 6.41446Q623.275 6.77312 623.58 7.14818Q623.885 7.52324 624.171 7.91394Q624.457 8.30465 624.724 8.71019Q624.99 9.11574 625.236 9.53531Q625.482 9.95487 625.708 10.3876Q625.933 10.8203 626.137 11.2653Q626.341 11.7103 626.524 12.1667Q626.706 12.6231 626.867 13.0899Q627.027 13.5567 627.166 14.033Q627.304 14.5093 627.42 14.9941Q627.535 15.4789 627.628 15.9713Q627.721 16.4636 627.79 16.9625Q627.86 17.4613 627.907 17.9657Q627.953 18.47 627.977 18.9789Q628 19.4877 628 20L628 278Q628 278.512 627.977 279.021Q627.953 279.53 627.907 280.034Q627.86 280.539 627.79 281.038Q627.721 281.536 627.628 282.029Q627.535 282.521 627.42 283.006Q627.304 283.491 627.166 283.967Q627.027 284.443 626.867 284.91Q626.706 285.377 626.524 285.833Q626.341 286.29 626.137 286.735Q625.933 287.18 625.708 287.612Q625.482 288.045 625.236 288.465Q624.99 288.884 624.724 289.29Q624.457 289.695 624.171 290.086Q623.885 290.477 623.58 290.852Q623.275 291.227 622.951 291.586Q622.627 291.944 622.286 292.286Q621.944 292.627 621.586 292.951Q621.227 293.275 620.852 293.58Q620.477 293.885 620.086 294.171Q619.695 294.457 619.29 294.724Q618.884 294.99 618.465 295.236Q618.045 295.482 617.612 295.707Q617.18 295.933 616.735 296.137Q616.29 296.341 615.833 296.524Q615.377 296.706 614.91 296.867Q614.443 297.027 613.967 297.166Q613.491 297.304 613.006 297.42Q612.521 297.535 612.029 297.628Q611.536 297.721 611.038 297.79Q610.539 297.86 610.034 297.907Q609.53 297.953 609.021 297.977Q608.512 298 608 298L20 298Q19.4877 298 18.9789 297.977Q18.47 297.953 17.9657 297.907Q17.4613 297.86 16.9625 297.79Q16.4636 297.721 15.9713 297.628Q15.4789 297.535 14.9941 297.42Q14.5093 297.304 14.033 297.166Q13.5567 297.027 13.0899 296.867Q12.6231 296.706 12.1667 296.524Q11.7103 296.341 11.2653 296.137Q10.8203 295.933 10.3876 295.707Q9.95487 295.482 9.53531 295.236Q9.11574 294.99 8.71019 294.724Q8.30465 294.457 7.91394 294.171Q7.52324 293.885 7.14818 293.58Q6.77312 293.275 6.41446 292.951Q6.0558 292.627 5.71429 292.286Q5.37277 291.944 5.04909 291.586Q4.7254 291.227 4.42021 290.852Q4.11503 290.477 3.82895 290.086Q3.54288 289.695 3.27651 289.29Q3.01014 288.884 2.76402 288.465Q2.51789 288.045 2.29252 287.612Q2.06714 287.18 1.86296 286.735Q1.65879 286.29 1.47624 285.833Q1.29369 285.377 1.13314 284.91Q0.972587 284.443 0.834357 283.967Q0.696126 283.491 0.5805 283.006Q0.464874 282.521 0.37209 282.029Q0.279305 281.536 0.20955 281.038Q0.139795 280.539 0.0932124 280.034Q0.04663 279.53 0.023315 279.021Q0 278.512 0 278L0 20Q0 19.4877 0.023315 18.9789Q0.04663 18.47 0.0932124 17.9657Q0.139795 17.4613 0.20955 16.9625Q0.279305 16.4636 0.37209 15.9713Q0.464874 15.4789 0.5805 14.9941Q0.696126 14.5093 0.834357 14.033Q0.972587 13.5567 1.13314 13.0899Q1.29369 12.6231 1.47624 12.1667Q1.65879 11.7103 1.86296 11.2653Q2.06714 10.8203 2.29252 10.3876Q2.51789 9.95487 2.76402 9.53531Q3.01014 9.11574 3.27651 8.71019Q3.54288 8.30465 3.82895 7.91394Q4.11502 7.52324 4.42021 7.14818Q4.7254 6.77312 5.04909 6.41446Q5.37277 6.0558 5.71429 5.71429Q6.0558 5.37277 6.41446 5.04909Q6.77312 4.7254 7.14818 4.42021Q7.52324 4.11503 7.91394 3.82895Q8.30465 3.54288 8.71019 3.27651Q9.11574 3.01014 9.53531 2.76402Q9.95487 2.51789 10.3876 2.29252Q10.8203 2.06714 11.2653 1.86296Q11.7103 1.65879 12.1667 1.47624Q12.6231 1.29369 13.0899 1.13314Q13.5567 0.972587 14.033 0.834357Q14.5093 0.696126 14.9941 0.5805Q15.4789 0.464874 15.9713 0.37209Q16.4636 0.279305 16.9625 0.20955Q17.4613 0.139795 17.9657 0.0932124Q18.47 0.04663 18.9789 0.023315Q19.4877 0 20 0L608 0Q608.512 0 609.021 0.023315Q609.53 0.04663 610.034 0.0932124Q610.539 0.139795 611.038 0.20955Q611.536 0.279305 612.029 0.37209Q612.521 0.464874 613.006 0.5805Q613.491 0.696126 613.967 0.834357Q614.443 0.972587 614.91 1.13314Q615.377 1.29369 615.833 1.47624Q616.29 1.65879 616.735 1.86296Q617.18 2.06714 617.612 2.29252Q618.045 2.51789 618.465 2.76402Q618.884 3.01014 619.29 3.27651Q619.695 3.54288 620.086 3.82895Q620.477 4.11502 620.852 4.42021Q621.227 4.7254 621.586 5.04909Q621.944 5.37277 622.286 5.71429Q622.627 6.0558 622.951 6.41446Q623.275 6.77312 623.58 7.14818Q623.885 7.52324 624.171 7.91394Q624.457 8.30465 624.724 8.71019Q624.99 9.11574 625.236 9.53531Q625.482 9.95487 625.708 10.3876Q625.933 10.8203 626.137 11.2653Q626.341 11.7103 626.524 12.1667Q626.706 12.6231 626.867 13.0899Q627.027 13.5567 627.166 14.033Q627.304 14.5093 627.42 14.9941Q627.535 15.4789 627.628 15.9713Q627.721 16.4636 627.79 16.9625Q627.86 17.4613 627.907 17.9657Q627.953 18.47 627.977 18.9789Q628 19.4877 628 20L628 278Q628 278.512 627.977 279.021Q627.953 279.53 627.907 280.034Q627.86 280.539 627.79 281.038Q627.721 281.536 627.628 282.029Q627.535 282.521 627.42 283.006Q627.304 283.491 627.166 283.967Q627.027 284.443 626.867 284.91Q626.706 285.377 626.524 285.833Q626.341 286.29 626.137 286.735Q625.933 287.18 625.708 287.612Q625.482 288.045 625.236 288.465Q624.99 288.884 624.724 289.29Q624.457 289.695 624.171 290.086Q623.885 290.477 623.58 290.852Q623.275 291.227 622.951 291.586Q622.627 291.944 622.286 292.286Q621.944 292.627 621.586 292.951Q621.227 293.275 620.852 293.58Q620.477 293.885 620.086 294.171Q619.695 294.457 619.29 294.724Q618.884 294.99 618.465 295.236Q618.045 295.482 617.612 295.707Q617.18 295.933 616.735 296.137Q616.29 296.341 615.833 296.524Q615.377 296.706 614.91 296.867Q614.443 297.027 613.967 297.166Q613.491 297.304 613.006 297.42Q612.521 297.535 612.029 297.628Q611.536 297.721 611.038 297.79Q610.539 297.86 610.034 297.907Q609.53 297.953 609.021 297.977Q608.512 298 608 298L20 298Q19.4877 298 18.9789 297.977Q18.47 297.953 17.9657 297.907Q17.4613 297.86 16.9625 297.79Q16.4636 297.721 15.9713 297.628Q15.4789 297.535 14.9941 297.42Q14.5093 297.304 14.033 297.166Q13.5567 297.027 13.0899 296.867Q12.6231 296.706 12.1667 296.524Q11.7103 296.341 11.2653 296.137Q10.8203 295.933 10.3876 295.707Q9.95487 295.482 9.53531 295.236Q9.11574 294.99 8.71019 294.724Q8.30465 294.457 7.91394 294.171Q7.52324 293.885 7.14818 293.58Q6.77312 293.275 6.41446 292.951Q6.0558 292.627 5.71429 292.286Q5.37277 291.944 5.04909 291.586Q4.7254 291.227 4.42021 290.852Q4.11503 290.477 3.82895 290.086Q3.54288 289.695 3.27651 289.29Q3.01014 288.884 2.76402 288.465Q2.51789 288.045 2.29252 287.612Q2.06714 287.18 1.86296 286.735Q1.65879 286.29 1.47624 285.833Q1.29369 285.377 1.13314 284.91Q0.972587 284.443 0.834357 283.967Q0.696126 283.491 0.5805 283.006Q0.464874 282.521 0.37209 282.029Q0.279305 281.536 0.20955 281.038Q0.139795 280.539 0.0932124 280.034Q0.04663 279.53 0.023315 279.021Q0 278.512 0 278L0 20Q0 19.4877 0.023315 18.9789Q0.04663 18.47 0.0932124 17.9657Q0.139795 17.4613 0.20955 16.9625Q0.279305 16.4636 0.37209 15.9713Q0.464874 15.4789 0.5805 14.9941Q0.696126 14.5093 0.834357 14.033Q0.972587 13.5567 1.13314 13.0899Q1.29369 12.6231 1.47624 12.1667Q1.65879 11.7103 1.86296 11.2653Q2.06714 10.8203 2.29252 10.3876Q2.51789 9.95487 2.76402 9.53531Q3.01014 9.11574 3.27651 8.71019Q3.54288 8.30465 3.82895 7.91394Q4.11502 7.52324 4.42021 7.14818Q4.7254 6.77312 5.04909 6.41446Q5.37277 6.0558 5.71429 5.71429Q6.0558 5.37277 6.41446 5.04909Q6.77312 4.7254 7.14818 4.42021Q7.52324 4.11503 7.91394 3.82895Q8.30465 3.54288 8.71019 3.27651Q9.11574 3.01014 9.53531 2.76402Q9.95487 2.51789 10.3876 2.29252Q10.8203 2.06714 11.2653 1.86296Q11.7103 1.65879 12.1667 1.47624Q12.6231 1.29369 13.0899 1.13314Q13.5567 0.972587 14.033 0.834357Q14.5093 0.696126 14.9941 0.5805Q15.4789 0.464874 15.9713 0.37209Q16.4636 0.279305 16.9625 0.20955Q17.4613 0.139795 17.9657 0.0932124Q18.47 0.04663 18.9789 0.023315Q19.4877 0 20 0Z"/>
  </g>
  <defs>
    <clipPath id="clip_3">
      <path
        d="M734 120Q734 119.488 733.977 118.979Q733.953 118.47 733.907 117.966Q733.86 117.461 733.79 116.962Q733.721 116.464 733.628 115.971Q733.535 115.479 733.42 114.994Q733.304 114.509 733.166 114.033Q733.028 113.557 732.867 113.09Q732.706 112.623 732.524 112.167Q732.341 111.71 732.137 111.265Q731.933 110.82 731.708 110.388Q731.482 109.955 731.236 109.535Q730.99 109.116 730.723 108.71Q730.457 108.305 730.171 107.914Q729.885 107.523 729.58 107.148Q729.275 106.773 728.951 106.414Q728.627 106.056 728.286 105.714Q727.944 105.373 727.586 105.049Q727.227 104.725 726.852 104.42Q726.477 104.115 726.086 103.829Q725.695 103.543 725.29 103.277Q724.884 103.01 724.465 102.764Q724.045 102.518 723.612 102.293Q723.18 102.067 722.735 101.863Q722.29 101.659 721.833 101.476Q721.377 101.294 720.91 101.133Q720.443 100.973 719.967 100.834Q719.491 100.696 719.006 100.581Q718.521 100.465 718.029 100.372Q717.536 100.279 717.038 100.21Q716.539 100.14 716.034 100.093Q715.53 100.047 715.021 100.023Q714.512 100 714 100L126 100Q125.488 100 124.979 100.023Q124.47 100.047 123.966 100.093Q123.461 100.14 122.962 100.21Q122.464 100.279 121.971 100.372Q121.479 100.465 120.994 100.581Q120.509 100.696 120.033 100.834Q119.557 100.973 119.09 101.133Q118.623 101.294 118.167 101.476Q117.71 101.659 117.265 101.863Q116.82 102.067 116.388 102.293Q115.955 102.518 115.535 102.764Q115.116 103.01 114.71 103.277Q114.305 103.543 113.914 103.829Q113.523 104.115 113.148 104.42Q112.773 104.725 112.414 105.049Q112.056 105.373 111.714 105.714Q111.373 106.056 111.049 106.414Q110.725 106.773 110.42 107.148Q110.115 107.523 109.829 107.914Q109.543 108.305 109.277 108.71Q109.01 109.116 108.764 109.535Q108.518 109.955 108.293 110.388Q108.067 110.82 107.863 111.265Q107.659 111.71 107.476 112.167Q107.294 112.623 107.133 113.09Q106.973 113.557 106.834 114.033Q106.696 114.509 106.581 114.994Q106.465 115.479 106.372 115.971Q106.279 116.464 106.21 116.962Q106.14 117.461 106.093 117.966Q106.047 118.47 106.023 118.979Q106 119.488 106 120L106 378Q106 378.512 106.023 379.021Q106.047 379.53 106.093 380.034Q106.14 380.539 106.21 381.038Q106.279 381.536 106.372 382.029Q106.465 382.521 106.581 383.006Q106.696 383.491 106.834 383.967Q106.973 384.443 107.133 384.91Q107.294 385.377 107.476 385.833Q107.659 386.29 107.863 386.735Q108.067 387.18 108.293 387.612Q108.518 388.045 108.764 388.465Q109.01 388.884 109.277 389.29Q109.543 389.695 109.829 390.086Q110.115 390.477 110.42 390.852Q110.725 391.227 111.049 391.586Q111.373 391.944 111.714 392.286Q112.056 392.627 112.414 392.951Q112.773 393.275 113.148 393.58Q113.523 393.885 113.914 394.171Q114.305 394.457 114.71 394.724Q115.116 394.99 115.535 395.236Q115.955 395.482 116.388 395.708Q116.82 395.933 117.265 396.137Q117.71 396.341 118.167 396.524Q118.623 396.706 119.09 396.867Q119.557 397.027 120.033 397.166Q120.509 397.304 120.994 397.42Q121.479 397.535 121.971 397.628Q122.464 397.721 122.962 397.791Q123.461 397.86 123.966 397.907Q124.47 397.953 124.979 397.977Q125.488 398 126 398L714 398Q714.512 398 715.021 397.977Q715.53 397.953 716.034 397.907Q716.539 397.86 717.038 397.791Q717.536 397.721 718.029 397.628Q718.521 397.535 719.006 397.42Q719.491 397.304 719.967 397.166Q720.443 397.027 720.91 396.867Q721.377 396.706 721.833 396.524Q722.29 396.341 722.735 396.137Q723.18 395.933 723.612 395.708Q724.045 395.482 724.465 395.236Q724.884 394.99 725.29 394.724Q725.695 394.457 726.086 394.171Q726.477 393.885 726.852 393.58Q727.227 393.275 727.586 392.951Q727.944 392.627 728.286 392.286Q728.627 391.944 728.951 391.586Q729.275 391.227 729.58 390.852Q729.885 390.477 730.171 390.086Q730.457 389.695 730.724 389.29Q730.99 388.884 731.236 388.465Q731.482 388.045 731.708 387.612Q731.933 387.18 732.137 386.735Q732.341 386.29 732.524 385.833Q732.706 385.377 732.867 384.91Q733.028 384.443 733.166 383.967Q733.304 383.491 733.42 383.006Q733.535 382.521 733.628 382.029Q733.721 381.536 733.79 381.038Q733.86 380.539 733.907 380.034Q733.953 379.53 733.977 379.021Q734 378.512 734 378L734 120Z"
        clip-rule="evenodd"/>
    </clipPath>
  </defs>
  <g clip-path="url(#clip_3)">
    <path fill="none" stroke="rgb(1,13,40)" stroke-width="34" stroke-miterlimit="4" stroke-opacity="0.40784314"
          transform="translate(106 100)"
          d="M20 0L608 0Q608.512 0 609.021 0.023315Q609.53 0.04663 610.034 0.0932124Q610.539 0.139795 611.038 0.20955Q611.536 0.279305 612.029 0.37209Q612.521 0.464874 613.006 0.5805Q613.491 0.696126 613.967 0.834357Q614.443 0.972587 614.91 1.13314Q615.377 1.29369 615.833 1.47624Q616.29 1.65879 616.735 1.86296Q617.18 2.06714 617.612 2.29252Q618.045 2.51789 618.465 2.76402Q618.884 3.01014 619.29 3.27651Q619.695 3.54288 620.086 3.82895Q620.477 4.11502 620.852 4.42021Q621.227 4.7254 621.586 5.04909Q621.944 5.37277 622.286 5.71429Q622.627 6.0558 622.951 6.41446Q623.275 6.77312 623.58 7.14818Q623.885 7.52324 624.171 7.91394Q624.457 8.30465 624.724 8.71019Q624.99 9.11574 625.236 9.53531Q625.482 9.95487 625.708 10.3876Q625.933 10.8203 626.137 11.2653Q626.341 11.7103 626.524 12.1667Q626.706 12.6231 626.867 13.0899Q627.027 13.5567 627.166 14.033Q627.304 14.5093 627.42 14.9941Q627.535 15.4789 627.628 15.9713Q627.721 16.4636 627.79 16.9625Q627.86 17.4613 627.907 17.9657Q627.953 18.47 627.977 18.9789Q628 19.4877 628 20L628 278Q628 278.512 627.977 279.021Q627.953 279.53 627.907 280.034Q627.86 280.539 627.79 281.038Q627.721 281.536 627.628 282.029Q627.535 282.521 627.42 283.006Q627.304 283.491 627.166 283.967Q627.027 284.443 626.867 284.91Q626.706 285.377 626.524 285.833Q626.341 286.29 626.137 286.735Q625.933 287.18 625.708 287.612Q625.482 288.045 625.236 288.465Q624.99 288.884 624.724 289.29Q624.457 289.695 624.171 290.086Q623.885 290.477 623.58 290.852Q623.275 291.227 622.951 291.586Q622.627 291.944 622.286 292.286Q621.944 292.627 621.586 292.951Q621.227 293.275 620.852 293.58Q620.477 293.885 620.086 294.171Q619.695 294.457 619.29 294.724Q618.884 294.99 618.465 295.236Q618.045 295.482 617.612 295.707Q617.18 295.933 616.735 296.137Q616.29 296.341 615.833 296.524Q615.377 296.706 614.91 296.867Q614.443 297.027 613.967 297.166Q613.491 297.304 613.006 297.42Q612.521 297.535 612.029 297.628Q611.536 297.721 611.038 297.79Q610.539 297.86 610.034 297.907Q609.53 297.953 609.021 297.977Q608.512 298 608 298L20 298Q19.4877 298 18.9789 297.977Q18.47 297.953 17.9657 297.907Q17.4613 297.86 16.9625 297.79Q16.4636 297.721 15.9713 297.628Q15.4789 297.535 14.9941 297.42Q14.5093 297.304 14.033 297.166Q13.5567 297.027 13.0899 296.867Q12.6231 296.706 12.1667 296.524Q11.7103 296.341 11.2653 296.137Q10.8203 295.933 10.3876 295.707Q9.95487 295.482 9.53531 295.236Q9.11574 294.99 8.71019 294.724Q8.30465 294.457 7.91394 294.171Q7.52324 293.885 7.14818 293.58Q6.77312 293.275 6.41446 292.951Q6.0558 292.627 5.71429 292.286Q5.37277 291.944 5.04909 291.586Q4.7254 291.227 4.42021 290.852Q4.11503 290.477 3.82895 290.086Q3.54288 289.695 3.27651 289.29Q3.01014 288.884 2.76402 288.465Q2.51789 288.045 2.29252 287.612Q2.06714 287.18 1.86296 286.735Q1.65879 286.29 1.47624 285.833Q1.29369 285.377 1.13314 284.91Q0.972587 284.443 0.834357 283.967Q0.696126 283.491 0.5805 283.006Q0.464874 282.521 0.37209 282.029Q0.279305 281.536 0.20955 281.038Q0.139795 280.539 0.0932124 280.034Q0.04663 279.53 0.023315 279.021Q0 278.512 0 278L0 20Q0 19.4877 0.023315 18.9789Q0.04663 18.47 0.0932124 17.9657Q0.139795 17.4613 0.20955 16.9625Q0.279305 16.4636 0.37209 15.9713Q0.464874 15.4789 0.5805 14.9941Q0.696126 14.5093 0.834357 14.033Q0.972587 13.5567 1.13314 13.0899Q1.29369 12.6231 1.47624 12.1667Q1.65879 11.7103 1.86296 11.2653Q2.06714 10.8203 2.29252 10.3876Q2.51789 9.95487 2.76402 9.53531Q3.01014 9.11574 3.27651 8.71019Q3.54288 8.30465 3.82895 7.91394Q4.11502 7.52324 4.42021 7.14818Q4.7254 6.77312 5.04909 6.41446Q5.37277 6.0558 5.71429 5.71429Q6.0558 5.37277 6.41446 5.04909Q6.77312 4.7254 7.14818 4.42021Q7.52324 4.11503 7.91394 3.82895Q8.30465 3.54288 8.71019 3.27651Q9.11574 3.01014 9.53531 2.76402Q9.95487 2.51789 10.3876 2.29252Q10.8203 2.06714 11.2653 1.86296Q11.7103 1.65879 12.1667 1.47624Q12.6231 1.29369 13.0899 1.13314Q13.5567 0.972587 14.033 0.834357Q14.5093 0.696126 14.9941 0.5805Q15.4789 0.464874 15.9713 0.37209Q16.4636 0.279305 16.9625 0.20955Q17.4613 0.139795 17.9657 0.0932124Q18.47 0.04663 18.9789 0.023315Q19.4877 0 20 0L608 0Q608.512 0 609.021 0.023315Q609.53 0.04663 610.034 0.0932124Q610.539 0.139795 611.038 0.20955Q611.536 0.279305 612.029 0.37209Q612.521 0.464874 613.006 0.5805Q613.491 0.696126 613.967 0.834357Q614.443 0.972587 614.91 1.13314Q615.377 1.29369 615.833 1.47624Q616.29 1.65879 616.735 1.86296Q617.18 2.06714 617.612 2.29252Q618.045 2.51789 618.465 2.76402Q618.884 3.01014 619.29 3.27651Q619.695 3.54288 620.086 3.82895Q620.477 4.11502 620.852 4.42021Q621.227 4.7254 621.586 5.04909Q621.944 5.37277 622.286 5.71429Q622.627 6.0558 622.951 6.41446Q623.275 6.77312 623.58 7.14818Q623.885 7.52324 624.171 7.91394Q624.457 8.30465 624.724 8.71019Q624.99 9.11574 625.236 9.53531Q625.482 9.95487 625.708 10.3876Q625.933 10.8203 626.137 11.2653Q626.341 11.7103 626.524 12.1667Q626.706 12.6231 626.867 13.0899Q627.027 13.5567 627.166 14.033Q627.304 14.5093 627.42 14.9941Q627.535 15.4789 627.628 15.9713Q627.721 16.4636 627.79 16.9625Q627.86 17.4613 627.907 17.9657Q627.953 18.47 627.977 18.9789Q628 19.4877 628 20L628 278Q628 278.512 627.977 279.021Q627.953 279.53 627.907 280.034Q627.86 280.539 627.79 281.038Q627.721 281.536 627.628 282.029Q627.535 282.521 627.42 283.006Q627.304 283.491 627.166 283.967Q627.027 284.443 626.867 284.91Q626.706 285.377 626.524 285.833Q626.341 286.29 626.137 286.735Q625.933 287.18 625.708 287.612Q625.482 288.045 625.236 288.465Q624.99 288.884 624.724 289.29Q624.457 289.695 624.171 290.086Q623.885 290.477 623.58 290.852Q623.275 291.227 622.951 291.586Q622.627 291.944 622.286 292.286Q621.944 292.627 621.586 292.951Q621.227 293.275 620.852 293.58Q620.477 293.885 620.086 294.171Q619.695 294.457 619.29 294.724Q618.884 294.99 618.465 295.236Q618.045 295.482 617.612 295.707Q617.18 295.933 616.735 296.137Q616.29 296.341 615.833 296.524Q615.377 296.706 614.91 296.867Q614.443 297.027 613.967 297.166Q613.491 297.304 613.006 297.42Q612.521 297.535 612.029 297.628Q611.536 297.721 611.038 297.79Q610.539 297.86 610.034 297.907Q609.53 297.953 609.021 297.977Q608.512 298 608 298L20 298Q19.4877 298 18.9789 297.977Q18.47 297.953 17.9657 297.907Q17.4613 297.86 16.9625 297.79Q16.4636 297.721 15.9713 297.628Q15.4789 297.535 14.9941 297.42Q14.5093 297.304 14.033 297.166Q13.5567 297.027 13.0899 296.867Q12.6231 296.706 12.1667 296.524Q11.7103 296.341 11.2653 296.137Q10.8203 295.933 10.3876 295.707Q9.95487 295.482 9.53531 295.236Q9.11574 294.99 8.71019 294.724Q8.30465 294.457 7.91394 294.171Q7.52324 293.885 7.14818 293.58Q6.77312 293.275 6.41446 292.951Q6.0558 292.627 5.71429 292.286Q5.37277 291.944 5.04909 291.586Q4.7254 291.227 4.42021 290.852Q4.11503 290.477 3.82895 290.086Q3.54288 289.695 3.27651 289.29Q3.01014 288.884 2.76402 288.465Q2.51789 288.045 2.29252 287.612Q2.06714 287.18 1.86296 286.735Q1.65879 286.29 1.47624 285.833Q1.29369 285.377 1.13314 284.91Q0.972587 284.443 0.834357 283.967Q0.696126 283.491 0.5805 283.006Q0.464874 282.521 0.37209 282.029Q0.279305 281.536 0.20955 281.038Q0.139795 280.539 0.0932124 280.034Q0.04663 279.53 0.023315 279.021Q0 278.512 0 278L0 20Q0 19.4877 0.023315 18.9789Q0.04663 18.47 0.0932124 17.9657Q0.139795 17.4613 0.20955 16.9625Q0.279305 16.4636 0.37209 15.9713Q0.464874 15.4789 0.5805 14.9941Q0.696126 14.5093 0.834357 14.033Q0.972587 13.5567 1.13314 13.0899Q1.29369 12.6231 1.47624 12.1667Q1.65879 11.7103 1.86296 11.2653Q2.06714 10.8203 2.29252 10.3876Q2.51789 9.95487 2.76402 9.53531Q3.01014 9.11574 3.27651 8.71019Q3.54288 8.30465 3.82895 7.91394Q4.11502 7.52324 4.42021 7.14818Q4.7254 6.77312 5.04909 6.41446Q5.37277 6.0558 5.71429 5.71429Q6.0558 5.37277 6.41446 5.04909Q6.77312 4.7254 7.14818 4.42021Q7.52324 4.11503 7.91394 3.82895Q8.30465 3.54288 8.71019 3.27651Q9.11574 3.01014 9.53531 2.76402Q9.95487 2.51789 10.3876 2.29252Q10.8203 2.06714 11.2653 1.86296Q11.7103 1.65879 12.1667 1.47624Q12.6231 1.29369 13.0899 1.13314Q13.5567 0.972587 14.033 0.834357Q14.5093 0.696126 14.9941 0.5805Q15.4789 0.464874 15.9713 0.37209Q16.4636 0.279305 16.9625 0.20955Q17.4613 0.139795 17.9657 0.0932124Q18.47 0.04663 18.9789 0.023315Q19.4877 0 20 0Z"/>
  </g>
  <defs>
    <clipPath id="clip_4">
      <rect x="-181" y="-273" width="1200" height="1084" clip-rule="evenodd"/>
    </clipPath>
  </defs>
  <g clip-path="url(#clip_4)">
    <path fill="rgb(255,255,255)" stroke="none" transform="translate(211 220)"
          d="M20 0L608 0Q608.512 0 609.021 0.023315Q609.53 0.04663 610.034 0.0932124Q610.539 0.139795 611.038 0.20955Q611.536 0.279305 612.029 0.37209Q612.521 0.464874 613.006 0.5805Q613.491 0.696126 613.967 0.834357Q614.443 0.972587 614.91 1.13314Q615.377 1.29369 615.833 1.47624Q616.29 1.65879 616.735 1.86296Q617.18 2.06714 617.612 2.29252Q618.045 2.51789 618.465 2.76402Q618.884 3.01014 619.29 3.27651Q619.695 3.54288 620.086 3.82895Q620.477 4.11502 620.852 4.42021Q621.227 4.7254 621.586 5.04909Q621.944 5.37277 622.286 5.71429Q622.627 6.0558 622.951 6.41446Q623.275 6.77312 623.58 7.14818Q623.885 7.52324 624.171 7.91394Q624.457 8.30465 624.724 8.71019Q624.99 9.11574 625.236 9.53531Q625.482 9.95487 625.708 10.3876Q625.933 10.8203 626.137 11.2653Q626.341 11.7103 626.524 12.1667Q626.706 12.6231 626.867 13.0899Q627.027 13.5567 627.166 14.033Q627.304 14.5093 627.42 14.9941Q627.535 15.4789 627.628 15.9713Q627.721 16.4636 627.79 16.9625Q627.86 17.4613 627.907 17.9657Q627.953 18.47 627.977 18.9789Q628 19.4877 628 20L628 278Q628 278.512 627.977 279.021Q627.953 279.53 627.907 280.034Q627.86 280.539 627.79 281.038Q627.721 281.536 627.628 282.029Q627.535 282.521 627.42 283.006Q627.304 283.491 627.166 283.967Q627.027 284.443 626.867 284.91Q626.706 285.377 626.524 285.833Q626.341 286.29 626.137 286.735Q625.933 287.18 625.708 287.612Q625.482 288.045 625.236 288.465Q624.99 288.884 624.724 289.29Q624.457 289.695 624.171 290.086Q623.885 290.477 623.58 290.852Q623.275 291.227 622.951 291.586Q622.627 291.944 622.286 292.286Q621.944 292.627 621.586 292.951Q621.227 293.275 620.852 293.58Q620.477 293.885 620.086 294.171Q619.695 294.457 619.29 294.724Q618.884 294.99 618.465 295.236Q618.045 295.482 617.612 295.707Q617.18 295.933 616.735 296.137Q616.29 296.341 615.833 296.524Q615.377 296.706 614.91 296.867Q614.443 297.027 613.967 297.166Q613.491 297.304 613.006 297.42Q612.521 297.535 612.029 297.628Q611.536 297.721 611.038 297.79Q610.539 297.86 610.034 297.907Q609.53 297.953 609.021 297.977Q608.512 298 608 298L20 298Q19.4877 298 18.9789 297.977Q18.47 297.953 17.9657 297.907Q17.4613 297.86 16.9625 297.79Q16.4636 297.721 15.9713 297.628Q15.4789 297.535 14.9941 297.42Q14.5093 297.304 14.033 297.166Q13.5567 297.027 13.0899 296.867Q12.6231 296.706 12.1667 296.524Q11.7103 296.341 11.2653 296.137Q10.8203 295.933 10.3876 295.707Q9.95487 295.482 9.53531 295.236Q9.11574 294.99 8.71019 294.724Q8.30465 294.457 7.91394 294.171Q7.52324 293.885 7.14818 293.58Q6.77312 293.275 6.41446 292.951Q6.0558 292.627 5.71429 292.286Q5.37277 291.944 5.04909 291.586Q4.7254 291.227 4.42021 290.852Q4.11503 290.477 3.82895 290.086Q3.54288 289.695 3.27651 289.29Q3.01014 288.884 2.76402 288.465Q2.51789 288.045 2.29252 287.612Q2.06714 287.18 1.86296 286.735Q1.65879 286.29 1.47624 285.833Q1.29369 285.377 1.13314 284.91Q0.972587 284.443 0.834357 283.967Q0.696126 283.491 0.5805 283.006Q0.464874 282.521 0.37209 282.029Q0.279305 281.536 0.20955 281.038Q0.139795 280.539 0.0932124 280.034Q0.04663 279.53 0.023315 279.021Q0 278.512 0 278L0 20Q0 19.4877 0.023315 18.9789Q0.04663 18.47 0.0932124 17.9657Q0.139795 17.4613 0.20955 16.9625Q0.279305 16.4636 0.37209 15.9713Q0.464874 15.4789 0.5805 14.9941Q0.696126 14.5093 0.834357 14.033Q0.972587 13.5567 1.13314 13.0899Q1.29369 12.6231 1.47624 12.1667Q1.65879 11.7103 1.86296 11.2653Q2.06714 10.8203 2.29252 10.3876Q2.51789 9.95487 2.76402 9.53531Q3.01014 9.11574 3.27651 8.71019Q3.54288 8.30465 3.82895 7.91394Q4.11502 7.52324 4.42021 7.14818Q4.7254 6.77312 5.04909 6.41446Q5.37277 6.0558 5.71429 5.71429Q6.0558 5.37277 6.41446 5.04909Q6.77312 4.7254 7.14818 4.42021Q7.52324 4.11503 7.91394 3.82895Q8.30465 3.54288 8.71019 3.27651Q9.11574 3.01014 9.53531 2.76402Q9.95487 2.51789 10.3876 2.29252Q10.8203 2.06714 11.2653 1.86296Q11.7103 1.65879 12.1667 1.47624Q12.6231 1.29369 13.0899 1.13314Q13.5567 0.972587 14.033 0.834357Q14.5093 0.696126 14.9941 0.5805Q15.4789 0.464874 15.9713 0.37209Q16.4636 0.279305 16.9625 0.20955Q17.4613 0.139795 17.9657 0.0932124Q18.47 0.04663 18.9789 0.023315Q19.4877 0 20 0L608 0Q608.512 0 609.021 0.023315Q609.53 0.04663 610.034 0.0932124Q610.539 0.139795 611.038 0.20955Q611.536 0.279305 612.029 0.37209Q612.521 0.464874 613.006 0.5805Q613.491 0.696126 613.967 0.834357Q614.443 0.972587 614.91 1.13314Q615.377 1.29369 615.833 1.47624Q616.29 1.65879 616.735 1.86296Q617.18 2.06714 617.612 2.29252Q618.045 2.51789 618.465 2.76402Q618.884 3.01014 619.29 3.27651Q619.695 3.54288 620.086 3.82895Q620.477 4.11502 620.852 4.42021Q621.227 4.7254 621.586 5.04909Q621.944 5.37277 622.286 5.71429Q622.627 6.0558 622.951 6.41446Q623.275 6.77312 623.58 7.14818Q623.885 7.52324 624.171 7.91394Q624.457 8.30465 624.724 8.71019Q624.99 9.11574 625.236 9.53531Q625.482 9.95487 625.708 10.3876Q625.933 10.8203 626.137 11.2653Q626.341 11.7103 626.524 12.1667Q626.706 12.6231 626.867 13.0899Q627.027 13.5567 627.166 14.033Q627.304 14.5093 627.42 14.9941Q627.535 15.4789 627.628 15.9713Q627.721 16.4636 627.79 16.9625Q627.86 17.4613 627.907 17.9657Q627.953 18.47 627.977 18.9789Q628 19.4877 628 20L628 278Q628 278.512 627.977 279.021Q627.953 279.53 627.907 280.034Q627.86 280.539 627.79 281.038Q627.721 281.536 627.628 282.029Q627.535 282.521 627.42 283.006Q627.304 283.491 627.166 283.967Q627.027 284.443 626.867 284.91Q626.706 285.377 626.524 285.833Q626.341 286.29 626.137 286.735Q625.933 287.18 625.708 287.612Q625.482 288.045 625.236 288.465Q624.99 288.884 624.724 289.29Q624.457 289.695 624.171 290.086Q623.885 290.477 623.58 290.852Q623.275 291.227 622.951 291.586Q622.627 291.944 622.286 292.286Q621.944 292.627 621.586 292.951Q621.227 293.275 620.852 293.58Q620.477 293.885 620.086 294.171Q619.695 294.457 619.29 294.724Q618.884 294.99 618.465 295.236Q618.045 295.482 617.612 295.707Q617.18 295.933 616.735 296.137Q616.29 296.341 615.833 296.524Q615.377 296.706 614.91 296.867Q614.443 297.027 613.967 297.166Q613.491 297.304 613.006 297.42Q612.521 297.535 612.029 297.628Q611.536 297.721 611.038 297.79Q610.539 297.86 610.034 297.907Q609.53 297.953 609.021 297.977Q608.512 298 608 298L20 298Q19.4877 298 18.9789 297.977Q18.47 297.953 17.9657 297.907Q17.4613 297.86 16.9625 297.79Q16.4636 297.721 15.9713 297.628Q15.4789 297.535 14.9941 297.42Q14.5093 297.304 14.033 297.166Q13.5567 297.027 13.0899 296.867Q12.6231 296.706 12.1667 296.524Q11.7103 296.341 11.2653 296.137Q10.8203 295.933 10.3876 295.707Q9.95487 295.482 9.53531 295.236Q9.11574 294.99 8.71019 294.724Q8.30465 294.457 7.91394 294.171Q7.52324 293.885 7.14818 293.58Q6.77312 293.275 6.41446 292.951Q6.0558 292.627 5.71429 292.286Q5.37277 291.944 5.04909 291.586Q4.7254 291.227 4.42021 290.852Q4.11503 290.477 3.82895 290.086Q3.54288 289.695 3.27651 289.29Q3.01014 288.884 2.76402 288.465Q2.51789 288.045 2.29252 287.612Q2.06714 287.18 1.86296 286.735Q1.65879 286.29 1.47624 285.833Q1.29369 285.377 1.13314 284.91Q0.972587 284.443 0.834357 283.967Q0.696126 283.491 0.5805 283.006Q0.464874 282.521 0.37209 282.029Q0.279305 281.536 0.20955 281.038Q0.139795 280.539 0.0932124 280.034Q0.04663 279.53 0.023315 279.021Q0 278.512 0 278L0 20Q0 19.4877 0.023315 18.9789Q0.04663 18.47 0.0932124 17.9657Q0.139795 17.4613 0.20955 16.9625Q0.279305 16.4636 0.37209 15.9713Q0.464874 15.4789 0.5805 14.9941Q0.696126 14.5093 0.834357 14.033Q0.972587 13.5567 1.13314 13.0899Q1.29369 12.6231 1.47624 12.1667Q1.65879 11.7103 1.86296 11.2653Q2.06714 10.8203 2.29252 10.3876Q2.51789 9.95487 2.76402 9.53531Q3.01014 9.11574 3.27651 8.71019Q3.54288 8.30465 3.82895 7.91394Q4.11502 7.52324 4.42021 7.14818Q4.7254 6.77312 5.04909 6.41446Q5.37277 6.0558 5.71429 5.71429Q6.0558 5.37277 6.41446 5.04909Q6.77312 4.7254 7.14818 4.42021Q7.52324 4.11503 7.91394 3.82895Q8.30465 3.54288 8.71019 3.27651Q9.11574 3.01014 9.53531 2.76402Q9.95487 2.51789 10.3876 2.29252Q10.8203 2.06714 11.2653 1.86296Q11.7103 1.65879 12.1667 1.47624Q12.6231 1.29369 13.0899 1.13314Q13.5567 0.972587 14.033 0.834357Q14.5093 0.696126 14.9941 0.5805Q15.4789 0.464874 15.9713 0.37209Q16.4636 0.279305 16.9625 0.20955Q17.4613 0.139795 17.9657 0.0932124Q18.47 0.04663 18.9789 0.023315Q19.4877 0 20 0Z"/>
  </g>
  <defs>
    <clipPath id="clip_5">
      <path
        d="M839 240Q839 239.488 838.977 238.979Q838.953 238.47 838.907 237.966Q838.86 237.461 838.791 236.962Q838.721 236.464 838.628 235.971Q838.535 235.479 838.42 234.994Q838.304 234.509 838.166 234.033Q838.028 233.557 837.867 233.09Q837.706 232.623 837.524 232.167Q837.341 231.71 837.137 231.265Q836.933 230.82 836.708 230.388Q836.482 229.955 836.236 229.535Q835.99 229.116 835.724 228.71Q835.457 228.305 835.171 227.914Q834.885 227.523 834.58 227.148Q834.275 226.773 833.951 226.414Q833.627 226.056 833.286 225.714Q832.944 225.373 832.586 225.049Q832.227 224.725 831.852 224.42Q831.477 224.115 831.086 223.829Q830.695 223.543 830.29 223.277Q829.884 223.01 829.465 222.764Q829.045 222.518 828.612 222.293Q828.18 222.067 827.735 221.863Q827.29 221.659 826.833 221.476Q826.377 221.294 825.91 221.133Q825.443 220.973 824.967 220.834Q824.491 220.696 824.006 220.581Q823.521 220.465 823.029 220.372Q822.536 220.279 822.038 220.21Q821.539 220.14 821.034 220.093Q820.53 220.047 820.021 220.023Q819.512 220 819 220L231 220Q230.488 220 229.979 220.023Q229.47 220.047 228.966 220.093Q228.461 220.14 227.962 220.21Q227.464 220.279 226.971 220.372Q226.479 220.465 225.994 220.581Q225.509 220.696 225.033 220.834Q224.557 220.973 224.09 221.133Q223.623 221.294 223.167 221.476Q222.71 221.659 222.265 221.863Q221.82 222.067 221.388 222.293Q220.955 222.518 220.535 222.764Q220.116 223.01 219.71 223.277Q219.305 223.543 218.914 223.829Q218.523 224.115 218.148 224.42Q217.773 224.725 217.415 225.049Q217.056 225.373 216.714 225.714Q216.373 226.056 216.049 226.414Q215.725 226.773 215.42 227.148Q215.115 227.523 214.829 227.914Q214.543 228.305 214.277 228.71Q214.01 229.116 213.764 229.535Q213.518 229.955 213.293 230.388Q213.067 230.82 212.863 231.265Q212.659 231.71 212.476 232.167Q212.294 232.623 212.133 233.09Q211.973 233.557 211.834 234.033Q211.696 234.509 211.581 234.994Q211.465 235.479 211.372 235.971Q211.279 236.464 211.21 236.962Q211.14 237.461 211.093 237.966Q211.047 238.47 211.023 238.979Q211 239.488 211 240L211 498Q211 498.512 211.023 499.021Q211.047 499.53 211.093 500.034Q211.14 500.539 211.21 501.038Q211.279 501.536 211.372 502.029Q211.465 502.521 211.581 503.006Q211.696 503.491 211.834 503.967Q211.973 504.443 212.133 504.91Q212.294 505.377 212.476 505.833Q212.659 506.29 212.863 506.735Q213.067 507.18 213.293 507.612Q213.518 508.045 213.764 508.465Q214.01 508.884 214.277 509.29Q214.543 509.695 214.829 510.086Q215.115 510.477 215.42 510.852Q215.725 511.227 216.049 511.586Q216.373 511.944 216.714 512.286Q217.056 512.627 217.414 512.951Q217.773 513.275 218.148 513.58Q218.523 513.885 218.914 514.171Q219.305 514.457 219.71 514.724Q220.116 514.99 220.535 515.236Q220.955 515.482 221.388 515.708Q221.82 515.933 222.265 516.137Q222.71 516.341 223.167 516.524Q223.623 516.706 224.09 516.867Q224.557 517.027 225.033 517.166Q225.509 517.304 225.994 517.42Q226.479 517.535 226.971 517.628Q227.464 517.721 227.962 517.79Q228.461 517.86 228.966 517.907Q229.47 517.953 229.979 517.977Q230.488 518 231 518L819 518Q819.512 518 820.021 517.977Q820.53 517.953 821.034 517.907Q821.539 517.86 822.038 517.79Q822.536 517.721 823.029 517.628Q823.521 517.535 824.006 517.42Q824.491 517.304 824.967 517.166Q825.443 517.027 825.91 516.867Q826.377 516.706 826.833 516.524Q827.29 516.341 827.735 516.137Q828.18 515.933 828.613 515.708Q829.045 515.482 829.465 515.236Q829.884 514.99 830.29 514.724Q830.695 514.457 831.086 514.171Q831.477 513.885 831.852 513.58Q832.227 513.275 832.586 512.951Q832.944 512.627 833.286 512.286Q833.627 511.944 833.951 511.586Q834.275 511.227 834.58 510.852Q834.885 510.477 835.171 510.086Q835.457 509.695 835.724 509.29Q835.99 508.884 836.236 508.465Q836.482 508.045 836.708 507.612Q836.933 507.18 837.137 506.735Q837.341 506.29 837.524 505.833Q837.706 505.377 837.867 504.91Q838.028 504.443 838.166 503.967Q838.304 503.491 838.42 503.006Q838.535 502.521 838.628 502.029Q838.721 501.536 838.791 501.038Q838.86 500.539 838.907 500.034Q838.953 499.53 838.977 499.021Q839 498.512 839 498L839 240Z"
        clip-rule="evenodd"/>
    </clipPath>
  </defs>
  <g clip-path="url(#clip_5)">
    <path fill="none" stroke="rgb(1,13,40)" stroke-width="34" stroke-miterlimit="4" transform="translate(211 220)"
          d="M20 0L608 0Q608.512 0 609.021 0.023315Q609.53 0.04663 610.034 0.0932124Q610.539 0.139795 611.038 0.20955Q611.536 0.279305 612.029 0.37209Q612.521 0.464874 613.006 0.5805Q613.491 0.696126 613.967 0.834357Q614.443 0.972587 614.91 1.13314Q615.377 1.29369 615.833 1.47624Q616.29 1.65879 616.735 1.86296Q617.18 2.06714 617.612 2.29252Q618.045 2.51789 618.465 2.76402Q618.884 3.01014 619.29 3.27651Q619.695 3.54288 620.086 3.82895Q620.477 4.11502 620.852 4.42021Q621.227 4.7254 621.586 5.04909Q621.944 5.37277 622.286 5.71429Q622.627 6.0558 622.951 6.41446Q623.275 6.77312 623.58 7.14818Q623.885 7.52324 624.171 7.91394Q624.457 8.30465 624.724 8.71019Q624.99 9.11574 625.236 9.53531Q625.482 9.95487 625.708 10.3876Q625.933 10.8203 626.137 11.2653Q626.341 11.7103 626.524 12.1667Q626.706 12.6231 626.867 13.0899Q627.027 13.5567 627.166 14.033Q627.304 14.5093 627.42 14.9941Q627.535 15.4789 627.628 15.9713Q627.721 16.4636 627.79 16.9625Q627.86 17.4613 627.907 17.9657Q627.953 18.47 627.977 18.9789Q628 19.4877 628 20L628 278Q628 278.512 627.977 279.021Q627.953 279.53 627.907 280.034Q627.86 280.539 627.79 281.038Q627.721 281.536 627.628 282.029Q627.535 282.521 627.42 283.006Q627.304 283.491 627.166 283.967Q627.027 284.443 626.867 284.91Q626.706 285.377 626.524 285.833Q626.341 286.29 626.137 286.735Q625.933 287.18 625.708 287.612Q625.482 288.045 625.236 288.465Q624.99 288.884 624.724 289.29Q624.457 289.695 624.171 290.086Q623.885 290.477 623.58 290.852Q623.275 291.227 622.951 291.586Q622.627 291.944 622.286 292.286Q621.944 292.627 621.586 292.951Q621.227 293.275 620.852 293.58Q620.477 293.885 620.086 294.171Q619.695 294.457 619.29 294.724Q618.884 294.99 618.465 295.236Q618.045 295.482 617.612 295.707Q617.18 295.933 616.735 296.137Q616.29 296.341 615.833 296.524Q615.377 296.706 614.91 296.867Q614.443 297.027 613.967 297.166Q613.491 297.304 613.006 297.42Q612.521 297.535 612.029 297.628Q611.536 297.721 611.038 297.79Q610.539 297.86 610.034 297.907Q609.53 297.953 609.021 297.977Q608.512 298 608 298L20 298Q19.4877 298 18.9789 297.977Q18.47 297.953 17.9657 297.907Q17.4613 297.86 16.9625 297.79Q16.4636 297.721 15.9713 297.628Q15.4789 297.535 14.9941 297.42Q14.5093 297.304 14.033 297.166Q13.5567 297.027 13.0899 296.867Q12.6231 296.706 12.1667 296.524Q11.7103 296.341 11.2653 296.137Q10.8203 295.933 10.3876 295.707Q9.95487 295.482 9.53531 295.236Q9.11574 294.99 8.71019 294.724Q8.30465 294.457 7.91394 294.171Q7.52324 293.885 7.14818 293.58Q6.77312 293.275 6.41446 292.951Q6.0558 292.627 5.71429 292.286Q5.37277 291.944 5.04909 291.586Q4.7254 291.227 4.42021 290.852Q4.11503 290.477 3.82895 290.086Q3.54288 289.695 3.27651 289.29Q3.01014 288.884 2.76402 288.465Q2.51789 288.045 2.29252 287.612Q2.06714 287.18 1.86296 286.735Q1.65879 286.29 1.47624 285.833Q1.29369 285.377 1.13314 284.91Q0.972587 284.443 0.834357 283.967Q0.696126 283.491 0.5805 283.006Q0.464874 282.521 0.37209 282.029Q0.279305 281.536 0.20955 281.038Q0.139795 280.539 0.0932124 280.034Q0.04663 279.53 0.023315 279.021Q0 278.512 0 278L0 20Q0 19.4877 0.023315 18.9789Q0.04663 18.47 0.0932124 17.9657Q0.139795 17.4613 0.20955 16.9625Q0.279305 16.4636 0.37209 15.9713Q0.464874 15.4789 0.5805 14.9941Q0.696126 14.5093 0.834357 14.033Q0.972587 13.5567 1.13314 13.0899Q1.29369 12.6231 1.47624 12.1667Q1.65879 11.7103 1.86296 11.2653Q2.06714 10.8203 2.29252 10.3876Q2.51789 9.95487 2.76402 9.53531Q3.01014 9.11574 3.27651 8.71019Q3.54288 8.30465 3.82895 7.91394Q4.11502 7.52324 4.42021 7.14818Q4.7254 6.77312 5.04909 6.41446Q5.37277 6.0558 5.71429 5.71429Q6.0558 5.37277 6.41446 5.04909Q6.77312 4.7254 7.14818 4.42021Q7.52324 4.11503 7.91394 3.82895Q8.30465 3.54288 8.71019 3.27651Q9.11574 3.01014 9.53531 2.76402Q9.95487 2.51789 10.3876 2.29252Q10.8203 2.06714 11.2653 1.86296Q11.7103 1.65879 12.1667 1.47624Q12.6231 1.29369 13.0899 1.13314Q13.5567 0.972587 14.033 0.834357Q14.5093 0.696126 14.9941 0.5805Q15.4789 0.464874 15.9713 0.37209Q16.4636 0.279305 16.9625 0.20955Q17.4613 0.139795 17.9657 0.0932124Q18.47 0.04663 18.9789 0.023315Q19.4877 0 20 0L608 0Q608.512 0 609.021 0.023315Q609.53 0.04663 610.034 0.0932124Q610.539 0.139795 611.038 0.20955Q611.536 0.279305 612.029 0.37209Q612.521 0.464874 613.006 0.5805Q613.491 0.696126 613.967 0.834357Q614.443 0.972587 614.91 1.13314Q615.377 1.29369 615.833 1.47624Q616.29 1.65879 616.735 1.86296Q617.18 2.06714 617.612 2.29252Q618.045 2.51789 618.465 2.76402Q618.884 3.01014 619.29 3.27651Q619.695 3.54288 620.086 3.82895Q620.477 4.11502 620.852 4.42021Q621.227 4.7254 621.586 5.04909Q621.944 5.37277 622.286 5.71429Q622.627 6.0558 622.951 6.41446Q623.275 6.77312 623.58 7.14818Q623.885 7.52324 624.171 7.91394Q624.457 8.30465 624.724 8.71019Q624.99 9.11574 625.236 9.53531Q625.482 9.95487 625.708 10.3876Q625.933 10.8203 626.137 11.2653Q626.341 11.7103 626.524 12.1667Q626.706 12.6231 626.867 13.0899Q627.027 13.5567 627.166 14.033Q627.304 14.5093 627.42 14.9941Q627.535 15.4789 627.628 15.9713Q627.721 16.4636 627.79 16.9625Q627.86 17.4613 627.907 17.9657Q627.953 18.47 627.977 18.9789Q628 19.4877 628 20L628 278Q628 278.512 627.977 279.021Q627.953 279.53 627.907 280.034Q627.86 280.539 627.79 281.038Q627.721 281.536 627.628 282.029Q627.535 282.521 627.42 283.006Q627.304 283.491 627.166 283.967Q627.027 284.443 626.867 284.91Q626.706 285.377 626.524 285.833Q626.341 286.29 626.137 286.735Q625.933 287.18 625.708 287.612Q625.482 288.045 625.236 288.465Q624.99 288.884 624.724 289.29Q624.457 289.695 624.171 290.086Q623.885 290.477 623.58 290.852Q623.275 291.227 622.951 291.586Q622.627 291.944 622.286 292.286Q621.944 292.627 621.586 292.951Q621.227 293.275 620.852 293.58Q620.477 293.885 620.086 294.171Q619.695 294.457 619.29 294.724Q618.884 294.99 618.465 295.236Q618.045 295.482 617.612 295.707Q617.18 295.933 616.735 296.137Q616.29 296.341 615.833 296.524Q615.377 296.706 614.91 296.867Q614.443 297.027 613.967 297.166Q613.491 297.304 613.006 297.42Q612.521 297.535 612.029 297.628Q611.536 297.721 611.038 297.79Q610.539 297.86 610.034 297.907Q609.53 297.953 609.021 297.977Q608.512 298 608 298L20 298Q19.4877 298 18.9789 297.977Q18.47 297.953 17.9657 297.907Q17.4613 297.86 16.9625 297.79Q16.4636 297.721 15.9713 297.628Q15.4789 297.535 14.9941 297.42Q14.5093 297.304 14.033 297.166Q13.5567 297.027 13.0899 296.867Q12.6231 296.706 12.1667 296.524Q11.7103 296.341 11.2653 296.137Q10.8203 295.933 10.3876 295.707Q9.95487 295.482 9.53531 295.236Q9.11574 294.99 8.71019 294.724Q8.30465 294.457 7.91394 294.171Q7.52324 293.885 7.14818 293.58Q6.77312 293.275 6.41446 292.951Q6.0558 292.627 5.71429 292.286Q5.37277 291.944 5.04909 291.586Q4.7254 291.227 4.42021 290.852Q4.11503 290.477 3.82895 290.086Q3.54288 289.695 3.27651 289.29Q3.01014 288.884 2.76402 288.465Q2.51789 288.045 2.29252 287.612Q2.06714 287.18 1.86296 286.735Q1.65879 286.29 1.47624 285.833Q1.29369 285.377 1.13314 284.91Q0.972587 284.443 0.834357 283.967Q0.696126 283.491 0.5805 283.006Q0.464874 282.521 0.37209 282.029Q0.279305 281.536 0.20955 281.038Q0.139795 280.539 0.0932124 280.034Q0.04663 279.53 0.023315 279.021Q0 278.512 0 278L0 20Q0 19.4877 0.023315 18.9789Q0.04663 18.47 0.0932124 17.9657Q0.139795 17.4613 0.20955 16.9625Q0.279305 16.4636 0.37209 15.9713Q0.464874 15.4789 0.5805 14.9941Q0.696126 14.5093 0.834357 14.033Q0.972587 13.5567 1.13314 13.0899Q1.29369 12.6231 1.47624 12.1667Q1.65879 11.7103 1.86296 11.2653Q2.06714 10.8203 2.29252 10.3876Q2.51789 9.95487 2.76402 9.53531Q3.01014 9.11574 3.27651 8.71019Q3.54288 8.30465 3.82895 7.91394Q4.11502 7.52324 4.42021 7.14818Q4.7254 6.77312 5.04909 6.41446Q5.37277 6.0558 5.71429 5.71429Q6.0558 5.37277 6.41446 5.04909Q6.77312 4.7254 7.14818 4.42021Q7.52324 4.11503 7.91394 3.82895Q8.30465 3.54288 8.71019 3.27651Q9.11574 3.01014 9.53531 2.76402Q9.95487 2.51789 10.3876 2.29252Q10.8203 2.06714 11.2653 1.86296Q11.7103 1.65879 12.1667 1.47624Q12.6231 1.29369 13.0899 1.13314Q13.5567 0.972587 14.033 0.834357Q14.5093 0.696126 14.9941 0.5805Q15.4789 0.464874 15.9713 0.37209Q16.4636 0.279305 16.9625 0.20955Q17.4613 0.139795 17.9657 0.0932124Q18.47 0.04663 18.9789 0.023315Q19.4877 0 20 0Z"/>
  </g>
  <defs>
    <clipPath id="clip_6">
      <rect x="-181" y="-273" width="1200" height="1084" clip-rule="evenodd"/>
    </clipPath>
  </defs>
  <g clip-path="url(#clip_6)">
    <text fill="rgb(1,13,40)" stroke="none" transform="translate(294 311)" font-size="80" font-family="Open Sans" x="0"
          y="81.007813">
      4 kb to 4 Mb
    </text>
  </g>
</svg>
