<?xml version="1.0" encoding="utf-8" ?>
<svg xmlns="http://www.w3.org/2000/svg" width="690" height="534">
  <defs>
    <clipPath id="clip_0">
      <rect x="-255" y="-368" width="1200" height="1270" clip-rule="evenodd"/>
    </clipPath>
  </defs>
  <g clip-path="url(#clip_0)">
    <path fill="rgb(0,0,0)" stroke="none"
          d="M294.088 275.855C289.16 275.855 285.176 279.834 285.176 284.755L285.176 409.4L17.8235 409.4L17.8235 71.2L285.176 71.2L285.176 195.782C285.176 200.704 289.16 204.682 294.088 204.682C299.016 204.682 303 200.704 303 195.782L303 39.2045C303 17.5953 285.381 0 263.744 0L39.2563 0C17.6186 0 0 17.5953 0 39.2045L0 494.787C0 516.405 17.6186 534 39.2563 534L263.735 534C285.381 534 302.991 516.405 302.991 494.796L302.991 284.755C303 279.834 299.016 275.855 294.088 275.855ZM263.735 17.8C275.561 17.8 285.176 27.4031 285.176 39.2045L285.176 53.4L17.8235 53.4L17.8235 39.2045C17.8235 27.4031 27.4393 17.8 39.2563 17.8L263.735 17.8ZM17.8235 494.796C17.8235 506.597 27.4393 516.2 39.2563 516.2L263.744 516.2C275.561 516.2 285.176 506.597 285.176 494.796L285.176 427.2L17.8235 427.2L17.8235 494.796Z"
          fill-rule="evenodd"/>
  </g>
  <defs>
    <clipPath id="clip_1">
      <rect x="-255" y="-368" width="1200" height="1270" clip-rule="evenodd"/>
    </clipPath>
  </defs>
  <g clip-path="url(#clip_1)">
    <path fill="rgb(0,0,0)" stroke="none" transform="translate(116 436)"
          d="M0 35.5C0 15.9218 15.9218 0 35.5 0C55.0782 0 71 15.9218 71 35.5C71 55.0782 55.0782 71 35.5 71C15.9218 71 0 55.0782 0 35.5ZM17.75 35.5C17.75 45.2891 25.7109 53.25 35.5 53.25C45.2891 53.25 53.25 45.2891 53.25 35.5C53.25 25.7109 45.2891 17.75 35.5 17.75C25.7109 17.75 17.75 25.7109 17.75 35.5Z"
          fill-rule="evenodd"/>
  </g>
  <defs>
    <clipPath id="clip_2">
      <rect x="-255" y="-368" width="1200" height="1270" clip-rule="evenodd"/>
    </clipPath>
  </defs>
  <g clip-path="url(#clip_2)">
    <path fill="rgb(0,0,0)" stroke="none" transform="translate(107 27)"
          d="M8.83333 18L44.1667 18C49.0515 18 53 13.977 53 9C53 4.023 49.0515 0 44.1667 0L8.83333 0C3.9485 0 0 4.023 0 9C0 13.977 3.9485 18 8.83333 18L44.1667 18C49.0515 18 53 13.977 53 9C53 4.023 49.0515 0 44.1667 0L8.83333 0C3.9485 0 0 4.023 0 9C0 13.977 3.9485 18 8.83333 18Z"/>
  </g>
  <defs>
    <clipPath id="clip_3">
      <rect x="-255" y="-368" width="1200" height="1270" clip-rule="evenodd"/>
    </clipPath>
  </defs>
  <g clip-path="url(#clip_3)">
    <path fill="rgb(0,0,0)" stroke="none" transform="translate(169 27)"
          d="M9 18L18 18C22.977 18 27 13.977 27 9C27 4.023 22.977 0 18 0L9 0C4.023 0 0 4.023 0 9C0 13.977 4.023 18 9 18L18 18C22.977 18 27 13.977 27 9C27 4.023 22.977 0 18 0L9 0C4.023 0 0 4.023 0 9C0 13.977 4.023 18 9 18Z"/>
  </g>
  <defs>
    <clipPath id="clip_4">
      <rect x="-255" y="-368" width="1200" height="1270" clip-rule="evenodd"/>
    </clipPath>
  </defs>
  <g clip-path="url(#clip_4)">
    <path fill="rgb(0,0,0)" stroke="none" transform="translate(387 0)"
          d="M294.088 275.855C289.16 275.855 285.176 279.834 285.176 284.755L285.176 409.4L17.8235 409.4L17.8235 71.2L285.176 71.2L285.176 195.782C285.176 200.704 289.16 204.682 294.088 204.682C299.016 204.682 303 200.704 303 195.782L303 39.2045C303 17.5953 285.381 0 263.744 0L39.2563 0C17.6186 0 0 17.5953 0 39.2045L0 494.787C0 516.405 17.6186 534 39.2563 534L263.735 534C285.381 534 302.991 516.405 302.991 494.796L302.991 284.755C303 279.834 299.016 275.855 294.088 275.855ZM263.735 17.8C275.561 17.8 285.176 27.4031 285.176 39.2045L285.176 53.4L17.8235 53.4L17.8235 39.2045C17.8235 27.4031 27.4393 17.8 39.2563 17.8L263.735 17.8ZM17.8235 494.796C17.8235 506.597 27.4393 516.2 39.2563 516.2L263.744 516.2C275.561 516.2 285.176 506.597 285.176 494.796L285.176 427.2L17.8235 427.2L17.8235 494.796Z"
          fill-rule="evenodd"/>
  </g>
  <defs>
    <clipPath id="clip_5">
      <rect x="-255" y="-368" width="1200" height="1270" clip-rule="evenodd"/>
    </clipPath>
  </defs>
  <g clip-path="url(#clip_5)">
    <path fill="rgb(0,0,0)" stroke="none" transform="translate(503 436)"
          d="M0 35.5C0 15.9218 15.9218 0 35.5 0C55.0782 0 71 15.9218 71 35.5C71 55.0782 55.0782 71 35.5 71C15.9218 71 0 55.0782 0 35.5ZM17.75 35.5C17.75 45.2891 25.7109 53.25 35.5 53.25C45.2891 53.25 53.25 45.2891 53.25 35.5C53.25 25.7109 45.2891 17.75 35.5 17.75C25.7109 17.75 17.75 25.7109 17.75 35.5Z"
          fill-rule="evenodd"/>
  </g>
  <defs>
    <clipPath id="clip_6">
      <rect x="-255" y="-368" width="1200" height="1270" clip-rule="evenodd"/>
    </clipPath>
  </defs>
  <g clip-path="url(#clip_6)">
    <path fill="rgb(0,0,0)" stroke="none" transform="translate(494 27)"
          d="M8.83333 18L44.1667 18C49.0515 18 53 13.977 53 9C53 4.023 49.0515 0 44.1667 0L8.83333 0C3.9485 0 0 4.023 0 9C0 13.977 3.9485 18 8.83333 18L44.1667 18C49.0515 18 53 13.977 53 9C53 4.023 49.0515 0 44.1667 0L8.83333 0C3.9485 0 0 4.023 0 9C0 13.977 3.9485 18 8.83333 18Z"/>
  </g>
  <defs>
    <clipPath id="clip_7">
      <rect x="-255" y="-368" width="1200" height="1270" clip-rule="evenodd"/>
    </clipPath>
  </defs>
  <g clip-path="url(#clip_7)">
    <path fill="rgb(0,0,0)" stroke="none" transform="translate(556 27)"
          d="M9 18L18 18C22.977 18 27 13.977 27 9C27 4.023 22.977 0 18 0L9 0C4.023 0 0 4.023 0 9C0 13.977 4.023 18 9 18L18 18C22.977 18 27 13.977 27 9C27 4.023 22.977 0 18 0L9 0C4.023 0 0 4.023 0 9C0 13.977 4.023 18 9 18Z"/>
  </g>
  <defs>
    <clipPath id="clip_8">
      <rect x="-255" y="-368" width="1200" height="1270" clip-rule="evenodd"/>
    </clipPath>
  </defs>
  <g clip-path="url(#clip_8)">
    <path fill="rgb(0,0,0)" stroke="none" transform="translate(134 125)"
          d="M347.1 106.617L30.3744 106.617L121.985 15.1681C125.465 11.6943 125.465 6.07924 121.985 2.60539C118.505 -0.868463 112.88 -0.868463 109.4 2.60539L2.60556 109.211C1.77783 110.037 1.12811 111.023 0.674196 112.116C-0.224732 114.284 -0.224732 116.736 0.674196 118.904C1.12811 119.997 1.77783 120.983 2.60556 121.809L109.4 228.415C111.136 230.129 113.414 231 115.692 231C117.971 231 120.249 230.129 121.985 228.397C125.465 224.923 125.465 219.308 121.985 215.834L30.3744 124.386L347.1 124.386C352.022 124.386 356 120.414 356 115.501C356 110.588 352.022 106.617 347.1 106.617L30.3744 106.617L121.985 15.1681C125.465 11.6943 125.465 6.07924 121.985 2.60539C118.505 -0.868463 112.88 -0.868463 109.4 2.60539L2.60556 109.211C1.77783 110.037 1.12811 111.023 0.674196 112.116C-0.224732 114.284 -0.224732 116.736 0.674196 118.904C1.12811 119.997 1.77783 120.983 2.60556 121.809L109.4 228.415C111.136 230.129 113.414 231 115.692 231C117.971 231 120.249 230.129 121.985 228.397C125.465 224.923 125.465 219.308 121.985 215.834L30.3744 124.386L347.1 124.386C352.022 124.386 356 120.414 356 115.501C356 110.588 352.022 106.617 347.1 106.617Z"/>
  </g>
  <defs>
    <clipPath id="clip_9">
      <rect x="-255" y="-368" width="1200" height="1270" clip-rule="evenodd"/>
    </clipPath>
  </defs>
  <g clip-path="url(#clip_9)">
    <path fill="rgb(0,0,0)" stroke="none" transform="translate(672 172)"
          d="M0 0L18 0L18 161L0 161L0 0L18 0L18 161L0 161L0 0Z"/>
  </g>
</svg>
