<?xml version="1.0" encoding="utf-8" ?>
<svg xmlns="http://www.w3.org/2000/svg" width="734" height="781">
  <defs>
    <clipPath id="clip_0">
      <rect x="-1574" y="-107" width="4000" height="990" clip-rule="evenodd"/>
    </clipPath>
  </defs>
  <g clip-path="url(#clip_0)">
    <path fill="none" stroke="rgb(59,69,93)" stroke-width="6" stroke-miterlimit="4"
          transform="matrix(-0.258819 -0.965926 0.965926 -0.258819 184.128 408.252)"
          d="M0 107C0 107 26.7276 74.1181 67.22 58.2427C107.712 42.3672 179.751 73.0439 211 6.82121e-13L0 107C0 107 26.7276 74.1181 67.22 58.2427C107.712 42.3672 179.751 73.0439 211 6.82121e-13"/>
  </g>
  <defs>
    <clipPath id="clip_1">
      <rect x="-1574" y="-107" width="4000" height="990" clip-rule="evenodd"/>
    </clipPath>
  </defs>
  <g clip-path="url(#clip_1)">
    <path fill="none" stroke="rgb(59,69,93)" stroke-width="6" stroke-miterlimit="4"
          transform="matrix(-0.258819 -0.965926 -0.965926 0.258819 284.482 555.558)"
          d="M0 107C0 107 26.7276 74.1181 67.22 58.2427C107.712 42.3672 179.751 73.0439 211 6.82121e-13L0 107C0 107 26.7276 74.1181 67.22 58.2427C107.712 42.3672 179.751 73.0439 211 6.82121e-13"/>
  </g>
  <defs>
    <clipPath id="clip_2">
      <rect x="-1574" y="-107" width="4000" height="990" clip-rule="evenodd"/>
    </clipPath>
  </defs>
  <g clip-path="url(#clip_2)">
    <path fill="none" stroke="rgb(59,69,93)" stroke-width="6" stroke-miterlimit="4"
          transform="matrix(0.258819 -0.965926 -0.965926 -0.258819 550.877 408.932)"
          d="M0 107.914C0 107.914 26.7921 74.751 67.3822 58.74C107.972 42.729 180.185 73.6676 211.509 6.82121e-13L0 107.914C0 107.914 26.7921 74.751 67.3822 58.74C107.972 42.729 180.185 73.6676 211.509 6.82121e-13"/>
  </g>
  <defs>
    <clipPath id="clip_3">
      <rect x="-1574" y="-107" width="4000" height="990" clip-rule="evenodd"/>
    </clipPath>
  </defs>
  <g clip-path="url(#clip_3)">
    <path fill="none" stroke="rgb(59,69,93)" stroke-width="6" stroke-miterlimit="4"
          transform="matrix(0.258819 -0.965926 0.965926 0.258819 449.183 555.972)"
          d="M0 107.914C0 107.914 26.7921 74.751 67.3822 58.74C107.972 42.729 180.185 73.6676 211.509 6.82121e-13L0 107.914C0 107.914 26.7921 74.751 67.3822 58.74C107.972 42.729 180.185 73.6676 211.509 6.82121e-13"/>
  </g>
  <defs>
    <clipPath id="clip_4">
      <rect x="-1574" y="-107" width="4000" height="990" clip-rule="evenodd"/>
    </clipPath>
  </defs>
  <g clip-path="url(#clip_4)">
    <path fill="rgb(1,13,40)" stroke="none" transform="translate(342 54)"
          d="M48.4671 26.7708L48.3999 26.697C45.3485 23.3266 41.849 19.9915 37.7016 16.501C37.0746 15.9732 34.2351 13.7073 34.1024 13.5934C33.9698 13.4795 33.8322 13.3803 33.8612 13.2281C33.8958 13.0473 33.946 12.8521 34.0053 12.6465C34.058 12.4634 34.1124 12.2739 34.1539 12.0731C34.2296 11.7084 34.2776 11.3835 34.3007 11.0793L34.3021 11.0629C34.3279 10.7238 34.3763 10.0928 33.9859 9.6725C33.8489 9.5253 33.5976 9.3496 33.1766 9.3496C32.8666 9.3496 32.5623 9.44403 32.3807 9.50077L32.3608 9.50707C31.867 9.65975 31.4268 9.89315 31.0984 10.0795C30.9083 10.1874 30.7184 10.3007 30.535 10.4167C30.4801 10.4514 30.4249 10.4893 30.3695 10.528C30.2268 10.6273 30.1595 10.7188 29.9511 10.5395C29.6627 10.2836 26.4329 7.5046 17.745 3.41919C16.3514 2.76394 14.9059 2.16214 13.4489 1.63065C12.0199 1.10958 10.4445 0.617285 8.63356 0.125814L8.57825 0.110739C8.36776 0.0533135 8.13961 0 7.89895 0C7.41791 0 7.01514 0.223396 6.76402 0.629072C6.55706 0.963618 6.50502 1.3708 6.62147 1.74578C6.74323 2.13857 7.03199 2.45859 7.41302 2.62401L8.38611 3.04655C12.2437 4.72023 16.0695 7.03766 20.0822 10.1312C21.4577 11.1917 22.7015 12.2136 23.8845 13.2553C24.4436 13.7476 25.0015 14.2472 25.5427 14.7403C25.5909 14.7839 26.001 15.1776 26.001 15.1776L1.10022 44.9785C0.317369 45.915 -0.0602625 46.9937 0.00781721 48.0978C0.0729074 49.1526 0.558026 50.174 1.33897 50.9C2.10225 51.6095 3.09763 52 4.14206 52C4.27279 52 4.40514 51.9937 4.53505 51.9811C5.7151 51.8672 6.80275 51.2331 7.51915 50.2412C7.73561 49.9417 28.8132 20.7671 29.995 19.1282C33.2723 22.5412 36.3657 26.2237 39.1885 30.0732C39.7437 30.8303 40.7263 32.2414 40.7707 32.3095C40.9606 32.6029 41.1759 32.9351 41.4806 33.1799C41.7107 33.3644 41.9784 33.4621 42.2548 33.4621C42.6863 33.4621 43.0369 33.2273 43.263 33.0507L48.37 29.0612C48.9792 28.5273 48.9971 27.9867 48.9971 27.9867C49.0357 27.3926 48.6803 27.0039 48.4671 26.7708L48.3999 26.697C45.3485 23.3266 41.849 19.9915 37.7016 16.501C37.0746 15.9732 34.2351 13.7073 34.1024 13.5934C33.9698 13.4795 33.8322 13.3803 33.8612 13.2281C33.8958 13.0473 33.946 12.8521 34.0053 12.6465C34.058 12.4634 34.1124 12.2739 34.1539 12.0731C34.2296 11.7084 34.2776 11.3835 34.3007 11.0793L34.3021 11.0629C34.3279 10.7238 34.3763 10.0928 33.9859 9.6725C33.8489 9.5253 33.5976 9.3496 33.1766 9.3496C32.8666 9.3496 32.5623 9.44403 32.3807 9.50077L32.3608 9.50707C31.867 9.65975 31.4268 9.89315 31.0984 10.0795C30.9083 10.1874 30.7184 10.3007 30.535 10.4167C30.4801 10.4514 30.4249 10.4893 30.3695 10.528C30.2268 10.6273 30.1595 10.7188 29.9511 10.5395C29.6627 10.2836 26.4329 7.5046 17.745 3.41919C16.3514 2.76394 14.9059 2.16214 13.4489 1.63065C12.0199 1.10958 10.4445 0.617285 8.63356 0.125814L8.57825 0.110739C8.36776 0.0533135 8.13961 0 7.89895 0C7.41791 0 7.01514 0.223396 6.76402 0.629072C6.55706 0.963618 6.50502 1.3708 6.62147 1.74578C6.74323 2.13857 7.03199 2.45859 7.41302 2.62401L8.38611 3.04655C12.2437 4.72023 16.0695 7.03766 20.0822 10.1312C21.4577 11.1917 22.7015 12.2136 23.8845 13.2553C24.4436 13.7476 25.0015 14.2472 25.5427 14.7403C25.5909 14.7839 26.001 15.1776 26.001 15.1776L1.10022 44.9785C0.317369 45.915 -0.0602625 46.9937 0.00781721 48.0978C0.0729074 49.1526 0.558026 50.174 1.33897 50.9C2.10225 51.6095 3.09763 52 4.14206 52C4.27279 52 4.40514 51.9937 4.53505 51.9811C5.7151 51.8672 6.80275 51.2331 7.51915 50.2412C7.73561 49.9417 28.8132 20.7671 29.995 19.1282C33.2723 22.5412 36.3657 26.2237 39.1885 30.0732C39.7437 30.8303 40.7263 32.2414 40.7707 32.3095C40.9606 32.6029 41.1759 32.9351 41.4806 33.1799C41.7107 33.3644 41.9784 33.4621 42.2548 33.4621C42.6863 33.4621 43.0369 33.2273 43.263 33.0507L48.37 29.0612C48.9792 28.5273 48.9971 27.9867 48.9971 27.9867C49.0357 27.3926 48.6803 27.0039 48.4671 26.7708Z"/>
  </g>
  <defs>
    <clipPath id="clip_5">
      <rect x="-1574" y="-107" width="4000" height="990" clip-rule="evenodd"/>
    </clipPath>
  </defs>
  <g clip-path="url(#clip_5)">
    <path fill="rgb(1,13,40)" stroke="none" transform="translate(342 657)"
          d="M48.4671 26.7708L48.3999 26.697C45.3485 23.3266 41.849 19.9915 37.7016 16.501C37.0746 15.9732 34.2351 13.7073 34.1024 13.5934C33.9698 13.4795 33.8322 13.3803 33.8612 13.2281C33.8958 13.0473 33.946 12.8521 34.0053 12.6465C34.058 12.4634 34.1124 12.2739 34.1539 12.0731C34.2296 11.7084 34.2776 11.3835 34.3007 11.0793L34.3021 11.0629C34.3279 10.7238 34.3763 10.0928 33.9859 9.6725C33.8489 9.5253 33.5976 9.3496 33.1766 9.3496C32.8666 9.3496 32.5623 9.44403 32.3807 9.50077L32.3608 9.50707C31.867 9.65975 31.4268 9.89315 31.0984 10.0795C30.9083 10.1874 30.7184 10.3007 30.535 10.4167C30.4801 10.4514 30.4249 10.4893 30.3695 10.528C30.2268 10.6273 30.1595 10.7188 29.9511 10.5395C29.6627 10.2836 26.4329 7.5046 17.745 3.41919C16.3514 2.76394 14.9059 2.16214 13.4489 1.63065C12.0199 1.10958 10.4445 0.617285 8.63356 0.125814L8.57825 0.110739C8.36776 0.0533135 8.13961 0 7.89895 0C7.41791 0 7.01514 0.223396 6.76402 0.629072C6.55706 0.963618 6.50502 1.3708 6.62147 1.74578C6.74323 2.13857 7.03199 2.45859 7.41302 2.62401L8.38611 3.04655C12.2437 4.72023 16.0695 7.03766 20.0822 10.1312C21.4577 11.1917 22.7015 12.2136 23.8845 13.2553C24.4436 13.7476 25.0015 14.2472 25.5427 14.7403C25.5909 14.7839 26.001 15.1776 26.001 15.1776L1.10022 44.9785C0.317369 45.915 -0.0602625 46.9937 0.00781721 48.0978C0.0729074 49.1526 0.558026 50.174 1.33897 50.9C2.10225 51.6095 3.09763 52 4.14206 52C4.27279 52 4.40514 51.9937 4.53505 51.9811C5.7151 51.8672 6.80275 51.2331 7.51915 50.2412C7.73561 49.9417 28.8132 20.7671 29.995 19.1282C33.2723 22.5412 36.3657 26.2237 39.1885 30.0732C39.7437 30.8303 40.7263 32.2414 40.7707 32.3095C40.9606 32.6029 41.1759 32.9351 41.4806 33.1799C41.7107 33.3644 41.9784 33.4621 42.2548 33.4621C42.6863 33.4621 43.0369 33.2273 43.263 33.0507L48.37 29.0612C48.9792 28.5273 48.9971 27.9867 48.9971 27.9867C49.0357 27.3926 48.6803 27.0039 48.4671 26.7708L48.3999 26.697C45.3485 23.3266 41.849 19.9915 37.7016 16.501C37.0746 15.9732 34.2351 13.7073 34.1024 13.5934C33.9698 13.4795 33.8322 13.3803 33.8612 13.2281C33.8958 13.0473 33.946 12.8521 34.0053 12.6465C34.058 12.4634 34.1124 12.2739 34.1539 12.0731C34.2296 11.7084 34.2776 11.3835 34.3007 11.0793L34.3021 11.0629C34.3279 10.7238 34.3763 10.0928 33.9859 9.6725C33.8489 9.5253 33.5976 9.3496 33.1766 9.3496C32.8666 9.3496 32.5623 9.44403 32.3807 9.50077L32.3608 9.50707C31.867 9.65975 31.4268 9.89315 31.0984 10.0795C30.9083 10.1874 30.7184 10.3007 30.535 10.4167C30.4801 10.4514 30.4249 10.4893 30.3695 10.528C30.2268 10.6273 30.1595 10.7188 29.9511 10.5395C29.6627 10.2836 26.4329 7.5046 17.745 3.41919C16.3514 2.76394 14.9059 2.16214 13.4489 1.63065C12.0199 1.10958 10.4445 0.617285 8.63356 0.125814L8.57825 0.110739C8.36776 0.0533135 8.13961 0 7.89895 0C7.41791 0 7.01514 0.223396 6.76402 0.629072C6.55706 0.963618 6.50502 1.3708 6.62147 1.74578C6.74323 2.13857 7.03199 2.45859 7.41302 2.62401L8.38611 3.04655C12.2437 4.72023 16.0695 7.03766 20.0822 10.1312C21.4577 11.1917 22.7015 12.2136 23.8845 13.2553C24.4436 13.7476 25.0015 14.2472 25.5427 14.7403C25.5909 14.7839 26.001 15.1776 26.001 15.1776L1.10022 44.9785C0.317369 45.915 -0.0602625 46.9937 0.00781721 48.0978C0.0729074 49.1526 0.558026 50.174 1.33897 50.9C2.10225 51.6095 3.09763 52 4.14206 52C4.27279 52 4.40514 51.9937 4.53505 51.9811C5.7151 51.8672 6.80275 51.2331 7.51915 50.2412C7.73561 49.9417 28.8132 20.7671 29.995 19.1282C33.2723 22.5412 36.3657 26.2237 39.1885 30.0732C39.7437 30.8303 40.7263 32.2414 40.7707 32.3095C40.9606 32.6029 41.1759 32.9351 41.4806 33.1799C41.7107 33.3644 41.9784 33.4621 42.2548 33.4621C42.6863 33.4621 43.0369 33.2273 43.263 33.0507L48.37 29.0612C48.9792 28.5273 48.9971 27.9867 48.9971 27.9867C49.0357 27.3926 48.6803 27.0039 48.4671 26.7708Z"/>
  </g>
  <defs>
    <clipPath id="clip_6">
      <rect x="-1574" y="-107" width="4000" height="990" clip-rule="evenodd"/>
    </clipPath>
  </defs>
  <g clip-path="url(#clip_6)">
    <path fill="rgb(1,13,40)" stroke="none" transform="translate(408 668)"
          d="M0 0L6 0L6 43L0 43L0 0L6 0L6 43L0 43L0 0Z"/>
  </g>
  <defs>
    <clipPath id="clip_7">
      <rect x="-1574" y="-107" width="4000" height="990" clip-rule="evenodd"/>
    </clipPath>
  </defs>
  <g clip-path="url(#clip_7)">
    <path fill="rgb(1,13,40)" stroke="none" transform="translate(408 360)"
          d="M0 0L6 0L6 43L0 43L0 0L6 0L6 43L0 43L0 0Z"/>
  </g>
  <defs>
    <clipPath id="clip_8">
      <rect x="-1574" y="-107" width="4000" height="990" clip-rule="evenodd"/>
    </clipPath>
  </defs>
  <g clip-path="url(#clip_8)">
    <path fill="rgb(1,13,40)" stroke="none" transform="translate(408 59)"
          d="M0 0L6 0L6 43L0 43L0 0L6 0L6 43L0 43L0 0Z"/>
  </g>
  <defs>
    <clipPath id="clip_9">
      <rect x="-1574" y="-107" width="4000" height="990" clip-rule="evenodd"/>
    </clipPath>
  </defs>
  <g clip-path="url(#clip_9)">
    <path fill="rgb(1,13,40)" stroke="none" transform="translate(728 158)"
          d="M0 0L6 0L6 43L0 43L0 0L6 0L6 43L0 43L0 0Z"/>
  </g>
  <defs>
    <clipPath id="clip_10">
      <rect x="-1574" y="-107" width="4000" height="990" clip-rule="evenodd"/>
    </clipPath>
  </defs>
  <g clip-path="url(#clip_10)">
    <path fill="rgb(1,13,40)" stroke="none" transform="translate(728 527)"
          d="M0 0L6 0L6 43L0 43L0 0L6 0L6 43L0 43L0 0Z"/>
  </g>
  <defs>
    <clipPath id="clip_11">
      <rect x="-1574" y="-107" width="4000" height="990" clip-rule="evenodd"/>
    </clipPath>
  </defs>
  <g clip-path="url(#clip_11)">
    <path fill="rgb(1,13,40)" stroke="none" transform="translate(94 527)"
          d="M0 0L6 0L6 43L0 43L0 0L6 0L6 43L0 43L0 0Z"/>
  </g>
  <defs>
    <clipPath id="clip_12">
      <rect x="-1574" y="-107" width="4000" height="990" clip-rule="evenodd"/>
    </clipPath>
  </defs>
  <g clip-path="url(#clip_12)">
    <path fill="rgb(1,13,40)" stroke="none" transform="translate(94 158)"
          d="M0 0L6 0L6 43L0 43L0 0L6 0L6 43L0 43L0 0Z"/>
  </g>
  <defs>
    <clipPath id="clip_13">
      <rect x="-1574" y="-107" width="4000" height="990" clip-rule="evenodd"/>
    </clipPath>
  </defs>
  <g clip-path="url(#clip_13)">
    <path fill="rgb(1,13,40)" stroke="none" transform="translate(314 0)"
          d="M97.0588 90.4021C95.4324 90.4021 94.1176 91.7058 94.1176 93.3187L94.1176 134.167L5.88235 134.167L5.88235 23.3333L94.1176 23.3333L94.1176 64.1608C94.1176 65.7738 95.4324 67.0775 97.0588 67.0775C98.6853 67.0775 100 65.7738 100 64.1608L100 12.8479C100 5.76625 94.1853 0 87.0441 0L12.9559 0C5.81471 0 0 5.76625 0 12.8479L0 162.149C0 169.234 5.81471 175 12.9559 175L87.0412 175C94.1853 175 99.9971 169.234 99.9971 162.152L99.9971 93.3187C100 91.7058 98.6853 90.4021 97.0588 90.4021ZM87.0412 5.83333C90.9441 5.83333 94.1176 8.98042 94.1176 12.8479L94.1176 17.5L5.88235 17.5L5.88235 12.8479C5.88235 8.98042 9.05588 5.83333 12.9559 5.83333L87.0412 5.83333ZM5.88235 162.152C5.88235 166.02 9.05588 169.167 12.9559 169.167L87.0441 169.167C90.9441 169.167 94.1176 166.02 94.1176 162.152L94.1176 140L5.88235 140L5.88235 162.152Z"
          fill-rule="evenodd"/>
  </g>
  <defs>
    <clipPath id="clip_14">
      <rect x="-1574" y="-107" width="4000" height="990" clip-rule="evenodd"/>
    </clipPath>
  </defs>
  <g clip-path="url(#clip_14)">
    <path fill="rgb(1,13,40)" stroke="none" transform="translate(352 143)"
          d="M0 11.5C0 5.15775 5.15775 0 11.5 0C17.8422 0 23 5.15775 23 11.5C23 17.8422 17.8422 23 11.5 23C5.15775 23 0 17.8422 0 11.5ZM5.75 11.5C5.75 14.6711 8.32887 17.25 11.5 17.25C14.6711 17.25 17.25 14.6711 17.25 11.5C17.25 8.32887 14.6711 5.75 11.5 5.75C8.32887 5.75 5.75 8.32887 5.75 11.5Z"
          fill-rule="evenodd"/>
  </g>
  <defs>
    <clipPath id="clip_15">
      <rect x="-1574" y="-107" width="4000" height="990" clip-rule="evenodd"/>
    </clipPath>
  </defs>
  <g clip-path="url(#clip_15)">
    <path fill="rgb(1,13,40)" stroke="none" transform="translate(350 9)"
          d="M2.83333 6L14.1667 6C15.7335 6 17 4.659 17 3C17 1.341 15.7335 0 14.1667 0L2.83333 0C1.2665 0 0 1.341 0 3C0 4.659 1.2665 6 2.83333 6L14.1667 6C15.7335 6 17 4.659 17 3C17 1.341 15.7335 0 14.1667 0L2.83333 0C1.2665 0 0 1.341 0 3C0 4.659 1.2665 6 2.83333 6Z"/>
  </g>
  <defs>
    <clipPath id="clip_16">
      <rect x="-1574" y="-107" width="4000" height="990" clip-rule="evenodd"/>
    </clipPath>
  </defs>
  <g clip-path="url(#clip_16)">
    <path fill="rgb(1,13,40)" stroke="none" transform="translate(369 9)"
          d="M3 6L6 6C7.659 6 9 4.659 9 3C9 1.341 7.659 0 6 0L3 0C1.341 0 0 1.341 0 3C0 4.659 1.341 6 3 6L6 6C7.659 6 9 4.659 9 3C9 1.341 7.659 0 6 0L3 0C1.341 0 0 1.341 0 3C0 4.659 1.341 6 3 6Z"/>
  </g>
  <defs>
    <clipPath id="clip_17">
      <rect x="-1574" y="-107" width="4000" height="990" clip-rule="evenodd"/>
    </clipPath>
  </defs>
  <g clip-path="url(#clip_17)">
    <path fill="rgb(1,13,40)" stroke="none" transform="translate(314 606)"
          d="M97.0588 90.4021C95.4324 90.4021 94.1176 91.7058 94.1176 93.3187L94.1176 134.167L5.88235 134.167L5.88235 23.3333L94.1176 23.3333L94.1176 64.1608C94.1176 65.7738 95.4324 67.0775 97.0588 67.0775C98.6853 67.0775 100 65.7738 100 64.1608L100 12.8479C100 5.76625 94.1853 0 87.0441 0L12.9559 0C5.81471 0 0 5.76625 0 12.8479L0 162.149C0 169.234 5.81471 175 12.9559 175L87.0412 175C94.1853 175 99.9971 169.234 99.9971 162.152L99.9971 93.3187C100 91.7058 98.6853 90.4021 97.0588 90.4021ZM87.0412 5.83333C90.9441 5.83333 94.1176 8.98042 94.1176 12.8479L94.1176 17.5L5.88235 17.5L5.88235 12.8479C5.88235 8.98042 9.05588 5.83333 12.9559 5.83333L87.0412 5.83333ZM5.88235 162.152C5.88235 166.02 9.05588 169.167 12.9559 169.167L87.0441 169.167C90.9441 169.167 94.1176 166.02 94.1176 162.152L94.1176 140L5.88235 140L5.88235 162.152Z"
          fill-rule="evenodd"/>
  </g>
  <defs>
    <clipPath id="clip_18">
      <rect x="-1574" y="-107" width="4000" height="990" clip-rule="evenodd"/>
    </clipPath>
  </defs>
  <g clip-path="url(#clip_18)">
    <path fill="rgb(1,13,40)" stroke="none" transform="translate(352 749)"
          d="M0 11.5C0 5.15775 5.15775 0 11.5 0C17.8422 0 23 5.15775 23 11.5C23 17.8422 17.8422 23 11.5 23C5.15775 23 0 17.8422 0 11.5ZM5.75 11.5C5.75 14.6711 8.32887 17.25 11.5 17.25C14.6711 17.25 17.25 14.6711 17.25 11.5C17.25 8.32887 14.6711 5.75 11.5 5.75C8.32887 5.75 5.75 8.32887 5.75 11.5Z"
          fill-rule="evenodd"/>
  </g>
  <defs>
    <clipPath id="clip_19">
      <rect x="-1574" y="-107" width="4000" height="990" clip-rule="evenodd"/>
    </clipPath>
  </defs>
  <g clip-path="url(#clip_19)">
    <path fill="rgb(1,13,40)" stroke="none" transform="translate(350 615)"
          d="M2.83333 6L14.1667 6C15.7335 6 17 4.659 17 3C17 1.341 15.7335 0 14.1667 0L2.83333 0C1.2665 0 0 1.341 0 3C0 4.659 1.2665 6 2.83333 6L14.1667 6C15.7335 6 17 4.659 17 3C17 1.341 15.7335 0 14.1667 0L2.83333 0C1.2665 0 0 1.341 0 3C0 4.659 1.2665 6 2.83333 6Z"/>
  </g>
  <defs>
    <clipPath id="clip_20">
      <rect x="-1574" y="-107" width="4000" height="990" clip-rule="evenodd"/>
    </clipPath>
  </defs>
  <g clip-path="url(#clip_20)">
    <path fill="rgb(1,13,40)" stroke="none" transform="translate(369 615)"
          d="M3 6L6 6C7.659 6 9 4.659 9 3C9 1.341 7.659 0 6 0L3 0C1.341 0 0 1.341 0 3C0 4.659 1.341 6 3 6L6 6C7.659 6 9 4.659 9 3C9 1.341 7.659 0 6 0L3 0C1.341 0 0 1.341 0 3C0 4.659 1.341 6 3 6Z"/>
  </g>
  <defs>
    <clipPath id="clip_21">
      <rect x="-1574" y="-107" width="4000" height="990" clip-rule="evenodd"/>
    </clipPath>
  </defs>
  <g clip-path="url(#clip_21)">
    <path fill="rgb(1,13,40)" stroke="none" transform="translate(342 356)"
          d="M48.4671 26.7708L48.3999 26.697C45.3485 23.3266 41.849 19.9915 37.7016 16.501C37.0746 15.9732 34.2351 13.7073 34.1024 13.5934C33.9698 13.4795 33.8322 13.3803 33.8612 13.2281C33.8958 13.0473 33.946 12.8521 34.0053 12.6465C34.058 12.4634 34.1124 12.2739 34.1539 12.0731C34.2296 11.7084 34.2776 11.3835 34.3007 11.0793L34.3021 11.0629C34.3279 10.7238 34.3763 10.0928 33.9859 9.6725C33.8489 9.5253 33.5976 9.3496 33.1766 9.3496C32.8666 9.3496 32.5623 9.44403 32.3807 9.50077L32.3608 9.50707C31.867 9.65975 31.4268 9.89315 31.0984 10.0795C30.9083 10.1874 30.7184 10.3007 30.535 10.4167C30.4801 10.4514 30.4249 10.4893 30.3695 10.528C30.2268 10.6273 30.1595 10.7188 29.9511 10.5395C29.6627 10.2836 26.4329 7.5046 17.745 3.41919C16.3514 2.76394 14.9059 2.16214 13.4489 1.63065C12.0199 1.10958 10.4445 0.617285 8.63356 0.125814L8.57825 0.110739C8.36776 0.0533135 8.13961 0 7.89895 0C7.41791 0 7.01514 0.223396 6.76402 0.629072C6.55706 0.963618 6.50502 1.3708 6.62147 1.74578C6.74323 2.13857 7.03199 2.45859 7.41302 2.62401L8.38611 3.04655C12.2437 4.72023 16.0695 7.03766 20.0822 10.1312C21.4577 11.1917 22.7015 12.2136 23.8845 13.2553C24.4436 13.7476 25.0015 14.2472 25.5427 14.7403C25.5909 14.7839 26.001 15.1776 26.001 15.1776L1.10022 44.9785C0.317369 45.915 -0.0602625 46.9937 0.00781721 48.0978C0.0729074 49.1526 0.558026 50.174 1.33897 50.9C2.10225 51.6095 3.09763 52 4.14206 52C4.27279 52 4.40514 51.9937 4.53505 51.9811C5.7151 51.8672 6.80275 51.2331 7.51915 50.2412C7.73561 49.9417 28.8132 20.7671 29.995 19.1282C33.2723 22.5412 36.3657 26.2237 39.1885 30.0732C39.7437 30.8303 40.7263 32.2414 40.7707 32.3095C40.9606 32.6029 41.1759 32.9351 41.4806 33.1799C41.7107 33.3644 41.9784 33.4621 42.2548 33.4621C42.6863 33.4621 43.0369 33.2273 43.263 33.0507L48.37 29.0612C48.9792 28.5273 48.9971 27.9867 48.9971 27.9867C49.0357 27.3926 48.6803 27.0039 48.4671 26.7708L48.3999 26.697C45.3485 23.3266 41.849 19.9915 37.7016 16.501C37.0746 15.9732 34.2351 13.7073 34.1024 13.5934C33.9698 13.4795 33.8322 13.3803 33.8612 13.2281C33.8958 13.0473 33.946 12.8521 34.0053 12.6465C34.058 12.4634 34.1124 12.2739 34.1539 12.0731C34.2296 11.7084 34.2776 11.3835 34.3007 11.0793L34.3021 11.0629C34.3279 10.7238 34.3763 10.0928 33.9859 9.6725C33.8489 9.5253 33.5976 9.3496 33.1766 9.3496C32.8666 9.3496 32.5623 9.44403 32.3807 9.50077L32.3608 9.50707C31.867 9.65975 31.4268 9.89315 31.0984 10.0795C30.9083 10.1874 30.7184 10.3007 30.535 10.4167C30.4801 10.4514 30.4249 10.4893 30.3695 10.528C30.2268 10.6273 30.1595 10.7188 29.9511 10.5395C29.6627 10.2836 26.4329 7.5046 17.745 3.41919C16.3514 2.76394 14.9059 2.16214 13.4489 1.63065C12.0199 1.10958 10.4445 0.617285 8.63356 0.125814L8.57825 0.110739C8.36776 0.0533135 8.13961 0 7.89895 0C7.41791 0 7.01514 0.223396 6.76402 0.629072C6.55706 0.963618 6.50502 1.3708 6.62147 1.74578C6.74323 2.13857 7.03199 2.45859 7.41302 2.62401L8.38611 3.04655C12.2437 4.72023 16.0695 7.03766 20.0822 10.1312C21.4577 11.1917 22.7015 12.2136 23.8845 13.2553C24.4436 13.7476 25.0015 14.2472 25.5427 14.7403C25.5909 14.7839 26.001 15.1776 26.001 15.1776L1.10022 44.9785C0.317369 45.915 -0.0602625 46.9937 0.00781721 48.0978C0.0729074 49.1526 0.558026 50.174 1.33897 50.9C2.10225 51.6095 3.09763 52 4.14206 52C4.27279 52 4.40514 51.9937 4.53505 51.9811C5.7151 51.8672 6.80275 51.2331 7.51915 50.2412C7.73561 49.9417 28.8132 20.7671 29.995 19.1282C33.2723 22.5412 36.3657 26.2237 39.1885 30.0732C39.7437 30.8303 40.7263 32.2414 40.7707 32.3095C40.9606 32.6029 41.1759 32.9351 41.4806 33.1799C41.7107 33.3644 41.9784 33.4621 42.2548 33.4621C42.6863 33.4621 43.0369 33.2273 43.263 33.0507L48.37 29.0612C48.9792 28.5273 48.9971 27.9867 48.9971 27.9867C49.0357 27.3926 48.6803 27.0039 48.4671 26.7708Z"/>
  </g>
  <defs>
    <clipPath id="clip_22">
      <rect x="-1574" y="-107" width="4000" height="990" clip-rule="evenodd"/>
    </clipPath>
  </defs>
  <g clip-path="url(#clip_22)">
    <path fill="rgb(1,13,40)" stroke="none" transform="translate(314 303)"
          d="M97.0588 90.4021C95.4324 90.4021 94.1176 91.7058 94.1176 93.3187L94.1176 134.167L5.88235 134.167L5.88235 23.3333L94.1176 23.3333L94.1176 64.1608C94.1176 65.7738 95.4324 67.0775 97.0588 67.0775C98.6853 67.0775 100 65.7738 100 64.1608L100 12.8479C100 5.76625 94.1853 0 87.0441 0L12.9559 0C5.81471 0 0 5.76625 0 12.8479L0 162.149C0 169.234 5.81471 175 12.9559 175L87.0412 175C94.1853 175 99.9971 169.234 99.9971 162.152L99.9971 93.3187C100 91.7058 98.6853 90.4021 97.0588 90.4021ZM87.0412 5.83333C90.9441 5.83333 94.1176 8.98042 94.1176 12.8479L94.1176 17.5L5.88235 17.5L5.88235 12.8479C5.88235 8.98042 9.05588 5.83333 12.9559 5.83333L87.0412 5.83333ZM5.88235 162.152C5.88235 166.02 9.05588 169.167 12.9559 169.167L87.0441 169.167C90.9441 169.167 94.1176 166.02 94.1176 162.152L94.1176 140L5.88235 140L5.88235 162.152Z"
          fill-rule="evenodd"/>
  </g>
  <defs>
    <clipPath id="clip_23">
      <rect x="-1574" y="-107" width="4000" height="990" clip-rule="evenodd"/>
    </clipPath>
  </defs>
  <g clip-path="url(#clip_23)">
    <path fill="rgb(1,13,40)" stroke="none" transform="translate(352 446)"
          d="M0 11.5C0 5.15775 5.15775 0 11.5 0C17.8422 0 23 5.15775 23 11.5C23 17.8422 17.8422 23 11.5 23C5.15775 23 0 17.8422 0 11.5ZM5.75 11.5C5.75 14.6711 8.32887 17.25 11.5 17.25C14.6711 17.25 17.25 14.6711 17.25 11.5C17.25 8.32887 14.6711 5.75 11.5 5.75C8.32887 5.75 5.75 8.32887 5.75 11.5Z"
          fill-rule="evenodd"/>
  </g>
  <defs>
    <clipPath id="clip_24">
      <rect x="-1574" y="-107" width="4000" height="990" clip-rule="evenodd"/>
    </clipPath>
  </defs>
  <g clip-path="url(#clip_24)">
    <path fill="rgb(1,13,40)" stroke="none" transform="translate(350 312)"
          d="M2.83333 6L14.1667 6C15.7335 6 17 4.659 17 3C17 1.341 15.7335 0 14.1667 0L2.83333 0C1.2665 0 0 1.341 0 3C0 4.659 1.2665 6 2.83333 6L14.1667 6C15.7335 6 17 4.659 17 3C17 1.341 15.7335 0 14.1667 0L2.83333 0C1.2665 0 0 1.341 0 3C0 4.659 1.2665 6 2.83333 6Z"/>
  </g>
  <defs>
    <clipPath id="clip_25">
      <rect x="-1574" y="-107" width="4000" height="990" clip-rule="evenodd"/>
    </clipPath>
  </defs>
  <g clip-path="url(#clip_25)">
    <path fill="rgb(1,13,40)" stroke="none" transform="translate(663 516)"
          d="M48.4671 26.7708L48.3999 26.697C45.3485 23.3266 41.849 19.9915 37.7016 16.501C37.0746 15.9732 34.2351 13.7073 34.1024 13.5934C33.9698 13.4795 33.8322 13.3803 33.8612 13.2281C33.8958 13.0473 33.946 12.8521 34.0053 12.6465C34.058 12.4634 34.1124 12.2739 34.1539 12.0731C34.2296 11.7084 34.2776 11.3835 34.3007 11.0793L34.3021 11.0629C34.3279 10.7238 34.3763 10.0928 33.9859 9.6725C33.8489 9.5253 33.5976 9.3496 33.1766 9.3496C32.8666 9.3496 32.5623 9.44403 32.3807 9.50077L32.3608 9.50707C31.867 9.65975 31.4268 9.89315 31.0984 10.0795C30.9083 10.1874 30.7184 10.3007 30.535 10.4167C30.4801 10.4514 30.4249 10.4893 30.3695 10.528C30.2268 10.6273 30.1595 10.7188 29.9511 10.5395C29.6627 10.2836 26.4329 7.5046 17.745 3.41919C16.3514 2.76394 14.9059 2.16214 13.4489 1.63065C12.0199 1.10958 10.4445 0.617285 8.63356 0.125814L8.57825 0.110739C8.36776 0.0533135 8.13961 0 7.89895 0C7.41791 0 7.01514 0.223396 6.76402 0.629072C6.55706 0.963618 6.50502 1.3708 6.62147 1.74578C6.74323 2.13857 7.03199 2.45859 7.41302 2.62401L8.38611 3.04655C12.2437 4.72023 16.0695 7.03766 20.0822 10.1312C21.4577 11.1917 22.7015 12.2136 23.8845 13.2553C24.4436 13.7476 25.0015 14.2472 25.5427 14.7403C25.5909 14.7839 26.001 15.1776 26.001 15.1776L1.10022 44.9785C0.317369 45.915 -0.0602625 46.9937 0.00781721 48.0978C0.0729074 49.1526 0.558026 50.174 1.33897 50.9C2.10225 51.6095 3.09763 52 4.14206 52C4.27279 52 4.40514 51.9937 4.53505 51.9811C5.7151 51.8672 6.80275 51.2331 7.51915 50.2412C7.73561 49.9417 28.8132 20.7671 29.995 19.1282C33.2723 22.5412 36.3657 26.2237 39.1885 30.0732C39.7437 30.8303 40.7263 32.2414 40.7707 32.3095C40.9606 32.6029 41.1759 32.9351 41.4806 33.1799C41.7107 33.3644 41.9784 33.4621 42.2548 33.4621C42.6863 33.4621 43.0369 33.2273 43.263 33.0507L48.37 29.0612C48.9792 28.5273 48.9971 27.9867 48.9971 27.9867C49.0357 27.3926 48.6803 27.0039 48.4671 26.7708L48.3999 26.697C45.3485 23.3266 41.849 19.9915 37.7016 16.501C37.0746 15.9732 34.2351 13.7073 34.1024 13.5934C33.9698 13.4795 33.8322 13.3803 33.8612 13.2281C33.8958 13.0473 33.946 12.8521 34.0053 12.6465C34.058 12.4634 34.1124 12.2739 34.1539 12.0731C34.2296 11.7084 34.2776 11.3835 34.3007 11.0793L34.3021 11.0629C34.3279 10.7238 34.3763 10.0928 33.9859 9.6725C33.8489 9.5253 33.5976 9.3496 33.1766 9.3496C32.8666 9.3496 32.5623 9.44403 32.3807 9.50077L32.3608 9.50707C31.867 9.65975 31.4268 9.89315 31.0984 10.0795C30.9083 10.1874 30.7184 10.3007 30.535 10.4167C30.4801 10.4514 30.4249 10.4893 30.3695 10.528C30.2268 10.6273 30.1595 10.7188 29.9511 10.5395C29.6627 10.2836 26.4329 7.5046 17.745 3.41919C16.3514 2.76394 14.9059 2.16214 13.4489 1.63065C12.0199 1.10958 10.4445 0.617285 8.63356 0.125814L8.57825 0.110739C8.36776 0.0533135 8.13961 0 7.89895 0C7.41791 0 7.01514 0.223396 6.76402 0.629072C6.55706 0.963618 6.50502 1.3708 6.62147 1.74578C6.74323 2.13857 7.03199 2.45859 7.41302 2.62401L8.38611 3.04655C12.2437 4.72023 16.0695 7.03766 20.0822 10.1312C21.4577 11.1917 22.7015 12.2136 23.8845 13.2553C24.4436 13.7476 25.0015 14.2472 25.5427 14.7403C25.5909 14.7839 26.001 15.1776 26.001 15.1776L1.10022 44.9785C0.317369 45.915 -0.0602625 46.9937 0.00781721 48.0978C0.0729074 49.1526 0.558026 50.174 1.33897 50.9C2.10225 51.6095 3.09763 52 4.14206 52C4.27279 52 4.40514 51.9937 4.53505 51.9811C5.7151 51.8672 6.80275 51.2331 7.51915 50.2412C7.73561 49.9417 28.8132 20.7671 29.995 19.1282C33.2723 22.5412 36.3657 26.2237 39.1885 30.0732C39.7437 30.8303 40.7263 32.2414 40.7707 32.3095C40.9606 32.6029 41.1759 32.9351 41.4806 33.1799C41.7107 33.3644 41.9784 33.4621 42.2548 33.4621C42.6863 33.4621 43.0369 33.2273 43.263 33.0507L48.37 29.0612C48.9792 28.5273 48.9971 27.9867 48.9971 27.9867C49.0357 27.3926 48.6803 27.0039 48.4671 26.7708Z"/>
  </g>
  <defs>
    <clipPath id="clip_26">
      <rect x="-1574" y="-107" width="4000" height="990" clip-rule="evenodd"/>
    </clipPath>
  </defs>
  <g clip-path="url(#clip_26)">
    <path fill="rgb(1,13,40)" stroke="none" transform="translate(634 463)"
          d="M97.0588 90.4021C95.4324 90.4021 94.1176 91.7058 94.1176 93.3187L94.1176 134.167L5.88235 134.167L5.88235 23.3333L94.1176 23.3333L94.1176 64.1608C94.1176 65.7738 95.4324 67.0775 97.0588 67.0775C98.6853 67.0775 100 65.7738 100 64.1608L100 12.8479C100 5.76625 94.1853 0 87.0441 0L12.9559 0C5.81471 0 0 5.76625 0 12.8479L0 162.149C0 169.234 5.81471 175 12.9559 175L87.0412 175C94.1853 175 99.9971 169.234 99.9971 162.152L99.9971 93.3187C100 91.7058 98.6853 90.4021 97.0588 90.4021ZM87.0412 5.83333C90.9441 5.83333 94.1176 8.98042 94.1176 12.8479L94.1176 17.5L5.88235 17.5L5.88235 12.8479C5.88235 8.98042 9.05588 5.83333 12.9559 5.83333L87.0412 5.83333ZM5.88235 162.152C5.88235 166.02 9.05588 169.167 12.9559 169.167L87.0441 169.167C90.9441 169.167 94.1176 166.02 94.1176 162.152L94.1176 140L5.88235 140L5.88235 162.152Z"
          fill-rule="evenodd"/>
  </g>
  <defs>
    <clipPath id="clip_27">
      <rect x="-1574" y="-107" width="4000" height="990" clip-rule="evenodd"/>
    </clipPath>
  </defs>
  <g clip-path="url(#clip_27)">
    <path fill="rgb(1,13,40)" stroke="none" transform="translate(672 606)"
          d="M0 11.5C0 5.15775 5.15775 0 11.5 0C17.8422 0 23 5.15775 23 11.5C23 17.8422 17.8422 23 11.5 23C5.15775 23 0 17.8422 0 11.5ZM5.75 11.5C5.75 14.6711 8.32887 17.25 11.5 17.25C14.6711 17.25 17.25 14.6711 17.25 11.5C17.25 8.32887 14.6711 5.75 11.5 5.75C8.32887 5.75 5.75 8.32887 5.75 11.5Z"
          fill-rule="evenodd"/>
  </g>
  <defs>
    <clipPath id="clip_28">
      <rect x="-1574" y="-107" width="4000" height="990" clip-rule="evenodd"/>
    </clipPath>
  </defs>
  <g clip-path="url(#clip_28)">
    <path fill="rgb(1,13,40)" stroke="none" transform="translate(670 472)"
          d="M2.83333 6L14.1667 6C15.7335 6 17 4.659 17 3C17 1.341 15.7335 0 14.1667 0L2.83333 0C1.2665 0 0 1.341 0 3C0 4.659 1.2665 6 2.83333 6L14.1667 6C15.7335 6 17 4.659 17 3C17 1.341 15.7335 0 14.1667 0L2.83333 0C1.2665 0 0 1.341 0 3C0 4.659 1.2665 6 2.83333 6Z"/>
  </g>
  <defs>
    <clipPath id="clip_29">
      <rect x="-1574" y="-107" width="4000" height="990" clip-rule="evenodd"/>
    </clipPath>
  </defs>
  <g clip-path="url(#clip_29)">
    <path fill="rgb(1,13,40)" stroke="none" transform="translate(663 156)"
          d="M48.4671 26.7708L48.3999 26.697C45.3485 23.3266 41.849 19.9915 37.7016 16.501C37.0746 15.9732 34.2351 13.7073 34.1024 13.5934C33.9698 13.4795 33.8322 13.3803 33.8612 13.2281C33.8958 13.0473 33.946 12.8521 34.0053 12.6465C34.058 12.4634 34.1124 12.2739 34.1539 12.0731C34.2296 11.7084 34.2776 11.3835 34.3007 11.0793L34.3021 11.0629C34.3279 10.7238 34.3763 10.0928 33.9859 9.6725C33.8489 9.5253 33.5976 9.3496 33.1766 9.3496C32.8666 9.3496 32.5623 9.44403 32.3807 9.50077L32.3608 9.50707C31.867 9.65975 31.4268 9.89315 31.0984 10.0795C30.9083 10.1874 30.7184 10.3007 30.535 10.4167C30.4801 10.4514 30.4249 10.4893 30.3695 10.528C30.2268 10.6273 30.1595 10.7188 29.9511 10.5395C29.6627 10.2836 26.4329 7.5046 17.745 3.41919C16.3514 2.76394 14.9059 2.16214 13.4489 1.63065C12.0199 1.10958 10.4445 0.617285 8.63356 0.125814L8.57825 0.110739C8.36776 0.0533135 8.13961 0 7.89895 0C7.41791 0 7.01514 0.223396 6.76402 0.629072C6.55706 0.963618 6.50502 1.3708 6.62147 1.74578C6.74323 2.13857 7.03199 2.45859 7.41302 2.62401L8.38611 3.04655C12.2437 4.72023 16.0695 7.03766 20.0822 10.1312C21.4577 11.1917 22.7015 12.2136 23.8845 13.2553C24.4436 13.7476 25.0015 14.2472 25.5427 14.7403C25.5909 14.7839 26.001 15.1776 26.001 15.1776L1.10022 44.9785C0.317369 45.915 -0.0602625 46.9937 0.00781721 48.0978C0.0729074 49.1526 0.558026 50.174 1.33897 50.9C2.10225 51.6095 3.09763 52 4.14206 52C4.27279 52 4.40514 51.9937 4.53505 51.9811C5.7151 51.8672 6.80275 51.2331 7.51915 50.2412C7.73561 49.9417 28.8132 20.7671 29.995 19.1282C33.2723 22.5412 36.3657 26.2237 39.1885 30.0732C39.7437 30.8303 40.7263 32.2414 40.7707 32.3095C40.9606 32.6029 41.1759 32.9351 41.4806 33.1799C41.7107 33.3644 41.9784 33.4621 42.2548 33.4621C42.6863 33.4621 43.0369 33.2273 43.263 33.0507L48.37 29.0612C48.9792 28.5273 48.9971 27.9867 48.9971 27.9867C49.0357 27.3926 48.6803 27.0039 48.4671 26.7708L48.3999 26.697C45.3485 23.3266 41.849 19.9915 37.7016 16.501C37.0746 15.9732 34.2351 13.7073 34.1024 13.5934C33.9698 13.4795 33.8322 13.3803 33.8612 13.2281C33.8958 13.0473 33.946 12.8521 34.0053 12.6465C34.058 12.4634 34.1124 12.2739 34.1539 12.0731C34.2296 11.7084 34.2776 11.3835 34.3007 11.0793L34.3021 11.0629C34.3279 10.7238 34.3763 10.0928 33.9859 9.6725C33.8489 9.5253 33.5976 9.3496 33.1766 9.3496C32.8666 9.3496 32.5623 9.44403 32.3807 9.50077L32.3608 9.50707C31.867 9.65975 31.4268 9.89315 31.0984 10.0795C30.9083 10.1874 30.7184 10.3007 30.535 10.4167C30.4801 10.4514 30.4249 10.4893 30.3695 10.528C30.2268 10.6273 30.1595 10.7188 29.9511 10.5395C29.6627 10.2836 26.4329 7.5046 17.745 3.41919C16.3514 2.76394 14.9059 2.16214 13.4489 1.63065C12.0199 1.10958 10.4445 0.617285 8.63356 0.125814L8.57825 0.110739C8.36776 0.0533135 8.13961 0 7.89895 0C7.41791 0 7.01514 0.223396 6.76402 0.629072C6.55706 0.963618 6.50502 1.3708 6.62147 1.74578C6.74323 2.13857 7.03199 2.45859 7.41302 2.62401L8.38611 3.04655C12.2437 4.72023 16.0695 7.03766 20.0822 10.1312C21.4577 11.1917 22.7015 12.2136 23.8845 13.2553C24.4436 13.7476 25.0015 14.2472 25.5427 14.7403C25.5909 14.7839 26.001 15.1776 26.001 15.1776L1.10022 44.9785C0.317369 45.915 -0.0602625 46.9937 0.00781721 48.0978C0.0729074 49.1526 0.558026 50.174 1.33897 50.9C2.10225 51.6095 3.09763 52 4.14206 52C4.27279 52 4.40514 51.9937 4.53505 51.9811C5.7151 51.8672 6.80275 51.2331 7.51915 50.2412C7.73561 49.9417 28.8132 20.7671 29.995 19.1282C33.2723 22.5412 36.3657 26.2237 39.1885 30.0732C39.7437 30.8303 40.7263 32.2414 40.7707 32.3095C40.9606 32.6029 41.1759 32.9351 41.4806 33.1799C41.7107 33.3644 41.9784 33.4621 42.2548 33.4621C42.6863 33.4621 43.0369 33.2273 43.263 33.0507L48.37 29.0612C48.9792 28.5273 48.9971 27.9867 48.9971 27.9867C49.0357 27.3926 48.6803 27.0039 48.4671 26.7708Z"/>
  </g>
  <defs>
    <clipPath id="clip_30">
      <rect x="-1574" y="-107" width="4000" height="990" clip-rule="evenodd"/>
    </clipPath>
  </defs>
  <g clip-path="url(#clip_30)">
    <path fill="rgb(1,13,40)" stroke="none" transform="translate(634 103)"
          d="M97.0588 90.4021C95.4324 90.4021 94.1176 91.7058 94.1176 93.3187L94.1176 134.167L5.88235 134.167L5.88235 23.3333L94.1176 23.3333L94.1176 64.1608C94.1176 65.7738 95.4324 67.0775 97.0588 67.0775C98.6853 67.0775 100 65.7738 100 64.1608L100 12.8479C100 5.76625 94.1853 0 87.0441 0L12.9559 0C5.81471 0 0 5.76625 0 12.8479L0 162.149C0 169.234 5.81471 175 12.9559 175L87.0412 175C94.1853 175 99.9971 169.234 99.9971 162.152L99.9971 93.3187C100 91.7058 98.6853 90.4021 97.0588 90.4021ZM87.0412 5.83333C90.9441 5.83333 94.1176 8.98042 94.1176 12.8479L94.1176 17.5L5.88235 17.5L5.88235 12.8479C5.88235 8.98042 9.05588 5.83333 12.9559 5.83333L87.0412 5.83333ZM5.88235 162.152C5.88235 166.02 9.05588 169.167 12.9559 169.167L87.0441 169.167C90.9441 169.167 94.1176 166.02 94.1176 162.152L94.1176 140L5.88235 140L5.88235 162.152Z"
          fill-rule="evenodd"/>
  </g>
  <defs>
    <clipPath id="clip_31">
      <rect x="-1574" y="-107" width="4000" height="990" clip-rule="evenodd"/>
    </clipPath>
  </defs>
  <g clip-path="url(#clip_31)">
    <path fill="rgb(1,13,40)" stroke="none" transform="translate(672 246)"
          d="M0 11.5C0 5.15775 5.15775 0 11.5 0C17.8422 0 23 5.15775 23 11.5C23 17.8422 17.8422 23 11.5 23C5.15775 23 0 17.8422 0 11.5ZM5.75 11.5C5.75 14.6711 8.32887 17.25 11.5 17.25C14.6711 17.25 17.25 14.6711 17.25 11.5C17.25 8.32887 14.6711 5.75 11.5 5.75C8.32887 5.75 5.75 8.32887 5.75 11.5Z"
          fill-rule="evenodd"/>
  </g>
  <defs>
    <clipPath id="clip_32">
      <rect x="-1574" y="-107" width="4000" height="990" clip-rule="evenodd"/>
    </clipPath>
  </defs>
  <g clip-path="url(#clip_32)">
    <path fill="rgb(1,13,40)" stroke="none" transform="translate(670 112)"
          d="M2.83333 6L14.1667 6C15.7335 6 17 4.659 17 3C17 1.341 15.7335 0 14.1667 0L2.83333 0C1.2665 0 0 1.341 0 3C0 4.659 1.2665 6 2.83333 6L14.1667 6C15.7335 6 17 4.659 17 3C17 1.341 15.7335 0 14.1667 0L2.83333 0C1.2665 0 0 1.341 0 3C0 4.659 1.2665 6 2.83333 6Z"/>
  </g>
  <defs>
    <clipPath id="clip_33">
      <rect x="-1574" y="-107" width="4000" height="990" clip-rule="evenodd"/>
    </clipPath>
  </defs>
  <g clip-path="url(#clip_33)">
    <path fill="rgb(1,13,40)" stroke="none" transform="translate(28 156)"
          d="M48.4671 26.7708L48.3999 26.697C45.3485 23.3266 41.849 19.9915 37.7016 16.501C37.0746 15.9732 34.2351 13.7073 34.1024 13.5934C33.9698 13.4795 33.8322 13.3803 33.8612 13.2281C33.8958 13.0473 33.946 12.8521 34.0053 12.6465C34.058 12.4634 34.1124 12.2739 34.1539 12.0731C34.2296 11.7084 34.2776 11.3835 34.3007 11.0793L34.3021 11.0629C34.3279 10.7238 34.3763 10.0928 33.9859 9.6725C33.8489 9.5253 33.5976 9.3496 33.1766 9.3496C32.8666 9.3496 32.5623 9.44403 32.3807 9.50077L32.3608 9.50707C31.867 9.65975 31.4268 9.89315 31.0984 10.0795C30.9083 10.1874 30.7184 10.3007 30.535 10.4167C30.4801 10.4514 30.4249 10.4893 30.3695 10.528C30.2268 10.6273 30.1595 10.7188 29.9511 10.5395C29.6627 10.2836 26.4329 7.5046 17.745 3.41919C16.3514 2.76394 14.9059 2.16214 13.4489 1.63065C12.0199 1.10958 10.4445 0.617285 8.63356 0.125814L8.57825 0.110739C8.36776 0.0533135 8.13961 0 7.89895 0C7.41791 0 7.01514 0.223396 6.76402 0.629072C6.55706 0.963618 6.50502 1.3708 6.62147 1.74578C6.74323 2.13857 7.03199 2.45859 7.41302 2.62401L8.38611 3.04655C12.2437 4.72023 16.0695 7.03766 20.0822 10.1312C21.4577 11.1917 22.7015 12.2136 23.8845 13.2553C24.4436 13.7476 25.0015 14.2472 25.5427 14.7403C25.5909 14.7839 26.001 15.1776 26.001 15.1776L1.10022 44.9785C0.317369 45.915 -0.0602625 46.9937 0.00781721 48.0978C0.0729074 49.1526 0.558026 50.174 1.33897 50.9C2.10225 51.6095 3.09763 52 4.14206 52C4.27279 52 4.40514 51.9937 4.53505 51.9811C5.7151 51.8672 6.80275 51.2331 7.51915 50.2412C7.73561 49.9417 28.8132 20.7671 29.995 19.1282C33.2723 22.5412 36.3657 26.2237 39.1885 30.0732C39.7437 30.8303 40.7263 32.2414 40.7707 32.3095C40.9606 32.6029 41.1759 32.9351 41.4806 33.1799C41.7107 33.3644 41.9784 33.4621 42.2548 33.4621C42.6863 33.4621 43.0369 33.2273 43.263 33.0507L48.37 29.0612C48.9792 28.5273 48.9971 27.9867 48.9971 27.9867C49.0357 27.3926 48.6803 27.0039 48.4671 26.7708L48.3999 26.697C45.3485 23.3266 41.849 19.9915 37.7016 16.501C37.0746 15.9732 34.2351 13.7073 34.1024 13.5934C33.9698 13.4795 33.8322 13.3803 33.8612 13.2281C33.8958 13.0473 33.946 12.8521 34.0053 12.6465C34.058 12.4634 34.1124 12.2739 34.1539 12.0731C34.2296 11.7084 34.2776 11.3835 34.3007 11.0793L34.3021 11.0629C34.3279 10.7238 34.3763 10.0928 33.9859 9.6725C33.8489 9.5253 33.5976 9.3496 33.1766 9.3496C32.8666 9.3496 32.5623 9.44403 32.3807 9.50077L32.3608 9.50707C31.867 9.65975 31.4268 9.89315 31.0984 10.0795C30.9083 10.1874 30.7184 10.3007 30.535 10.4167C30.4801 10.4514 30.4249 10.4893 30.3695 10.528C30.2268 10.6273 30.1595 10.7188 29.9511 10.5395C29.6627 10.2836 26.4329 7.5046 17.745 3.41919C16.3514 2.76394 14.9059 2.16214 13.4489 1.63065C12.0199 1.10958 10.4445 0.617285 8.63356 0.125814L8.57825 0.110739C8.36776 0.0533135 8.13961 0 7.89895 0C7.41791 0 7.01514 0.223396 6.76402 0.629072C6.55706 0.963618 6.50502 1.3708 6.62147 1.74578C6.74323 2.13857 7.03199 2.45859 7.41302 2.62401L8.38611 3.04655C12.2437 4.72023 16.0695 7.03766 20.0822 10.1312C21.4577 11.1917 22.7015 12.2136 23.8845 13.2553C24.4436 13.7476 25.0015 14.2472 25.5427 14.7403C25.5909 14.7839 26.001 15.1776 26.001 15.1776L1.10022 44.9785C0.317369 45.915 -0.0602625 46.9937 0.00781721 48.0978C0.0729074 49.1526 0.558026 50.174 1.33897 50.9C2.10225 51.6095 3.09763 52 4.14206 52C4.27279 52 4.40514 51.9937 4.53505 51.9811C5.7151 51.8672 6.80275 51.2331 7.51915 50.2412C7.73561 49.9417 28.8132 20.7671 29.995 19.1282C33.2723 22.5412 36.3657 26.2237 39.1885 30.0732C39.7437 30.8303 40.7263 32.2414 40.7707 32.3095C40.9606 32.6029 41.1759 32.9351 41.4806 33.1799C41.7107 33.3644 41.9784 33.4621 42.2548 33.4621C42.6863 33.4621 43.0369 33.2273 43.263 33.0507L48.37 29.0612C48.9792 28.5273 48.9971 27.9867 48.9971 27.9867C49.0357 27.3926 48.6803 27.0039 48.4671 26.7708Z"/>
  </g>
  <defs>
    <clipPath id="clip_34">
      <rect x="-1574" y="-107" width="4000" height="990" clip-rule="evenodd"/>
    </clipPath>
  </defs>
  <g clip-path="url(#clip_34)">
    <path fill="rgb(1,13,40)" stroke="none" transform="translate(0 103)"
          d="M97.0588 90.4021C95.4324 90.4021 94.1176 91.7058 94.1176 93.3187L94.1176 134.167L5.88235 134.167L5.88235 23.3333L94.1176 23.3333L94.1176 64.1608C94.1176 65.7738 95.4324 67.0775 97.0588 67.0775C98.6853 67.0775 100 65.7738 100 64.1608L100 12.8479C100 5.76625 94.1853 0 87.0441 0L12.9559 0C5.81471 0 0 5.76625 0 12.8479L0 162.149C0 169.234 5.81471 175 12.9559 175L87.0412 175C94.1853 175 99.9971 169.234 99.9971 162.152L99.9971 93.3187C100 91.7058 98.6853 90.4021 97.0588 90.4021ZM87.0412 5.83333C90.9441 5.83333 94.1176 8.98042 94.1176 12.8479L94.1176 17.5L5.88235 17.5L5.88235 12.8479C5.88235 8.98042 9.05588 5.83333 12.9559 5.83333L87.0412 5.83333ZM5.88235 162.152C5.88235 166.02 9.05588 169.167 12.9559 169.167L87.0441 169.167C90.9441 169.167 94.1176 166.02 94.1176 162.152L94.1176 140L5.88235 140L5.88235 162.152Z"
          fill-rule="evenodd"/>
  </g>
  <defs>
    <clipPath id="clip_35">
      <rect x="-1574" y="-107" width="4000" height="990" clip-rule="evenodd"/>
    </clipPath>
  </defs>
  <g clip-path="url(#clip_35)">
    <path fill="rgb(1,13,40)" stroke="none" transform="translate(38 246)"
          d="M0 11.5C0 5.15775 5.15775 0 11.5 0C17.8422 0 23 5.15775 23 11.5C23 17.8422 17.8422 23 11.5 23C5.15775 23 0 17.8422 0 11.5ZM5.75 11.5C5.75 14.6711 8.32887 17.25 11.5 17.25C14.6711 17.25 17.25 14.6711 17.25 11.5C17.25 8.32887 14.6711 5.75 11.5 5.75C8.32887 5.75 5.75 8.32887 5.75 11.5Z"
          fill-rule="evenodd"/>
  </g>
  <defs>
    <clipPath id="clip_36">
      <rect x="-1574" y="-107" width="4000" height="990" clip-rule="evenodd"/>
    </clipPath>
  </defs>
  <g clip-path="url(#clip_36)">
    <path fill="rgb(1,13,40)" stroke="none" transform="translate(36 112)"
          d="M2.83333 6L14.1667 6C15.7335 6 17 4.659 17 3C17 1.341 15.7335 0 14.1667 0L2.83333 0C1.2665 0 0 1.341 0 3C0 4.659 1.2665 6 2.83333 6L14.1667 6C15.7335 6 17 4.659 17 3C17 1.341 15.7335 0 14.1667 0L2.83333 0C1.2665 0 0 1.341 0 3C0 4.659 1.2665 6 2.83333 6Z"/>
  </g>
  <defs>
    <clipPath id="clip_37">
      <rect x="-1574" y="-107" width="4000" height="990" clip-rule="evenodd"/>
    </clipPath>
  </defs>
  <g clip-path="url(#clip_37)">
    <path fill="rgb(1,13,40)" stroke="none" transform="translate(28 516)"
          d="M48.4671 26.7708L48.3999 26.697C45.3485 23.3266 41.849 19.9915 37.7016 16.501C37.0746 15.9732 34.2351 13.7073 34.1024 13.5934C33.9698 13.4795 33.8322 13.3803 33.8612 13.2281C33.8958 13.0473 33.946 12.8521 34.0053 12.6465C34.058 12.4634 34.1124 12.2739 34.1539 12.0731C34.2296 11.7084 34.2776 11.3835 34.3007 11.0793L34.3021 11.0629C34.3279 10.7238 34.3763 10.0928 33.9859 9.6725C33.8489 9.5253 33.5976 9.3496 33.1766 9.3496C32.8666 9.3496 32.5623 9.44403 32.3807 9.50077L32.3608 9.50707C31.867 9.65975 31.4268 9.89315 31.0984 10.0795C30.9083 10.1874 30.7184 10.3007 30.535 10.4167C30.4801 10.4514 30.4249 10.4893 30.3695 10.528C30.2268 10.6273 30.1595 10.7188 29.9511 10.5395C29.6627 10.2836 26.4329 7.5046 17.745 3.41919C16.3514 2.76394 14.9059 2.16214 13.4489 1.63065C12.0199 1.10958 10.4445 0.617285 8.63356 0.125814L8.57825 0.110739C8.36776 0.0533135 8.13961 0 7.89895 0C7.41791 0 7.01514 0.223396 6.76402 0.629072C6.55706 0.963618 6.50502 1.3708 6.62147 1.74578C6.74323 2.13857 7.03199 2.45859 7.41302 2.62401L8.38611 3.04655C12.2437 4.72023 16.0695 7.03766 20.0822 10.1312C21.4577 11.1917 22.7015 12.2136 23.8845 13.2553C24.4436 13.7476 25.0015 14.2472 25.5427 14.7403C25.5909 14.7839 26.001 15.1776 26.001 15.1776L1.10022 44.9785C0.317369 45.915 -0.0602625 46.9937 0.00781721 48.0978C0.0729074 49.1526 0.558026 50.174 1.33897 50.9C2.10225 51.6095 3.09763 52 4.14206 52C4.27279 52 4.40514 51.9937 4.53505 51.9811C5.7151 51.8672 6.80275 51.2331 7.51915 50.2412C7.73561 49.9417 28.8132 20.7671 29.995 19.1282C33.2723 22.5412 36.3657 26.2237 39.1885 30.0732C39.7437 30.8303 40.7263 32.2414 40.7707 32.3095C40.9606 32.6029 41.1759 32.9351 41.4806 33.1799C41.7107 33.3644 41.9784 33.4621 42.2548 33.4621C42.6863 33.4621 43.0369 33.2273 43.263 33.0507L48.37 29.0612C48.9792 28.5273 48.9971 27.9867 48.9971 27.9867C49.0357 27.3926 48.6803 27.0039 48.4671 26.7708L48.3999 26.697C45.3485 23.3266 41.849 19.9915 37.7016 16.501C37.0746 15.9732 34.2351 13.7073 34.1024 13.5934C33.9698 13.4795 33.8322 13.3803 33.8612 13.2281C33.8958 13.0473 33.946 12.8521 34.0053 12.6465C34.058 12.4634 34.1124 12.2739 34.1539 12.0731C34.2296 11.7084 34.2776 11.3835 34.3007 11.0793L34.3021 11.0629C34.3279 10.7238 34.3763 10.0928 33.9859 9.6725C33.8489 9.5253 33.5976 9.3496 33.1766 9.3496C32.8666 9.3496 32.5623 9.44403 32.3807 9.50077L32.3608 9.50707C31.867 9.65975 31.4268 9.89315 31.0984 10.0795C30.9083 10.1874 30.7184 10.3007 30.535 10.4167C30.4801 10.4514 30.4249 10.4893 30.3695 10.528C30.2268 10.6273 30.1595 10.7188 29.9511 10.5395C29.6627 10.2836 26.4329 7.5046 17.745 3.41919C16.3514 2.76394 14.9059 2.16214 13.4489 1.63065C12.0199 1.10958 10.4445 0.617285 8.63356 0.125814L8.57825 0.110739C8.36776 0.0533135 8.13961 0 7.89895 0C7.41791 0 7.01514 0.223396 6.76402 0.629072C6.55706 0.963618 6.50502 1.3708 6.62147 1.74578C6.74323 2.13857 7.03199 2.45859 7.41302 2.62401L8.38611 3.04655C12.2437 4.72023 16.0695 7.03766 20.0822 10.1312C21.4577 11.1917 22.7015 12.2136 23.8845 13.2553C24.4436 13.7476 25.0015 14.2472 25.5427 14.7403C25.5909 14.7839 26.001 15.1776 26.001 15.1776L1.10022 44.9785C0.317369 45.915 -0.0602625 46.9937 0.00781721 48.0978C0.0729074 49.1526 0.558026 50.174 1.33897 50.9C2.10225 51.6095 3.09763 52 4.14206 52C4.27279 52 4.40514 51.9937 4.53505 51.9811C5.7151 51.8672 6.80275 51.2331 7.51915 50.2412C7.73561 49.9417 28.8132 20.7671 29.995 19.1282C33.2723 22.5412 36.3657 26.2237 39.1885 30.0732C39.7437 30.8303 40.7263 32.2414 40.7707 32.3095C40.9606 32.6029 41.1759 32.9351 41.4806 33.1799C41.7107 33.3644 41.9784 33.4621 42.2548 33.4621C42.6863 33.4621 43.0369 33.2273 43.263 33.0507L48.37 29.0612C48.9792 28.5273 48.9971 27.9867 48.9971 27.9867C49.0357 27.3926 48.6803 27.0039 48.4671 26.7708Z"/>
  </g>
  <defs>
    <clipPath id="clip_38">
      <rect x="-1574" y="-107" width="4000" height="990" clip-rule="evenodd"/>
    </clipPath>
  </defs>
  <g clip-path="url(#clip_38)">
    <path fill="rgb(1,13,40)" stroke="none" transform="translate(0 463)"
          d="M97.0588 90.4021C95.4324 90.4021 94.1176 91.7058 94.1176 93.3187L94.1176 134.167L5.88235 134.167L5.88235 23.3333L94.1176 23.3333L94.1176 64.1608C94.1176 65.7738 95.4324 67.0775 97.0588 67.0775C98.6853 67.0775 100 65.7738 100 64.1608L100 12.8479C100 5.76625 94.1853 0 87.0441 0L12.9559 0C5.81471 0 0 5.76625 0 12.8479L0 162.149C0 169.234 5.81471 175 12.9559 175L87.0412 175C94.1853 175 99.9971 169.234 99.9971 162.152L99.9971 93.3187C100 91.7058 98.6853 90.4021 97.0588 90.4021ZM87.0412 5.83333C90.9441 5.83333 94.1176 8.98042 94.1176 12.8479L94.1176 17.5L5.88235 17.5L5.88235 12.8479C5.88235 8.98042 9.05588 5.83333 12.9559 5.83333L87.0412 5.83333ZM5.88235 162.152C5.88235 166.02 9.05588 169.167 12.9559 169.167L87.0441 169.167C90.9441 169.167 94.1176 166.02 94.1176 162.152L94.1176 140L5.88235 140L5.88235 162.152Z"
          fill-rule="evenodd"/>
  </g>
  <defs>
    <clipPath id="clip_39">
      <rect x="-1574" y="-107" width="4000" height="990" clip-rule="evenodd"/>
    </clipPath>
  </defs>
  <g clip-path="url(#clip_39)">
    <path fill="rgb(1,13,40)" stroke="none" transform="translate(38 606)"
          d="M0 11.5C0 5.15775 5.15775 0 11.5 0C17.8422 0 23 5.15775 23 11.5C23 17.8422 17.8422 23 11.5 23C5.15775 23 0 17.8422 0 11.5ZM5.75 11.5C5.75 14.6711 8.32887 17.25 11.5 17.25C14.6711 17.25 17.25 14.6711 17.25 11.5C17.25 8.32887 14.6711 5.75 11.5 5.75C8.32887 5.75 5.75 8.32887 5.75 11.5Z"
          fill-rule="evenodd"/>
  </g>
  <defs>
    <clipPath id="clip_40">
      <rect x="-1574" y="-107" width="4000" height="990" clip-rule="evenodd"/>
    </clipPath>
  </defs>
  <g clip-path="url(#clip_40)">
    <path fill="rgb(1,13,40)" stroke="none" transform="translate(36 472)"
          d="M2.83333 6L14.1667 6C15.7335 6 17 4.659 17 3C17 1.341 15.7335 0 14.1667 0L2.83333 0C1.2665 0 0 1.341 0 3C0 4.659 1.2665 6 2.83333 6L14.1667 6C15.7335 6 17 4.659 17 3C17 1.341 15.7335 0 14.1667 0L2.83333 0C1.2665 0 0 1.341 0 3C0 4.659 1.2665 6 2.83333 6Z"/>
  </g>
  <defs>
    <clipPath id="clip_41">
      <rect x="-1574" y="-107" width="4000" height="990" clip-rule="evenodd"/>
    </clipPath>
  </defs>
  <g clip-path="url(#clip_41)">
    <path fill="rgb(1,13,40)" stroke="none" transform="translate(369 312)"
          d="M3 6L6 6C7.659 6 9 4.659 9 3C9 1.341 7.659 0 6 0L3 0C1.341 0 0 1.341 0 3C0 4.659 1.341 6 3 6L6 6C7.659 6 9 4.659 9 3C9 1.341 7.659 0 6 0L3 0C1.341 0 0 1.341 0 3C0 4.659 1.341 6 3 6Z"/>
  </g>
  <defs>
    <clipPath id="clip_42">
      <rect x="-1574" y="-107" width="4000" height="990" clip-rule="evenodd"/>
    </clipPath>
  </defs>
  <g clip-path="url(#clip_42)">
    <path fill="rgb(1,13,40)" stroke="none" transform="translate(690 112)"
          d="M3 6L6 6C7.659 6 9 4.659 9 3C9 1.341 7.659 0 6 0L3 0C1.341 0 0 1.341 0 3C0 4.659 1.341 6 3 6L6 6C7.659 6 9 4.659 9 3C9 1.341 7.659 0 6 0L3 0C1.341 0 0 1.341 0 3C0 4.659 1.341 6 3 6Z"/>
  </g>
  <defs>
    <clipPath id="clip_43">
      <rect x="-1574" y="-107" width="4000" height="990" clip-rule="evenodd"/>
    </clipPath>
  </defs>
  <g clip-path="url(#clip_43)">
    <path fill="rgb(1,13,40)" stroke="none" transform="translate(690 472)"
          d="M3 6L6 6C7.659 6 9 4.659 9 3C9 1.341 7.659 0 6 0L3 0C1.341 0 0 1.341 0 3C0 4.659 1.341 6 3 6L6 6C7.659 6 9 4.659 9 3C9 1.341 7.659 0 6 0L3 0C1.341 0 0 1.341 0 3C0 4.659 1.341 6 3 6Z"/>
  </g>
  <defs>
    <clipPath id="clip_44">
      <rect x="-1574" y="-107" width="4000" height="990" clip-rule="evenodd"/>
    </clipPath>
  </defs>
  <g clip-path="url(#clip_44)">
    <path fill="rgb(1,13,40)" stroke="none" transform="translate(57 472)"
          d="M3 6L6 6C7.659 6 9 4.659 9 3C9 1.341 7.659 0 6 0L3 0C1.341 0 0 1.341 0 3C0 4.659 1.341 6 3 6L6 6C7.659 6 9 4.659 9 3C9 1.341 7.659 0 6 0L3 0C1.341 0 0 1.341 0 3C0 4.659 1.341 6 3 6Z"/>
  </g>
  <defs>
    <clipPath id="clip_45">
      <rect x="-1574" y="-107" width="4000" height="990" clip-rule="evenodd"/>
    </clipPath>
  </defs>
  <g clip-path="url(#clip_45)">
    <path fill="rgb(1,13,40)" stroke="none" transform="translate(57 112)"
          d="M3 6L6 6C7.659 6 9 4.659 9 3C9 1.341 7.659 0 6 0L3 0C1.341 0 0 1.341 0 3C0 4.659 1.341 6 3 6L6 6C7.659 6 9 4.659 9 3C9 1.341 7.659 0 6 0L3 0C1.341 0 0 1.341 0 3C0 4.659 1.341 6 3 6Z"/>
  </g>
</svg>
