<?xml version="1.0" encoding="utf-8" ?>
<svg xmlns="http://www.w3.org/2000/svg" width="723" height="463">
  <defs>
    <clipPath id="clip_0">
      <rect x="-2907" y="-208" width="4000" height="990" clip-rule="evenodd"/>
    </clipPath>
  </defs>
  <g clip-path="url(#clip_0)">
    <path fill="rgb(1,13,40)" stroke="none"
          d="M653.916 420.208C666.016 420.208 675.848 410.361 675.848 398.257L675.848 21.9512C675.848 9.84666 666.016 0 653.916 0L69.0836 0C56.9901 0 47.1523 9.84666 47.1523 21.9512L47.1523 398.257C47.1523 410.361 56.9963 420.208 69.0836 420.208L653.916 420.208ZM65.9506 21.9512C65.9506 20.2201 67.3542 18.8153 69.0836 18.8153L653.916 18.8153C655.646 18.8153 657.049 20.2201 657.049 21.9512L657.049 398.257C657.049 399.988 655.646 401.393 653.916 401.393L69.0836 401.393C67.3542 401.393 65.9506 399.988 65.9506 398.257L65.9506 21.9512ZM714.578 463C719.228 463 723 459.224 723 454.571L723 437.004L426.075 437.004C424.603 441.908 420.116 445.496 414.752 445.496L308.254 445.496C302.884 445.496 298.397 441.902 296.931 437.004L0 437.004L0 454.571C0 459.224 3.77218 463 8.42162 463L714.578 463Z"
          fill-rule="evenodd"/>
  </g>
  <defs>
    <clipPath id="clip_1">
      <rect x="-2907" y="-208" width="4000" height="990" clip-rule="evenodd"/>
    </clipPath>
  </defs>
  <g clip-path="url(#clip_1)">
    <path fill="rgb(1,13,40)" stroke="none" transform="translate(255.984 132.286)"
          d="M216.062 2.49251C212.78 -0.830836 207.458 -0.830836 204.176 2.49251L67.9352 140.444L14.3477 86.1833C11.066 82.8595 5.74416 82.8595 2.4616 86.1833C-0.820533 89.5066 -0.820533 94.8949 2.4616 98.2186L61.9928 158.497C65.2736 161.819 70.5972 161.82 73.8789 158.497L216.062 14.5279C219.344 11.2041 219.344 5.81585 216.062 2.49251C212.78 -0.830836 207.458 -0.830836 204.176 2.49251L67.9352 140.444L14.3477 86.1833C11.066 82.8595 5.74416 82.8595 2.4616 86.1833C-0.820533 89.5066 -0.820533 94.8949 2.4616 98.2186L61.9928 158.497C65.2736 161.819 70.5972 161.82 73.8789 158.497L216.062 14.5279C219.344 11.2041 219.344 5.81585 216.062 2.49251Z"/>
  </g>
</svg>
