<?xml version="1.0" encoding="utf-8" ?>
<svg xmlns="http://www.w3.org/2000/svg" width="718" height="463">
  <defs>
    <clipPath id="clip_0">
      <rect x="-378" y="-208" width="4000" height="990" clip-rule="evenodd"/>
    </clipPath>
  </defs>
  <g clip-path="url(#clip_0)">
    <path fill="rgb(1,13,40)" stroke="none"
          d="M649.394 420.208C661.41 420.208 671.174 410.361 671.174 398.257L671.174 21.9512C671.174 9.84666 661.41 0 649.394 0L68.6059 0C56.5959 0 46.8262 9.84666 46.8262 21.9512L46.8262 398.257C46.8262 410.361 56.6022 420.208 68.6059 420.208L649.394 420.208ZM65.4945 21.9512C65.4945 20.2201 66.8884 18.8153 68.6059 18.8153L649.394 18.8153C651.112 18.8153 652.506 20.2201 652.506 21.9512L652.506 398.257C652.506 399.988 651.112 401.393 649.394 401.393L68.6059 401.393C66.8884 401.393 65.4945 399.988 65.4945 398.257L65.4945 21.9512ZM709.637 463C714.254 463 718 459.224 718 454.571L718 437.004L423.129 437.004C421.666 441.908 417.211 445.496 411.884 445.496L306.122 445.496C300.789 445.496 296.334 441.902 294.878 437.004L0 437.004L0 454.571C0 459.224 3.7461 463 8.36338 463L709.637 463Z"
          fill-rule="evenodd"/>
  </g>
  <defs>
    <clipPath id="clip_1">
      <rect x="-378" y="-208" width="4000" height="990" clip-rule="evenodd"/>
    </clipPath>
  </defs>
  <g clip-path="url(#clip_1)">
    <path fill="rgb(1,13,40)" stroke="none" transform="translate(288.449 126.046)"
          d="M149.449 82.8809L149.242 82.6526C139.833 72.2181 129.042 61.8925 116.253 51.0862C114.32 49.4522 105.564 42.4372 105.155 42.0846C104.746 41.732 104.322 41.4248 104.412 40.9534C104.518 40.3937 104.673 39.7895 104.856 39.153C105.018 38.5861 105.186 37.9993 105.314 37.3777C105.548 36.2486 105.695 35.2426 105.767 34.3011L105.771 34.2501C105.851 33.2004 106 31.2469 104.796 29.9455C104.373 29.4898 103.599 28.9459 102.301 28.9459C101.344 28.9459 100.406 29.2382 99.8465 29.4139L99.7849 29.4334C98.2622 29.9061 96.905 30.6287 95.8923 31.2057C95.3061 31.5397 94.7207 31.8906 94.1551 32.2495C93.9858 32.3569 93.8157 32.4744 93.6447 32.5941C93.2047 32.9017 92.9973 33.1847 92.3546 32.6297C91.4654 31.8375 81.5064 23.2338 54.7169 10.5856C50.4199 8.55702 45.9624 6.69388 41.4698 5.04842C37.0635 3.4352 32.2059 1.91108 26.6217 0.389515L26.4512 0.342841C25.8021 0.165056 25.0986 0 24.3565 0C22.8732 0 21.6313 0.691622 20.8569 1.94757C20.2188 2.98331 20.0583 4.24393 20.4174 5.40483C20.7928 6.6209 21.6832 7.61166 22.8581 8.1238L25.8587 9.43194C37.7536 14.6136 49.5504 21.7882 61.9239 31.3657C66.1651 34.649 70.0003 37.8126 73.6482 41.0378C75.372 42.5619 77.0925 44.1085 78.7614 45.6352C78.9097 45.7701 80.1743 46.9891 80.1743 46.9891L3.39254 139.251C0.978613 142.15 -0.18582 145.49 0.0241045 148.908C0.224811 152.174 1.72068 155.336 4.12874 157.584C6.48233 159.78 9.55159 160.989 12.7721 160.989C13.1752 160.989 13.5833 160.97 13.9839 160.931C17.6226 160.578 20.9764 158.615 23.1854 155.544C23.8529 154.617 88.8458 64.2937 92.4899 59.2198C102.596 69.7863 112.134 81.1871 120.838 93.105C122.55 95.4489 125.58 99.8176 125.717 100.028C126.302 100.937 126.967 101.965 127.906 102.723C128.615 103.294 129.441 103.597 130.293 103.597C131.624 103.597 132.705 102.87 133.402 102.323L149.149 89.9719C151.028 88.3188 151.083 86.6454 151.083 86.6454C151.202 84.806 150.107 83.6027 149.449 82.8809L149.242 82.6526C139.833 72.2181 129.042 61.8925 116.253 51.0862C114.32 49.4522 105.564 42.4372 105.155 42.0846C104.746 41.732 104.322 41.4248 104.412 40.9534C104.518 40.3937 104.673 39.7895 104.856 39.153C105.018 38.5861 105.186 37.9993 105.314 37.3777C105.548 36.2486 105.695 35.2426 105.767 34.3011L105.771 34.2501C105.851 33.2004 106 31.2469 104.796 29.9455C104.373 29.4898 103.599 28.9459 102.301 28.9459C101.344 28.9459 100.406 29.2382 99.8465 29.4139L99.7849 29.4334C98.2622 29.9061 96.905 30.6287 95.8923 31.2057C95.3061 31.5397 94.7207 31.8906 94.1551 32.2495C93.9858 32.3569 93.8157 32.4744 93.6447 32.5941C93.2047 32.9017 92.9973 33.1847 92.3546 32.6297C91.4654 31.8375 81.5064 23.2338 54.7169 10.5856C50.4199 8.55702 45.9624 6.69388 41.4698 5.04842C37.0635 3.4352 32.2059 1.91108 26.6217 0.389515L26.4512 0.342841C25.8021 0.165056 25.0986 0 24.3565 0C22.8732 0 21.6313 0.691622 20.8569 1.94757C20.2188 2.98331 20.0583 4.24393 20.4174 5.40483C20.7928 6.6209 21.6832 7.61166 22.8581 8.1238L25.8587 9.43194C37.7536 14.6136 49.5504 21.7882 61.9239 31.3657C66.1651 34.649 70.0003 37.8126 73.6482 41.0378C75.372 42.5619 77.0925 44.1085 78.7614 45.6352C78.9097 45.7701 80.1743 46.9891 80.1743 46.9891L3.39254 139.251C0.978613 142.15 -0.18582 145.49 0.0241045 148.908C0.224811 152.174 1.72068 155.336 4.12874 157.584C6.48233 159.78 9.55159 160.989 12.7721 160.989C13.1752 160.989 13.5833 160.97 13.9839 160.931C17.6226 160.578 20.9764 158.615 23.1854 155.544C23.8529 154.617 88.8458 64.2937 92.4899 59.2198C102.596 69.7863 112.134 81.1871 120.838 93.105C122.55 95.4489 125.58 99.8176 125.717 100.028C126.302 100.937 126.967 101.965 127.906 102.723C128.615 103.294 129.441 103.597 130.293 103.597C131.624 103.597 132.705 102.87 133.402 102.323L149.149 89.9719C151.028 88.3188 151.083 86.6454 151.083 86.6454C151.202 84.806 150.107 83.6027 149.449 82.8809Z"/>
  </g>
</svg>
