<svg xmlns="http://www.w3.org/2000/svg" width="589" height="577">
  <g clip-rule="evenodd">
    <path fill="rgb(1,13,40)" stroke="none"
          d="M30.5297 509.542C27.1949 509.542 24.2588 507.861 22.5189 505.296L2.83639 485.6C-0.945462 481.802 -0.945462 475.656 2.83639 471.869C6.63032 468.071 12.7683 468.071 16.538 471.869L20.8394 476.164L20.8394 32.8979L16.538 37.1926C12.7562 40.9793 6.61824 40.9793 2.83639 37.1926C-0.945462 33.3939 -0.945462 27.2603 2.83639 23.4615L23.4372 2.83466C25.3583 0.9111 27.8715 -0.0688283 30.4089 0.00375899C33.8524 0.0763463 36.7885 1.64907 38.5525 4.26221L58.223 23.9576C62.0169 27.7442 62.0169 33.8899 58.223 37.6766C54.4411 41.4753 48.3032 41.4753 44.5213 37.6766L40.232 33.3818L40.232 476.648L44.5213 472.353C48.3032 468.555 54.4411 468.555 58.223 472.353C62.0169 476.14 62.0169 482.286 58.223 486.084L37.6342 506.711C35.701 508.635 33.1516 509.603 30.6505 509.542L30.5297 509.542ZM101.177 472.378C101.177 477.737 105.526 482.092 110.879 482.092L579.309 482.092C584.661 482.092 588.999 477.737 588.999 472.378L588.999 207.797C588.999 202.425 584.649 198.094 579.309 198.094L400.486 198.094L400.486 9.70626C400.486 4.3469 396.149 0.00375899 390.796 0.00375899L110.879 0.00375899C105.526 0.00375899 101.177 4.3469 101.177 9.70626L101.177 472.378ZM120.569 84.205L240.936 84.205L240.936 19.4209L120.569 19.4209L120.569 84.205ZM260.328 84.205L381.106 84.205L381.106 19.4209L260.328 19.4209L260.328 84.205ZM381.106 204.966C380.84 205.861 380.695 206.805 380.695 207.797L380.695 313.254L120.569 313.254L120.569 103.61L381.106 103.61L381.106 204.966ZM400.076 462.675L569.619 462.675L569.619 217.499L400.076 217.499L400.076 462.675ZM120.569 462.675L194.998 462.675L194.998 332.659L120.569 332.659L120.569 462.675ZM380.683 462.675L214.378 462.675L214.378 332.659L380.683 332.659L380.683 462.675ZM551.374 574.157C553.259 576.044 555.736 577 558.225 577C560.702 577 563.191 576.044 565.076 574.157L584.758 554.45C587.32 552.72 588.999 549.756 588.999 546.429L588.999 546.308C589.035 543.779 588.093 541.251 586.16 539.327L565.559 518.7C561.777 514.914 555.639 514.914 551.857 518.7C548.063 522.487 548.063 528.621 551.857 532.419L556.146 536.714L113.44 536.714L117.73 532.419C121.512 528.633 121.512 522.499 117.73 518.7C113.948 514.914 107.81 514.914 104.028 518.7L84.3455 538.396C81.784 540.138 80.1045 543.09 80.1045 546.429L80.1045 546.55C80.0683 549.078 81.0107 551.607 82.9439 553.53L103.545 574.157C107.327 577.944 113.465 577.944 117.246 574.157C121.028 570.37 121.028 564.225 117.246 560.426L112.957 556.143L555.663 556.143L551.374 560.426C547.58 564.225 547.58 570.37 551.374 574.157Z"
          fill-rule="evenodd"/>
  </g>
</svg>
