<svg xmlns="http://www.w3.org/2000/svg" width="541" height="608">
  <defs>
    <clipPath id="clip_0">
      <rect x="-3033" y="-134" width="4000" height="870" clip-rule="evenodd"/>
    </clipPath>
  </defs>
  <g clip-path="url(#clip_0)">
    <path fill="rgb(1,13,40)" stroke="none" transform="translate(163 103)"
          d="M171.545 61.4C171.545 27.5379 144.391 0 111 0C77.6092 0 50.4545 27.5379 50.4545 61.4L50.4545 112.567L0 112.567L0 307L222 307L222 112.567L171.545 112.567L171.545 61.4ZM70.6364 61.4C70.6364 38.8253 88.7394 20.4667 111 20.4667C133.261 20.4667 151.364 38.8253 151.364 61.4L151.364 112.567L70.6364 112.567L70.6364 61.4ZM201.818 286.533L201.818 133.033L20.1818 133.033L20.1818 286.533L201.818 286.533Z"
          fill-rule="evenodd"/>
  </g>
  <defs>
    <clipPath id="clip_1">
      <rect x="-3033" y="-134" width="4000" height="870" clip-rule="evenodd"/>
    </clipPath>
  </defs>
  <g clip-path="url(#clip_1)">
    <path fill="rgb(1,13,40)" stroke="none" transform="translate(232 258)"
          d="M40.5 113C34.911 113 30.375 108.408 30.375 102.727L30.375 80.7231C12.96 76.1312 0 60.1879 0 41.0909C0 18.4293 18.1642 0 40.5 0C62.8357 0 81 18.4293 81 41.0909C81 60.1879 68.04 76.1312 50.625 80.7231L50.625 102.727C50.625 108.408 46.089 113 40.5 113ZM60.75 41.0909C60.75 29.7601 51.6679 20.5455 40.5 20.5455C29.3321 20.5455 20.25 29.7601 20.25 41.0909C20.25 52.4217 29.3321 61.6364 40.5 61.6364C51.6679 61.6364 60.75 52.4217 60.75 41.0909Z"
          fill-rule="evenodd"/>
  </g>
  <defs>
    <clipPath id="clip_2">
      <rect x="-3033" y="-134" width="4000" height="870" clip-rule="evenodd"/>
    </clipPath>
  </defs>
  <g clip-path="url(#clip_2)">
    <path fill="rgb(1,13,40)" stroke="none"
          d="M270.5 0C121.344 0 0 122.735 0 273.6C0 416.571 109.011 534.219 247.367 546.136L203.306 590.702C199.389 594.665 199.389 601.069 203.306 605.031C205.259 607.007 207.824 608 210.389 608C212.954 608 215.518 607.007 217.472 605.031L277.573 544.241C278.505 543.309 279.236 542.184 279.747 540.938C280.759 538.465 280.759 535.668 279.747 533.196C279.236 531.949 278.505 530.835 277.573 529.892L217.472 469.102C213.555 465.14 207.223 465.14 203.306 469.102C199.389 473.065 199.389 479.469 203.306 483.431L245.023 525.626C118.84 512.676 20.037 404.594 20.037 273.6C20.037 133.912 132.395 20.2667 270.5 20.2667C408.605 20.2667 520.963 133.912 520.963 273.6C520.963 340.814 495.215 404.127 448.449 451.876C444.552 455.858 444.582 462.273 448.519 466.214C452.446 470.136 458.788 470.116 462.685 466.143C513.189 414.565 541 346.185 541 273.6C541 122.735 419.656 0 270.5 0C121.344 0 0 122.735 0 273.6C0 416.571 109.011 534.219 247.367 546.136L203.306 590.702C199.389 594.665 199.389 601.069 203.306 605.031C205.259 607.007 207.824 608 210.389 608C212.954 608 215.518 607.007 217.472 605.031L277.573 544.241C278.505 543.309 279.236 542.184 279.747 540.938C280.759 538.465 280.759 535.668 279.747 533.196C279.236 531.949 278.505 530.835 277.573 529.892L217.472 469.102C213.555 465.14 207.223 465.14 203.306 469.102C199.389 473.065 199.389 479.469 203.306 483.431L245.023 525.626C118.84 512.676 20.037 404.594 20.037 273.6C20.037 133.912 132.395 20.2667 270.5 20.2667C408.605 20.2667 520.963 133.912 520.963 273.6C520.963 340.814 495.215 404.127 448.449 451.876C444.552 455.858 444.582 462.273 448.519 466.214C452.446 470.136 458.788 470.116 462.685 466.143C513.189 414.565 541 346.185 541 273.6C541 122.735 419.656 0 270.5 0Z"/>
  </g>
</svg>
