<?xml version="1.0" encoding="utf-8" ?>
<svg xmlns="http://www.w3.org/2000/svg" width="462" height="654">
  <defs>
    <clipPath id="clip_0">
      <path
        d="M462 30Q462 29.2316 461.965 28.4683Q461.93 27.7051 461.86 26.9485Q461.79 26.192 461.686 25.4437Q461.581 24.6954 461.442 23.9569Q461.303 23.2184 461.129 22.4912Q460.956 21.7639 460.749 21.0495Q460.541 20.335 460.3 19.6348Q460.06 18.9346 459.786 18.25Q459.512 17.5655 459.206 16.898Q458.899 16.2305 458.561 15.5814Q458.223 14.9323 457.854 14.303Q457.485 13.6736 457.085 13.0653Q456.686 12.457 456.257 11.8709Q455.828 11.2849 455.37 10.7223Q454.912 10.1597 454.426 9.62169Q453.941 9.08371 453.429 8.57143Q452.916 8.05915 452.378 7.57363Q451.84 7.0881 451.278 6.63032Q450.715 6.17254 450.129 5.74343Q449.543 5.31433 448.935 4.91477Q448.326 4.51522 447.697 4.14603Q447.068 3.77684 446.419 3.43877Q445.77 3.10071 445.102 2.79445Q444.435 2.48819 443.75 2.21437Q443.065 1.94054 442.365 1.69971Q441.665 1.45888 440.951 1.25154Q440.236 1.04419 439.509 0.87075Q438.782 0.697312 438.043 0.558134Q437.305 0.418957 436.556 0.314325Q435.808 0.209692 435.052 0.139819Q434.295 0.069945 433.532 0.0349725Q432.768 0 432 0L30 0Q29.2316 0 28.4683 0.0349725Q27.7051 0.069945 26.9485 0.139819Q26.192 0.209692 25.4437 0.314325Q24.6954 0.418957 23.9569 0.558134Q23.2184 0.697312 22.4912 0.87075Q21.7639 1.04419 21.0495 1.25154Q20.335 1.45888 19.6348 1.69971Q18.9346 1.94054 18.25 2.21437Q17.5655 2.48819 16.898 2.79445Q16.2305 3.10071 15.5814 3.43877Q14.9323 3.77684 14.303 4.14603Q13.6736 4.51522 13.0653 4.91477Q12.457 5.31433 11.8709 5.74343Q11.2849 6.17254 10.7223 6.63032Q10.1597 7.0881 9.62169 7.57363Q9.08371 8.05915 8.57143 8.57143Q8.05915 9.08371 7.57363 9.62169Q7.0881 10.1597 6.63032 10.7223Q6.17254 11.2849 5.74343 11.8709Q5.31433 12.457 4.91477 13.0653Q4.51522 13.6736 4.14603 14.303Q3.77684 14.9323 3.43877 15.5814Q3.10071 16.2305 2.79445 16.898Q2.48819 17.5655 2.21437 18.25Q1.94054 18.9346 1.69971 19.6348Q1.45888 20.335 1.25154 21.0495Q1.04419 21.7639 0.87075 22.4912Q0.697312 23.2184 0.558134 23.9569Q0.418957 24.6954 0.314325 25.4437Q0.209692 26.192 0.139819 26.9485Q0.069945 27.7051 0.0349725 28.4683Q0 29.2316 0 30L0 624Q0 624.768 0.0349725 625.532Q0.069945 626.295 0.139819 627.052Q0.209692 627.808 0.314325 628.556Q0.418957 629.305 0.558134 630.043Q0.697312 630.782 0.87075 631.509Q1.04419 632.236 1.25154 632.951Q1.45888 633.665 1.69971 634.365Q1.94054 635.066 2.21437 635.75Q2.48819 636.435 2.79445 637.102Q3.10071 637.77 3.43877 638.419Q3.77684 639.068 4.14603 639.697Q4.51522 640.326 4.91477 640.935Q5.31433 641.543 5.74343 642.129Q6.17254 642.715 6.63032 643.278Q7.0881 643.84 7.57363 644.378Q8.05915 644.916 8.57143 645.429Q9.08371 645.941 9.62169 646.426Q10.1597 646.912 10.7223 647.37Q11.2849 647.828 11.8709 648.257Q12.457 648.686 13.0653 649.085Q13.6736 649.485 14.303 649.854Q14.9323 650.223 15.5814 650.561Q16.2305 650.899 16.898 651.206Q17.5655 651.512 18.25 651.786Q18.9346 652.06 19.6348 652.3Q20.335 652.541 21.0495 652.748Q21.7639 652.956 22.4912 653.129Q23.2184 653.303 23.9569 653.442Q24.6954 653.581 25.4437 653.686Q26.192 653.79 26.9485 653.86Q27.7051 653.93 28.4683 653.965Q29.2316 654 30 654L432 654Q432.768 654 433.532 653.965Q434.295 653.93 435.052 653.86Q435.808 653.79 436.556 653.686Q437.305 653.581 438.043 653.442Q438.782 653.303 439.509 653.129Q440.236 652.956 440.951 652.748Q441.665 652.541 442.365 652.3Q443.065 652.06 443.75 651.786Q444.435 651.512 445.102 651.206Q445.77 650.899 446.419 650.561Q447.068 650.223 447.697 649.854Q448.326 649.485 448.935 649.085Q449.543 648.686 450.129 648.257Q450.715 647.828 451.278 647.37Q451.84 646.912 452.378 646.426Q452.916 645.941 453.429 645.429Q453.941 644.916 454.426 644.378Q454.912 643.84 455.37 643.278Q455.827 642.715 456.257 642.129Q456.686 641.543 457.085 640.935Q457.485 640.326 457.854 639.697Q458.223 639.068 458.561 638.419Q458.899 637.77 459.206 637.102Q459.512 636.435 459.786 635.75Q460.06 635.066 460.3 634.365Q460.541 633.665 460.749 632.951Q460.956 632.236 461.129 631.509Q461.303 630.782 461.442 630.043Q461.581 629.305 461.686 628.556Q461.79 627.808 461.86 627.052Q461.93 626.295 461.965 625.532Q462 624.768 462 624L462 30Z"
        clip-rule="evenodd"/>
    </clipPath>
  </defs>
  <g clip-path="url(#clip_0)">
    <path fill="none" stroke="rgb(1,13,40)" stroke-width="34" stroke-miterlimit="4"
          d="M30 0L432 0Q432.768 0 433.532 0.0349725Q434.295 0.069945 435.052 0.139819Q435.808 0.209692 436.556 0.314325Q437.305 0.418957 438.043 0.558134Q438.782 0.697312 439.509 0.87075Q440.236 1.04419 440.951 1.25154Q441.665 1.45888 442.365 1.69971Q443.065 1.94054 443.75 2.21437Q444.435 2.48819 445.102 2.79445Q445.77 3.10071 446.419 3.43877Q447.068 3.77684 447.697 4.14603Q448.326 4.51522 448.935 4.91477Q449.543 5.31433 450.129 5.74343Q450.715 6.17254 451.278 6.63032Q451.84 7.0881 452.378 7.57363Q452.916 8.05915 453.429 8.57143Q453.941 9.08371 454.426 9.62169Q454.912 10.1597 455.37 10.7223Q455.827 11.2849 456.257 11.8709Q456.686 12.457 457.085 13.0653Q457.485 13.6736 457.854 14.303Q458.223 14.9323 458.561 15.5814Q458.899 16.2305 459.206 16.898Q459.512 17.5655 459.786 18.25Q460.06 18.9346 460.3 19.6348Q460.541 20.335 460.749 21.0495Q460.956 21.7639 461.129 22.4912Q461.303 23.2184 461.442 23.9569Q461.581 24.6954 461.686 25.4437Q461.79 26.192 461.86 26.9485Q461.93 27.7051 461.965 28.4683Q462 29.2316 462 30L462 624Q462 624.768 461.965 625.532Q461.93 626.295 461.86 627.052Q461.79 627.808 461.686 628.556Q461.581 629.305 461.442 630.043Q461.303 630.782 461.129 631.509Q460.956 632.236 460.749 632.951Q460.541 633.665 460.3 634.365Q460.06 635.066 459.786 635.75Q459.512 636.435 459.206 637.102Q458.899 637.77 458.561 638.419Q458.223 639.068 457.854 639.697Q457.485 640.326 457.085 640.935Q456.686 641.543 456.257 642.129Q455.828 642.715 455.37 643.278Q454.912 643.84 454.426 644.378Q453.941 644.916 453.429 645.429Q452.916 645.941 452.378 646.426Q451.84 646.912 451.278 647.37Q450.715 647.828 450.129 648.257Q449.543 648.686 448.935 649.085Q448.326 649.485 447.697 649.854Q447.068 650.223 446.419 650.561Q445.77 650.899 445.102 651.206Q444.435 651.512 443.75 651.786Q443.065 652.06 442.365 652.3Q441.665 652.541 440.951 652.748Q440.236 652.956 439.509 653.129Q438.782 653.303 438.043 653.442Q437.305 653.581 436.556 653.686Q435.808 653.79 435.052 653.86Q434.295 653.93 433.532 653.965Q432.768 654 432 654L30 654Q29.2316 654 28.4683 653.965Q27.7051 653.93 26.9485 653.86Q26.192 653.79 25.4437 653.686Q24.6954 653.581 23.9569 653.442Q23.2184 653.303 22.4912 653.129Q21.7639 652.956 21.0495 652.748Q20.335 652.541 19.6348 652.3Q18.9346 652.06 18.25 651.786Q17.5655 651.512 16.898 651.206Q16.2305 650.899 15.5814 650.561Q14.9323 650.223 14.303 649.854Q13.6736 649.485 13.0653 649.085Q12.457 648.686 11.8709 648.257Q11.2849 647.828 10.7223 647.37Q10.1597 646.912 9.62169 646.426Q9.08371 645.941 8.57143 645.429Q8.05915 644.916 7.57363 644.378Q7.0881 643.84 6.63032 643.278Q6.17254 642.715 5.74343 642.129Q5.31433 641.543 4.91477 640.935Q4.51522 640.326 4.14603 639.697Q3.77684 639.068 3.43877 638.419Q3.10071 637.77 2.79445 637.102Q2.48819 636.435 2.21437 635.75Q1.94054 635.066 1.69971 634.365Q1.45888 633.665 1.25154 632.951Q1.04419 632.236 0.87075 631.509Q0.697312 630.782 0.558134 630.043Q0.418957 629.305 0.314325 628.556Q0.209692 627.808 0.139819 627.052Q0.069945 626.295 0.0349725 625.532Q0 624.768 0 624L0 30Q0 29.2316 0.0349725 28.4683Q0.069945 27.7051 0.139819 26.9485Q0.209692 26.192 0.314325 25.4437Q0.418957 24.6954 0.558134 23.9569Q0.697312 23.2184 0.87075 22.4912Q1.04419 21.7639 1.25154 21.0495Q1.45888 20.335 1.69971 19.6348Q1.94054 18.9346 2.21437 18.25Q2.48819 17.5655 2.79445 16.898Q3.10071 16.2305 3.43877 15.5814Q3.77684 14.9323 4.14603 14.303Q4.51522 13.6736 4.91477 13.0653Q5.31433 12.457 5.74343 11.8709Q6.17254 11.2849 6.63032 10.7223Q7.0881 10.1597 7.57363 9.62169Q8.05915 9.08371 8.57143 8.57143Q9.08371 8.05915 9.62169 7.57363Q10.1597 7.0881 10.7223 6.63032Q11.2849 6.17254 11.8709 5.74343Q12.457 5.31433 13.0653 4.91477Q13.6736 4.51522 14.303 4.14603Q14.9323 3.77684 15.5814 3.43877Q16.2305 3.10071 16.898 2.79445Q17.5655 2.48819 18.25 2.21437Q18.9346 1.94054 19.6348 1.69971Q20.335 1.45888 21.0495 1.25154Q21.7639 1.04419 22.4912 0.87075Q23.2184 0.697312 23.9569 0.558134Q24.6954 0.418957 25.4437 0.314325Q26.192 0.209692 26.9485 0.139819Q27.7051 0.069945 28.4683 0.0349725Q29.2316 0 30 0L432 0Q432.768 0 433.532 0.0349725Q434.295 0.069945 435.052 0.139819Q435.808 0.209692 436.556 0.314325Q437.305 0.418957 438.043 0.558134Q438.782 0.697312 439.509 0.87075Q440.236 1.04419 440.951 1.25154Q441.665 1.45888 442.365 1.69971Q443.065 1.94054 443.75 2.21437Q444.435 2.48819 445.102 2.79445Q445.77 3.10071 446.419 3.43877Q447.068 3.77684 447.697 4.14603Q448.326 4.51522 448.935 4.91477Q449.543 5.31433 450.129 5.74343Q450.715 6.17254 451.278 6.63032Q451.84 7.0881 452.378 7.57363Q452.916 8.05915 453.429 8.57143Q453.941 9.08371 454.426 9.62169Q454.912 10.1597 455.37 10.7223Q455.827 11.2849 456.257 11.8709Q456.686 12.457 457.085 13.0653Q457.485 13.6736 457.854 14.303Q458.223 14.9323 458.561 15.5814Q458.899 16.2305 459.206 16.898Q459.512 17.5655 459.786 18.25Q460.06 18.9346 460.3 19.6348Q460.541 20.335 460.749 21.0495Q460.956 21.7639 461.129 22.4912Q461.303 23.2184 461.442 23.9569Q461.581 24.6954 461.686 25.4437Q461.79 26.192 461.86 26.9485Q461.93 27.7051 461.965 28.4683Q462 29.2316 462 30L462 624Q462 624.768 461.965 625.532Q461.93 626.295 461.86 627.052Q461.79 627.808 461.686 628.556Q461.581 629.305 461.442 630.043Q461.303 630.782 461.129 631.509Q460.956 632.236 460.749 632.951Q460.541 633.665 460.3 634.365Q460.06 635.066 459.786 635.75Q459.512 636.435 459.206 637.102Q458.899 637.77 458.561 638.419Q458.223 639.068 457.854 639.697Q457.485 640.326 457.085 640.935Q456.686 641.543 456.257 642.129Q455.828 642.715 455.37 643.278Q454.912 643.84 454.426 644.378Q453.941 644.916 453.429 645.429Q452.916 645.941 452.378 646.426Q451.84 646.912 451.278 647.37Q450.715 647.828 450.129 648.257Q449.543 648.686 448.935 649.085Q448.326 649.485 447.697 649.854Q447.068 650.223 446.419 650.561Q445.77 650.899 445.102 651.206Q444.435 651.512 443.75 651.786Q443.065 652.06 442.365 652.3Q441.665 652.541 440.951 652.748Q440.236 652.956 439.509 653.129Q438.782 653.303 438.043 653.442Q437.305 653.581 436.556 653.686Q435.808 653.79 435.052 653.86Q434.295 653.93 433.532 653.965Q432.768 654 432 654L30 654Q29.2316 654 28.4683 653.965Q27.7051 653.93 26.9485 653.86Q26.192 653.79 25.4437 653.686Q24.6954 653.581 23.9569 653.442Q23.2184 653.303 22.4912 653.129Q21.7639 652.956 21.0495 652.748Q20.335 652.541 19.6348 652.3Q18.9346 652.06 18.25 651.786Q17.5655 651.512 16.898 651.206Q16.2305 650.899 15.5814 650.561Q14.9323 650.223 14.303 649.854Q13.6736 649.485 13.0653 649.085Q12.457 648.686 11.8709 648.257Q11.2849 647.828 10.7223 647.37Q10.1597 646.912 9.62169 646.426Q9.08371 645.941 8.57143 645.429Q8.05915 644.916 7.57363 644.378Q7.0881 643.84 6.63032 643.278Q6.17254 642.715 5.74343 642.129Q5.31433 641.543 4.91477 640.935Q4.51522 640.326 4.14603 639.697Q3.77684 639.068 3.43877 638.419Q3.10071 637.77 2.79445 637.102Q2.48819 636.435 2.21437 635.75Q1.94054 635.066 1.69971 634.365Q1.45888 633.665 1.25154 632.951Q1.04419 632.236 0.87075 631.509Q0.697312 630.782 0.558134 630.043Q0.418957 629.305 0.314325 628.556Q0.209692 627.808 0.139819 627.052Q0.069945 626.295 0.0349725 625.532Q0 624.768 0 624L0 30Q0 29.2316 0.0349725 28.4683Q0.069945 27.7051 0.139819 26.9485Q0.209692 26.192 0.314325 25.4437Q0.418957 24.6954 0.558134 23.9569Q0.697312 23.2184 0.87075 22.4912Q1.04419 21.7639 1.25154 21.0495Q1.45888 20.335 1.69971 19.6348Q1.94054 18.9346 2.21437 18.25Q2.48819 17.5655 2.79445 16.898Q3.10071 16.2305 3.43877 15.5814Q3.77684 14.9323 4.14603 14.303Q4.51522 13.6736 4.91477 13.0653Q5.31433 12.457 5.74343 11.8709Q6.17254 11.2849 6.63032 10.7223Q7.0881 10.1597 7.57363 9.62169Q8.05915 9.08371 8.57143 8.57143Q9.08371 8.05915 9.62169 7.57363Q10.1597 7.0881 10.7223 6.63032Q11.2849 6.17254 11.8709 5.74343Q12.457 5.31433 13.0653 4.91477Q13.6736 4.51522 14.303 4.14603Q14.9323 3.77684 15.5814 3.43877Q16.2305 3.10071 16.898 2.79445Q17.5655 2.48819 18.25 2.21437Q18.9346 1.94054 19.6348 1.69971Q20.335 1.45888 21.0495 1.25154Q21.7639 1.04419 22.4912 0.87075Q23.2184 0.697312 23.9569 0.558134Q24.6954 0.418957 25.4437 0.314325Q26.192 0.209692 26.9485 0.139819Q27.7051 0.069945 28.4683 0.0349725Q29.2316 0 30 0Z"/>
  </g>
  <defs>
    <clipPath id="clip_1">
      <rect x="-369" y="-308" width="1200" height="1270" clip-rule="evenodd"/>
    </clipPath>
  </defs>
  <g clip-path="url(#clip_1)">
    <path fill="rgb(1,13,40)" stroke="none" transform="translate(171 513)"
          d="M8.5 0L71.5 0Q71.7177 0 71.934 0.00990888Q72.1503 0.0198178 72.3646 0.0396153Q72.5789 0.0594128 72.791 0.0890586Q73.003 0.118704 73.2122 0.158138Q73.4215 0.197572 73.6275 0.246713Q73.8336 0.295854 74.036 0.354602Q74.2384 0.41335 74.4368 0.481585Q74.6352 0.54982 74.8292 0.627403Q75.0231 0.704987 75.2122 0.79176Q75.4014 0.878533 75.5853 0.974319Q75.7692 1.0701 75.9475 1.17471Q76.1258 1.27931 76.2982 1.39252Q76.4705 1.50573 76.6366 1.62731Q76.8026 1.74889 76.962 1.87859Q77.1214 2.0083 77.2739 2.14586Q77.4263 2.28343 77.5714 2.42857Q77.7166 2.57372 77.8541 2.72615Q77.9917 2.87857 78.1214 3.03798Q78.2511 3.19738 78.3727 3.36343Q78.4943 3.52947 78.6075 3.70183Q78.7207 3.87419 78.8253 4.0525Q78.9299 4.23082 79.0257 4.41473Q79.1215 4.59863 79.2083 4.78776Q79.295 4.97689 79.3726 5.17084Q79.4502 5.3648 79.5184 5.5632Q79.5867 5.76159 79.6454 5.96402Q79.7042 6.16645 79.7533 6.37249Q79.8024 6.57854 79.8419 6.78778Q79.8813 6.99703 79.911 7.20904Q79.9406 7.42106 79.9604 7.63541Q79.9802 7.84977 79.9901 8.06603Q80 8.28228 80 8.5L80 10.5Q80 10.7177 79.9901 10.934Q79.9802 11.1502 79.9604 11.3646Q79.9406 11.5789 79.911 11.791Q79.8813 12.003 79.8419 12.2122Q79.8024 12.4215 79.7533 12.6275Q79.7042 12.8336 79.6454 13.036Q79.5867 13.2384 79.5184 13.4368Q79.4502 13.6352 79.3726 13.8292Q79.295 14.0231 79.2083 14.2122Q79.1215 14.4014 79.0257 14.5853Q78.9299 14.7692 78.8253 14.9475Q78.7207 15.1258 78.6075 15.2982Q78.4943 15.4705 78.3727 15.6366Q78.2511 15.8026 78.1214 15.962Q77.9917 16.1214 77.8542 16.2739Q77.7166 16.4263 77.5714 16.5714Q77.4263 16.7166 77.2739 16.8541Q77.1214 16.9917 76.962 17.1214Q76.8026 17.2511 76.6366 17.3727Q76.4705 17.4943 76.2982 17.6075Q76.1258 17.7207 75.9475 17.8253Q75.7692 17.9299 75.5853 18.0257Q75.4014 18.1215 75.2122 18.2082Q75.0231 18.295 74.8292 18.3726Q74.6352 18.4502 74.4368 18.5184Q74.2384 18.5867 74.036 18.6454Q73.8336 18.7041 73.6275 18.7533Q73.4215 18.8024 73.2122 18.8419Q73.003 18.8813 72.791 18.9109Q72.5789 18.9406 72.3646 18.9604Q72.1503 18.9802 71.934 18.9901Q71.7177 19 71.5 19L8.5 19Q8.28228 19 8.06603 18.9901Q7.84977 18.9802 7.63541 18.9604Q7.42106 18.9406 7.20904 18.9109Q6.99703 18.8813 6.78778 18.8419Q6.57854 18.8024 6.37249 18.7533Q6.16645 18.7041 5.96402 18.6454Q5.76159 18.5867 5.5632 18.5184Q5.3648 18.4502 5.17085 18.3726Q4.97689 18.295 4.78776 18.2082Q4.59863 18.1215 4.41473 18.0257Q4.23082 17.9299 4.0525 17.8253Q3.87419 17.7207 3.70183 17.6075Q3.52947 17.4943 3.36343 17.3727Q3.19738 17.2511 3.03798 17.1214Q2.87857 16.9917 2.72615 16.8541Q2.57372 16.7166 2.42857 16.5714Q2.28343 16.4263 2.14586 16.2739Q2.0083 16.1214 1.87859 15.962Q1.74889 15.8026 1.62731 15.6366Q1.50573 15.4705 1.39252 15.2982Q1.27931 15.1258 1.17471 14.9475Q1.0701 14.7692 0.974319 14.5853Q0.878533 14.4014 0.79176 14.2122Q0.704987 14.0231 0.627403 13.8292Q0.54982 13.6352 0.481585 13.4368Q0.41335 13.2384 0.354602 13.036Q0.295854 12.8336 0.246713 12.6275Q0.197572 12.4215 0.158138 12.2122Q0.118704 12.003 0.0890586 11.791Q0.0594128 11.5789 0.0396153 11.3646Q0.0198178 11.1502 0.00990888 10.934Q0 10.7177 0 10.5L0 8.5Q0 8.28228 0.00990888 8.06603Q0.0198178 7.84977 0.0396153 7.63541Q0.0594128 7.42106 0.0890586 7.20904Q0.118704 6.99703 0.158138 6.78778Q0.197572 6.57854 0.246713 6.37249Q0.295854 6.16645 0.354602 5.96402Q0.41335 5.76159 0.481585 5.5632Q0.54982 5.3648 0.627403 5.17085Q0.704987 4.97689 0.79176 4.78776Q0.878533 4.59863 0.974319 4.41473Q1.0701 4.23082 1.17471 4.0525Q1.27931 3.87419 1.39252 3.70183Q1.50573 3.52947 1.62731 3.36343Q1.74889 3.19738 1.87859 3.03798Q2.0083 2.87857 2.14586 2.72615Q2.28343 2.57372 2.42857 2.42857Q2.57372 2.28343 2.72615 2.14586Q2.87857 2.0083 3.03798 1.87859Q3.19738 1.74889 3.36343 1.62731Q3.52947 1.50573 3.70183 1.39252Q3.87419 1.27931 4.0525 1.17471Q4.23082 1.0701 4.41473 0.974319Q4.59863 0.878533 4.78776 0.79176Q4.97689 0.704987 5.17084 0.627403Q5.3648 0.54982 5.5632 0.481585Q5.76159 0.41335 5.96402 0.354602Q6.16645 0.295854 6.37249 0.246713Q6.57854 0.197572 6.78778 0.158138Q6.99703 0.118704 7.20904 0.0890586Q7.42106 0.0594128 7.63541 0.0396153Q7.84977 0.0198178 8.06603 0.00990888Q8.28228 0 8.5 0L71.5 0Q71.7177 0 71.934 0.00990888Q72.1503 0.0198178 72.3646 0.0396153Q72.5789 0.0594128 72.791 0.0890586Q73.003 0.118704 73.2122 0.158138Q73.4215 0.197572 73.6275 0.246713Q73.8336 0.295854 74.036 0.354602Q74.2384 0.41335 74.4368 0.481585Q74.6352 0.54982 74.8292 0.627403Q75.0231 0.704987 75.2122 0.79176Q75.4014 0.878533 75.5853 0.974319Q75.7692 1.0701 75.9475 1.17471Q76.1258 1.27931 76.2982 1.39252Q76.4705 1.50573 76.6366 1.62731Q76.8026 1.74889 76.962 1.87859Q77.1214 2.0083 77.2739 2.14586Q77.4263 2.28343 77.5714 2.42857Q77.7166 2.57372 77.8541 2.72615Q77.9917 2.87857 78.1214 3.03798Q78.2511 3.19738 78.3727 3.36343Q78.4943 3.52947 78.6075 3.70183Q78.7207 3.87419 78.8253 4.0525Q78.9299 4.23082 79.0257 4.41473Q79.1215 4.59863 79.2083 4.78776Q79.295 4.97689 79.3726 5.17084Q79.4502 5.3648 79.5184 5.5632Q79.5867 5.76159 79.6454 5.96402Q79.7042 6.16645 79.7533 6.37249Q79.8024 6.57854 79.8419 6.78778Q79.8813 6.99703 79.911 7.20904Q79.9406 7.42106 79.9604 7.63541Q79.9802 7.84977 79.9901 8.06603Q80 8.28228 80 8.5L80 10.5Q80 10.7177 79.9901 10.934Q79.9802 11.1502 79.9604 11.3646Q79.9406 11.5789 79.911 11.791Q79.8813 12.003 79.8419 12.2122Q79.8024 12.4215 79.7533 12.6275Q79.7042 12.8336 79.6454 13.036Q79.5867 13.2384 79.5184 13.4368Q79.4502 13.6352 79.3726 13.8292Q79.295 14.0231 79.2083 14.2122Q79.1215 14.4014 79.0257 14.5853Q78.9299 14.7692 78.8253 14.9475Q78.7207 15.1258 78.6075 15.2982Q78.4943 15.4705 78.3727 15.6366Q78.2511 15.8026 78.1214 15.962Q77.9917 16.1214 77.8542 16.2739Q77.7166 16.4263 77.5714 16.5714Q77.4263 16.7166 77.2739 16.8541Q77.1214 16.9917 76.962 17.1214Q76.8026 17.2511 76.6366 17.3727Q76.4705 17.4943 76.2982 17.6075Q76.1258 17.7207 75.9475 17.8253Q75.7692 17.9299 75.5853 18.0257Q75.4014 18.1215 75.2122 18.2082Q75.0231 18.295 74.8292 18.3726Q74.6352 18.4502 74.4368 18.5184Q74.2384 18.5867 74.036 18.6454Q73.8336 18.7041 73.6275 18.7533Q73.4215 18.8024 73.2122 18.8419Q73.003 18.8813 72.791 18.9109Q72.5789 18.9406 72.3646 18.9604Q72.1503 18.9802 71.934 18.9901Q71.7177 19 71.5 19L8.5 19Q8.28228 19 8.06603 18.9901Q7.84977 18.9802 7.63541 18.9604Q7.42106 18.9406 7.20904 18.9109Q6.99703 18.8813 6.78778 18.8419Q6.57854 18.8024 6.37249 18.7533Q6.16645 18.7041 5.96402 18.6454Q5.76159 18.5867 5.5632 18.5184Q5.3648 18.4502 5.17085 18.3726Q4.97689 18.295 4.78776 18.2082Q4.59863 18.1215 4.41473 18.0257Q4.23082 17.9299 4.0525 17.8253Q3.87419 17.7207 3.70183 17.6075Q3.52947 17.4943 3.36343 17.3727Q3.19738 17.2511 3.03798 17.1214Q2.87857 16.9917 2.72615 16.8541Q2.57372 16.7166 2.42857 16.5714Q2.28343 16.4263 2.14586 16.2739Q2.0083 16.1214 1.87859 15.962Q1.74889 15.8026 1.62731 15.6366Q1.50573 15.4705 1.39252 15.2982Q1.27931 15.1258 1.17471 14.9475Q1.0701 14.7692 0.974319 14.5853Q0.878533 14.4014 0.79176 14.2122Q0.704987 14.0231 0.627403 13.8292Q0.54982 13.6352 0.481585 13.4368Q0.41335 13.2384 0.354602 13.036Q0.295854 12.8336 0.246713 12.6275Q0.197572 12.4215 0.158138 12.2122Q0.118704 12.003 0.0890586 11.791Q0.0594128 11.5789 0.0396153 11.3646Q0.0198178 11.1502 0.00990888 10.934Q0 10.7177 0 10.5L0 8.5Q0 8.28228 0.00990888 8.06603Q0.0198178 7.84977 0.0396153 7.63541Q0.0594128 7.42106 0.0890586 7.20904Q0.118704 6.99703 0.158138 6.78778Q0.197572 6.57854 0.246713 6.37249Q0.295854 6.16645 0.354602 5.96402Q0.41335 5.76159 0.481585 5.5632Q0.54982 5.3648 0.627403 5.17085Q0.704987 4.97689 0.79176 4.78776Q0.878533 4.59863 0.974319 4.41473Q1.0701 4.23082 1.17471 4.0525Q1.27931 3.87419 1.39252 3.70183Q1.50573 3.52947 1.62731 3.36343Q1.74889 3.19738 1.87859 3.03798Q2.0083 2.87857 2.14586 2.72615Q2.28343 2.57372 2.42857 2.42857Q2.57372 2.28343 2.72615 2.14586Q2.87857 2.0083 3.03798 1.87859Q3.19738 1.74889 3.36343 1.62731Q3.52947 1.50573 3.70183 1.39252Q3.87419 1.27931 4.0525 1.17471Q4.23082 1.0701 4.41473 0.974319Q4.59863 0.878533 4.78776 0.79176Q4.97689 0.704987 5.17084 0.627403Q5.3648 0.54982 5.5632 0.481585Q5.76159 0.41335 5.96402 0.354602Q6.16645 0.295854 6.37249 0.246713Q6.57854 0.197572 6.78778 0.158138Q6.99703 0.118704 7.20904 0.0890586Q7.42106 0.0594128 7.63541 0.0396153Q7.84977 0.0198178 8.06603 0.00990888Q8.28228 0 8.5 0Z"/>
  </g>
  <defs>
    <clipPath id="clip_2">
      <rect x="-369" y="-308" width="1200" height="1270" clip-rule="evenodd"/>
    </clipPath>
  </defs>
  <g clip-path="url(#clip_2)">
    <path fill="rgb(1,13,40)" stroke="none" transform="translate(61 58)"
          d="M8.5 0L71.5 0Q71.7177 0 71.934 0.00990888Q72.1503 0.0198178 72.3646 0.0396153Q72.5789 0.0594128 72.791 0.0890586Q73.003 0.118704 73.2122 0.158138Q73.4215 0.197572 73.6275 0.246713Q73.8336 0.295854 74.036 0.354602Q74.2384 0.41335 74.4368 0.481585Q74.6352 0.54982 74.8292 0.627403Q75.0231 0.704987 75.2122 0.79176Q75.4014 0.878533 75.5853 0.974319Q75.7692 1.0701 75.9475 1.17471Q76.1258 1.27931 76.2982 1.39252Q76.4705 1.50573 76.6366 1.62731Q76.8026 1.74889 76.962 1.87859Q77.1214 2.0083 77.2739 2.14586Q77.4263 2.28343 77.5714 2.42857Q77.7166 2.57372 77.8541 2.72615Q77.9917 2.87857 78.1214 3.03798Q78.2511 3.19738 78.3727 3.36343Q78.4943 3.52947 78.6075 3.70183Q78.7207 3.87419 78.8253 4.0525Q78.9299 4.23082 79.0257 4.41473Q79.1215 4.59863 79.2083 4.78776Q79.295 4.97689 79.3726 5.17084Q79.4502 5.3648 79.5184 5.5632Q79.5867 5.76159 79.6454 5.96402Q79.7042 6.16645 79.7533 6.37249Q79.8024 6.57854 79.8419 6.78778Q79.8813 6.99703 79.911 7.20904Q79.9406 7.42106 79.9604 7.63541Q79.9802 7.84977 79.9901 8.06603Q80 8.28228 80 8.5L80 10.5Q80 10.7177 79.9901 10.934Q79.9802 11.1502 79.9604 11.3646Q79.9406 11.5789 79.911 11.791Q79.8813 12.003 79.8419 12.2122Q79.8024 12.4215 79.7533 12.6275Q79.7042 12.8336 79.6454 13.036Q79.5867 13.2384 79.5184 13.4368Q79.4502 13.6352 79.3726 13.8292Q79.295 14.0231 79.2083 14.2122Q79.1215 14.4014 79.0257 14.5853Q78.9299 14.7692 78.8253 14.9475Q78.7207 15.1258 78.6075 15.2982Q78.4943 15.4705 78.3727 15.6366Q78.2511 15.8026 78.1214 15.962Q77.9917 16.1214 77.8542 16.2739Q77.7166 16.4263 77.5714 16.5714Q77.4263 16.7166 77.2739 16.8541Q77.1214 16.9917 76.962 17.1214Q76.8026 17.2511 76.6366 17.3727Q76.4705 17.4943 76.2982 17.6075Q76.1258 17.7207 75.9475 17.8253Q75.7692 17.9299 75.5853 18.0257Q75.4014 18.1215 75.2122 18.2082Q75.0231 18.295 74.8292 18.3726Q74.6352 18.4502 74.4368 18.5184Q74.2384 18.5867 74.036 18.6454Q73.8336 18.7041 73.6275 18.7533Q73.4215 18.8024 73.2122 18.8419Q73.003 18.8813 72.791 18.9109Q72.5789 18.9406 72.3646 18.9604Q72.1503 18.9802 71.934 18.9901Q71.7177 19 71.5 19L8.5 19Q8.28228 19 8.06603 18.9901Q7.84977 18.9802 7.63541 18.9604Q7.42106 18.9406 7.20904 18.9109Q6.99703 18.8813 6.78778 18.8419Q6.57854 18.8024 6.37249 18.7533Q6.16645 18.7041 5.96402 18.6454Q5.76159 18.5867 5.5632 18.5184Q5.3648 18.4502 5.17085 18.3726Q4.97689 18.295 4.78776 18.2082Q4.59863 18.1215 4.41473 18.0257Q4.23082 17.9299 4.0525 17.8253Q3.87419 17.7207 3.70183 17.6075Q3.52947 17.4943 3.36343 17.3727Q3.19738 17.2511 3.03798 17.1214Q2.87857 16.9917 2.72615 16.8541Q2.57372 16.7166 2.42857 16.5714Q2.28343 16.4263 2.14586 16.2739Q2.0083 16.1214 1.87859 15.962Q1.74889 15.8026 1.62731 15.6366Q1.50573 15.4705 1.39252 15.2982Q1.27931 15.1258 1.17471 14.9475Q1.0701 14.7692 0.974319 14.5853Q0.878533 14.4014 0.79176 14.2122Q0.704987 14.0231 0.627403 13.8292Q0.54982 13.6352 0.481585 13.4368Q0.41335 13.2384 0.354602 13.036Q0.295854 12.8336 0.246713 12.6275Q0.197572 12.4215 0.158138 12.2122Q0.118704 12.003 0.0890586 11.791Q0.0594128 11.5789 0.0396153 11.3646Q0.0198178 11.1502 0.00990888 10.934Q0 10.7177 0 10.5L0 8.5Q0 8.28228 0.00990888 8.06603Q0.0198178 7.84977 0.0396153 7.63541Q0.0594128 7.42106 0.0890586 7.20904Q0.118704 6.99703 0.158138 6.78778Q0.197572 6.57854 0.246713 6.37249Q0.295854 6.16645 0.354602 5.96402Q0.41335 5.76159 0.481585 5.5632Q0.54982 5.3648 0.627403 5.17085Q0.704987 4.97689 0.79176 4.78776Q0.878533 4.59863 0.974319 4.41473Q1.0701 4.23082 1.17471 4.0525Q1.27931 3.87419 1.39252 3.70183Q1.50573 3.52947 1.62731 3.36343Q1.74889 3.19738 1.87859 3.03798Q2.0083 2.87857 2.14586 2.72615Q2.28343 2.57372 2.42857 2.42857Q2.57372 2.28343 2.72615 2.14586Q2.87857 2.0083 3.03798 1.87859Q3.19738 1.74889 3.36343 1.62731Q3.52947 1.50573 3.70183 1.39252Q3.87419 1.27931 4.0525 1.17471Q4.23082 1.0701 4.41473 0.974319Q4.59863 0.878533 4.78776 0.79176Q4.97689 0.704987 5.17084 0.627403Q5.3648 0.54982 5.5632 0.481585Q5.76159 0.41335 5.96402 0.354602Q6.16645 0.295854 6.37249 0.246713Q6.57854 0.197572 6.78778 0.158138Q6.99703 0.118704 7.20904 0.0890586Q7.42106 0.0594128 7.63541 0.0396153Q7.84977 0.0198178 8.06603 0.00990888Q8.28228 0 8.5 0L71.5 0Q71.7177 0 71.934 0.00990888Q72.1503 0.0198178 72.3646 0.0396153Q72.5789 0.0594128 72.791 0.0890586Q73.003 0.118704 73.2122 0.158138Q73.4215 0.197572 73.6275 0.246713Q73.8336 0.295854 74.036 0.354602Q74.2384 0.41335 74.4368 0.481585Q74.6352 0.54982 74.8292 0.627403Q75.0231 0.704987 75.2122 0.79176Q75.4014 0.878533 75.5853 0.974319Q75.7692 1.0701 75.9475 1.17471Q76.1258 1.27931 76.2982 1.39252Q76.4705 1.50573 76.6366 1.62731Q76.8026 1.74889 76.962 1.87859Q77.1214 2.0083 77.2739 2.14586Q77.4263 2.28343 77.5714 2.42857Q77.7166 2.57372 77.8541 2.72615Q77.9917 2.87857 78.1214 3.03798Q78.2511 3.19738 78.3727 3.36343Q78.4943 3.52947 78.6075 3.70183Q78.7207 3.87419 78.8253 4.0525Q78.9299 4.23082 79.0257 4.41473Q79.1215 4.59863 79.2083 4.78776Q79.295 4.97689 79.3726 5.17084Q79.4502 5.3648 79.5184 5.5632Q79.5867 5.76159 79.6454 5.96402Q79.7042 6.16645 79.7533 6.37249Q79.8024 6.57854 79.8419 6.78778Q79.8813 6.99703 79.911 7.20904Q79.9406 7.42106 79.9604 7.63541Q79.9802 7.84977 79.9901 8.06603Q80 8.28228 80 8.5L80 10.5Q80 10.7177 79.9901 10.934Q79.9802 11.1502 79.9604 11.3646Q79.9406 11.5789 79.911 11.791Q79.8813 12.003 79.8419 12.2122Q79.8024 12.4215 79.7533 12.6275Q79.7042 12.8336 79.6454 13.036Q79.5867 13.2384 79.5184 13.4368Q79.4502 13.6352 79.3726 13.8292Q79.295 14.0231 79.2083 14.2122Q79.1215 14.4014 79.0257 14.5853Q78.9299 14.7692 78.8253 14.9475Q78.7207 15.1258 78.6075 15.2982Q78.4943 15.4705 78.3727 15.6366Q78.2511 15.8026 78.1214 15.962Q77.9917 16.1214 77.8542 16.2739Q77.7166 16.4263 77.5714 16.5714Q77.4263 16.7166 77.2739 16.8541Q77.1214 16.9917 76.962 17.1214Q76.8026 17.2511 76.6366 17.3727Q76.4705 17.4943 76.2982 17.6075Q76.1258 17.7207 75.9475 17.8253Q75.7692 17.9299 75.5853 18.0257Q75.4014 18.1215 75.2122 18.2082Q75.0231 18.295 74.8292 18.3726Q74.6352 18.4502 74.4368 18.5184Q74.2384 18.5867 74.036 18.6454Q73.8336 18.7041 73.6275 18.7533Q73.4215 18.8024 73.2122 18.8419Q73.003 18.8813 72.791 18.9109Q72.5789 18.9406 72.3646 18.9604Q72.1503 18.9802 71.934 18.9901Q71.7177 19 71.5 19L8.5 19Q8.28228 19 8.06603 18.9901Q7.84977 18.9802 7.63541 18.9604Q7.42106 18.9406 7.20904 18.9109Q6.99703 18.8813 6.78778 18.8419Q6.57854 18.8024 6.37249 18.7533Q6.16645 18.7041 5.96402 18.6454Q5.76159 18.5867 5.5632 18.5184Q5.3648 18.4502 5.17085 18.3726Q4.97689 18.295 4.78776 18.2082Q4.59863 18.1215 4.41473 18.0257Q4.23082 17.9299 4.0525 17.8253Q3.87419 17.7207 3.70183 17.6075Q3.52947 17.4943 3.36343 17.3727Q3.19738 17.2511 3.03798 17.1214Q2.87857 16.9917 2.72615 16.8541Q2.57372 16.7166 2.42857 16.5714Q2.28343 16.4263 2.14586 16.2739Q2.0083 16.1214 1.87859 15.962Q1.74889 15.8026 1.62731 15.6366Q1.50573 15.4705 1.39252 15.2982Q1.27931 15.1258 1.17471 14.9475Q1.0701 14.7692 0.974319 14.5853Q0.878533 14.4014 0.79176 14.2122Q0.704987 14.0231 0.627403 13.8292Q0.54982 13.6352 0.481585 13.4368Q0.41335 13.2384 0.354602 13.036Q0.295854 12.8336 0.246713 12.6275Q0.197572 12.4215 0.158138 12.2122Q0.118704 12.003 0.0890586 11.791Q0.0594128 11.5789 0.0396153 11.3646Q0.0198178 11.1502 0.00990888 10.934Q0 10.7177 0 10.5L0 8.5Q0 8.28228 0.00990888 8.06603Q0.0198178 7.84977 0.0396153 7.63541Q0.0594128 7.42106 0.0890586 7.20904Q0.118704 6.99703 0.158138 6.78778Q0.197572 6.57854 0.246713 6.37249Q0.295854 6.16645 0.354602 5.96402Q0.41335 5.76159 0.481585 5.5632Q0.54982 5.3648 0.627403 5.17085Q0.704987 4.97689 0.79176 4.78776Q0.878533 4.59863 0.974319 4.41473Q1.0701 4.23082 1.17471 4.0525Q1.27931 3.87419 1.39252 3.70183Q1.50573 3.52947 1.62731 3.36343Q1.74889 3.19738 1.87859 3.03798Q2.0083 2.87857 2.14586 2.72615Q2.28343 2.57372 2.42857 2.42857Q2.57372 2.28343 2.72615 2.14586Q2.87857 2.0083 3.03798 1.87859Q3.19738 1.74889 3.36343 1.62731Q3.52947 1.50573 3.70183 1.39252Q3.87419 1.27931 4.0525 1.17471Q4.23082 1.0701 4.41473 0.974319Q4.59863 0.878533 4.78776 0.79176Q4.97689 0.704987 5.17084 0.627403Q5.3648 0.54982 5.5632 0.481585Q5.76159 0.41335 5.96402 0.354602Q6.16645 0.295854 6.37249 0.246713Q6.57854 0.197572 6.78778 0.158138Q6.99703 0.118704 7.20904 0.0890586Q7.42106 0.0594128 7.63541 0.0396153Q7.84977 0.0198178 8.06603 0.00990888Q8.28228 0 8.5 0Z"/>
  </g>
  <defs>
    <clipPath id="clip_3">
      <rect x="-369" y="-308" width="1200" height="1270" clip-rule="evenodd"/>
    </clipPath>
  </defs>
  <g clip-path="url(#clip_3)">
    <path fill="rgb(1,13,40)" stroke="none" transform="translate(231 58)"
          d="M8.5 0L151.5 0Q151.718 0 151.934 0.00990888Q152.15 0.0198178 152.365 0.0396153Q152.579 0.0594128 152.791 0.0890586Q153.003 0.118704 153.212 0.158138Q153.421 0.197572 153.628 0.246713Q153.834 0.295854 154.036 0.354602Q154.238 0.41335 154.437 0.481585Q154.635 0.54982 154.829 0.627403Q155.023 0.704987 155.212 0.79176Q155.401 0.878533 155.585 0.974319Q155.769 1.0701 155.948 1.17471Q156.126 1.27931 156.298 1.39252Q156.471 1.50573 156.637 1.62731Q156.803 1.74889 156.962 1.87859Q157.121 2.0083 157.274 2.14586Q157.426 2.28343 157.571 2.42857Q157.717 2.57372 157.854 2.72615Q157.992 2.87857 158.121 3.03798Q158.251 3.19738 158.373 3.36343Q158.494 3.52947 158.607 3.70183Q158.721 3.87419 158.825 4.0525Q158.93 4.23082 159.026 4.41473Q159.122 4.59863 159.208 4.78776Q159.295 4.97689 159.373 5.17084Q159.45 5.3648 159.518 5.5632Q159.587 5.76159 159.645 5.96402Q159.704 6.16645 159.753 6.37249Q159.802 6.57854 159.842 6.78778Q159.881 6.99703 159.911 7.20904Q159.941 7.42106 159.96 7.63541Q159.98 7.84977 159.99 8.06603Q160 8.28228 160 8.5L160 10.5Q160 10.7177 159.99 10.934Q159.98 11.1502 159.96 11.3646Q159.941 11.5789 159.911 11.791Q159.881 12.003 159.842 12.2122Q159.802 12.4215 159.753 12.6275Q159.704 12.8336 159.645 13.036Q159.587 13.2384 159.518 13.4368Q159.45 13.6352 159.373 13.8292Q159.295 14.0231 159.208 14.2122Q159.122 14.4014 159.026 14.5853Q158.93 14.7692 158.825 14.9475Q158.721 15.1258 158.608 15.2982Q158.494 15.4705 158.373 15.6366Q158.251 15.8026 158.121 15.962Q157.992 16.1214 157.854 16.2739Q157.717 16.4263 157.571 16.5714Q157.426 16.7166 157.274 16.8541Q157.121 16.9917 156.962 17.1214Q156.803 17.2511 156.637 17.3727Q156.471 17.4943 156.298 17.6075Q156.126 17.7207 155.948 17.8253Q155.769 17.9299 155.585 18.0257Q155.401 18.1215 155.212 18.2082Q155.023 18.295 154.829 18.3726Q154.635 18.4502 154.437 18.5184Q154.238 18.5867 154.036 18.6454Q153.834 18.7041 153.628 18.7533Q153.421 18.8024 153.212 18.8419Q153.003 18.8813 152.791 18.9109Q152.579 18.9406 152.365 18.9604Q152.15 18.9802 151.934 18.9901Q151.718 19 151.5 19L8.5 19Q8.28228 19 8.06603 18.9901Q7.84977 18.9802 7.63541 18.9604Q7.42106 18.9406 7.20904 18.9109Q6.99703 18.8813 6.78778 18.8419Q6.57854 18.8024 6.37249 18.7533Q6.16645 18.7041 5.96402 18.6454Q5.76159 18.5867 5.5632 18.5184Q5.3648 18.4502 5.17085 18.3726Q4.97689 18.295 4.78776 18.2082Q4.59863 18.1215 4.41473 18.0257Q4.23082 17.9299 4.0525 17.8253Q3.87419 17.7207 3.70183 17.6075Q3.52947 17.4943 3.36343 17.3727Q3.19738 17.2511 3.03798 17.1214Q2.87857 16.9917 2.72615 16.8541Q2.57372 16.7166 2.42857 16.5714Q2.28343 16.4263 2.14586 16.2739Q2.0083 16.1214 1.87859 15.962Q1.74889 15.8026 1.62731 15.6366Q1.50573 15.4705 1.39252 15.2982Q1.27931 15.1258 1.17471 14.9475Q1.0701 14.7692 0.974319 14.5853Q0.878533 14.4014 0.79176 14.2122Q0.704987 14.0231 0.627403 13.8292Q0.54982 13.6352 0.481585 13.4368Q0.41335 13.2384 0.354602 13.036Q0.295854 12.8336 0.246713 12.6275Q0.197572 12.4215 0.158138 12.2122Q0.118704 12.003 0.0890586 11.791Q0.0594128 11.5789 0.0396153 11.3646Q0.0198178 11.1502 0.00990888 10.934Q0 10.7177 0 10.5L0 8.5Q0 8.28228 0.00990888 8.06603Q0.0198178 7.84977 0.0396153 7.63541Q0.0594128 7.42106 0.0890586 7.20904Q0.118704 6.99703 0.158138 6.78778Q0.197572 6.57854 0.246713 6.37249Q0.295854 6.16645 0.354602 5.96402Q0.41335 5.76159 0.481585 5.5632Q0.54982 5.3648 0.627403 5.17085Q0.704987 4.97689 0.79176 4.78776Q0.878533 4.59863 0.974319 4.41473Q1.0701 4.23082 1.17471 4.0525Q1.27931 3.87419 1.39252 3.70183Q1.50573 3.52947 1.62731 3.36343Q1.74889 3.19738 1.87859 3.03798Q2.0083 2.87857 2.14586 2.72615Q2.28343 2.57372 2.42857 2.42857Q2.57372 2.28343 2.72615 2.14586Q2.87857 2.0083 3.03798 1.87859Q3.19738 1.74889 3.36343 1.62731Q3.52947 1.50573 3.70183 1.39252Q3.87419 1.27931 4.0525 1.17471Q4.23082 1.0701 4.41473 0.974319Q4.59863 0.878533 4.78776 0.79176Q4.97689 0.704987 5.17084 0.627403Q5.3648 0.54982 5.5632 0.481585Q5.76159 0.41335 5.96402 0.354602Q6.16645 0.295854 6.37249 0.246713Q6.57854 0.197572 6.78778 0.158138Q6.99703 0.118704 7.20904 0.0890586Q7.42106 0.0594128 7.63541 0.0396153Q7.84977 0.0198178 8.06603 0.00990888Q8.28228 0 8.5 0L151.5 0Q151.718 0 151.934 0.00990888Q152.15 0.0198178 152.365 0.0396153Q152.579 0.0594128 152.791 0.0890586Q153.003 0.118704 153.212 0.158138Q153.421 0.197572 153.628 0.246713Q153.834 0.295854 154.036 0.354602Q154.238 0.41335 154.437 0.481585Q154.635 0.54982 154.829 0.627403Q155.023 0.704987 155.212 0.79176Q155.401 0.878533 155.585 0.974319Q155.769 1.0701 155.948 1.17471Q156.126 1.27931 156.298 1.39252Q156.471 1.50573 156.637 1.62731Q156.803 1.74889 156.962 1.87859Q157.121 2.0083 157.274 2.14586Q157.426 2.28343 157.571 2.42857Q157.717 2.57372 157.854 2.72615Q157.992 2.87857 158.121 3.03798Q158.251 3.19738 158.373 3.36343Q158.494 3.52947 158.607 3.70183Q158.721 3.87419 158.825 4.0525Q158.93 4.23082 159.026 4.41473Q159.122 4.59863 159.208 4.78776Q159.295 4.97689 159.373 5.17084Q159.45 5.3648 159.518 5.5632Q159.587 5.76159 159.645 5.96402Q159.704 6.16645 159.753 6.37249Q159.802 6.57854 159.842 6.78778Q159.881 6.99703 159.911 7.20904Q159.941 7.42106 159.96 7.63541Q159.98 7.84977 159.99 8.06603Q160 8.28228 160 8.5L160 10.5Q160 10.7177 159.99 10.934Q159.98 11.1502 159.96 11.3646Q159.941 11.5789 159.911 11.791Q159.881 12.003 159.842 12.2122Q159.802 12.4215 159.753 12.6275Q159.704 12.8336 159.645 13.036Q159.587 13.2384 159.518 13.4368Q159.45 13.6352 159.373 13.8292Q159.295 14.0231 159.208 14.2122Q159.122 14.4014 159.026 14.5853Q158.93 14.7692 158.825 14.9475Q158.721 15.1258 158.608 15.2982Q158.494 15.4705 158.373 15.6366Q158.251 15.8026 158.121 15.962Q157.992 16.1214 157.854 16.2739Q157.717 16.4263 157.571 16.5714Q157.426 16.7166 157.274 16.8541Q157.121 16.9917 156.962 17.1214Q156.803 17.2511 156.637 17.3727Q156.471 17.4943 156.298 17.6075Q156.126 17.7207 155.948 17.8253Q155.769 17.9299 155.585 18.0257Q155.401 18.1215 155.212 18.2082Q155.023 18.295 154.829 18.3726Q154.635 18.4502 154.437 18.5184Q154.238 18.5867 154.036 18.6454Q153.834 18.7041 153.628 18.7533Q153.421 18.8024 153.212 18.8419Q153.003 18.8813 152.791 18.9109Q152.579 18.9406 152.365 18.9604Q152.15 18.9802 151.934 18.9901Q151.718 19 151.5 19L8.5 19Q8.28228 19 8.06603 18.9901Q7.84977 18.9802 7.63541 18.9604Q7.42106 18.9406 7.20904 18.9109Q6.99703 18.8813 6.78778 18.8419Q6.57854 18.8024 6.37249 18.7533Q6.16645 18.7041 5.96402 18.6454Q5.76159 18.5867 5.5632 18.5184Q5.3648 18.4502 5.17085 18.3726Q4.97689 18.295 4.78776 18.2082Q4.59863 18.1215 4.41473 18.0257Q4.23082 17.9299 4.0525 17.8253Q3.87419 17.7207 3.70183 17.6075Q3.52947 17.4943 3.36343 17.3727Q3.19738 17.2511 3.03798 17.1214Q2.87857 16.9917 2.72615 16.8541Q2.57372 16.7166 2.42857 16.5714Q2.28343 16.4263 2.14586 16.2739Q2.0083 16.1214 1.87859 15.962Q1.74889 15.8026 1.62731 15.6366Q1.50573 15.4705 1.39252 15.2982Q1.27931 15.1258 1.17471 14.9475Q1.0701 14.7692 0.974319 14.5853Q0.878533 14.4014 0.79176 14.2122Q0.704987 14.0231 0.627403 13.8292Q0.54982 13.6352 0.481585 13.4368Q0.41335 13.2384 0.354602 13.036Q0.295854 12.8336 0.246713 12.6275Q0.197572 12.4215 0.158138 12.2122Q0.118704 12.003 0.0890586 11.791Q0.0594128 11.5789 0.0396153 11.3646Q0.0198178 11.1502 0.00990888 10.934Q0 10.7177 0 10.5L0 8.5Q0 8.28228 0.00990888 8.06603Q0.0198178 7.84977 0.0396153 7.63541Q0.0594128 7.42106 0.0890586 7.20904Q0.118704 6.99703 0.158138 6.78778Q0.197572 6.57854 0.246713 6.37249Q0.295854 6.16645 0.354602 5.96402Q0.41335 5.76159 0.481585 5.5632Q0.54982 5.3648 0.627403 5.17085Q0.704987 4.97689 0.79176 4.78776Q0.878533 4.59863 0.974319 4.41473Q1.0701 4.23082 1.17471 4.0525Q1.27931 3.87419 1.39252 3.70183Q1.50573 3.52947 1.62731 3.36343Q1.74889 3.19738 1.87859 3.03798Q2.0083 2.87857 2.14586 2.72615Q2.28343 2.57372 2.42857 2.42857Q2.57372 2.28343 2.72615 2.14586Q2.87857 2.0083 3.03798 1.87859Q3.19738 1.74889 3.36343 1.62731Q3.52947 1.50573 3.70183 1.39252Q3.87419 1.27931 4.0525 1.17471Q4.23082 1.0701 4.41473 0.974319Q4.59863 0.878533 4.78776 0.79176Q4.97689 0.704987 5.17084 0.627403Q5.3648 0.54982 5.5632 0.481585Q5.76159 0.41335 5.96402 0.354602Q6.16645 0.295854 6.37249 0.246713Q6.57854 0.197572 6.78778 0.158138Q6.99703 0.118704 7.20904 0.0890586Q7.42106 0.0594128 7.63541 0.0396153Q7.84977 0.0198178 8.06603 0.00990888Q8.28228 0 8.5 0Z"/>
  </g>
  <defs>
    <clipPath id="clip_4">
      <rect x="-369" y="-308" width="1200" height="1270" clip-rule="evenodd"/>
    </clipPath>
  </defs>
  <g clip-path="url(#clip_4)">
    <path fill="rgb(1,13,40)" stroke="none" transform="translate(101 219)"
          d="M8.5 0L251.5 0Q251.718 0 251.934 0.00990888Q252.15 0.0198178 252.365 0.0396153Q252.579 0.0594128 252.791 0.0890586Q253.003 0.118704 253.212 0.158138Q253.421 0.197572 253.628 0.246713Q253.834 0.295854 254.036 0.354602Q254.238 0.41335 254.437 0.481585Q254.635 0.54982 254.829 0.627403Q255.023 0.704987 255.212 0.79176Q255.401 0.878533 255.585 0.974319Q255.769 1.0701 255.948 1.17471Q256.126 1.27931 256.298 1.39252Q256.471 1.50573 256.637 1.62731Q256.803 1.74889 256.962 1.87859Q257.121 2.0083 257.274 2.14586Q257.426 2.28343 257.571 2.42857Q257.717 2.57372 257.854 2.72615Q257.992 2.87857 258.121 3.03798Q258.251 3.19738 258.373 3.36343Q258.494 3.52947 258.607 3.70183Q258.721 3.87419 258.825 4.0525Q258.93 4.23082 259.026 4.41473Q259.121 4.59863 259.208 4.78776Q259.295 4.97689 259.373 5.17084Q259.45 5.3648 259.518 5.5632Q259.587 5.76159 259.645 5.96402Q259.704 6.16645 259.753 6.37249Q259.802 6.57854 259.842 6.78778Q259.881 6.99703 259.911 7.20904Q259.941 7.42106 259.96 7.63541Q259.98 7.84977 259.99 8.06603Q260 8.28228 260 8.5L260 10.5Q260 10.7177 259.99 10.934Q259.98 11.1502 259.96 11.3646Q259.941 11.5789 259.911 11.791Q259.881 12.003 259.842 12.2122Q259.802 12.4215 259.753 12.6275Q259.704 12.8336 259.645 13.036Q259.587 13.2384 259.518 13.4368Q259.45 13.6352 259.373 13.8292Q259.295 14.0231 259.208 14.2122Q259.121 14.4014 259.026 14.5853Q258.93 14.7692 258.825 14.9475Q258.721 15.1258 258.607 15.2982Q258.494 15.4705 258.373 15.6366Q258.251 15.8026 258.121 15.962Q257.992 16.1214 257.854 16.2739Q257.717 16.4263 257.571 16.5714Q257.426 16.7166 257.274 16.8541Q257.121 16.9917 256.962 17.1214Q256.803 17.2511 256.637 17.3727Q256.471 17.4943 256.298 17.6075Q256.126 17.7207 255.948 17.8253Q255.769 17.9299 255.585 18.0257Q255.401 18.1215 255.212 18.2082Q255.023 18.295 254.829 18.3726Q254.635 18.4502 254.437 18.5184Q254.238 18.5867 254.036 18.6454Q253.834 18.7041 253.628 18.7533Q253.421 18.8024 253.212 18.8419Q253.003 18.8813 252.791 18.9109Q252.579 18.9406 252.365 18.9604Q252.15 18.9802 251.934 18.9901Q251.718 19 251.5 19L8.5 19Q8.28228 19 8.06603 18.9901Q7.84977 18.9802 7.63541 18.9604Q7.42106 18.9406 7.20904 18.9109Q6.99703 18.8813 6.78778 18.8419Q6.57854 18.8024 6.37249 18.7533Q6.16645 18.7041 5.96402 18.6454Q5.76159 18.5867 5.5632 18.5184Q5.3648 18.4502 5.17085 18.3726Q4.97689 18.295 4.78776 18.2082Q4.59863 18.1215 4.41473 18.0257Q4.23082 17.9299 4.0525 17.8253Q3.87419 17.7207 3.70183 17.6075Q3.52947 17.4943 3.36343 17.3727Q3.19738 17.2511 3.03798 17.1214Q2.87857 16.9917 2.72615 16.8541Q2.57372 16.7166 2.42857 16.5714Q2.28343 16.4263 2.14586 16.2739Q2.0083 16.1214 1.87859 15.962Q1.74889 15.8026 1.62731 15.6366Q1.50573 15.4705 1.39252 15.2982Q1.27931 15.1258 1.17471 14.9475Q1.0701 14.7692 0.974319 14.5853Q0.878533 14.4014 0.79176 14.2122Q0.704987 14.0231 0.627403 13.8292Q0.54982 13.6352 0.481585 13.4368Q0.41335 13.2384 0.354602 13.036Q0.295854 12.8336 0.246713 12.6275Q0.197572 12.4215 0.158138 12.2122Q0.118704 12.003 0.0890586 11.791Q0.0594128 11.5789 0.0396153 11.3646Q0.0198178 11.1502 0.00990888 10.934Q0 10.7177 0 10.5L0 8.5Q0 8.28228 0.00990888 8.06603Q0.0198178 7.84977 0.0396153 7.63541Q0.0594128 7.42106 0.0890586 7.20904Q0.118704 6.99703 0.158138 6.78778Q0.197572 6.57854 0.246713 6.37249Q0.295854 6.16645 0.354602 5.96402Q0.41335 5.76159 0.481585 5.5632Q0.54982 5.3648 0.627403 5.17085Q0.704987 4.97689 0.79176 4.78776Q0.878533 4.59863 0.974319 4.41473Q1.0701 4.23082 1.17471 4.0525Q1.27931 3.87419 1.39252 3.70183Q1.50573 3.52947 1.62731 3.36343Q1.74889 3.19738 1.87859 3.03798Q2.0083 2.87857 2.14586 2.72615Q2.28343 2.57372 2.42857 2.42857Q2.57372 2.28343 2.72615 2.14586Q2.87857 2.0083 3.03798 1.87859Q3.19738 1.74889 3.36343 1.62731Q3.52947 1.50573 3.70183 1.39252Q3.87419 1.27931 4.0525 1.17471Q4.23082 1.0701 4.41473 0.974319Q4.59863 0.878533 4.78776 0.79176Q4.97689 0.704987 5.17084 0.627403Q5.3648 0.54982 5.5632 0.481585Q5.76159 0.41335 5.96402 0.354602Q6.16645 0.295854 6.37249 0.246713Q6.57854 0.197572 6.78778 0.158138Q6.99703 0.118704 7.20904 0.0890586Q7.42106 0.0594128 7.63541 0.0396153Q7.84977 0.0198178 8.06603 0.00990888Q8.28228 0 8.5 0L251.5 0Q251.718 0 251.934 0.00990888Q252.15 0.0198178 252.365 0.0396153Q252.579 0.0594128 252.791 0.0890586Q253.003 0.118704 253.212 0.158138Q253.421 0.197572 253.628 0.246713Q253.834 0.295854 254.036 0.354602Q254.238 0.41335 254.437 0.481585Q254.635 0.54982 254.829 0.627403Q255.023 0.704987 255.212 0.79176Q255.401 0.878533 255.585 0.974319Q255.769 1.0701 255.948 1.17471Q256.126 1.27931 256.298 1.39252Q256.471 1.50573 256.637 1.62731Q256.803 1.74889 256.962 1.87859Q257.121 2.0083 257.274 2.14586Q257.426 2.28343 257.571 2.42857Q257.717 2.57372 257.854 2.72615Q257.992 2.87857 258.121 3.03798Q258.251 3.19738 258.373 3.36343Q258.494 3.52947 258.607 3.70183Q258.721 3.87419 258.825 4.0525Q258.93 4.23082 259.026 4.41473Q259.121 4.59863 259.208 4.78776Q259.295 4.97689 259.373 5.17084Q259.45 5.3648 259.518 5.5632Q259.587 5.76159 259.645 5.96402Q259.704 6.16645 259.753 6.37249Q259.802 6.57854 259.842 6.78778Q259.881 6.99703 259.911 7.20904Q259.941 7.42106 259.96 7.63541Q259.98 7.84977 259.99 8.06603Q260 8.28228 260 8.5L260 10.5Q260 10.7177 259.99 10.934Q259.98 11.1502 259.96 11.3646Q259.941 11.5789 259.911 11.791Q259.881 12.003 259.842 12.2122Q259.802 12.4215 259.753 12.6275Q259.704 12.8336 259.645 13.036Q259.587 13.2384 259.518 13.4368Q259.45 13.6352 259.373 13.8292Q259.295 14.0231 259.208 14.2122Q259.121 14.4014 259.026 14.5853Q258.93 14.7692 258.825 14.9475Q258.721 15.1258 258.607 15.2982Q258.494 15.4705 258.373 15.6366Q258.251 15.8026 258.121 15.962Q257.992 16.1214 257.854 16.2739Q257.717 16.4263 257.571 16.5714Q257.426 16.7166 257.274 16.8541Q257.121 16.9917 256.962 17.1214Q256.803 17.2511 256.637 17.3727Q256.471 17.4943 256.298 17.6075Q256.126 17.7207 255.948 17.8253Q255.769 17.9299 255.585 18.0257Q255.401 18.1215 255.212 18.2082Q255.023 18.295 254.829 18.3726Q254.635 18.4502 254.437 18.5184Q254.238 18.5867 254.036 18.6454Q253.834 18.7041 253.628 18.7533Q253.421 18.8024 253.212 18.8419Q253.003 18.8813 252.791 18.9109Q252.579 18.9406 252.365 18.9604Q252.15 18.9802 251.934 18.9901Q251.718 19 251.5 19L8.5 19Q8.28228 19 8.06603 18.9901Q7.84977 18.9802 7.63541 18.9604Q7.42106 18.9406 7.20904 18.9109Q6.99703 18.8813 6.78778 18.8419Q6.57854 18.8024 6.37249 18.7533Q6.16645 18.7041 5.96402 18.6454Q5.76159 18.5867 5.5632 18.5184Q5.3648 18.4502 5.17085 18.3726Q4.97689 18.295 4.78776 18.2082Q4.59863 18.1215 4.41473 18.0257Q4.23082 17.9299 4.0525 17.8253Q3.87419 17.7207 3.70183 17.6075Q3.52947 17.4943 3.36343 17.3727Q3.19738 17.2511 3.03798 17.1214Q2.87857 16.9917 2.72615 16.8541Q2.57372 16.7166 2.42857 16.5714Q2.28343 16.4263 2.14586 16.2739Q2.0083 16.1214 1.87859 15.962Q1.74889 15.8026 1.62731 15.6366Q1.50573 15.4705 1.39252 15.2982Q1.27931 15.1258 1.17471 14.9475Q1.0701 14.7692 0.974319 14.5853Q0.878533 14.4014 0.79176 14.2122Q0.704987 14.0231 0.627403 13.8292Q0.54982 13.6352 0.481585 13.4368Q0.41335 13.2384 0.354602 13.036Q0.295854 12.8336 0.246713 12.6275Q0.197572 12.4215 0.158138 12.2122Q0.118704 12.003 0.0890586 11.791Q0.0594128 11.5789 0.0396153 11.3646Q0.0198178 11.1502 0.00990888 10.934Q0 10.7177 0 10.5L0 8.5Q0 8.28228 0.00990888 8.06603Q0.0198178 7.84977 0.0396153 7.63541Q0.0594128 7.42106 0.0890586 7.20904Q0.118704 6.99703 0.158138 6.78778Q0.197572 6.57854 0.246713 6.37249Q0.295854 6.16645 0.354602 5.96402Q0.41335 5.76159 0.481585 5.5632Q0.54982 5.3648 0.627403 5.17085Q0.704987 4.97689 0.79176 4.78776Q0.878533 4.59863 0.974319 4.41473Q1.0701 4.23082 1.17471 4.0525Q1.27931 3.87419 1.39252 3.70183Q1.50573 3.52947 1.62731 3.36343Q1.74889 3.19738 1.87859 3.03798Q2.0083 2.87857 2.14586 2.72615Q2.28343 2.57372 2.42857 2.42857Q2.57372 2.28343 2.72615 2.14586Q2.87857 2.0083 3.03798 1.87859Q3.19738 1.74889 3.36343 1.62731Q3.52947 1.50573 3.70183 1.39252Q3.87419 1.27931 4.0525 1.17471Q4.23082 1.0701 4.41473 0.974319Q4.59863 0.878533 4.78776 0.79176Q4.97689 0.704987 5.17084 0.627403Q5.3648 0.54982 5.5632 0.481585Q5.76159 0.41335 5.96402 0.354602Q6.16645 0.295854 6.37249 0.246713Q6.57854 0.197572 6.78778 0.158138Q6.99703 0.118704 7.20904 0.0890586Q7.42106 0.0594128 7.63541 0.0396153Q7.84977 0.0198178 8.06603 0.00990888Q8.28228 0 8.5 0Z"/>
  </g>
  <defs>
    <clipPath id="clip_5">
      <rect x="-369" y="-308" width="1200" height="1270" clip-rule="evenodd"/>
    </clipPath>
  </defs>
  <g clip-path="url(#clip_5)">
    <path fill="rgb(1,13,40)" stroke="none" transform="translate(101 280)"
          d="M8.5 0L251.5 0Q251.718 0 251.934 0.00990888Q252.15 0.0198178 252.365 0.0396153Q252.579 0.0594128 252.791 0.0890586Q253.003 0.118704 253.212 0.158138Q253.421 0.197572 253.628 0.246713Q253.834 0.295854 254.036 0.354602Q254.238 0.41335 254.437 0.481585Q254.635 0.54982 254.829 0.627403Q255.023 0.704987 255.212 0.79176Q255.401 0.878533 255.585 0.974319Q255.769 1.0701 255.948 1.17471Q256.126 1.27931 256.298 1.39252Q256.471 1.50573 256.637 1.62731Q256.803 1.74889 256.962 1.87859Q257.121 2.0083 257.274 2.14586Q257.426 2.28343 257.571 2.42857Q257.717 2.57372 257.854 2.72615Q257.992 2.87857 258.121 3.03798Q258.251 3.19738 258.373 3.36343Q258.494 3.52947 258.607 3.70183Q258.721 3.87419 258.825 4.0525Q258.93 4.23082 259.026 4.41473Q259.121 4.59863 259.208 4.78776Q259.295 4.97689 259.373 5.17084Q259.45 5.3648 259.518 5.5632Q259.587 5.76159 259.645 5.96402Q259.704 6.16645 259.753 6.37249Q259.802 6.57854 259.842 6.78778Q259.881 6.99703 259.911 7.20904Q259.941 7.42106 259.96 7.63541Q259.98 7.84977 259.99 8.06603Q260 8.28228 260 8.5L260 10.5Q260 10.7177 259.99 10.934Q259.98 11.1502 259.96 11.3646Q259.941 11.5789 259.911 11.791Q259.881 12.003 259.842 12.2122Q259.802 12.4215 259.753 12.6275Q259.704 12.8336 259.645 13.036Q259.587 13.2384 259.518 13.4368Q259.45 13.6352 259.373 13.8292Q259.295 14.0231 259.208 14.2122Q259.121 14.4014 259.026 14.5853Q258.93 14.7692 258.825 14.9475Q258.721 15.1258 258.607 15.2982Q258.494 15.4705 258.373 15.6366Q258.251 15.8026 258.121 15.962Q257.992 16.1214 257.854 16.2739Q257.717 16.4263 257.571 16.5714Q257.426 16.7166 257.274 16.8541Q257.121 16.9917 256.962 17.1214Q256.803 17.2511 256.637 17.3727Q256.471 17.4943 256.298 17.6075Q256.126 17.7207 255.948 17.8253Q255.769 17.9299 255.585 18.0257Q255.401 18.1215 255.212 18.2082Q255.023 18.295 254.829 18.3726Q254.635 18.4502 254.437 18.5184Q254.238 18.5867 254.036 18.6454Q253.834 18.7041 253.628 18.7533Q253.421 18.8024 253.212 18.8419Q253.003 18.8813 252.791 18.9109Q252.579 18.9406 252.365 18.9604Q252.15 18.9802 251.934 18.9901Q251.718 19 251.5 19L8.5 19Q8.28228 19 8.06603 18.9901Q7.84977 18.9802 7.63541 18.9604Q7.42106 18.9406 7.20904 18.9109Q6.99703 18.8813 6.78778 18.8419Q6.57854 18.8024 6.37249 18.7533Q6.16645 18.7041 5.96402 18.6454Q5.76159 18.5867 5.5632 18.5184Q5.3648 18.4502 5.17085 18.3726Q4.97689 18.295 4.78776 18.2082Q4.59863 18.1215 4.41473 18.0257Q4.23082 17.9299 4.0525 17.8253Q3.87419 17.7207 3.70183 17.6075Q3.52947 17.4943 3.36343 17.3727Q3.19738 17.2511 3.03798 17.1214Q2.87857 16.9917 2.72615 16.8541Q2.57372 16.7166 2.42857 16.5714Q2.28343 16.4263 2.14586 16.2739Q2.0083 16.1214 1.87859 15.962Q1.74889 15.8026 1.62731 15.6366Q1.50573 15.4705 1.39252 15.2982Q1.27931 15.1258 1.17471 14.9475Q1.0701 14.7692 0.974319 14.5853Q0.878533 14.4014 0.79176 14.2122Q0.704987 14.0231 0.627403 13.8292Q0.54982 13.6352 0.481585 13.4368Q0.41335 13.2384 0.354602 13.036Q0.295854 12.8336 0.246713 12.6275Q0.197572 12.4215 0.158138 12.2122Q0.118704 12.003 0.0890586 11.791Q0.0594128 11.5789 0.0396153 11.3646Q0.0198178 11.1502 0.00990888 10.934Q0 10.7177 0 10.5L0 8.5Q0 8.28228 0.00990888 8.06603Q0.0198178 7.84977 0.0396153 7.63541Q0.0594128 7.42106 0.0890586 7.20904Q0.118704 6.99703 0.158138 6.78778Q0.197572 6.57854 0.246713 6.37249Q0.295854 6.16645 0.354602 5.96402Q0.41335 5.76159 0.481585 5.5632Q0.54982 5.3648 0.627403 5.17085Q0.704987 4.97689 0.79176 4.78776Q0.878533 4.59863 0.974319 4.41473Q1.0701 4.23082 1.17471 4.0525Q1.27931 3.87419 1.39252 3.70183Q1.50573 3.52947 1.62731 3.36343Q1.74889 3.19738 1.87859 3.03798Q2.0083 2.87857 2.14586 2.72615Q2.28343 2.57372 2.42857 2.42857Q2.57372 2.28343 2.72615 2.14586Q2.87857 2.0083 3.03798 1.87859Q3.19738 1.74889 3.36343 1.62731Q3.52947 1.50573 3.70183 1.39252Q3.87419 1.27931 4.0525 1.17471Q4.23082 1.0701 4.41473 0.974319Q4.59863 0.878533 4.78776 0.79176Q4.97689 0.704987 5.17084 0.627403Q5.3648 0.54982 5.5632 0.481585Q5.76159 0.41335 5.96402 0.354602Q6.16645 0.295854 6.37249 0.246713Q6.57854 0.197572 6.78778 0.158138Q6.99703 0.118704 7.20904 0.0890586Q7.42106 0.0594128 7.63541 0.0396153Q7.84977 0.0198178 8.06603 0.00990888Q8.28228 0 8.5 0L251.5 0Q251.718 0 251.934 0.00990888Q252.15 0.0198178 252.365 0.0396153Q252.579 0.0594128 252.791 0.0890586Q253.003 0.118704 253.212 0.158138Q253.421 0.197572 253.628 0.246713Q253.834 0.295854 254.036 0.354602Q254.238 0.41335 254.437 0.481585Q254.635 0.54982 254.829 0.627403Q255.023 0.704987 255.212 0.79176Q255.401 0.878533 255.585 0.974319Q255.769 1.0701 255.948 1.17471Q256.126 1.27931 256.298 1.39252Q256.471 1.50573 256.637 1.62731Q256.803 1.74889 256.962 1.87859Q257.121 2.0083 257.274 2.14586Q257.426 2.28343 257.571 2.42857Q257.717 2.57372 257.854 2.72615Q257.992 2.87857 258.121 3.03798Q258.251 3.19738 258.373 3.36343Q258.494 3.52947 258.607 3.70183Q258.721 3.87419 258.825 4.0525Q258.93 4.23082 259.026 4.41473Q259.121 4.59863 259.208 4.78776Q259.295 4.97689 259.373 5.17084Q259.45 5.3648 259.518 5.5632Q259.587 5.76159 259.645 5.96402Q259.704 6.16645 259.753 6.37249Q259.802 6.57854 259.842 6.78778Q259.881 6.99703 259.911 7.20904Q259.941 7.42106 259.96 7.63541Q259.98 7.84977 259.99 8.06603Q260 8.28228 260 8.5L260 10.5Q260 10.7177 259.99 10.934Q259.98 11.1502 259.96 11.3646Q259.941 11.5789 259.911 11.791Q259.881 12.003 259.842 12.2122Q259.802 12.4215 259.753 12.6275Q259.704 12.8336 259.645 13.036Q259.587 13.2384 259.518 13.4368Q259.45 13.6352 259.373 13.8292Q259.295 14.0231 259.208 14.2122Q259.121 14.4014 259.026 14.5853Q258.93 14.7692 258.825 14.9475Q258.721 15.1258 258.607 15.2982Q258.494 15.4705 258.373 15.6366Q258.251 15.8026 258.121 15.962Q257.992 16.1214 257.854 16.2739Q257.717 16.4263 257.571 16.5714Q257.426 16.7166 257.274 16.8541Q257.121 16.9917 256.962 17.1214Q256.803 17.2511 256.637 17.3727Q256.471 17.4943 256.298 17.6075Q256.126 17.7207 255.948 17.8253Q255.769 17.9299 255.585 18.0257Q255.401 18.1215 255.212 18.2082Q255.023 18.295 254.829 18.3726Q254.635 18.4502 254.437 18.5184Q254.238 18.5867 254.036 18.6454Q253.834 18.7041 253.628 18.7533Q253.421 18.8024 253.212 18.8419Q253.003 18.8813 252.791 18.9109Q252.579 18.9406 252.365 18.9604Q252.15 18.9802 251.934 18.9901Q251.718 19 251.5 19L8.5 19Q8.28228 19 8.06603 18.9901Q7.84977 18.9802 7.63541 18.9604Q7.42106 18.9406 7.20904 18.9109Q6.99703 18.8813 6.78778 18.8419Q6.57854 18.8024 6.37249 18.7533Q6.16645 18.7041 5.96402 18.6454Q5.76159 18.5867 5.5632 18.5184Q5.3648 18.4502 5.17085 18.3726Q4.97689 18.295 4.78776 18.2082Q4.59863 18.1215 4.41473 18.0257Q4.23082 17.9299 4.0525 17.8253Q3.87419 17.7207 3.70183 17.6075Q3.52947 17.4943 3.36343 17.3727Q3.19738 17.2511 3.03798 17.1214Q2.87857 16.9917 2.72615 16.8541Q2.57372 16.7166 2.42857 16.5714Q2.28343 16.4263 2.14586 16.2739Q2.0083 16.1214 1.87859 15.962Q1.74889 15.8026 1.62731 15.6366Q1.50573 15.4705 1.39252 15.2982Q1.27931 15.1258 1.17471 14.9475Q1.0701 14.7692 0.974319 14.5853Q0.878533 14.4014 0.79176 14.2122Q0.704987 14.0231 0.627403 13.8292Q0.54982 13.6352 0.481585 13.4368Q0.41335 13.2384 0.354602 13.036Q0.295854 12.8336 0.246713 12.6275Q0.197572 12.4215 0.158138 12.2122Q0.118704 12.003 0.0890586 11.791Q0.0594128 11.5789 0.0396153 11.3646Q0.0198178 11.1502 0.00990888 10.934Q0 10.7177 0 10.5L0 8.5Q0 8.28228 0.00990888 8.06603Q0.0198178 7.84977 0.0396153 7.63541Q0.0594128 7.42106 0.0890586 7.20904Q0.118704 6.99703 0.158138 6.78778Q0.197572 6.57854 0.246713 6.37249Q0.295854 6.16645 0.354602 5.96402Q0.41335 5.76159 0.481585 5.5632Q0.54982 5.3648 0.627403 5.17085Q0.704987 4.97689 0.79176 4.78776Q0.878533 4.59863 0.974319 4.41473Q1.0701 4.23082 1.17471 4.0525Q1.27931 3.87419 1.39252 3.70183Q1.50573 3.52947 1.62731 3.36343Q1.74889 3.19738 1.87859 3.03798Q2.0083 2.87857 2.14586 2.72615Q2.28343 2.57372 2.42857 2.42857Q2.57372 2.28343 2.72615 2.14586Q2.87857 2.0083 3.03798 1.87859Q3.19738 1.74889 3.36343 1.62731Q3.52947 1.50573 3.70183 1.39252Q3.87419 1.27931 4.0525 1.17471Q4.23082 1.0701 4.41473 0.974319Q4.59863 0.878533 4.78776 0.79176Q4.97689 0.704987 5.17084 0.627403Q5.3648 0.54982 5.5632 0.481585Q5.76159 0.41335 5.96402 0.354602Q6.16645 0.295854 6.37249 0.246713Q6.57854 0.197572 6.78778 0.158138Q6.99703 0.118704 7.20904 0.0890586Q7.42106 0.0594128 7.63541 0.0396153Q7.84977 0.0198178 8.06603 0.00990888Q8.28228 0 8.5 0Z"/>
  </g>
  <defs>
    <clipPath id="clip_6">
      <rect x="-369" y="-308" width="1200" height="1270" clip-rule="evenodd"/>
    </clipPath>
  </defs>
  <g clip-path="url(#clip_6)">
    <path fill="rgb(1,13,40)" stroke="none" transform="translate(101 341)"
          d="M8.5 0L151.5 0Q151.718 0 151.934 0.00990888Q152.15 0.0198178 152.365 0.0396153Q152.579 0.0594128 152.791 0.0890586Q153.003 0.118704 153.212 0.158138Q153.421 0.197572 153.628 0.246713Q153.834 0.295854 154.036 0.354602Q154.238 0.41335 154.437 0.481585Q154.635 0.54982 154.829 0.627403Q155.023 0.704987 155.212 0.79176Q155.401 0.878533 155.585 0.974319Q155.769 1.0701 155.948 1.17471Q156.126 1.27931 156.298 1.39252Q156.471 1.50573 156.637 1.62731Q156.803 1.74889 156.962 1.87859Q157.121 2.0083 157.274 2.14586Q157.426 2.28343 157.571 2.42857Q157.717 2.57372 157.854 2.72615Q157.992 2.87857 158.121 3.03798Q158.251 3.19738 158.373 3.36343Q158.494 3.52947 158.607 3.70183Q158.721 3.87419 158.825 4.0525Q158.93 4.23082 159.026 4.41473Q159.122 4.59863 159.208 4.78776Q159.295 4.97689 159.373 5.17084Q159.45 5.3648 159.518 5.5632Q159.587 5.76159 159.645 5.96402Q159.704 6.16645 159.753 6.37249Q159.802 6.57854 159.842 6.78778Q159.881 6.99703 159.911 7.20904Q159.941 7.42106 159.96 7.63541Q159.98 7.84977 159.99 8.06603Q160 8.28228 160 8.5L160 10.5Q160 10.7177 159.99 10.934Q159.98 11.1502 159.96 11.3646Q159.941 11.5789 159.911 11.791Q159.881 12.003 159.842 12.2122Q159.802 12.4215 159.753 12.6275Q159.704 12.8336 159.645 13.036Q159.587 13.2384 159.518 13.4368Q159.45 13.6352 159.373 13.8292Q159.295 14.0231 159.208 14.2122Q159.122 14.4014 159.026 14.5853Q158.93 14.7692 158.825 14.9475Q158.721 15.1258 158.608 15.2982Q158.494 15.4705 158.373 15.6366Q158.251 15.8026 158.121 15.962Q157.992 16.1214 157.854 16.2739Q157.717 16.4263 157.571 16.5714Q157.426 16.7166 157.274 16.8541Q157.121 16.9917 156.962 17.1214Q156.803 17.2511 156.637 17.3727Q156.471 17.4943 156.298 17.6075Q156.126 17.7207 155.948 17.8253Q155.769 17.9299 155.585 18.0257Q155.401 18.1215 155.212 18.2082Q155.023 18.295 154.829 18.3726Q154.635 18.4502 154.437 18.5184Q154.238 18.5867 154.036 18.6454Q153.834 18.7041 153.628 18.7533Q153.421 18.8024 153.212 18.8419Q153.003 18.8813 152.791 18.9109Q152.579 18.9406 152.365 18.9604Q152.15 18.9802 151.934 18.9901Q151.718 19 151.5 19L8.5 19Q8.28228 19 8.06603 18.9901Q7.84977 18.9802 7.63541 18.9604Q7.42106 18.9406 7.20904 18.9109Q6.99703 18.8813 6.78778 18.8419Q6.57854 18.8024 6.37249 18.7533Q6.16645 18.7041 5.96402 18.6454Q5.76159 18.5867 5.5632 18.5184Q5.3648 18.4502 5.17085 18.3726Q4.97689 18.295 4.78776 18.2082Q4.59863 18.1215 4.41473 18.0257Q4.23082 17.9299 4.0525 17.8253Q3.87419 17.7207 3.70183 17.6075Q3.52947 17.4943 3.36343 17.3727Q3.19738 17.2511 3.03798 17.1214Q2.87857 16.9917 2.72615 16.8541Q2.57372 16.7166 2.42857 16.5714Q2.28343 16.4263 2.14586 16.2739Q2.0083 16.1214 1.87859 15.962Q1.74889 15.8026 1.62731 15.6366Q1.50573 15.4705 1.39252 15.2982Q1.27931 15.1258 1.17471 14.9475Q1.0701 14.7692 0.974319 14.5853Q0.878533 14.4014 0.79176 14.2122Q0.704987 14.0231 0.627403 13.8292Q0.54982 13.6352 0.481585 13.4368Q0.41335 13.2384 0.354602 13.036Q0.295854 12.8336 0.246713 12.6275Q0.197572 12.4215 0.158138 12.2122Q0.118704 12.003 0.0890586 11.791Q0.0594128 11.5789 0.0396153 11.3646Q0.0198178 11.1502 0.00990888 10.934Q0 10.7177 0 10.5L0 8.5Q0 8.28228 0.00990888 8.06603Q0.0198178 7.84977 0.0396153 7.63541Q0.0594128 7.42106 0.0890586 7.20904Q0.118704 6.99703 0.158138 6.78778Q0.197572 6.57854 0.246713 6.37249Q0.295854 6.16645 0.354602 5.96402Q0.41335 5.76159 0.481585 5.5632Q0.54982 5.3648 0.627403 5.17085Q0.704987 4.97689 0.79176 4.78776Q0.878533 4.59863 0.974319 4.41473Q1.0701 4.23082 1.17471 4.0525Q1.27931 3.87419 1.39252 3.70183Q1.50573 3.52947 1.62731 3.36343Q1.74889 3.19738 1.87859 3.03798Q2.0083 2.87857 2.14586 2.72615Q2.28343 2.57372 2.42857 2.42857Q2.57372 2.28343 2.72615 2.14586Q2.87857 2.0083 3.03798 1.87859Q3.19738 1.74889 3.36343 1.62731Q3.52947 1.50573 3.70183 1.39252Q3.87419 1.27931 4.0525 1.17471Q4.23082 1.0701 4.41473 0.974319Q4.59863 0.878533 4.78776 0.79176Q4.97689 0.704987 5.17084 0.627403Q5.3648 0.54982 5.5632 0.481585Q5.76159 0.41335 5.96402 0.354602Q6.16645 0.295854 6.37249 0.246713Q6.57854 0.197572 6.78778 0.158138Q6.99703 0.118704 7.20904 0.0890586Q7.42106 0.0594128 7.63541 0.0396153Q7.84977 0.0198178 8.06603 0.00990888Q8.28228 0 8.5 0L151.5 0Q151.718 0 151.934 0.00990888Q152.15 0.0198178 152.365 0.0396153Q152.579 0.0594128 152.791 0.0890586Q153.003 0.118704 153.212 0.158138Q153.421 0.197572 153.628 0.246713Q153.834 0.295854 154.036 0.354602Q154.238 0.41335 154.437 0.481585Q154.635 0.54982 154.829 0.627403Q155.023 0.704987 155.212 0.79176Q155.401 0.878533 155.585 0.974319Q155.769 1.0701 155.948 1.17471Q156.126 1.27931 156.298 1.39252Q156.471 1.50573 156.637 1.62731Q156.803 1.74889 156.962 1.87859Q157.121 2.0083 157.274 2.14586Q157.426 2.28343 157.571 2.42857Q157.717 2.57372 157.854 2.72615Q157.992 2.87857 158.121 3.03798Q158.251 3.19738 158.373 3.36343Q158.494 3.52947 158.607 3.70183Q158.721 3.87419 158.825 4.0525Q158.93 4.23082 159.026 4.41473Q159.122 4.59863 159.208 4.78776Q159.295 4.97689 159.373 5.17084Q159.45 5.3648 159.518 5.5632Q159.587 5.76159 159.645 5.96402Q159.704 6.16645 159.753 6.37249Q159.802 6.57854 159.842 6.78778Q159.881 6.99703 159.911 7.20904Q159.941 7.42106 159.96 7.63541Q159.98 7.84977 159.99 8.06603Q160 8.28228 160 8.5L160 10.5Q160 10.7177 159.99 10.934Q159.98 11.1502 159.96 11.3646Q159.941 11.5789 159.911 11.791Q159.881 12.003 159.842 12.2122Q159.802 12.4215 159.753 12.6275Q159.704 12.8336 159.645 13.036Q159.587 13.2384 159.518 13.4368Q159.45 13.6352 159.373 13.8292Q159.295 14.0231 159.208 14.2122Q159.122 14.4014 159.026 14.5853Q158.93 14.7692 158.825 14.9475Q158.721 15.1258 158.608 15.2982Q158.494 15.4705 158.373 15.6366Q158.251 15.8026 158.121 15.962Q157.992 16.1214 157.854 16.2739Q157.717 16.4263 157.571 16.5714Q157.426 16.7166 157.274 16.8541Q157.121 16.9917 156.962 17.1214Q156.803 17.2511 156.637 17.3727Q156.471 17.4943 156.298 17.6075Q156.126 17.7207 155.948 17.8253Q155.769 17.9299 155.585 18.0257Q155.401 18.1215 155.212 18.2082Q155.023 18.295 154.829 18.3726Q154.635 18.4502 154.437 18.5184Q154.238 18.5867 154.036 18.6454Q153.834 18.7041 153.628 18.7533Q153.421 18.8024 153.212 18.8419Q153.003 18.8813 152.791 18.9109Q152.579 18.9406 152.365 18.9604Q152.15 18.9802 151.934 18.9901Q151.718 19 151.5 19L8.5 19Q8.28228 19 8.06603 18.9901Q7.84977 18.9802 7.63541 18.9604Q7.42106 18.9406 7.20904 18.9109Q6.99703 18.8813 6.78778 18.8419Q6.57854 18.8024 6.37249 18.7533Q6.16645 18.7041 5.96402 18.6454Q5.76159 18.5867 5.5632 18.5184Q5.3648 18.4502 5.17085 18.3726Q4.97689 18.295 4.78776 18.2082Q4.59863 18.1215 4.41473 18.0257Q4.23082 17.9299 4.0525 17.8253Q3.87419 17.7207 3.70183 17.6075Q3.52947 17.4943 3.36343 17.3727Q3.19738 17.2511 3.03798 17.1214Q2.87857 16.9917 2.72615 16.8541Q2.57372 16.7166 2.42857 16.5714Q2.28343 16.4263 2.14586 16.2739Q2.0083 16.1214 1.87859 15.962Q1.74889 15.8026 1.62731 15.6366Q1.50573 15.4705 1.39252 15.2982Q1.27931 15.1258 1.17471 14.9475Q1.0701 14.7692 0.974319 14.5853Q0.878533 14.4014 0.79176 14.2122Q0.704987 14.0231 0.627403 13.8292Q0.54982 13.6352 0.481585 13.4368Q0.41335 13.2384 0.354602 13.036Q0.295854 12.8336 0.246713 12.6275Q0.197572 12.4215 0.158138 12.2122Q0.118704 12.003 0.0890586 11.791Q0.0594128 11.5789 0.0396153 11.3646Q0.0198178 11.1502 0.00990888 10.934Q0 10.7177 0 10.5L0 8.5Q0 8.28228 0.00990888 8.06603Q0.0198178 7.84977 0.0396153 7.63541Q0.0594128 7.42106 0.0890586 7.20904Q0.118704 6.99703 0.158138 6.78778Q0.197572 6.57854 0.246713 6.37249Q0.295854 6.16645 0.354602 5.96402Q0.41335 5.76159 0.481585 5.5632Q0.54982 5.3648 0.627403 5.17085Q0.704987 4.97689 0.79176 4.78776Q0.878533 4.59863 0.974319 4.41473Q1.0701 4.23082 1.17471 4.0525Q1.27931 3.87419 1.39252 3.70183Q1.50573 3.52947 1.62731 3.36343Q1.74889 3.19738 1.87859 3.03798Q2.0083 2.87857 2.14586 2.72615Q2.28343 2.57372 2.42857 2.42857Q2.57372 2.28343 2.72615 2.14586Q2.87857 2.0083 3.03798 1.87859Q3.19738 1.74889 3.36343 1.62731Q3.52947 1.50573 3.70183 1.39252Q3.87419 1.27931 4.0525 1.17471Q4.23082 1.0701 4.41473 0.974319Q4.59863 0.878533 4.78776 0.79176Q4.97689 0.704987 5.17084 0.627403Q5.3648 0.54982 5.5632 0.481585Q5.76159 0.41335 5.96402 0.354602Q6.16645 0.295854 6.37249 0.246713Q6.57854 0.197572 6.78778 0.158138Q6.99703 0.118704 7.20904 0.0890586Q7.42106 0.0594128 7.63541 0.0396153Q7.84977 0.0198178 8.06603 0.00990888Q8.28228 0 8.5 0Z"/>
  </g>
  <defs>
    <clipPath id="clip_7">
      <rect x="-369" y="-308" width="1200" height="1270" clip-rule="evenodd"/>
    </clipPath>
  </defs>
  <g clip-path="url(#clip_7)">
    <path fill="rgb(0,0,0)" stroke="none" transform="translate(62 496)"
          d="M0 35.5C0 15.9218 15.9218 0 35.5 0C55.0782 0 71 15.9218 71 35.5C71 55.0782 55.0782 71 35.5 71C15.9218 71 0 55.0782 0 35.5ZM17.75 35.5C17.75 45.2891 25.7109 53.25 35.5 53.25C45.2891 53.25 53.25 45.2891 53.25 35.5C53.25 25.7109 45.2891 17.75 35.5 17.75C25.7109 17.75 17.75 25.7109 17.75 35.5Z"
          fill-rule="evenodd"/>
  </g>
</svg>
