<?xml version="1.0" encoding="utf-8" ?>
<svg xmlns="http://www.w3.org/2000/svg" width="615" height="616">
  <defs>
    <clipPath id="clip_0">
      <rect x="-426" y="-128" width="4000" height="870" clip-rule="evenodd"/>
    </clipPath>
  </defs>
  <g clip-path="url(#clip_0)">
    <path fill="rgb(1,13,40)" stroke="none" transform="translate(75 75)"
          d="M0 230C0 103.178 102.953 0 229.5 0C356.048 0 459 103.178 459 230C459 356.822 356.047 460 229.5 460C102.953 460 0 356.822 0 230ZM21.1651 230C21.1651 345.127 114.624 438.789 229.5 438.789C344.376 438.789 437.835 345.127 437.835 230C437.835 114.873 344.376 21.2112 229.5 21.2112C114.624 21.2112 21.1651 114.873 21.1651 230Z"
          fill-rule="evenodd"/>
  </g>
  <defs>
    <clipPath id="clip_1">
      <rect x="-426" y="-128" width="4000" height="870" clip-rule="evenodd"/>
    </clipPath>
  </defs>
  <g clip-path="url(#clip_1)">
    <path fill="rgb(1,13,40)" stroke="none" transform="translate(0 181)"
          d="M302.517 413.477C256.226 413.141 210.119 400.961 169.185 378.252C107.406 343.981 60.5502 287.9 37.2494 220.34C14.1164 153.27 15.9201 80.2933 42.3284 14.855C44.5464 9.35808 41.9724 3.07022 36.5779 0.811298C31.1833 -1.44884 25.0138 1.17525 22.7957 6.67091C-5.58535 76.9996 -7.52957 155.416 17.3238 227.476C42.3617 300.071 92.7066 360.329 159.086 397.154C203.064 421.551 252.61 434.638 302.364 435C302.392 435 302.417 435 302.442 435C308.239 435 312.958 430.232 313 424.316C313.043 418.371 308.348 413.521 302.517 413.477C256.226 413.141 210.119 400.961 169.185 378.252C107.406 343.981 60.5502 287.9 37.2494 220.34C14.1164 153.27 15.9201 80.2933 42.3284 14.855C44.5464 9.35808 41.9724 3.07022 36.5779 0.811298C31.1833 -1.44884 25.0138 1.17525 22.7957 6.67091C-5.58535 76.9996 -7.52957 155.416 17.3238 227.476C42.3617 300.071 92.7066 360.329 159.086 397.154C203.064 421.551 252.61 434.638 302.364 435C302.392 435 302.417 435 302.442 435C308.239 435 312.958 430.232 313 424.316C313.043 418.371 308.348 413.521 302.517 413.477Z"/>
  </g>
  <defs>
    <clipPath id="clip_2">
      <rect x="-426" y="-128" width="4000" height="870" clip-rule="evenodd"/>
    </clipPath>
  </defs>
  <g clip-path="url(#clip_2)">
    <path fill="rgb(1,13,40)" stroke="none" transform="translate(411 17)"
          d="M16.2531 1.34418C15.8206 1.17253 15.3881 1.00088 14.9703 0.829231L14.8265 0.772418C13.5449 0.257473 12.1902 0 10.8208 0C6.36922 0 2.4354 2.65934 0.77854 6.74747C0.274172 8.00582 0.0146792 9.33549 5.98307e-05 10.6785C-0.0145595 15.1099 2.65103 19.0409 6.80049 20.6848L8.12597 21.2143C9.43684 21.7437 10.7916 22 12.1889 22C16.6125 22 20.5451 19.3697 22.202 15.3105C23.2826 12.6512 23.268 9.7356 22.1447 7.10527C21.0227 4.46044 18.9333 2.41637 16.2531 1.34418C15.8206 1.17253 15.3881 1.00088 14.9703 0.829231L14.8265 0.772418C13.5449 0.257473 12.1902 0 10.8208 0C6.36922 0 2.4354 2.65934 0.77854 6.74747C0.274172 8.00582 0.0146792 9.33549 5.98307e-05 10.6785C-0.0145595 15.1099 2.65103 19.0409 6.80049 20.6848L8.12597 21.2143C9.43684 21.7437 10.7916 22 12.1889 22C16.6125 22 20.5451 19.3697 22.202 15.3105C23.2826 12.6512 23.268 9.7356 22.1447 7.10527C21.0227 4.46044 18.9333 2.41637 16.2531 1.34418Z"/>
  </g>
  <defs>
    <clipPath id="clip_3">
      <rect x="-426" y="-128" width="4000" height="870" clip-rule="evenodd"/>
    </clipPath>
  </defs>
  <g clip-path="url(#clip_3)">
    <path fill="rgb(1,13,40)" stroke="none" transform="translate(290 0)"
          d="M11.528 0.00128875L10.8143 0.0161494C10.5532 0.0161494 10.306 0.03101 10.06 0.03101C7.35613 0.104075 4.81705 1.27559 2.93711 3.32636C1.04325 5.39075 0 8.10034 0 10.9858C0 11.0737 0 11.1616 0 11.2644C0.0545414 14.1499 1.15233 16.8595 3.1019 18.8805C5.03638 20.8867 7.58938 22 10.2932 22C10.3617 22 10.4441 22 10.5126 22L10.5404 22C10.993 21.9851 11.4328 21.9703 11.8854 21.9703C14.6299 21.9121 17.1968 20.7257 19.1034 18.6167C21.0251 16.5078 22.0405 13.7251 21.9988 10.7963C21.9442 7.89725 20.8592 5.17279 18.9108 3.15175C16.9345 1.07002 14.3142 -0.0432932 11.528 0.00128875L10.8143 0.0161494C10.5532 0.0161494 10.306 0.03101 10.06 0.03101C7.35613 0.104075 4.81705 1.27559 2.93711 3.32636C1.04325 5.39075 0 8.10034 0 10.9858C0 11.0737 0 11.1616 0 11.2644C0.0545414 14.1499 1.15233 16.8595 3.1019 18.8805C5.03638 20.8867 7.58938 22 10.2932 22C10.3617 22 10.4441 22 10.5126 22L10.5404 22C10.993 21.9851 11.4328 21.9703 11.8854 21.9703C14.6299 21.9121 17.1968 20.7257 19.1034 18.6167C21.0251 16.5078 22.0405 13.7251 21.9988 10.7963C21.9442 7.89725 20.8592 5.17279 18.9108 3.15175C16.9345 1.07002 14.3142 -0.0432932 11.528 0.00128875Z"/>
  </g>
  <defs>
    <clipPath id="clip_4">
      <rect x="-426" y="-128" width="4000" height="870" clip-rule="evenodd"/>
    </clipPath>
  </defs>
  <g clip-path="url(#clip_4)">
    <path fill="rgb(1,13,40)" stroke="none" transform="translate(174 22)"
          d="M11.6523 0C10.2033 0 8.79624 0.313459 7.47203 0.912648C7.20952 1.04044 6.94818 1.15498 6.69967 1.26951C6.50599 1.35511 6.31349 1.45517 6.11981 1.54077C0.904637 3.95079 -1.42761 10.2947 0.904637 15.6693C2.57419 19.5189 6.28549 22 10.3561 22C11.8192 22 13.2402 21.6721 14.5784 21.0584C14.5924 21.0584 14.5924 21.0584 14.5924 21.044C15.0066 20.8583 15.4068 20.6738 15.821 20.4882L15.835 20.4737C21.0502 18.0926 23.4232 11.7619 21.119 6.37286C19.4611 2.51008 15.7358 0 11.6523 0C10.2033 0 8.79624 0.313459 7.47203 0.912648C7.20952 1.04044 6.94818 1.15498 6.69967 1.26951C6.50599 1.35511 6.31349 1.45517 6.11981 1.54077C0.904637 3.95079 -1.42761 10.2947 0.904637 15.6693C2.57419 19.5189 6.28549 22 10.3561 22C11.8192 22 13.2402 21.6721 14.5784 21.0584C14.5924 21.0584 14.5924 21.0584 14.5924 21.044C15.0066 20.8583 15.4068 20.6738 15.821 20.4882L15.835 20.4737C21.0502 18.0926 23.4232 11.7619 21.119 6.37286C19.4611 2.51008 15.7358 0 11.6523 0Z"/>
  </g>
  <defs>
    <clipPath id="clip_5">
      <rect x="-426" y="-128" width="4000" height="870" clip-rule="evenodd"/>
    </clipPath>
  </defs>
  <g clip-path="url(#clip_5)">
    <path fill="rgb(1,13,40)" stroke="none" transform="translate(498 511)"
          d="M11.5187 0C8.82225 0 6.25101 1.03617 4.29422 2.89891C3.97281 3.2068 3.65141 3.50048 3.33 3.80956L3.28864 3.85101C-0.917982 7.82872 -1.11295 14.4946 2.84198 18.7091C4.85431 20.8383 7.55081 22 10.4718 22C13.1553 22 15.7124 20.9922 17.668 19.1437L18.7574 18.1075C20.8537 16.1193 21.9999 13.4158 21.9999 10.5168C22.014 7.8003 20.9801 5.22349 19.1214 3.26246C17.1221 1.16288 14.4256 0 11.5187 0C8.82225 0 6.25101 1.03617 4.29422 2.89891C3.97281 3.2068 3.65141 3.50048 3.33 3.80956L3.28864 3.85101C-0.917982 7.82872 -1.11295 14.4946 2.84198 18.7091C4.85431 20.8383 7.55081 22 10.4718 22C13.1553 22 15.7124 20.9922 17.668 19.1437L18.7574 18.1075C20.8537 16.1193 21.9999 13.4158 21.9999 10.5168C22.014 7.8003 20.9801 5.22349 19.1214 3.26246C17.1221 1.16288 14.4256 0 11.5187 0Z"/>
  </g>
  <defs>
    <clipPath id="clip_6">
      <rect x="-426" y="-128" width="4000" height="870" clip-rule="evenodd"/>
    </clipPath>
  </defs>
  <g clip-path="url(#clip_6)">
    <path fill="rgb(1,13,40)" stroke="none" transform="translate(400 575)"
          d="M11.0823 0C9.77257 0 8.47634 0.233779 7.23919 0.702575L7.09394 0.760711C4.35745 1.78489 2.18844 3.8184 0.979609 6.49511C-0.229224 9.15698 -0.316624 12.1417 0.702636 14.8914C2.28938 19.1476 6.39473 22 10.9223 22C12.2321 22 13.5283 21.7662 14.7655 21.2974L14.9255 21.2393C19.1478 19.6449 21.9865 15.5346 22 11.0148C22 9.68391 21.7673 8.36658 21.3008 7.10862C19.7153 2.85236 15.5952 0 11.0823 0C9.77257 0 8.47634 0.233779 7.23919 0.702575L7.09394 0.760711C4.35745 1.78489 2.18844 3.8184 0.979609 6.49511C-0.229224 9.15698 -0.316624 12.1417 0.702636 14.8914C2.28938 19.1476 6.39473 22 10.9223 22C12.2321 22 13.5283 21.7662 14.7655 21.2974L14.9255 21.2393C19.1478 19.6449 21.9865 15.5346 22 11.0148C22 9.68391 21.7673 8.36658 21.3008 7.10862C19.7153 2.85236 15.5952 0 11.0823 0Z"/>
  </g>
  <defs>
    <clipPath id="clip_7">
      <rect x="-426" y="-128" width="4000" height="870" clip-rule="evenodd"/>
    </clipPath>
  </defs>
  <g clip-path="url(#clip_7)">
    <path fill="rgb(1,13,40)" stroke="none" transform="translate(506 81)"
          d="M19.623 3.93001C19.3015 3.62251 18.98 3.31502 18.6573 3.02054C16.5961 1.07623 13.8611 0 10.9666 0C7.99789 0 5.23443 1.10461 3.15843 3.1187C1.12572 5.0772 0.014152 7.67788 0.000551136 10.4335C-0.0291236 13.2731 1.14055 15.9436 3.26106 17.9576L4.29967 18.9369C6.36083 20.9084 9.11069 22 12.0349 22C14.9739 22 17.7374 20.9096 19.7998 18.9085C24.0692 14.8106 24.0692 8.16751 19.7849 4.08257L19.623 3.93001C19.3015 3.62251 18.98 3.31502 18.6573 3.02054C16.5961 1.07623 13.8611 0 10.9666 0C7.99789 0 5.23443 1.10461 3.15843 3.1187C1.12572 5.0772 0.014152 7.67788 0.000551136 10.4335C-0.0291236 13.2731 1.14055 15.9436 3.26106 17.9576L4.29967 18.9369C6.36083 20.9084 9.11069 22 12.0349 22C14.9739 22 17.7374 20.9096 19.7998 18.9085C24.0692 14.8106 24.0692 8.16751 19.7849 4.08257L19.623 3.93001Z"/>
  </g>
  <defs>
    <clipPath id="clip_8">
      <rect x="-426" y="-128" width="4000" height="870" clip-rule="evenodd"/>
    </clipPath>
  </defs>
  <g clip-path="url(#clip_8)">
    <path fill="rgb(1,13,40)" stroke="none" transform="translate(574 181)"
          d="M21.1103 7.52604C20.9531 7.15423 20.796 6.78125 20.6389 6.40943C18.9661 2.52228 15.0791 0 10.7195 0C9.31872 0 7.9469 0.262252 6.6464 0.785589C2.60106 2.38474 -0.0144437 6.14718 6.00131e-05 10.3793C6.00131e-05 11.7162 0.272005 13.0263 0.800183 14.2805L0.942803 14.5975C1.07092 14.9145 1.21475 15.2316 1.34286 15.5486C3.00113 19.4637 6.88813 22 11.2767 22C12.663 22 14.0216 21.7517 15.3076 21.2424C20.7815 19.0919 23.4405 13.0543 21.2106 7.77547L21.1103 7.52604C20.9531 7.15423 20.796 6.78125 20.6389 6.40943C18.9661 2.52228 15.0791 0 10.7195 0C9.31872 0 7.9469 0.262252 6.6464 0.785589C2.60106 2.38474 -0.0144437 6.14718 6.00131e-05 10.3793C6.00131e-05 11.7162 0.272005 13.0263 0.800183 14.2805L0.942803 14.5975C1.07092 14.9145 1.21475 15.2316 1.34286 15.5486C3.00113 19.4637 6.88813 22 11.2767 22C12.663 22 14.0216 21.7517 15.3076 21.2424C20.7815 19.0919 23.4405 13.0543 21.2106 7.77547L21.1103 7.52604Z"/>
  </g>
  <defs>
    <clipPath id="clip_9">
      <rect x="-426" y="-128" width="4000" height="870" clip-rule="evenodd"/>
    </clipPath>
  </defs>
  <g clip-path="url(#clip_9)">
    <path fill="rgb(1,13,40)" stroke="none" transform="translate(593 296)"
          d="M11.096 0L11.008 0C4.99832 0 0.0594254 4.56989 0.0160474 10.197C0.0160474 10.6495 0.00117496 11.1033 0.00117496 11.5698C-0.0868203 17.2375 4.77895 21.9176 10.8469 22C10.8915 22 10.9498 22 10.9932 22C16.9731 22 21.8984 17.444 21.9851 11.8448L22 10.3768C22 10.3362 22 10.2805 22 10.2399C21.9715 4.63952 17.0909 0.0417766 11.096 0L11.008 0C4.99832 0 0.0594254 4.56989 0.0160474 10.197C0.0160474 10.6495 0.00117496 11.1033 0.00117496 11.5698C-0.0868203 17.2375 4.77895 21.9176 10.8469 22C10.8915 22 10.9498 22 10.9932 22C16.9731 22 21.8984 17.444 21.9851 11.8448L22 10.3768C22 10.3362 22 10.2805 22 10.2399C21.9715 4.63952 17.0909 0.0417766 11.096 0Z"/>
  </g>
  <defs>
    <clipPath id="clip_10">
      <rect x="-426" y="-128" width="4000" height="870" clip-rule="evenodd"/>
    </clipPath>
  </defs>
  <g clip-path="url(#clip_10)">
    <path fill="rgb(1,13,40)" stroke="none" transform="translate(563 412)"
          d="M15.5669 0.868943C14.2125 0.289259 12.7712 0 11.3022 0C7.03762 0 3.18667 2.4412 1.48974 6.22023L1.37516 6.46867C1.21837 6.79992 1.07606 7.14399 0.919271 7.47524C-0.236134 9.99926 -0.307292 12.8137 0.733538 15.3925C1.7611 17.9714 3.7716 19.9997 6.38152 21.1171C7.76487 21.6967 9.20611 22 10.7028 22C14.9385 22 18.775 19.5728 20.4876 15.8346C20.7011 15.3797 20.9013 14.9377 21.1015 14.4828C21.7009 13.1589 22 11.7651 22 10.3445C21.9855 6.23423 19.4745 2.51002 15.5669 0.868943C14.2125 0.289259 12.7712 0 11.3022 0C7.03762 0 3.18667 2.4412 1.48974 6.22023L1.37516 6.46867C1.21837 6.79992 1.07606 7.14399 0.919271 7.47524C-0.236134 9.99926 -0.307292 12.8137 0.733538 15.3925C1.7611 17.9714 3.7716 19.9997 6.38152 21.1171C7.76487 21.6967 9.20611 22 10.7028 22C14.9385 22 18.775 19.5728 20.4876 15.8346C20.7011 15.3797 20.9013 14.9377 21.1015 14.4828C21.7009 13.1589 22 11.7651 22 10.3445C21.9855 6.23423 19.4745 2.51002 15.5669 0.868943Z"/>
  </g>
  <defs>
    <clipPath id="clip_11">
      <rect x="-426" y="-128" width="4000" height="870" clip-rule="evenodd"/>
    </clipPath>
  </defs>
  <g clip-path="url(#clip_11)">
    <path fill="rgb(1,13,40)" stroke="none" transform="translate(400 575)"
          d="M21.3146 7.04617C19.2418 1.42668 13.0908 -1.41431 7.57933 0.69866L6.95052 0.937657C1.42947 3.03102 -1.38155 9.28783 0.672006 14.9159C2.26989 19.295 6.34094 22 10.6693 22C11.9053 22 13.1605 21.7794 14.3845 21.3149L15.0878 21.0465C20.6004 18.9335 23.3874 12.6644 21.3146 7.04617C19.2418 1.42668 13.0908 -1.41431 7.57933 0.69866L6.95052 0.937657C1.42947 3.03102 -1.38155 9.28783 0.672006 14.9159C2.26989 19.295 6.34094 22 10.6693 22C11.9053 22 13.1605 21.7794 14.3845 21.3149L15.0878 21.0465C20.6004 18.9335 23.3874 12.6644 21.3146 7.04617Z"/>
  </g>
  <defs>
    <clipPath id="clip_12">
      <rect x="-426" y="-128" width="4000" height="870" clip-rule="evenodd"/>
    </clipPath>
  </defs>
  <g clip-path="url(#clip_12)">
    <path fill="rgb(1,13,40)" stroke="none" transform="translate(290 151)"
          d="M118.928 249.807L20.8759 150.169L21.297 10.681C21.3146 4.80087 16.6584 0.0192083 10.8979 0C10.8884 0 10.8767 0 10.8661 0C5.12082 0 0.45286 4.74565 0.435219 10.615L5.95056e-05 154.546C-0.00934934 157.39 1.09737 160.119 3.07087 162.125L104.208 264.898C106.244 266.966 108.906 268 111.568 268C114.246 268 116.923 266.953 118.962 264.864C123.025 260.698 123.011 253.956 118.928 249.807L20.8759 150.169L21.297 10.681C21.3146 4.80087 16.6584 0.0192083 10.8979 0C10.8884 0 10.8767 0 10.8661 0C5.12082 0 0.45286 4.74565 0.435219 10.615L5.95056e-05 154.546C-0.00934934 157.39 1.09737 160.119 3.07087 162.125L104.208 264.898C106.244 266.966 108.906 268 111.568 268C114.246 268 116.923 266.953 118.962 264.864C123.025 260.698 123.011 253.956 118.928 249.807Z"/>
  </g>
  <defs>
    <clipPath id="clip_13">
      <rect x="-426" y="-128" width="4000" height="870" clip-rule="evenodd"/>
    </clipPath>
  </defs>
  <g clip-path="url(#clip_13)">
    <path fill="rgb(1,13,40)" stroke="none" transform="translate(348 209)"
          d="M17.6901 1.75839C12.3622 -1.54076 5.26298 -0.0629917 1.82918 5.06501C-1.60334 10.1918 -0.0636866 17.0254 5.26427 20.327C34.559 38.4773 52.0489 69.3013 52.0489 102.778C52.0489 112.322 50.6296 121.75 47.8259 130.804C46.0171 136.649 49.4742 142.796 55.5487 144.538C56.6407 144.852 57.7443 145 58.8285 145C63.7722 145 68.3381 141.899 69.8221 137.108C73.2572 126.007 75 114.457 75 102.777C75.0013 61.7569 53.5769 23.9934 17.6901 1.75839C12.3622 -1.54076 5.26298 -0.0629917 1.82918 5.06501C-1.60334 10.1918 -0.0636866 17.0254 5.26427 20.327C34.559 38.4773 52.0489 69.3013 52.0489 102.778C52.0489 112.322 50.6296 121.75 47.8259 130.804C46.0171 136.649 49.4742 142.796 55.5487 144.538C56.6407 144.852 57.7443 145 58.8285 145C63.7722 145 68.3381 141.899 69.8221 137.108C73.2572 126.007 75 114.457 75 102.777C75.0013 61.7569 53.5769 23.9934 17.6901 1.75839Z"/>
  </g>
  <defs>
    <clipPath id="clip_14">
      <rect x="-426" y="-128" width="4000" height="870" clip-rule="evenodd"/>
    </clipPath>
  </defs>
  <g clip-path="url(#clip_14)">
    <path fill="rgb(1,13,40)" stroke="none" transform="translate(191 209)"
          d="M150.757 199.86C149.505 194.141 143.756 190.496 137.908 191.725C131.302 193.112 124.488 193.816 117.66 193.816C64.7132 193.816 21.6402 151.653 21.6402 99.8252C21.6402 66.8577 38.8055 36.8746 67.5619 19.6242C72.6566 16.567 74.256 10.0442 71.1328 5.05832C68.0109 0.0712814 61.3485 -1.49433 56.2526 1.56286C21.029 22.6957 0 59.4309 0 99.8252C0 163.334 52.7817 215 117.661 215C126.013 215 134.352 214.137 142.447 212.437C148.291 211.21 152.011 205.579 150.757 199.86C149.505 194.141 143.756 190.496 137.908 191.725C131.302 193.112 124.488 193.816 117.66 193.816C64.7132 193.816 21.6402 151.653 21.6402 99.8252C21.6402 66.8577 38.8055 36.8746 67.5619 19.6242C72.6566 16.567 74.256 10.0442 71.1328 5.05832C68.0109 0.0712814 61.3485 -1.49433 56.2526 1.56286C21.029 22.6957 0 59.4309 0 99.8252C0 163.334 52.7817 215 117.661 215C126.013 215 134.352 214.137 142.447 212.437C148.291 211.21 152.011 205.579 150.757 199.86Z"/>
  </g>
</svg>
