<?xml version="1.0" encoding="UTF-8"?>
<svg width="12px" height="9px" viewBox="0 0 12 9" version="1.1" xmlns="http://www.w3.org/2000/svg" xmlns:xlink="http://www.w3.org/1999/xlink">
    <!-- Generator: sketchtool 49 (51002) - http://www.bohemiancoding.com/sketch -->
    <title>C680E99D-E09E-4ECB-B4B7-AF38C72E9AAF</title>
    <desc>Created with sketchtool.</desc>
    <defs></defs>
    <g id="Page-1" stroke="none" stroke-width="1" fill="none" fill-rule="evenodd">
        <g id="block" transform="translate(-1084.000000, -15.000000)" fill="#848687" fill-rule="nonzero">
            <path d="M1095.83656,19.0699879 L1092.26556,15.1780908 C1092.04769,14.9406364 1091.69434,14.9406364 1091.47646,15.1780908 C1091.25854,15.4155938 1091.25854,15.8005997 1091.47646,16.0381028 L1094.09494,18.891885 L1084.55797,18.891885 C1084.24984,18.891885 1084,19.1641718 1084,19.4999939 C1084,19.8357673 1084.24984,20.1081028 1084.55797,20.1081028 L1094.09494,20.1081028 L1091.47655,22.9618851 C1091.25863,23.1993881 1091.25863,23.584394 1091.47655,23.8218971 C1091.58547,23.9405513 1091.72831,24 1091.8711,24 C1092.0139,24 1092.15669,23.9405513 1092.26565,23.8218971 L1095.83656,19.9299999 C1096.05448,19.6924969 1096.05448,19.307491 1095.83656,19.0699879 Z" id="arrow"></path>
        </g>
    </g>
</svg>