<svg xmlns="http://www.w3.org/2000/svg" width="10" height="8" viewBox="0 0 10 8">
    <g fill="#595C69" fill-rule="nonzero">
        <path d="M9.864 3.688L6.077.128A.478.478 0 0 0 5.747 0a.478.478 0 0 0-.329.128L5.14.39a.42.42 0 0 0 0 .619l3.18 2.99L5.137 6.99a.422.422 0 0 0 0 .62l.279.261a.478.478 0 0 0 .33.128.478.478 0 0 0 .328-.128L9.864 4.31a.422.422 0 0 0 0-.621z"/>
        <path d="M4.864 3.688L1.077.128A.478.478 0 0 0 .747 0a.478.478 0 0 0-.329.128L.14.39a.42.42 0 0 0 0 .619l3.18 2.99L.137 6.99a.422.422 0 0 0 0 .62l.279.261A.478.478 0 0 0 .745 8a.478.478 0 0 0 .328-.128L4.864 4.31a.422.422 0 0 0 0-.621z"/>
    </g>
</svg>
