<svg xmlns="http://www.w3.org/2000/svg" width="10" height="8" viewBox="0 0 10 8">
    <g fill="#595C69" fill-rule="nonzero">
        <path d="M.136 3.688L3.923.128A.478.478 0 0 1 4.253 0c.124 0 .241.045.329.128L4.86.39a.42.42 0 0 1 0 .619l-3.18 2.99L4.863 6.99a.422.422 0 0 1 0 .62l-.279.261a.478.478 0 0 1-.33.128.478.478 0 0 1-.328-.128L.136 4.31a.422.422 0 0 1 0-.621z"/>
        <path d="M5.136 3.688L8.923.128A.478.478 0 0 1 9.253 0c.124 0 .241.045.329.128L9.86.39a.42.42 0 0 1 0 .619l-3.18 2.99L9.863 6.99a.422.422 0 0 1 0 .62l-.279.261a.478.478 0 0 1-.33.128.478.478 0 0 1-.328-.128L5.136 4.31a.422.422 0 0 1 0-.621z"/>
    </g>
</svg>
