<?xml version="1.0" encoding="iso-8859-1"?>
<!-- Generator: Adobe Illustrator 19.0.0, SVG Export Plug-In . SVG Version: 6.00 Build 0)  -->

<svg version="1.1" id="Layer_1" xmlns="http://www.w3.org/2000/svg" xmlns:xlink="http://www.w3.org/1999/xlink" x="0px" y="0px"
	 viewBox="0 0 512 512" style="enable-background:new 0 0 512 512;" xml:space="preserve">
<g>
	<g>
		<g>
			<path d="M452.949,100.353h-19.943l-80.652-80.652c-4.66-4.66-11.979-5.325-17.407-1.585l-52.452,36.173L247.906,19.7
				c-4.661-4.66-11.984-5.326-17.407-1.585l-118.784,81.92c-0.145,0.1-0.273,0.213-0.412,0.317H59.051
				C26.49,100.353,0,126.843,0,159.403v277.845c0,32.56,26.49,59.051,59.051,59.051h393.899c32.56,0,59.051-26.49,59.051-59.051
				V159.403C512,126.843,485.51,100.353,452.949,100.353z M341.086,47.053l53.301,53.3H263.802L341.086,47.053z M236.638,47.053
				l23,23l-43.476,29.984c-0.145,0.1-0.273,0.213-0.412,0.317h-56.398L236.638,47.053z M484.693,352.939H367.275
				c-10.164,0-18.432-8.268-18.432-18.432v-72.363c0-10.164,8.268-18.432,18.432-18.432h117.419V352.939z M484.693,216.406H367.275
				c-25.22,0-45.739,20.518-45.739,45.739v72.363c0,25.22,20.518,45.739,45.739,45.739h117.419v57.003
				c0,17.504-14.24,31.744-31.744,31.744H59.051c-17.504,0-31.744-14.24-31.744-31.744V159.403c0-17.504,14.24-31.744,31.744-31.744
				h393.899c17.504,0,31.744,14.24,31.744,31.744V216.406z"/>
			<path d="M416.768,339.286c22.585,0,40.96-18.375,40.96-40.96s-18.375-40.96-40.96-40.96s-40.96,18.375-40.96,40.96
				S394.183,339.286,416.768,339.286z M416.768,284.673c7.528,0,13.653,6.125,13.653,13.653s-6.125,13.653-13.653,13.653
				s-13.653-6.125-13.653-13.653S409.24,284.673,416.768,284.673z"/>
			<path d="M88.064,190.465c-7.541,0-13.653,6.113-13.653,13.653v188.416c0,7.541,6.113,13.653,13.653,13.653
				c7.541,0,13.653-6.113,13.653-13.653V204.118C101.717,196.577,95.605,190.465,88.064,190.465z"/>
		</g>
	</g>
</g>
</svg>
