<?xml version="1.0" encoding="UTF-8"?>
<svg width="28px" height="28px" viewBox="0 0 28 28" version="1.1" xmlns="http://www.w3.org/2000/svg" xmlns:xlink="http://www.w3.org/1999/xlink">
    <defs></defs>
    <g id="Page-1" stroke="none" stroke-width="1" fill="none" fill-rule="evenodd">
        <g id="block" transform="translate(-1184.000000, -19.000000)">
            <g id="facebook" transform="translate(1185.000000, 20.000000)">
                <path class="svg-icon" d="M16.6987435,6.00291293 L14.7799073,6 C12.6241606,6 11.2310223,7.35232983 11.2310223,9.44541889 L11.2310223,11.0339877 L9.30171833,11.0339877 C9.13500356,11.0339877 9,11.1618655 9,11.3196009 L9,13.6212561 C9,13.7789915 9.1351575,13.9067237 9.30171833,13.9067237 L11.2310223,13.9067237 L11.2310223,19.7145324 C11.2310223,19.8722678 11.3660259,20 11.5327407,20 L14.0499336,20 C14.2166484,20 14.3516519,19.8721222 14.3516519,19.7145324 L14.3516519,13.9067237 L16.6074583,13.9067237 C16.7741731,13.9067237 16.9091766,13.7789915 16.9091766,13.6212561 L16.9101003,11.3196009 C16.9101003,11.2438646 16.8782351,11.1713326 16.8217399,11.1177346 C16.7652447,11.0641366 16.6882757,11.0339877 16.608228,11.0339877 L14.3516519,11.0339877 L14.3516519,9.6873381 C14.3516519,9.04008406 14.5146722,8.71150505 15.4058189,8.71150505 L16.6984356,8.71106811 C16.8649964,8.71106811 17,8.58319029 17,8.42560053 L17,6.28838051 C17,6.1309364 16.8651504,6.00320423 16.6987435,6.00291293 Z" id="facebook-copy" fill="#A7A8AF" fill-rule="nonzero"></path>
                <circle class="svg-circle" id="Oval-Copy" stroke="#6B6B6B" stroke-width="2" cx="13" cy="13" r="13"></circle>
            </g>
        </g>
    </g>
</svg>
