<?xml version="1.0" encoding="UTF-8"?>
<svg width="28px" height="28px" viewBox="0 0 28 28" version="1.1" xmlns="http://www.w3.org/2000/svg" xmlns:xlink="http://www.w3.org/1999/xlink">
    <!-- Generator: sketchtool 49 (51002) - http://www.bohemiancoding.com/sketch -->
    <title>4459A67C-5841-4222-8E4B-19349EFFF65F</title>
    <desc>Created with sketchtool.</desc>
    <defs></defs>
    <g id="Page-1" stroke="none" stroke-width="1" fill="none" fill-rule="evenodd">
        <g id="block" transform="translate(-1285.000000, -19.000000)">
            <g id="github" transform="translate(1286.000000, 20.000000)">
                <g id="Group-5" transform="translate(5.000000, 7.000000)" fill="#A5A5A5" fill-rule="nonzero">
                    <path d="M6.34961418,7.35432647 C6.11131177,7.11809666 5.82823018,7 5.50004104,7 C5.17176982,7 4.88864718,7.1182426 4.65038582,7.35432647 C4.41224758,7.5903009 4.24417173,7.85425807 4.14656871,8.14561424 C4.04876047,8.43755415 4,8.72219739 4,9.00012769 C4,9.27776612 4.0488836,9.56244585 4.14656871,9.85434927 C4.2440486,10.1458879 4.41204236,10.4096991 4.65038582,10.645637 C4.88877032,10.8818669 5.17176982,11 5.50004104,11 C5.82823018,11 6.1114349,10.881648 6.34961418,10.645637 C6.58783451,10.4096626 6.75582827,10.1458879 6.85343129,9.85434927 C6.9511164,9.56244585 7,9.27776612 7,9.00012769 C7,8.72245278 6.95123953,8.43755415 6.85343129,8.14561424 C6.75578723,7.85436752 6.58795764,7.5905198 6.34961418,7.35432647 Z" id="Shape"></path>
                    <path d="M11.3495731,7.35432647 C11.1113528,7.11809666 10.8281891,7 10.5000821,7 C10.1720982,7 9.88877032,7.1182426 9.65042686,7.35432647 C9.41220653,7.5903009 9.24425382,7.85425807 9.14677393,8.14561424 C9.0488836,8.43755415 9,8.72219739 9,9.00012769 C9,9.27776612 9.0488836,9.56244585 9.14677393,9.85434927 C9.24425382,10.1458879 9.41224758,10.4096991 9.65042686,10.645637 C9.88881136,10.8818669 10.1720982,11 10.5000821,11 C10.8281891,11 11.1113939,10.881648 11.3495731,10.645637 C11.5876703,10.4096626 11.7557462,10.1458879 11.8535134,9.85434927 C11.9511574,9.56244585 12,9.27776612 12,9.00012769 C12,8.72245278 11.9511574,8.43755415 11.8535134,8.14561424 C11.7557872,7.85436752 11.5876703,7.5905198 11.3495731,7.35432647 Z" id="Shape"></path>
                    <path d="M14.6919057,3.28982908 C14.8650115,2.82946973 14.9516655,2.35224466 14.9516655,1.85797477 C14.9516655,1.19886865 14.7880232,0.57952383 14.4611764,0 C13.7754212,0 13.1696517,0.110895798 12.6438679,0.332418737 C12.1183536,0.554001378 11.5190166,0.897733576 10.8461602,1.36361533 C10.0000968,1.18182384 9.10240483,1.09092809 8.15389246,1.09092809 C7.1153583,1.09092809 6.12495027,1.19042087 5.18270204,1.38925719 C4.49687951,0.911942567 3.89111001,0.561195426 3.36546092,0.336717256 C2.83981182,0.112239085 2.23087658,2.98508205e-05 1.53852048,2.98508205e-05 C1.21160634,0.57955368 1.04816612,1.19892836 1.04816612,1.85800462 C1.04816612,2.35803572 1.13465169,2.84099214 1.30775756,3.3068142 C0.435863056,4.21027913 0,5.3352073 0,6.68180767 C0,7.8637509 0.198633929,8.8039622 0.596137533,9.50291916 C0.807737563,9.87208426 1.08329246,10.1988015 1.42307166,10.4829813 C1.76271615,10.766982 2.15055411,10.9972512 2.58648452,11.1734308 C3.02248229,11.3494312 3.46147742,11.4958495 3.90384037,11.612208 C4.34616963,11.7286262 4.83490744,11.8139398 5.37018849,11.8677012 C5.90543587,11.9219103 6.37817654,11.957373 6.78841049,11.9745373 C7.19864445,11.9913731 7.65370407,12 8.15385878,12 C8.74349643,12 9.27857541,11.9871044 9.75956724,11.9617014 C10.2403907,11.9361789 10.7899176,11.8735519 11.4085858,11.7743576 C12.027153,11.6748649 12.5720661,11.5398198 13.0433249,11.3694313 C13.5144827,11.1990428 13.9665113,10.9546541 14.3991749,10.6365638 C14.8318385,10.3182645 15.1698664,9.94050234 15.4135955,9.50294901 C15.8043971,8.7983801 16,7.85795985 16,6.68183752 C15.9997643,5.32953565 15.5638675,4.19890597 14.6919057,3.28982908 Z M13.5384615,9.48993405 C13.333294,9.86220364 13.0736352,10.1545626 12.7595862,10.3678467 C12.4454024,10.5809517 12.0544324,10.7513402 11.5865414,10.8793405 C11.1184146,11.0071319 10.6699222,11.0908933 10.2403907,11.1305352 C9.8107244,11.1703561 9.33333614,11.1901771 8.80755233,11.1901771 L7.19214456,11.1901771 C6.66652915,11.1901771 6.18887147,11.1703561 5.75944094,11.1305352 C5.32997674,11.0908933 4.8812823,11.0071319 4.41329025,10.8793405 C3.9454666,10.7513402 3.55449656,10.5809517 3.24031279,10.3678467 C2.92612901,10.1545327 2.66653757,9.86220364 2.46140375,9.48993405 C2.25630361,9.11766447 2.15371986,8.68169324 2.15371986,8.1817517 C2.15371986,7.49975 2.37488449,6.92013662 2.81724744,6.44309065 C3.25957671,5.96577603 3.85887999,5.72720828 4.61522464,5.72720828 C4.89098161,5.72720828 5.51598135,5.78682037 6.49032489,5.90616395 C6.94541819,5.96864171 7.44867129,5.99989552 7.99988213,5.99989552 C8.55126135,5.99989552 9.0544471,5.96873127 9.50947304,5.90616395 C10.4968164,5.78679051 11.121614,5.72720828 11.384607,5.72720828 C12.1409179,5.72720828 12.7402212,5.96589544 13.1825505,6.44309065 C13.6249134,6.92034557 13.8459434,7.49975 13.8459434,8.1817517 C13.8459434,8.68178279 13.7433596,9.11799283 13.5384615,9.48993405 Z" id="Shape"></path>
                </g>
                <circle id="Oval-Copy" stroke="#6B6B6B" stroke-width="2" cx="13" cy="13" r="13"></circle>
            </g>
        </g>
    </g>
</svg>