<?xml version="1.0" encoding="UTF-8"?>
<svg width="28px" height="28px" viewBox="0 0 28 28" version="1.1" xmlns="http://www.w3.org/2000/svg" xmlns:xlink="http://www.w3.org/1999/xlink">
    <!-- Generator: sketchtool 49 (51002) - http://www.bohemiancoding.com/sketch -->
    <title>8F422F14-6B05-41FA-92EE-CAFF92A17B3E</title>
    <desc>Created with sketchtool.</desc>
    <defs></defs>
    <g id="Page-1" stroke="none" stroke-width="1" fill="none" fill-rule="evenodd">
        <g id="block" transform="translate(-1319.000000, -19.000000)">
            <g id="linkedin" transform="translate(1320.000000, 20.000000)">
                <path d="M20,12.9023895 L20,18 L17.0184115,18 L17.0184115,13.2414283 C17.0184115,12.0450292 16.5885069,11.2319127 15.5096597,11.2319127 C14.6846024,11.2319127 14.1979027,11.7824218 13.9806384,12.3122224 C13.9024105,12.5030129 13.8786513,12.7702061 13.8786513,13.0339671 L13.8786513,17.9993943 L10.9,17.9993943 C10.9,17.9993943 10.9399864,9.94298804 10.9,9.10861491 L13.879262,9.10861491 L13.879262,10.368784 C13.8752198,10.3791383 13.8665246,10.3877332 13.8624532,10.3992412 L13.879262,10.3992412 L13.879262,10.368784 C14.2772938,9.7631287 14.982421,8.9 16.565911,8.9 C18.5312346,8.90002884 20,10.1705522 20,12.9023895 Z M8.30763201,5 C7.51748831,5 7,5.56082258 7,6.30048784 C7,7.02022478 7.5022243,7.6 8.2779833,7.6 L8.29191706,7.6 C9.09957942,7.6 9.6,7.02022478 9.6,6.30048784 C9.58428506,5.56082258 9.09960197,5 8.30763201,5 Z M7,18 L9.6,18 L9.6,8.9 L7,8.9 L7,18 Z" id="linkedin-copy" fill="#A5A5A5" fill-rule="nonzero"></path>
                <circle id="Oval-Copy-2" stroke="#6B6B6B" stroke-width="2" cx="13" cy="13" r="13"></circle>
            </g>
        </g>
    </g>
</svg>