<?xml version="1.0" encoding="UTF-8"?>
<svg width="28px" height="28px" viewBox="0 0 28 28" version="1.1" xmlns="http://www.w3.org/2000/svg" xmlns:xlink="http://www.w3.org/1999/xlink">
    <!-- Generator: sketchtool 49 (51002) - http://www.bohemiancoding.com/sketch -->
    <title>D41A5832-9EF0-472C-9D39-AE0AFFC002A3</title>
    <desc>Created with sketchtool.</desc>
    <defs></defs>
    <g id="Page-1" stroke="none" stroke-width="1" fill="none" fill-rule="evenodd">
        <g id="block" transform="translate(-1218.000000, -19.000000)">
            <g id="telegram" transform="translate(1219.000000, 20.000000)">
                <path d="M21,9.30147309 C20.4847214,9.52232765 19.9318349,9.67210869 19.3509254,9.73897799 C19.9440734,9.39540432 20.3981134,8.85044828 20.6133066,8.20308618 C20.05692,8.52125749 19.442772,8.7522907 18.7883853,8.87753234 C18.2643681,8.33680266 17.5190041,8 16.6922707,8 C15.1061963,8 13.8201843,9.24394159 13.8201843,10.7772887 C13.8201843,10.9947578 13.8455537,11.2071597 13.8945537,11.410268 C11.5080074,11.2943199 9.39178495,10.1883211 7.97542643,8.50771546 C7.72784106,8.91729546 7.58699442,9.39454135 7.58699442,9.90398275 C7.58699442,10.8678345 8.09440375,11.7182827 8.86426775,12.2158417 C8.39359705,12.200618 7.95092639,12.0753763 7.56338654,11.8672008 L7.56338654,11.9018967 C7.56338654,13.2473814 8.55370515,14.3703077 9.86682495,14.6258803 C9.62623959,14.6885011 9.37254636,14.7231971 9.11009168,14.7231971 C8.92463713,14.7231971 8.74529043,14.7054287 8.56944374,14.6715736 C8.93511427,15.7758907 9.995433,16.5789419 11.2517063,16.6009587 C10.269257,17.3456376 9.03048371,17.7882097 7.68499458,17.7882097 C7.45317068,17.7882097 7.2248239,17.7746676 7,17.7501282 C8.2711426,18.5396595 9.78023984,19 11.4021837,19 C16.6853165,19 19.5731643,14.7672087 19.5731643,11.096323 L19.5635336,10.7366848 C20.1277894,10.3473957 20.6159373,9.85828946 21,9.30147309 Z" id="twitter-copy" fill="#A5A5A5" fill-rule="nonzero"></path>
                <circle id="Oval-Copy-2" stroke="#6B6B6B" stroke-width="2" cx="13" cy="13" r="13"></circle>
            </g>
        </g>
    </g>
</svg>