<?xml version="1.0" encoding="UTF-8"?>
<svg width="28px" height="28px" viewBox="0 0 28 28" version="1.1" xmlns="http://www.w3.org/2000/svg" xmlns:xlink="http://www.w3.org/1999/xlink">
    <!-- Generator: sketchtool 49 (51002) - http://www.bohemiancoding.com/sketch -->
    <title>D6DC7D14-25D2-406A-AAA4-DFA848CF05D7</title>
    <desc>Created with sketchtool.</desc>
    <defs></defs>
    <g id="Page-1" stroke="none" stroke-width="1" fill="none" fill-rule="evenodd">
        <g id="block" transform="translate(-1150.000000, -19.000000)">
            <g id="twitter" transform="translate(1151.000000, 20.000000)">
                <circle id="Oval" stroke="#6B6B6B" stroke-width="2" cx="13" cy="13" r="13"></circle>
                <path d="M5.24728162,12.27446 L8.47316584,13.3609837 L9.72178081,16.9847084 C9.80167424,17.2167949 10.1161613,17.3025798 10.3249016,17.1485714 L12.123064,15.8257078 C12.3115509,15.6871128 12.5800245,15.6802063 12.7770048,15.8092415 L16.0202491,17.9341532 C16.2435493,18.0806233 16.5599031,17.9702022 16.6159032,17.726703 L18.9917529,7.41353019 C19.0528864,7.14754247 18.7632726,6.92564739 18.4826189,7.02360297 L5.24350161,11.6325267 C4.91678785,11.7462327 4.91963452,12.1636599 5.24728162,12.27446 Z M9.31174802,12.2832192 L15.8254763,9.01480839 C15.942542,8.95624119 16.0629826,9.085199 15.9624547,9.16116745 L10.5867412,13.2321962 C10.3977873,13.3754914 10.2759002,13.5672587 10.2413783,13.775406 L10.0582584,14.8809943 C10.0340063,15.0286104 9.77948018,15.043262 9.72948139,14.9003989 L9.02520723,12.8843283 C8.94454381,12.6543804 9.06209159,12.4087596 9.31174802,12.2832192 Z" id="telegram-copy" fill="#A5A5A5" fill-rule="nonzero"></path>
            </g>
        </g>
    </g>
</svg>