<?xml version="1.0" encoding="UTF-8"?>
<!DOCTYPE svg PUBLIC "-//W3C//DTD SVG 1.1//EN" "http://www.w3.org/Graphics/SVG/1.1/DTD/svg11.dtd">
<!-- Creator: CorelDRAW X8 -->
<svg xmlns="http://www.w3.org/2000/svg" xml:space="preserve" width="20px" height="20px" version="1.1" shape-rendering="geometricPrecision" text-rendering="geometricPrecision" image-rendering="optimizeQuality" fill-rule="evenodd" clip-rule="evenodd"
viewBox="0 0 21829 21828"
 >
 <g id="Слой_x0020_1">
  <metadata id="CorelCorpID_0Corel-Layer"/>
  <g id="_747736896">
   <g>
    <path fill="#232531" fill-rule="nonzero" d="M10914 21828l0 -1726 0 0 475 -13 465 -35 459 -59 455 -81 444 -102 435 -124 426 -144 417 -164 407 -185 397 -203 384 -220 373 -239 360 -256 347 -273 333 -289 320 -305 305 -319 288 -333 274 -347 256 -361 238 -373 222 -384 202 -396 184 -406 164 -418 145 -427 124 -434 102 -444 81 -455 59 -459 36 -465 12 -475 1726 0 -13 561 -43 556 -69 545 -96 537 -122 528 -147 519 -172 506 -195 496 -219 484 -242 472 -263 457 -284 441 -304 429 -324 413 -343 396 -361 377 -378 361 -396 344 -413 323 -427 304 -444 285 -457 263 -471 241 -483 218 -497 197 -507 171 -518 147 -528 122 -537 96 -545 69 -556 43 -561 13 0 0zm-10914 -10914l1726 0 0 0 12 475 36 465 59 459 81 455 102 444 123 434 146 427 164 418 184 406 202 396 222 384 238 373 256 361 274 347 287 333 306 319 320 305 333 289 347 273 360 256 373 239 384 220 397 203 407 185 417 164 426 144 435 124 444 102 454 81 460 59 465 35 474 13 0 1726 -560 -13 -556 -43 -545 -69 -537 -96 -528 -122 -518 -147 -507 -171 -497 -197 -483 -218 -471 -241 -457 -263 -444 -285 -427 -304 -413 -323 -396 -344 -378 -361 -361 -377 -343 -396 -324 -413 -305 -429 -283 -441 -263 -457 -242 -472 -219 -484 -195 -496 -173 -506 -146 -519 -122 -528 -96 -537 -69 -545 -43 -556 -13 -561 0 0zm0 0c0,-475 387,-862 863,-862 475,0 863,387 863,862l-1726 0zm10914 -10914l0 1726 0 0 -474 12 -465 36 -460 59 -454 81 -444 102 -435 123 -426 144 -417 164 -407 186 -397 203 -384 219 -373 240 -360 256 -347 273 -333 288 -320 306 -306 319 -287 333 -274 347 -256 361 -238 372 -222 386 -204 396 -182 405 -164 417 -146 427 -123 436 -102 444 -81 453 -59 459 -36 467 -12 474 -1726 0 13 -560 43 -555 69 -547 96 -536 122 -528 146 -519 173 -507 195 -496 220 -486 241 -469 263 -457 283 -443 305 -429 324 -412 343 -396 361 -377 378 -361 396 -345 413 -322 427 -305 444 -285 457 -262 471 -241 483 -218 497 -197 507 -172 518 -146 528 -122 537 -96 545 -69 556 -43 560 -13 0 0zm10915 10914l-1726 0 0 0 -12 -474 -36 -467 -59 -459 -81 -453 -102 -444 -124 -436 -145 -427 -164 -417 -183 -405 -203 -396 -222 -386 -238 -372 -256 -361 -274 -347 -288 -333 -305 -319 -320 -306 -333 -288 -347 -273 -360 -256 -373 -240 -384 -219 -397 -203 -407 -186 -417 -164 -426 -144 -435 -123 -444 -102 -455 -81 -459 -59 -465 -36 -475 -12 0 -1726 561 13 556 43 545 69 537 96 528 122 518 146 507 172 497 197 483 218 471 241 457 262 444 285 427 305 413 322 396 345 378 361 361 377 343 396 324 412 304 429 284 443 263 457 241 469 220 486 195 496 172 507 147 519 122 528 96 536 69 547 43 555 13 560 0 0z"/>
   </g>
   <g>
    <path fill="#232531" fill-rule="nonzero" d="M11777 15722c0,448 -387,812 -863,812 -475,0 -862,-364 -862,-812l1725 0zm0 -6283l0 6283 -1725 0 0 -6283 1725 0zm-1725 0c0,-448 387,-813 862,-813 476,0 863,365 863,813l-1725 0z"/>
   </g>
   <g>
    <path fill="#232531" fill-rule="nonzero" d="M11780 6345c0,476 -389,863 -866,863 -476,0 -865,-387 -865,-863l1731 0zm0 -239l0 239 -1731 0 0 -239 1731 0zm-1731 0c0,-476 389,-863 865,-863 477,0 866,387 866,863l-1731 0z"/>
   </g>
  </g>
 </g>
</svg>
