<?xml version="1.0" encoding="UTF-8"?>
<!DOCTYPE svg PUBLIC "-//W3C//DTD SVG 1.1//EN" "http://www.w3.org/Graphics/SVG/1.1/DTD/svg11.dtd">
<!-- Creator: CorelDRAW X8 -->
<svg xmlns="http://www.w3.org/2000/svg" xml:space="preserve" width="20px" height="19px" version="1.1" shape-rendering="geometricPrecision" text-rendering="geometricPrecision" image-rendering="optimizeQuality" fill-rule="evenodd" clip-rule="evenodd"
viewBox="0 0 21824 20151"
 >
 <g id="Слой_x0020_1">
  <metadata id="CorelCorpID_0Corel-Layer"/>
  <g id="_816698112">
   <g>
    <path fill="#232531" fill-rule="nonzero" d="M1726 10912c0,476 -388,863 -863,863 -476,0 -863,-387 -863,-863l1726 0zm9186 -10912l0 1726 0 0 -474 11 -465 37 -461 58 -452 80 -445 104 -435 124 -427 143 -416 164 -405 184 -399 205 -383 219 -374 240 -359 256 -347 273 -334 290 -319 303 -303 319 -290 334 -273 347 -256 359 -240 374 -219 383 -205 399 -184 405 -164 416 -143 427 -124 435 -104 445 -80 452 -58 461 -37 465 -11 474 -1726 0 14 -560 42 -555 70 -545 96 -538 121 -528 146 -519 172 -507 197 -497 219 -483 240 -469 262 -457 285 -444 305 -428 322 -412 344 -395 360 -380 380 -360 395 -344 412 -322 428 -305 444 -285 457 -262 469 -240 483 -219 497 -197 507 -172 519 -146 528 -121 538 -96 545 -70 555 -42 560 -14 0 0zm10912 10912l-1726 0 -11 -474 -37 -465 -58 -461 -80 -452 -104 -445 -124 -435 -143 -427 -164 -416 -185 -405 -204 -399 -219 -383 -240 -374 -256 -359 -273 -347 -290 -334 -303 -319 -319 -303 -334 -290 -347 -273 -359 -256 -374 -240 -383 -219 -399 -205 -405 -184 -416 -164 -427 -143 -435 -124 -445 -104 -452 -80 -461 -58 -465 -37 -474 -11 0 -1726 560 14 555 42 545 70 538 96 528 121 519 146 507 172 497 197 483 219 469 240 457 262 444 285 428 305 412 322 395 344 380 360 360 380 343 395 323 412 304 428 286 444 262 457 240 469 219 483 197 497 171 507 147 519 121 528 96 538 70 545 42 555 14 560zm0 0c0,476 -387,863 -863,863 -475,0 -863,-387 -863,-863l1726 0z"/>
   </g>
   <g>
    <path fill="#232531" fill-rule="nonzero" d="M15639 15426l-1726 0 0 0 -4 -156 -12 -153 -19 -152 -27 -145 -33 -145 -40 -140 -48 -140 -54 -138 -59 -132 -67 -130 -72 -126 -78 -122 -82 -116 -89 -112 -97 -112 -98 -103 -104 -99 -112 -97 -111 -88 -116 -82 -122 -78 -126 -72 -130 -67 -133 -59 -137 -55 -140 -48 -140 -40 -146 -33 -145 -26 -151 -19 -154 -13 -155 -3 0 -1726 243 6 238 18 237 29 233 41 231 53 226 66 218 73 213 85 211 94 203 105 197 112 193 124 187 132 179 142 170 147 164 157 156 164 148 170 141 179 133 187 123 193 113 197 104 203 95 210 84 214 74 218 65 226 53 230 42 234 29 237 18 237 6 244 0 0zm-4727 4725l0 -1726 0 0 155 -3 154 -13 151 -19 145 -26 146 -33 140 -41 140 -47 137 -55 133 -59 130 -67 126 -72 122 -78 116 -82 114 -90 109 -94 103 -99 100 -105 96 -110 87 -111 85 -119 77 -120 72 -126 68 -132 59 -131 53 -137 48 -138 40 -143 33 -144 27 -146 19 -152 12 -152 4 -155 1726 0 -6 243 -18 239 -29 234 -42 235 -53 229 -65 226 -74 220 -85 214 -95 210 -103 200 -113 199 -125 193 -129 185 -143 181 -149 171 -154 161 -165 159 -173 148 -176 140 -187 132 -193 124 -197 112 -203 105 -211 94 -213 85 -218 73 -226 66 -231 53 -233 41 -237 29 -238 18 -243 6 0 0zm-4726 -4725l1726 0 0 0 4 155 13 152 18 152 27 146 33 144 40 143 48 138 53 137 59 131 68 132 72 126 77 120 85 119 88 113 93 108 101 104 105 101 107 93 114 89 118 84 120 77 126 72 133 68 131 60 136 53 139 47 143 41 143 33 147 26 151 19 153 13 155 3 0 1726 -243 -6 -239 -18 -235 -29 -234 -41 -230 -53 -226 -66 -219 -73 -215 -86 -209 -95 -201 -103 -199 -112 -193 -125 -184 -130 -179 -141 -173 -149 -163 -157 -156 -162 -149 -173 -141 -179 -130 -185 -125 -193 -112 -199 -104 -200 -94 -210 -86 -214 -73 -220 -66 -226 -53 -229 -42 -235 -29 -234 -17 -239 -7 -243 0 0zm4726 -4727l0 1726 0 0 -155 3 -153 13 -151 19 -147 26 -143 33 -143 40 -139 48 -136 53 -131 60 -133 68 -126 72 -120 77 -118 84 -111 87 -110 96 -106 101 -98 102 -95 110 -89 114 -82 116 -79 122 -72 126 -66 130 -60 132 -54 138 -48 140 -40 140 -33 145 -27 145 -18 152 -13 153 -4 156 -1726 0 7 -244 17 -237 29 -237 42 -234 53 -230 66 -226 73 -218 84 -214 95 -210 105 -203 112 -197 123 -193 133 -187 140 -177 148 -172 159 -166 161 -154 170 -148 182 -143 184 -130 193 -125 199 -112 201 -103 209 -95 215 -86 219 -73 226 -66 230 -53 234 -41 235 -29 239 -18 243 -6 0 0z"/>
   </g>
   <g>
    <path fill="#232531" fill-rule="nonzero" d="M11779 11564c0,481 -389,871 -867,871 -478,0 -867,-390 -867,-871l1734 0zm0 -5677l0 5677 -1734 0 0 -5677 1734 0zm-1734 0c0,-480 389,-870 867,-870 478,0 867,390 867,870l-1734 0z"/>
   </g>
  </g>
 </g>
</svg>
