<svg xmlns="http://www.w3.org/2000/svg" viewBox="0 0 4.95 4.95">
  <defs>
    <style>.cls-1,.cls-2{fill:#232531;}.cls-2{fill-rule:evenodd;}</style>
  </defs>
  <title>explorer</title>
  <g id="Слой_2" data-name="Слой 2">
    <g id="Слой_1-2" data-name="Слой 1">
      <path class="cls-1"
            d="M3.95,1a2.09,2.09,0,1,0,.61,1.48A2.08,2.08,0,0,0,3.95,1ZM2.47,0A2.47,2.47,0,0,1,4.22.72h0A2.47,2.47,0,1,1,2.47,0Z"/>
      <path class="cls-1"
            d="M1.52,1.37,3,1.77a.19.19,0,0,1,.13.12l.52,1.43a.19.19,0,0,1-.23.26l-1.48-.4a.19.19,0,0,1-.13-.12L1.29,1.63a.19.19,0,0,1,.23-.26m1.28.75-1-.28.36,1,1,.28Z"/>
      <polygon class="cls-2" points="2.95 1.96 1.47 1.55 2 2.99 2.95 1.96"/>
      <path class="cls-1"
            d="M1.52,1.37,3,1.77l.08,0a.19.19,0,0,1,0,.27l-1,1-.08.05a.19.19,0,0,1-.25-.12L1.29,1.63a.19.19,0,0,1,.23-.26m1.07.69-.81-.22.29.79Z"/>
      <path class="cls-1" d="M2.28.19a.19.19,0,0,1,.39,0V.68a.19.19,0,1,1-.39,0Z"/>
      <path class="cls-1" d="M.19,2.67a.19.19,0,1,1,0-.39H.68a.19.19,0,1,1,0,.39Z"/>
      <path class="cls-1" d="M2.67,4.75a.19.19,0,1,1-.39,0V4.27a.19.19,0,1,1,.39,0Z"/>
      <path class="cls-1" d="M4.75,2.28a.19.19,0,0,1,0,.39H4.27a.19.19,0,1,1,0-.39Z"/>
    </g>
  </g>
</svg>
