<?xml version="1.0" encoding="UTF-8"?>
<!DOCTYPE svg PUBLIC "-//W3C//DTD SVG 1.1//EN" "http://www.w3.org/Graphics/SVG/1.1/DTD/svg11.dtd">
<!-- Creator: CorelDRAW X8 -->
<svg xmlns="http://www.w3.org/2000/svg" xml:space="preserve" width="22px" height="20px" version="1.1" shape-rendering="geometricPrecision" text-rendering="geometricPrecision" image-rendering="optimizeQuality" fill-rule="evenodd" clip-rule="evenodd"viewBox="0 0 2200000 2025406">
 <g id="Слой_x0020_1">
  <metadata id="CorelCorpID_0Corel-Layer"/>
  <path fill="black" d="M1259647 674587c-23489,-29712 -16229,-33223 -57791,-46797 -26505,-8656 -52541,-17436 -78491,-26087l-154369 -54803c0,-272868 -27612,-237326 245370,-237326l724050 0c53576,0 181691,-19907 195436,45914 7141,34207 19,629386 1834,726572 2043,109282 -71151,84383 -157044,84306 -54926,-47 -937312,5027 -966915,-2508 -61739,-15712 -42731,-146022 -42731,-198620 -4,-81788 0,-163581 0,-245369 36569,4993 130130,41049 170447,54807 120504,41130 105030,-49305 143133,-67050 50008,-23290 106208,-52337 156487,-72795 85428,-34768 154992,-72956 233934,-107975 15607,-6927 75631,-24924 60908,-48603 -12324,-19826 -62518,8970 -79765,17678 -24206,12220 -55021,26216 -80063,36588 -51734,21417 -282812,140486 -314430,142068zm244339 -429374c-146150,0 -292300,14 -438450,0 -53135,-5 -119340,-1093 -150197,71041 -20235,47310 -10704,153148 -10704,210535 -55425,-13193 -116523,-38093 -172965,-52299 -50008,-12580 -140999,-31836 -192001,-31266 -34616,34188 -15241,88696 -9863,132571 6152,50190 11711,100807 18562,150383l18657 146777c737,21684 -13835,40540 -25194,59321 -8690,14362 -20396,41229 -31860,53534 -8467,-7288 -26003,-41742 -31699,-52774 -7863,-15231 -27541,-38473 -27119,-55178 509,-20134 7141,-54261 9825,-74699l29010 -224408c10652,-94645 21451,-79926 -7716,-136434 -36368,6784 -78614,9140 -117254,15488 -35908,5896 -72790,15303 -108023,24714 -99229,26516 -117250,23323 -140767,124718 -13488,58148 -122723,507211 -115919,546164 5848,33466 37941,59554 71697,61478 90188,5136 92388,-93528 106826,-158873l83218 -379371c5402,-26867 2437,-36302 31166,-37219l5 458570c10,99115 -21469,332074 -31423,431166 -9459,94193 -11122,194168 -22111,287619 -8495,72263 -32397,200145 77717,206644 113767,6718 106004,-120062 112099,-197840 7350,-93765 10923,-195498 21807,-287924l22691 -283952c32250,4998 48308,1853 72633,1159 1382,145822 34240,404637 43999,567420 4603,76771 -4599,201299 104825,201346 38526,15 77826,-26063 89300,-64038 9858,-32639 -2390,-109016 -4575,-145841 -11137,-187469 -30254,-378672 -44968,-566455 -15745,-200872 -7569,-405725 -7569,-607874 47629,4243 125450,44046 176989,56318 0,61977 -4409,408376 2969,439504 14087,59387 62827,94948 121887,99353 65953,4922 152825,156 221077,156 -15322,41514 -143589,531978 -164089,612250 -11317,44308 -72291,178428 15260,178404 41357,-9 47899,-38910 56337,-70604l136714 -514931c16838,-63131 34801,-145361 56342,-205119l152854 0 0 470633c0,38668 -10961,111905 48270,111900 59667,-5 48270,-68775 48270,-107876l0 -474657 156877 0c1834,32255 141912,543784 162303,614037 9550,32891 19047,67986 27608,101115 8466,32753 11094,75683 55458,75498 87347,-357 30853,-123265 19332,-170404 -16300,-66708 -36525,-139446 -56000,-205461 -15032,-50964 -105842,-384421 -108137,-414785 163819,0 342779,39828 341909,-140786l119 -724168c494,-66742 -48545,-123022 -116608,-124742 -158611,-4000 -323504,162 -482861,162 0,-46769 17906,-141095 -48289,-140696 -64219,389 -48251,94160 -48251,140696zm-1021714 -241350c-54622,11454 -96459,25626 -130424,74723 -139878,202188 137247,503267 307451,263205 121188,-170927 -13274,-372264 -177027,-337928zm913106 856792c-6095,-32801 23964,-109282 92445,-112812 57192,-2951 111235,31746 112950,92563 3933,139532 -181317,149837 -205395,20249zm108513 -168969c-11921,24 -19418,-494 -30563,1625 -11688,2219 -16904,5668 -28644,5411l-17683 -26396c-17256,2722 -42783,21736 -55411,32487l17688 30563 -35404 48232 -34635 -8699 -12918 61487 36521 9132c247,25973 4451,36236 7255,58342l-28164 19626 29731 53501 35253 -17503c15312,12419 32012,23532 45010,33557l-5344 36397 61012 13611 8518 -37551c29618,-43 34502,-3545 59131,-7056 10666,13489 8851,14999 21147,27124l51980 -28687 -18723 -33256c5178,-7673 11506,-12263 17421,-20083 6623,-8746 11403,-19203 17360,-26924l31286 7155c10081,-12200 15711,-44949 17327,-63126l-36455 -6936c252,-28796 -1454,-33120 -8133,-57768l28035 -19982c-2789,-16258 -19983,-43880 -31717,-52081l-29775 14985 -45377 -32444c-2807,-21142 2343,-19556 2751,-38854l-60413 -11735 -8067 35846zm241445 92540c-8984,-46959 29090,-86872 70709,-94502 41685,-7635 85090,25256 92867,67887 18776,102901 -142377,137384 -163576,26615zm8737 -147452c16490,36782 -2775,27452 -24482,55283l-27162 -11645c-9563,11892 -20671,31656 -20419,46465l22477 13398c-171,20234 793,32872 -751,40563 -988,4927 -7944,7521 -12823,9255 -3107,1801 -13906,5773 -17636,7236l16410 47011c17104,-4005 23622,-13721 36255,-869 3274,3335 20425,24481 24107,29251l-12966 23865c11973,10732 31499,20890 47443,19350l10020 -22315c16306,2656 29238,2261 46294,4271l12847 26663c11882,-4385 33218,-8566 43471,-16667l-3264 -29907 34307 -28169 24496 11441 23375 -44123 -24976 -12832 4433 -47501 22557 -8566c1155,-18134 -7501,-31636 -11511,-48479l-31020 6528c-11274,-13592 -15279,-23204 -29665,-34340l11883 -27556 -44052 -21427 -15754 24506 -43220 -204 -11658 -25370c-285,-561 -879,-1773 -1440,-2585 -14177,3958 -35889,8096 -47576,17469z"/>
 </g>
</svg>
