<svg xmlns="http://www.w3.org/2000/svg" viewBox="0 0 3.95 3.95">
  <defs>
    <style>.cls-1{fill:#232531;}</style>
  </defs>
  <title>Mining1</title>
  <g id="Слой_2" data-name="Слой 2">
    <g id="Слой_1-2" data-name="Слой 1">
      <path class="cls-1"
            d="M2.39,2.14l-.25.25L3.26,3.51a.17.17,0,0,0,.12.05.18.18,0,0,0,.12,0h0a.18.18,0,0,0,.05-.13.18.18,0,0,0,0-.12Zm-.66.11.52-.52a.19.19,0,0,1,.27,0c.4.43.86.84,1.27,1.27a.56.56,0,0,1,0,.78h0a.56.56,0,0,1-.78,0L1.73,2.52A.19.19,0,0,1,1.72,2.25Z"/>
      <path class="cls-1"
            d="M1.53,1,1,1.53a.19.19,0,0,1-.28,0L.54,1.34A.57.57,0,0,1,.38.95h0A.57.57,0,0,1,.94.38h0a.56.56,0,0,1,.4.16l.19.19a.19.19,0,0,1,0,.27m-.66.11L1.12.87,1.07.82A.18.18,0,0,0,.94.77h0A.17.17,0,0,0,.77.94h0a.18.18,0,0,0,.05.12Z"/>
      <path class="cls-1"
            d="M1.39,1.14l-.25.25.06.06a.19.19,0,0,1,0,.27,3.88,3.88,0,0,0-.68,1,1.86,1.86,0,0,0-.1.25l1-1A.19.19,0,0,1,1.7,2l.16.16.25-.25L2,1.7a.19.19,0,0,1,0-.27l1-1L2.7.53a3.84,3.84,0,0,0-1,.68h0a.19.19,0,0,1-.27,0Zm-.66.11L1.26.73a.19.19,0,0,1,.27,0l.08.08A4,4,0,0,1,2.53.18a1.46,1.46,0,0,1,1-.15.19.19,0,0,1,.09.32L2.36,1.57l.16.16a.19.19,0,0,1,0,.27L2,2.52a.19.19,0,0,1-.27,0l-.16-.16L.35,3.58A.19.19,0,0,1,0,3.47a1.48,1.48,0,0,1,.16-.94,4.06,4.06,0,0,1,.63-.92L.73,1.53A.19.19,0,0,1,.73,1.26Z"/>
    </g>
  </g>
</svg>
