<?xml version="1.0" encoding="UTF-8"?>
<!DOCTYPE svg PUBLIC "-//W3C//DTD SVG 1.1//EN" "http://www.w3.org/Graphics/SVG/1.1/DTD/svg11.dtd">
<!-- Creator: CorelDRAW X8 -->
<svg xmlns="http://www.w3.org/2000/svg" xml:space="preserve" width="20px" height="20px" version="1.1" shape-rendering="geometricPrecision" text-rendering="geometricPrecision" image-rendering="optimizeQuality" fill-rule="evenodd" clip-rule="evenodd"
viewBox="0 0 160435 160426"
 xmlns:xlink="http://www.w3.org/1999/xlink">
 <g id="Слой_x0020_1">
  <metadata id="CorelCorpID_0Corel-Layer"/>
  <path fill="#232531" fill-rule="nonzero" d="M103431 16770c-3282,-1186 -4978,-4830 -3792,-8111 1187,-3282 4830,-4979 8112,-3792 15547,5683 28878,16075 38232,29462 9094,13015 14452,28868 14452,45889 0,22110 -8992,42171 -23519,56689 -14490,14527 -34560,23519 -56698,23519 -3505,0 -6351,-2846 -6351,-6350 0,-1335 418,-2577 1122,-3606l12497 -21638c1743,-3022 5627,-4051 8649,-2308 3022,1743 4051,5627 2308,8649l-6684 11570c14017,-2420 26570,-9159 36202,-18792 12218,-12181 19774,-29072 19774,-47733 0,-14397 -4487,-27747 -12117,-38658 -7861,-11245 -19097,-20006 -32187,-24790zm-48207 126228c3245,1279 4830,4959 3551,8204 -1279,3245 -4960,4830 -8204,3551 -15000,-5961 -27803,-16372 -36758,-29573 -8714,-12859 -13813,-28350 -13813,-44962 0,-22138 8992,-42209 23501,-56717 14508,-14509 34579,-23501 56717,-23501 3504,0 6350,2846 6350,6350 0,1335 -417,2577 -1122,3607l-12496 21637c-1743,3022 -5628,4051 -8650,2308 -3022,-1743 -4051,-5627 -2308,-8649l6684 -11570c-14017,2420 -26569,9160 -36201,18792 -12210,12209 -19774,29100 -19774,47743 0,14063 4273,27116 11569,37879 7537,11115 18319,19885 30954,24901zm43581 -34413c-844,-5757 -2874,-10855 -5720,-14758 -3300,-4552 -7722,-7426 -12450,-7584l-186 0 -231 0 -232 0 -186 0c-4727,158 -9149,3032 -12450,7584 -2846,3903 -4876,9001 -5720,14758l37175 0zm12487 -62761l0 158c-27,10698 -3281,20515 -8510,27691 -1826,2512 -3903,4718 -6174,6545 2271,1826 4348,4032 6174,6545 5229,7175 8483,16992 8510,27691l0 157c0,3319 -2707,6026 -6025,6026l-50098 0c-3319,0 -6026,-2707 -6026,-6026 0,-10763 3254,-20636 8510,-27848 1827,-2513 3903,-4719 6174,-6545 -2271,-1827 -4347,-4033 -6174,-6545 -5256,-7213 -8510,-17086 -8510,-27849 0,-3319 2707,-6026 6026,-6026l50098 0c3318,0 6025,2707 6025,6026zm-18207 20785c2846,-3903 4876,-9002 5720,-14759l-37175 0c844,5757 2874,10856 5720,14759 3301,4542 7723,7425 12450,7583l186 0 232 0 231 0 186 0c4728,-158 9150,-3041 12450,-7583z"/>
 </g>
</svg>
