<?xml version="1.0" standalone="no"?>
<!DOCTYPE svg PUBLIC "-//W3C//DTD SVG 20010904//EN"
 "http://www.w3.org/TR/2001/REC-SVG-20010904/DTD/svg10.dtd">
<svg version="1.0" xmlns="http://www.w3.org/2000/svg"
 width="700.000000pt" height="700.000000pt" viewBox="0 0 700.000000 700.000000"
 preserveAspectRatio="xMidYMid meet">
<metadata>
Created by potrace 1.11, written by Peter Selinger 2001-2013
</metadata>
<g transform="translate(0.000000,700.000000) scale(0.100000,-0.100000)"
fill="#000000" stroke="none">
<path d="M3367 6994 c-1 -1 -49 -4 -107 -8 -107 -7 -171 -12 -225 -21 -120
-18 -224 -37 -305 -55 -52 -12 -103 -23 -113 -25 -49 -10 -294 -91 -397 -131
-145 -56 -465 -215 -513 -255 -42 -35 -84 -117 -91 -176 -7 -71 12 -122 108
-288 51 -88 104 -180 118 -205 14 -25 83 -144 153 -265 71 -121 138 -238 150
-260 12 -22 53 -92 90 -155 59 -101 88 -150 172 -300 11 -19 53 -91 93 -160
40 -69 84 -144 97 -167 85 -154 159 -273 185 -300 17 -18 52 -42 77 -55 l46
-22 1135 0 c1126 1 1135 1 1181 21 119 54 185 188 153 312 -26 97 -80 154
-189 197 -11 4 -478 8 -1037 9 -560 0 -1019 3 -1021 6 -4 4 -136 231 -174 299
-11 19 -53 91 -93 160 -40 69 -81 140 -92 159 -126 220 -227 395 -277 479 -33
57 -61 105 -61 107 0 2 -28 50 -61 107 -83 139 -99 167 -99 177 0 33 485 193
685 226 284 47 538 60 770 41 142 -13 158 -14 190 -20 17 -3 50 -9 75 -12 25
-3 81 -14 125 -24 45 -11 93 -21 108 -24 43 -8 194 -56 312 -99 513 -188 994
-545 1319 -977 31 -41 60 -79 64 -85 28 -36 72 -105 72 -114 0 -6 5 -11 10
-11 6 0 10 -4 10 -10 0 -5 15 -33 34 -62 44 -70 148 -278 187 -376 99 -246
173 -523 203 -762 43 -331 21 -742 -55 -1045 -11 -44 -22 -87 -24 -96 -28
-132 -136 -403 -242 -609 -79 -154 -85 -170 -85 -228 -1 -68 12 -108 55 -168
28 -40 102 -90 149 -100 50 -11 129 -3 173 17 76 36 115 85 206 265 209 410
326 805 373 1264 12 121 14 550 3 635 -3 22 -9 65 -12 95 -11 99 -16 134 -30
205 -8 39 -17 86 -20 105 -3 19 -13 62 -21 95 -9 33 -17 67 -19 76 -6 31 -46
164 -72 239 -138 403 -334 761 -591 1078 -93 115 -84 105 -203 228 -147 152
-238 234 -389 349 -92 69 -306 215 -317 215 -3 0 -17 8 -31 19 -88 61 -390
205 -570 270 -101 37 -317 104 -372 115 -14 3 -52 12 -85 20 -69 16 -283 52
-365 60 -30 3 -82 8 -116 12 -56 5 -401 13 -407 8z"/>
<path d="M660 5380 c-110 -21 -165 -77 -268 -277 -136 -265 -272 -639 -308
-843 -3 -14 -11 -59 -19 -100 -17 -86 -22 -115 -31 -179 -3 -25 -8 -57 -10
-71 -25 -153 -24 -721 1 -820 2 -8 7 -40 10 -70 4 -30 12 -86 20 -125 7 -38
17 -88 21 -110 10 -55 8 -46 43 -180 126 -474 352 -923 652 -1295 141 -174
339 -376 488 -496 13 -10 28 -24 35 -30 35 -33 229 -171 334 -238 116 -73 396
-221 492 -260 25 -10 54 -22 65 -27 105 -47 383 -133 570 -175 89 -20 257 -48
360 -59 265 -28 649 -24 855 10 14 2 41 7 60 10 124 20 165 28 245 46 153 34
359 98 503 155 167 66 446 204 506 250 76 58 118 181 93 274 -5 19 -53 112
-107 205 -54 94 -107 186 -117 205 -11 19 -101 175 -200 345 -99 171 -260 450
-358 620 -98 171 -206 357 -239 415 -34 58 -68 118 -76 134 -26 50 -86 110
-136 136 l-49 25 -1118 0 c-791 1 -1131 -3 -1162 -10 -130 -33 -214 -166 -193
-305 16 -103 89 -182 198 -216 14 -5 480 -9 1035 -10 556 -1 1013 -2 1016 -3
3 -1 14 -18 26 -38 18 -34 171 -300 208 -363 8 -14 52 -89 97 -168 46 -79 96
-164 111 -190 15 -26 32 -56 38 -67 5 -11 15 -29 22 -40 10 -17 100 -173 132
-227 6 -10 48 -84 95 -165 47 -81 87 -152 89 -158 2 -5 7 -12 10 -15 9 -8 31
-49 31 -58 0 -18 -207 -100 -385 -154 -157 -47 -348 -86 -505 -103 -30 -3 -77
-8 -105 -12 -59 -7 -427 -7 -470 1 -16 2 -64 8 -105 11 -41 4 -77 8 -80 10 -3
2 -30 6 -60 10 -30 4 -93 16 -140 27 -47 11 -98 22 -115 25 -62 10 -355 113
-466 163 -637 287 -1135 763 -1442 1376 -146 292 -236 585 -291 954 -36 236
-24 676 24 900 5 25 12 57 14 72 17 102 109 405 158 518 11 25 63 132 115 238
92 183 96 195 96 256 -1 112 -72 215 -171 248 -63 22 -100 26 -142 18z"/>
<path d="M2235 3746 c-211 -98 -217 -379 -11 -489 l41 -22 1217 -3 c1209 -2
1217 -2 1272 18 62 24 117 73 147 133 24 46 32 139 18 190 -17 61 -70 127
-129 161 l-55 31 -1225 2 -1225 3 -50 -24z"/>
</g>
</svg>
