<?xml version="1.0" encoding="UTF-8"?>
<!DOCTYPE svg PUBLIC "-//W3C//DTD SVG 1.1//EN" "http://www.w3.org/Graphics/SVG/1.1/DTD/svg11.dtd">
<svg xmlns="http://www.w3.org/2000/svg" xml:space="preserve" width="72px" height="72px" version="1.1" shape-rendering="geometricPrecision" text-rendering="geometricPrecision" image-rendering="optimizeQuality" fill-rule="evenodd" clip-rule="evenodd"
viewBox="0 0 2043052 2043052"
 >
 <g>
  <metadata/>
  <path fill="#00ADD9" fill-rule="nonzero" d="M1655717 387369c162259,162259 262645,386493 262645,634157 0,247664 -100386,471898 -262645,634158 -162225,162259 -386493,262678 -634157,262678 -247664,0 -471932,-100386 -634191,-262645 -162293,-162293 -262679,-386527 -262679,-634191 0,-247664 100386,-471898 262679,-634191 162259,-162259 386527,-262645 634191,-262645 247664,0 471932,100419 634157,262679zm-634157 -387369c-282035,0 -537475,114356 -722323,299203 -184881,184882 -299237,440288 -299237,722323 0,282035 114356,537442 299237,722323 184848,184847 440288,299203 722323,299203 282035,0 537475,-114389 722289,-299237 184847,-184847 299203,-440254 299203,-722289 0,-282035 -114356,-537441 -299203,-722289 -184814,-184848 -440254,-299237 -722289,-299237zm565887 1301878c0,31677 -13095,51135 -39454,58608 -7641,2155 -26931,3266 -57868,3266 -41305,0 -62042,-20569 -62042,-61874l0 -363434 -312164 386359c-22723,27469 -53121,41137 -91128,41137 -38006,0 -68404,-13668 -91161,-40935l-319772 -389321 0 366194c0,41305 -20568,61874 -61874,61874 -32923,0 -54771,-2020 -65476,-5824 -20568,-8180 -30937,-26931 -30937,-56050l0 -545185c0,-52953 27100,-79513 81130,-79513 38579,0 68236,12556 89310,37669l400430 474087 390365 -474457c20400,-24911 49317,-37299 86987,-37299 55814,0 83654,28210 83654,84799l0 539899z"/>
 </g>
</svg>
