<?xml version="1.0" encoding="UTF-8"?>
<!DOCTYPE svg PUBLIC "-//W3C//DTD SVG 1.1//EN" "http://www.w3.org/Graphics/SVG/1.1/DTD/svg11.dtd">
<svg xmlns="http://www.w3.org/2000/svg" xml:space="preserve" width="72px" height="72px" version="1.1" shape-rendering="geometricPrecision" text-rendering="geometricPrecision" image-rendering="optimizeQuality" fill-rule="evenodd" clip-rule="evenodd"
viewBox="0 0 962090 962090"
 >
 <g>
  <path fill="#232531" fill-rule="nonzero" d="M779691 182415c76409,76409 123682,182003 123682,298630 0,116627 -47273,222221 -123682,298630 -76393,76410 -182003,123698 -298630,123698 -116627,0 -222237,-47273 -298646,-123682 -76425,-76425 -123697,-182019 -123697,-298646 0,-116627 47272,-222221 123697,-298646 76409,-76409 182019,-123681 298646,-123681 116627,0 222237,47288 298630,123697zm-298630 -182415c-132812,0 -253102,53851 -340148,140897 -87062,87062 -140913,207336 -140913,340148 0,132813 53851,253086 140913,340148 87046,87046 207336,140897 340148,140897 132813,0 253102,-53866 340132,-140913 87046,-87046 140897,-207319 140897,-340132 0,-132812 -53851,-253086 -140897,-340132 -87030,-87046 -207319,-140913 -340132,-140913zm194273 598830c0,28851 -12999,43293 -39092,43293 -2267,0 -4693,-95 -7134,-254 -8386,-840 -18373,-6119 -29946,-16027l-239420 -204196 0 189929c0,13427 -4883,22067 -14521,25840 -4867,1759 -15013,2695 -30199,2695 -18881,0 -28281,-9575 -28281,-28535l0 -249820c0,-10162 840,-17200 2441,-21147 2521,-5707 7799,-10986 16027,-15679 5707,-3265 11905,-4961 18611,-4961 14267,0 28455,5960 42548,17961l235981 201422 0 -188503c0,-13506 4867,-22066 14505,-25839 4787,-1839 14774,-2679 29961,-2679 19039,0 28519,9479 28519,28518l0 247982z"/>
 </g>
</svg>
