<?xml version="1.0" encoding="UTF-8"?>
<!DOCTYPE svg PUBLIC "-//W3C//DTD SVG 1.1//EN" "http://www.w3.org/Graphics/SVG/1.1/DTD/svg11.dtd">
<svg xmlns="http://www.w3.org/2000/svg" xml:space="preserve" width="72px" height="72px" version="1.1" shape-rendering="geometricPrecision" text-rendering="geometricPrecision" image-rendering="optimizeQuality" fill-rule="evenodd" clip-rule="evenodd"
viewBox="0 0 37360465 37360465"
 >
 <g>
  <path fill="#00ADD9" fill-rule="nonzero" d="M30277428 7083653c2967168,2967168 4802873,7067647 4802873,11596580 0,4528933 -1835705,8629411 -4802873,11596580 -2966552,2967168 -7067647,4803488 -11596580,4803488 -4528933,0 -8630027,-1835705 -11597195,-4802873 -2967784,-2967784 -4803489,-7068262 -4803489,-11597195 0,-4528933 1835705,-8629412 4803489,-11597196 2967168,-2967168 7068262,-4802873 11597195,-4802873 4528933,0 8630028,1836320 11596580,4803489zm-11596580 -7083653c-5157455,0 -9828591,2091176 -13208823,5471409 -3380849,3380848 -5472025,8051368 -5472025,13208824 0,5157455 2091176,9827975 5472025,13208823 3380232,3380233 8051368,5471409 13208823,5471409 5157456,0 9828591,-2091792 13208208,-5472025 3380233,-3380232 5471409,-8050752 5471409,-13208207 0,-5157456 -2091176,-9827976 -5471409,-13208208 -3379617,-3380233 -8050752,-5472025 -13208208,-5472025zm-4206977 17888577c0,709781 -349658,1220725 -1048974,1533448 -488166,216073 -1097606,323187 -1832011,323187l-3769904 0 0 1637483c0,281327 -102189,461696 -304104,541108 -101573,36936 -314569,56019 -632216,56019 -395212,0 -592202,-198221 -592202,-597127l0 -5456635c0,-398905 196990,-597127 592202,-597127l4757319 0c638988,0 1224418,108960 1759986,328728 713475,291176 1069904,711628 1069904,1259507l0 971409zm-1528522 -40629l0 -851984c0,-191450 -177292,-307182 -533721,-344117 -38783,-3694 -291792,-5541 -760876,-5541l-3827770 0 0 1771067 3833311 0c407524,0 679617,-17852 816894,-51094 313954,-75718 472162,-247469 472162,-518331zm8827633 2408824c0,644528 -316416,1115458 -946785,1408481 -453078,209302 -1004651,314569 -1656566,314569l-1806156 0c-660534,0 -1239809,-117578 -1737210,-354583 -644528,-309028 -967715,-764569 -967715,-1368467l0 -1814775c0,-630985 335499,-1104993 1008345,-1424487 500478,-233926 1064364,-349658 1691655,-349658l1811081 0c1735362,0 2603351,588509 2603351,1763680l0 1825240zm-1496511 0l0 -1897264c0,-191451 -152668,-312723 -456772,-363817 -112654,-20930 -341040,-31396 -683310,-31396l-1760602 0c-827360,0 -1241656,159440 -1241656,477702l0 1814775c0,284404 416143,426607 1247196,426607l1759986 0c757182,0 1135158,-142203 1135158,-426607zm10763064 869220c17852,79412 26470,156361 26470,232079 0,226539 -72024,409371 -217920,544802 -145281,134815 -321341,203762 -523256,203762 -288098,0 -520178,-128660 -695622,-382900l-960944 -1398632 -4616963 0 -950479 1394938c-147127,217921 -325034,326881 -533721,326881 -180985,0 -345965,-73871 -495554,-219767 -148974,-145896 -222846,-293639 -222846,-444460 0,-65253 17237,-123119 51095,-175445l3613543 -5526812c171751,-263475 454925,-404446 848290,-425376 150821,-6772 312722,26470 485089,98495 198221,86183 313953,195143 349042,328728l3843776 5443707zm-3309439 -2128728l-1364775 -2020383 -1370314 2020383 2735089 0z"/>
 </g>
</svg>
