<?xml version="1.0" encoding="UTF-8"?>
<!DOCTYPE svg PUBLIC "-//W3C//DTD SVG 1.1//EN" "http://www.w3.org/Graphics/SVG/1.1/DTD/svg11.dtd">
<svg xmlns="http://www.w3.org/2000/svg" xml:space="preserve" width="72px" height="72px" version="1.1" shape-rendering="geometricPrecision" text-rendering="geometricPrecision" image-rendering="optimizeQuality" fill-rule="evenodd" clip-rule="evenodd"
viewBox="0 0 1312973 1312973"
 >
 <g>
  <path fill="#00ADD9" fill-rule="nonzero" d="M1064051 248944c104277,104276 168790,248381 168790,407543 0,159162 -64513,303266 -168790,407543 -104254,104276 -248381,168811 -407543,168811 -159162,0 -303288,-64513 -407564,-168790 -104298,-104298 -168811,-248402 -168811,-407564 0,-159162 64513,-303267 168811,-407565 104276,-104276 248402,-168789 407564,-168789 159162,0 303289,64534 407543,168811zm-407543 -248944c-181250,0 -345410,73491 -464203,192284 -118814,118814 -192305,282952 -192305,464203 0,181250 73491,345388 192305,464202 118793,118793 282953,192284 464203,192284 181251,0 345410,-73512 464181,-192305 118793,-118793 192284,-282931 192284,-464181 0,-181251 -73491,-345389 -192284,-464182 -118771,-118792 -282930,-192305 -464181,-192305zm-139129 626177c0,28081 -13824,48309 -41494,60684 -19319,8545 -43441,12786 -72496,12786l-149145 0 0 64794c0,11120 -4046,18281 -12029,21396 -4045,1471 -12439,2228 -25030,2228 -15642,0 -23408,-7853 -23408,-23624l0 -215887c0,-15793 7766,-23646 23408,-23646l188238 0c25290,0 48439,4305 69640,13002 28211,11531 42316,28146 42316,49845l0 38422zm-60467 -1601l0 -33706c0,-7572 -7009,-12158 -21136,-13607 -1515,-152 -11531,-217 -30093,-217l-151439 0 0 70051 151655 0c16117,0 26891,-692 32321,-2012 12440,-2985 18692,-9800 18692,-20509zm349261 95299c0,25506 -12505,44155 -37470,55751 -17913,8264 -39742,12439 -65530,12439l-71457 0c-26134,0 -49067,-4651 -68732,-14040 -25507,-12224 -38314,-30223 -38314,-54150l0 -71804c0,-24944 13283,-43701 39915,-56357 19795,-9259 42100,-13824 66936,-13824l71652 0c68667,0 103000,23278 103000,69770l0 72215zm-59213 0l0 -75049c0,-7594 -6057,-12375 -18064,-14408 -4457,-823 -13500,-1234 -27043,-1234l-69640 0c-32754,0 -49152,6318 -49152,18887l0 71804c0,11271 16485,16896 49347,16896l69662 0c29941,0 44890,-5625 44890,-16896zm372280 -887c0,14516 -2510,26134 -7377,34874 -12873,22802 -49153,34203 -108712,34203l-156587 0c-15642,0 -23430,-7853 -23430,-23559 0,-19038 7788,-28579 23430,-28579l156587 0c18973,0 29747,-195 32387,-606 15425,-1752 23148,-6901 23148,-15360l0 -21483c0,-8134 -9995,-13478 -30093,-15922 -7983,-822 -23430,-1255 -46210,-1255l-1688 0c-48439,0 -83183,-2856 -104255,-8546 -35934,-9735 -53933,-29184 -53933,-58390l0 -18692c0,-32667 16961,-53869 50883,-63669 16334,-4738 46081,-7096 89241,-7096 15706,0 23559,7853 23559,23560l0 4867c0,15772 -7853,23711 -23559,23711 -25572,0 -40521,217 -44891,628 -22867,2141 -34355,7983 -34355,17502l0 17242c0,10363 20033,15512 60056,15512l60403 0c28232,0 52679,4435 73469,13413 27951,12093 41927,30569 41927,55470l0 22175z"/>
 </g>
</svg>
