<?xml version="1.0" encoding="UTF-8"?>
<!DOCTYPE svg PUBLIC "-//W3C//DTD SVG 1.1//EN" "http://www.w3.org/Graphics/SVG/1.1/DTD/svg11.dtd">
<svg xmlns="http://www.w3.org/2000/svg" xml:space="preserve" width="72px" height="72px" version="1.1" shape-rendering="geometricPrecision" text-rendering="geometricPrecision" image-rendering="optimizeQuality" fill-rule="evenodd" clip-rule="evenodd"
viewBox="0 0 2985855 2985855"
 >
 <g>
  <path fill="#00ADD9" fill-rule="nonzero" d="M2419778 566127c237136,237136 383846,564848 383846,926801 0,361953 -146710,689664 -383846,926801 -237088,237136 -564848,383895 -926801,383895 -361953,0 -689714,-146710 -926850,-383846 -237186,-237186 -383896,-564897 -383896,-926850 0,-361953 146710,-689665 383896,-926850 237136,-237137 564897,-383847 926850,-383847 361953,0 689713,146759 926801,383896zm-926801 -566127c-412185,0 -785503,167127 -1055652,437276 -270198,270198 -437325,643467 -437325,1055652 0,412185 167127,785453 437325,1055651 270149,270149 643467,437276 1055652,437276 412185,0 785503,-167176 1055602,-437325 270149,-270149 437276,-643417 437276,-1055602 0,-412185 -167127,-785454 -437276,-1055603 -270099,-270149 -643417,-437325 -1055602,-437325zm-452626 1433742c0,57218 -28191,98446 -84621,123685 -39359,17416 -88508,26075 -147743,26075l-304047 0 0 132049c0,22680 -8216,37243 -24501,43639 -8216,2952 -25386,4526 -51019,4526 -31880,0 -47722,-16039 -47722,-48165l0 -440081c0,-32175 15842,-48165 47722,-48165l383699 0c51560,0 98742,8757 141938,26469 57513,23517 86294,57415 86294,101595l0 78373zm-123291 -3296l0 -68681c0,-15449 -14268,-24796 -43049,-27798 -3100,-295 -23517,-393 -61351,-393l-308720 0 0 142774 309163 0c32865,0 54807,-1378 65877,-4084 25337,-6100 38080,-19974 38080,-41818zm711951 194284c0,51954 -25485,89935 -76356,113600 -36555,16875 -81030,25386 -133623,25386l-145628 0c-53282,0 -100020,-9495 -140117,-28633 -52003,-24944 -78078,-61646 -78078,-110353l0 -146365c0,-50871 27059,-89148 81325,-114928 40392,-18843 85851,-28190 136427,-28190l146071 0c139969,0 209979,47476 209979,142232l0 147251zm-120684 0l0 -153007c0,-15497 -12349,-25239 -36850,-29371 -9102,-1673 -27502,-2509 -55151,-2509l-141938 0c-66713,0 -100168,12890 -100168,38522l0 146365c0,22927 33603,34439 100611,34439l141937 0c61056,0 91559,-11512 91559,-34439zm1091025 -329285l-199598 422221c-14760,30749 -38719,46050 -71830,46050 -31634,0 -54413,-14464 -68287,-43491l-145677 -310885 -149858 311573c-12497,26371 -35030,39408 -67747,39408 -34882,0 -58792,-13775 -71534,-41523l-198762 -423353c-3592,-7527 -5412,-14612 -5412,-21549 0,-14464 6937,-26321 20811,-35718 13038,-8905 28092,-13284 44918,-13284 26371,0 44230,9791 53725,29323l155664 331548 147792 -317232c14169,-30896 37391,-46344 69862,-46344 12300,0 25337,4231 38965,12890 13579,8511 22927,18547 28191,29912l150154 320331 153302 -330269c9200,-19827 27945,-29765 56234,-29765 17170,0 32028,3985 44524,12054 13579,9101 20369,20712 20369,34881 0,7479 -1821,15153 -5806,23222z"/>
 </g>
</svg>
