<svg xmlns="http://www.w3.org/2000/svg" xml:space="preserve" width="45px" height="45px" version="1.1"
     shape-rendering="geometricPrecision" text-rendering="geometricPrecision" image-rendering="optimizeQuality"
     fill-rule="evenodd" clip-rule="evenodd" viewBox="0 0 140981 140978">
 <g id="Слой_x0020_1">
  <metadata id="CorelCorpID_0Corel-Layer"/>
   <path id="Oval-Copy-2" fill="#FD0002" fill-rule="nonzero" d="M135947 70489c0,-36150 -29308,-65454 -65458,-65454 -36146,0 -65454,29304 -65454,65454 0,36150 29308,65454 65454,65454 36150,0 65458,-29304 65458,-65454z"/>
   <path fill="#FCE500" d="M41487 57254l-19993 25c980,809 14704,11191 15983,11862l-6018 19047c2710,-1417 12908,-9475 16198,-11532 1467,709 14152,10431 16268,11560 -795,-3877 -5792,-16883 -5886,-18978 1269,-1133 2572,-1960 3899,-2932l12022 -8989 -19986 -45c-643,-2902 -2102,-6619 -3054,-9538l-2349 -7109c-306,-935 -444,-1741 -959,-2422l-6125 19051z"/>
   <path fill="#FCE500" d="M108633 54582l-5479 2672c1080,587 5548,796 5990,1328 552,1699 215,4510 1101,5955l2811 -5288 6004 886c-354,-810 -3631,-3996 -4062,-4344l2784 -5635 -5591 2613 -4371 -4239 813 6052z"/>
   <path fill="#FCE500" d="M91347 99186l-5685 -2096 3253 5223c-487,750 -1175,1563 -1734,2237 -556,667 -1525,1758 -1918,2582l5834 -1428c1125,1536 2289,3537 3478,5076l365 -6108 5917 -1657c-1004,-814 -4274,-1818 -5692,-2325l240 -6119c-1470,1387 -2644,3478 -4058,4615z"/>
   <path fill="#FCE500" d="M92056 34756l-5845 -1939c862,1665 2575,3638 3253,5219l-3687 4858 6088 -1623 3366 5132 369 -6230c1730,-361 4301,-1133 5868,-1709l-5726 -2221 184 -6042c-73,38 -146,38 -170,122l-1775 2074c-633,806 -1265,1511 -1925,2359z"/>
   <path fill="#FCE500" d="M109397 81493l-6098 -7c39,59 108,66 129,156l2172 1713c896,657 1574,1126 2470,1786l-1765 5990c646,-264 1807,-1181 2443,-1653 858,-640 1702,-1335 2692,-1811l4913 3447 -1723 -5789c1324,-1389 3523,-2414 4851,-3797l-6102 -49 -1939 -5848 -2043 5862z"/>
 </g>
</svg>
