<?xml version="1.0" encoding="UTF-8"?>
<!DOCTYPE svg PUBLIC "-//W3C//DTD SVG 1.1//EN" "http://www.w3.org/Graphics/SVG/1.1/DTD/svg11.dtd">
<!-- Creator: CorelDRAW X8 -->
<svg xmlns="http://www.w3.org/2000/svg" xml:space="preserve" width="45px" height="45px" version="1.1" shape-rendering="geometricPrecision" text-rendering="geometricPrecision" image-rendering="optimizeQuality" fill-rule="evenodd" clip-rule="evenodd"
viewBox="0 0 130616 130620"
 >
 <g id="Слой_x0020_1">
  <metadata id="CorelCorpID_0Corel-Layer"/>
  <g id="_805144960">
   <path fill="#F00002" d="M1092 77234l53538 55 4 52461c3474,568 7041,870 10678,870 3633,0 7197,-305 10667,-870l3 -52461 53546 -55c714,-3865 1088,-7852 1088,-11922 0,-4074 -374,-8057 -1088,-11930l-53546 -55 -3 -52453c-3470,-569 -7034,-874 -10667,-874 -3637,0 -7204,302 -10678,874l-7 52550 -53542 0c-707,3855 -1085,7828 -1085,11888 0,4070 378,8057 1092,11922z"/>
   <path fill="white" d="M1952 81197l25419 31 -19845 14536c1886,3575 4095,6951 6587,10096l36652 -24636 10 5911c-2621,1498 -9887,6799 -13084,8858l-20218 13770c1203,1293 2454,2545 3758,3738 5002,-3412 10102,-6899 14592,-10148l14949 -10248 3 35889c1273,288 2562,541 3859,756l-4 -52461 -53538 -55c250,1335 534,2656 860,3963z"/>
   <path fill="white" d="M5335 39435l6896 4809c1016,717 6733,4461 7388,5228l-17678 0c-325,1303 -610,2621 -856,3952l53542 0 7 -52550c-1300,215 -2593,464 -3866,755l-48 43797 -29711 -21612c-1297,-929 -2527,-1807 -3744,-2732 -2562,2784 -4895,5786 -6948,8986l8972 6018 14845 10012c1103,746 4265,2708 4844,3370 -2666,11 -5332,-10 -7995,11 -2035,13 -3020,-964 -5339,-2583l-14131 -9628c-1227,-787 -2541,-1674 -3883,-2607 -825,1557 -1591,3148 -2295,4774z"/>
   <path fill="white" d="M79848 128994l49 -43804 8455 6119c1422,1103 2950,2181 4330,3152l20663 15087c2572,-2790 4905,-5800 6964,-9003l-18852 -12650c-947,-645 -9257,-6109 -9818,-6750 2666,-11 5328,10 7994,-11 1734,-10 1827,201 2957,999l20372 13874c838,-1571 1619,-3183 2326,-4826l-14291 -10040 17685 0c322,-1286 603,-2590 846,-3907l-53546 55 -3 52461c1307,-215 2593,-465 3869,-756z"/>
   <path fill="white" d="M128678 49472l-17681 0c566,-656 1186,-923 1925,-1453l12369 -8573c-707,-1640 -1487,-3249 -2319,-4816l-18003 12266c-2316,1619 -3301,2596 -5336,2583 -2666,-21 -5328,0 -7994,-11 561,-641 9010,-6199 9950,-6836l18703 -12578c-2056,-3200 -4382,-6199 -6947,-8979l-8213 5966c-1526,1106 -2750,2070 -4181,3079 -1380,971 -2895,2052 -4213,3047l-16893 12259 -4 -43800c-1272,-291 -2558,-541 -3862,-752l3 52453 53546 55c-243,-1317 -527,-2621 -850,-3910z"/>
   <path fill="#082B70" d="M113345 109548l-20663 -15087c-1380,-971 -2908,-2049 -4330,-3152l-8455 -6119 -49 43804c13101,-2978 24705,-9898 33497,-19446z"/>
   <path fill="#082B70" d="M79841 1626l4 43800 16893 -12259c1318,-995 2833,-2076 4213,-3047 1431,-1009 2655,-1973 4181,-3079l8213 -5966c-8796,-9548 -20403,-16475 -33504,-19449z"/>
   <path fill="#082B70" d="M17265 21082c1217,925 2447,1803 3744,2732l29711 21612 48 -43797c-13104,2978 -24704,9902 -33503,19453z"/>
   <path fill="#082B70" d="M7526 95764l19845 -14536 -25419 -31c1283,5124 3165,10005 5574,14567z"/>
   <path fill="#082B70" d="M125291 39446l-12369 8573c-739,530 -1359,797 -1925,1453l17681 0c-863,-3464 -1997,-6809 -3387,-10026z"/>
   <path fill="#082B70" d="M1941 49472l17678 0c-655,-767 -6372,-4511 -7388,-5228l-6896 -4809c-1390,3221 -2534,6573 -3394,10037z"/>
   <path fill="#082B70" d="M128682 81141l-17685 0 14291 10040c1390,-3221 2531,-6576 3394,-10040z"/>
   <path fill="#082B70" d="M50775 128994l-3 -35889 -14949 10248c-4490,3249 -9590,6736 -14592,10148 8202,7502 18322,12945 29544,15493z"/>
   <path fill="#F00002" d="M120292 30054l-18703 12578c-940,637 -9389,6195 -9950,6836 2666,11 5328,-10 7994,11 2035,13 3020,-964 5336,-2583l18003 -12266c-836,-1563 -1727,-3089 -2680,-4576z"/>
   <path fill="#F00002" d="M7630 34661c1342,933 2656,1820 3883,2607l14131 9628c2319,1619 3304,2596 5339,2583 2663,-21 5329,0 7995,-11 -579,-662 -3741,-2624 -4844,-3370l-14845 -10012 -8972 -6018c-957,1491 -1851,3023 -2687,4593z"/>
   <path fill="#F00002" d="M122962 96007l-20372 -13874c-1130,-798 -1223,-1009 -2957,-999 -2666,21 -5328,0 -7994,11 561,641 8871,6105 9818,6750l18852 12650c943,-1473 1827,-2988 2653,-4538z"/>
   <path fill="#F00002" d="M17473 109763l20218 -13770c3197,-2059 10463,-7360 13084,-8858l-10 -5911 -36652 24636c1068,1348 2191,2645 3360,3903z"/>
  </g>
 </g>
</svg>
