<?xml version="1.0" encoding="UTF-8"?>
<!DOCTYPE svg PUBLIC "-//W3C//DTD SVG 1.1//EN" "http://www.w3.org/Graphics/SVG/1.1/DTD/svg11.dtd">
<!-- Creator: CorelDRAW X8 -->
<svg xmlns="http://www.w3.org/2000/svg" xml:space="preserve" width="45px" height="45px" version="1.1" shape-rendering="geometricPrecision" text-rendering="geometricPrecision" image-rendering="optimizeQuality" fill-rule="evenodd" clip-rule="evenodd" viewBox="0 0 221697 221691" >
 <g id="Слой_x0020_1">
  <metadata id="CorelCorpID_0Corel-Layer"/>
  <path id="facebook-copy" fill="#CCCCCC" fill-rule="nonzero" d="M140132 55447l-15190 -27c-17069,0 -28095,10709 -28095,27281l0 12578 -15277 0c-1322,0 -2388,1016 -2388,2262l0 18227c0,1246 1066,2257 2388,2257l15277 0 0 45984c0,1251 1066,2262 2388,2262l19927 0c1322,0 2387,-1016 2387,-2262l0 -45984 17862 0c1322,0 2393,-1011 2393,-2257l5 -18227c0,-596 -251,-1175 -699,-1595 -448,-427 -1055,-667 -1688,-667l-17873 0 0 -10660c0,-5125 1295,-7726 8349,-7726l10234 -5c1317,0 2388,-1011 2388,-2257l0 -16927c0,-1240 -1066,-2257 -2388,-2257z"/>
  <g>
   <path id="Oval-Copy" fill="#CCCCCC" fill-rule="nonzero" d="M110851 15834l0 -15834 0 0 5693 148 5628 420 5551 705 5459 978 5365 1235 5262 1497 5153 1743 5043 1983 4912 2230 4770 2442 4644 2666 4502 2885 4344 3093 4191 3295 4010 3475 3858 3666 3666 3857 3475 4011 3295 4191 3092 4343 2885 4503 2667 4644 2442 4770 2229 4912 1984 5043 1742 5152 1498 5262 1234 5366 978 5458 705 5551 421 5628 148 5694 -15835 0 -125 -4896 -367 -4830 -606 -4754 -836 -4682 -1060 -4590 -1278 -4508 -1492 -4409 -1699 -4311 -1902 -4202 -2103 -4103 -2284 -3978 -2470 -3857 -2644 -3721 -2825 -3590 -2995 -3453 -3141 -3300 -3300 -3142 -3454 -2994 -3589 -2825 -3721 -2644 -3858 -2470 -3977 -2284 -4104 -2104 -4202 -1901 -4311 -1699 -4409 -1492 -4508 -1279 -4589 -1059 -4683 -836 -4753 -607 -4830 -366 -4896 -126 0 0zm-95017 95012l-15834 0 0 0 148 -5694 420 -5628 705 -5551 978 -5458 1235 -5366 1497 -5262 1743 -5152 1989 -5043 2218 -4907 2448 -4775 2666 -4644 2891 -4508 3087 -4338 3289 -4186 3486 -4021 3666 -3852 3852 -3666 4022 -3481 4185 -3289 4344 -3093 4502 -2885 4639 -2666 4781 -2442 4906 -2230 5044 -1983 5152 -1743 5262 -1497 5365 -1235 5459 -978 5551 -705 5628 -420 5693 -148 0 15834 -4896 126 -4830 366 -4753 607 -4683 836 -4589 1059 -4508 1279 -4409 1492 -4311 1699 -4208 1901 -4103 2104 -3972 2284 -3858 2470 -3721 2644 -3595 2830 -3453 2989 -3295 3142 -3152 3305 -2984 3443 -2819 3595 -2650 3726 -2475 3852 -2284 3978 -2098 4098 -1902 4207 -1704 4311 -1492 4409 -1279 4508 -1059 4590 -836 4682 -607 4754 -366 4830 -126 4896 0 0zm95017 95011l0 15834 0 0 -5693 -147 -5628 -421 -5551 -705 -5459 -978 -5365 -1235 -5262 -1497 -5152 -1743 -5044 -1983 -4906 -2230 -4781 -2442 -4639 -2666 -4502 -2885 -4344 -3093 -4185 -3289 -4027 -3486 -3847 -3666 -3666 -3847 -3486 -4021 -3289 -4186 -3087 -4338 -2891 -4508 -2666 -4644 -2448 -4775 -2218 -4907 -1989 -5043 -1743 -5152 -1497 -5262 -1235 -5366 -978 -5458 -705 -5551 -420 -5628 -148 -5693 15834 0 126 4895 366 4830 607 4754 836 4682 1059 4590 1279 4508 1492 4409 1704 4311 1902 4207 2098 4098 2284 3978 2475 3852 2650 3726 2819 3595 2984 3443 3152 3300 3300 3152 3448 2984 3595 2830 3721 2645 3858 2469 3972 2284 4103 2104 4208 1901 4311 1699 4409 1492 4508 1279 4589 1060 4683 836 4753 606 4830 366 4896 126 0 0zm95011 -95011l15835 0 0 0 -148 5693 -421 5628 -705 5551 -978 5458 -1234 5366 -1498 5262 -1742 5152 -1984 5043 -2229 4912 -2442 4770 -2667 4644 -2885 4503 -3092 4343 -3295 4191 -3481 4016 -3660 3847 -3852 3666 -4016 3481 -4191 3294 -4344 3093 -4502 2885 -4644 2666 -4770 2442 -4912 2230 -5043 1983 -5153 1743 -5262 1497 -5365 1235 -5459 978 -5551 705 -5628 421 -5693 147 0 -15834 4896 -126 4830 -366 4753 -606 4683 -836 4589 -1060 4508 -1279 4409 -1492 4311 -1699 4202 -1901 4104 -2104 3977 -2284 3858 -2469 3721 -2645 3589 -2825 3448 -2989 3306 -3152 3147 -3300 2989 -3448 2825 -3590 2644 -3721 2470 -3857 2284 -3978 2103 -4103 1902 -4202 1699 -4311 1492 -4409 1278 -4508 1060 -4590 836 -4682 606 -4754 367 -4830 125 -4895 0 0z"/>
  </g>
 </g>
</svg>
