<?xml version="1.0" encoding="UTF-8"?>
<!DOCTYPE svg PUBLIC "-//W3C//DTD SVG 1.1//EN" "http://www.w3.org/Graphics/SVG/1.1/DTD/svg11.dtd">
<!-- Creator: CorelDRAW X8 -->
<svg xmlns="http://www.w3.org/2000/svg" xml:space="preserve" width="45px" height="45px" version="1.1" shape-rendering="geometricPrecision" text-rendering="geometricPrecision" image-rendering="optimizeQuality" fill-rule="evenodd" clip-rule="evenodd"
viewBox="0 0 165016 165012"
 >
 <g id="Слой_x0020_1">
  <metadata id="CorelCorpID_0Corel-Layer"/>
  <path id="Shape" fill="#CCCCCC" d="M72782 90485c-1403,-1391 -3071,-2086 -5007,-2086 -1935,0 -3603,699 -5006,2086 -1403,1395 -2395,2949 -2969,4665 -577,1720 -862,3400 -862,5039 0,1635 285,3315 862,5031 574,1720 1566,3274 2969,4665 1403,1395 3071,2086 5006,2086 1936,0 3604,-696 5007,-2086 1407,-1391 2395,-2945 2969,-4665 577,-1716 866,-3396 866,-5031 0,-1639 -289,-3319 -866,-5039 -574,-1716 -1562,-3270 -2969,-4665z"/>
  <path id="Shape_0" fill="#CCCCCC" d="M102247 90485c-1403,-1391 -3071,-2086 -5002,-2086 -1936,0 -3604,699 -5007,2086 -1407,1395 -2395,2949 -2973,4665 -573,1720 -862,3400 -862,5039 0,1635 289,3315 862,5031 578,1720 1566,3274 2973,4665 1403,1395 3071,2086 5007,2086 1931,0 3599,-696 5002,-2086 1403,-1391 2395,-2945 2973,-4665 573,-1716 862,-3396 862,-5031 0,-1639 -289,-3319 -862,-5039 -578,-1716 -1570,-3270 -2973,-4665z"/>
  <path id="Shape_1" fill="#CCCCCC" d="M121947 66535c1021,-2713 1529,-5527 1529,-8439 0,-3884 -964,-7536 -2891,-10948 -4039,0 -7610,651 -10709,1960 -3099,1306 -6629,3327 -10594,6076 -4986,-1073 -10277,-1610 -15865,-1610 -6121,0 -11957,589 -17512,1761 -4043,-2815 -7610,-4881 -10709,-6202 -3099,-1326 -6686,-1985 -10769,-1985 -1923,3412 -2887,7064 -2887,10948 0,2949 508,5796 1529,8537 -5137,5327 -7707,11956 -7707,19891 0,6967 1171,12506 3514,16626 1244,2176 2871,4099 4872,5775 2001,1675 4287,3034 6857,4071 2570,1037 5157,1899 7764,2586 2607,684 5486,1188 8642,1505 3152,317 5942,529 8357,630 2420,98 5100,151 8049,151 3473,0 6629,-77 9464,-228 2830,-150 6072,-520 9716,-1102 3644,-586 6856,-1383 9634,-2387 2778,-1005 5442,-2444 7992,-4319 2550,-1879 4538,-4104 5978,-6682 2302,-4153 3457,-9692 3457,-16626 -4,-7967 -2570,-14633 -7711,-19989zm-6796 36537c-1212,2197 -2741,3917 -4591,5178 -1851,1252 -4157,2257 -6914,3013 -2758,753 -5401,1245 -7935,1481 -2529,231 -5344,349 -8443,349l-9520 0c-3095,0 -5914,-118 -8443,-349 -2530,-236 -5178,-728 -7935,-1481 -2757,-756 -5059,-1761 -6910,-3013 -1854,-1261 -3383,-2981 -4591,-5178 -1208,-2192 -1814,-4762 -1814,-7706 0,-4023 1301,-7435 3908,-10249 2611,-2814 6141,-4218 10599,-4218 1622,0 5307,350 11050,1054 2684,370 5649,553 8898,553 3249,0 6214,-183 8894,-553 5820,-704 9501,-1054 11050,-1054 4458,0 7992,1408 10599,4218 2607,2814 3908,6226 3908,10249 0,2948 -606,5518 -1810,7706z"/>
  <g>
   <path id="Oval-Copy" fill="#CCCCCC" fill-rule="nonzero" d="M82510 11786l0 -11786 0 0 4238 110 4189 313 4132 525 4063 728 3993 919 3917 1114 3835 1297 3754 1477 3656 1659 3550 1818 3457 1985 3351 2147 3234 2302 3119 2452 2985 2587 2871 2729 2729 2871 2587 2985 2452 3119 2302 3234 2147 3351 1985 3457 1818 3550 1659 3656 1477 3754 1297 3835 1114 3917 919 3993 728 4063 525 4132 313 4189 110 4238 -11786 0 -94 -3644 -272 -3595 -451 -3538 -623 -3486 -789 -3416 -951 -3355 -1111 -3282 -1264 -3209 -1416 -3128 -1566 -3054 -1700 -2961 -1838 -2871 -1968 -2769 -2103 -2672 -2228 -2571 -2339 -2456 -2456 -2339 -2571 -2228 -2672 -2103 -2769 -1968 -2871 -1839 -2961 -1700 -3054 -1565 -3128 -1416 -3209 -1264 -3282 -1111 -3355 -951 -3416 -789 -3486 -623 -3538 -451 -3595 -272 -3644 -94 0 0zm-70724 70720l-11786 0 0 0 110 -4238 313 -4189 525 -4132 728 -4063 919 -3993 1114 -3917 1297 -3835 1481 -3754 1651 -3652 1822 -3554 1985 -3457 2151 -3355 2298 -3230 2448 -3115 2595 -2993 2729 -2867 2867 -2729 2993 -2591 3115 -2448 3234 -2302 3351 -2147 3453 -1985 3558 -1818 3652 -1659 3754 -1477 3835 -1297 3917 -1114 3993 -919 4063 -728 4132 -525 4189 -313 4238 -110 0 11786 -3644 94 -3595 272 -3538 451 -3486 623 -3416 789 -3355 951 -3282 1111 -3209 1264 -3132 1416 -3054 1565 -2956 1700 -2872 1839 -2769 1968 -2676 2107 -2571 2224 -2452 2339 -2347 2460 -2220 2563 -2099 2676 -1972 2773 -1843 2867 -1700 2961 -1561 3050 -1416 3132 -1268 3209 -1111 3282 -951 3355 -789 3416 -623 3486 -451 3538 -272 3595 -94 3644 0 0zm70724 70720l0 11786 0 0 -4238 -110 -4189 -313 -4132 -525 -4063 -728 -3993 -919 -3917 -1114 -3835 -1298 -3754 -1476 -3652 -1659 -3558 -1818 -3453 -1985 -3351 -2147 -3234 -2302 -3115 -2448 -2997 -2595 -2863 -2729 -2729 -2863 -2595 -2993 -2448 -3116 -2298 -3229 -2151 -3355 -1985 -3457 -1822 -3554 -1651 -3652 -1481 -3754 -1297 -3835 -1114 -3917 -919 -3993 -728 -4063 -525 -4132 -313 -4189 -110 -4238 11786 0 94 3644 272 3595 451 3538 623 3486 789 3416 951 3355 1111 3282 1268 3209 1416 3132 1561 3050 1700 2960 1843 2868 1972 2773 2099 2676 2220 2562 2347 2457 2456 2347 2567 2220 2676 2107 2769 1968 2872 1838 2956 1700 3054 1566 3132 1415 3209 1265 3282 1111 3355 951 3416 789 3486 622 3538 452 3595 272 3644 94 0 0zm70720 -70720l11786 0 0 0 -110 4238 -313 4189 -525 4132 -728 4063 -919 3993 -1114 3917 -1297 3835 -1477 3754 -1659 3656 -1818 3550 -1985 3457 -2147 3351 -2302 3233 -2452 3120 -2591 2989 -2725 2863 -2867 2729 -2989 2591 -3119 2452 -3234 2302 -3351 2147 -3457 1985 -3550 1818 -3656 1659 -3754 1476 -3835 1298 -3917 1114 -3993 919 -4063 728 -4132 525 -4189 313 -4238 110 0 -11786 3644 -94 3595 -272 3538 -452 3486 -622 3416 -789 3355 -951 3282 -1111 3209 -1265 3128 -1415 3054 -1566 2961 -1700 2871 -1838 2769 -1968 2672 -2103 2567 -2224 2460 -2347 2343 -2457 2224 -2566 2103 -2672 1968 -2769 1838 -2872 1700 -2960 1566 -3055 1416 -3127 1264 -3209 1111 -3282 951 -3355 789 -3416 623 -3486 451 -3538 272 -3595 94 -3644 0 0z"/>
  </g>
 </g>
</svg>
