<?xml version="1.0" encoding="UTF-8"?>
<!DOCTYPE svg PUBLIC "-//W3C//DTD SVG 1.1//EN" "http://www.w3.org/Graphics/SVG/1.1/DTD/svg11.dtd">
<!-- Creator: CorelDRAW X8 -->
<svg xmlns="http://www.w3.org/2000/svg" xml:space="preserve" width="45px" height="45px" version="1.1" shape-rendering="geometricPrecision" text-rendering="geometricPrecision" image-rendering="optimizeQuality" fill-rule="evenodd" clip-rule="evenodd"
viewBox="0 0 152051 152051"
 >
 <g id="Слой_x0020_1">
  <metadata id="CorelCorpID_0Corel-Layer"/>
  <path id="linkedin-copy" fill="#CCCCCC" fill-rule="nonzero" d="M114040 75497l0 27679 -16193 0 0 -25839c0,-6498 -2335,-10913 -8192,-10913 -4482,0 -7124,2991 -8304,5865 -424,1038 -551,2489 -551,3920l0 26967 -16178 0c0,0 217,-43752 0,-48283l16178 0 0 6843c-19,56 -68,105 -90,169l90 0 0 -169c2162,-3286 5992,-7974 14592,-7974 10673,0 18648,6899 18648,21735zm-63494 -42916c-4294,0 -7101,3046 -7101,7064 0,3908 2724,7056 6936,7056l79 0c4385,0 7102,-3148 7102,-7056 -83,-4018 -2717,-7064 -7016,-7064zm-7101 70595l14117 0 0 -49414 -14117 0 0 49414z"/>
  <g>
   <path id="Oval-Copy-2" fill="#CCCCCC" fill-rule="nonzero" d="M76025 10860l0 -10860 0 0 3905 101 3860 289 3808 483 3743 671 3680 847 3609 1027 3534 1195 3459 1361 3369 1528 3272 1676 3185 1828 3088 1979 2979 2121 2875 2260 2750 2383 2646 2515 2515 2646 2383 2750 2260 2875 2121 2979 1978 3088 1829 3185 1675 3272 1529 3369 1361 3459 1195 3534 1027 3608 847 3680 671 3744 483 3808 289 3860 101 3904 -10860 0 -87 -3357 -251 -3313 -416 -3260 -573 -3212 -727 -3148 -877 -3092 -1023 -3024 -1165 -2957 -1305 -2881 -1442 -2815 -1567 -2728 -1694 -2646 -1813 -2552 -1938 -2462 -2054 -2368 -2154 -2264 -2264 -2155 -2368 -2053 -2462 -1938 -2552 -1813 -2646 -1694 -2728 -1567 -2815 -1443 -2882 -1304 -2956 -1165 -3025 -1023 -3091 -877 -3148 -727 -3212 -574 -3260 -415 -3313 -252 -3358 -86 0 0zm-65165 65165l-10860 0 0 0 101 -3904 289 -3860 483 -3808 671 -3744 847 -3680 1027 -3608 1195 -3534 1361 -3459 1528 -3369 1676 -3272 1828 -3185 1979 -3088 2121 -2979 2260 -2875 2387 -2754 2515 -2642 2638 -2511 2754 -2387 2875 -2260 2979 -2121 3088 -1979 3185 -1828 3272 -1676 3369 -1528 3459 -1361 3534 -1195 3608 -1027 3680 -847 3744 -671 3808 -483 3860 -289 3904 -101 0 10860 -3357 86 -3313 252 -3260 415 -3212 574 -3148 727 -3092 877 -3024 1023 -2957 1165 -2881 1304 -2815 1443 -2728 1567 -2646 1694 -2552 1813 -2462 1938 -2365 2050 -2263 2158 -2162 2267 -2050 2365 -1938 2462 -1813 2552 -1694 2646 -1567 2728 -1443 2815 -1304 2881 -1165 2957 -1023 3024 -877 3092 -727 3148 -574 3212 -415 3260 -252 3313 -86 3357 0 0zm65165 65166l0 10860 0 0 -3904 -101 -3860 -289 -3808 -483 -3744 -671 -3680 -847 -3608 -1027 -3534 -1195 -3459 -1361 -3369 -1529 -3272 -1675 -3185 -1829 -3088 -1978 -2979 -2121 -2875 -2260 -2754 -2387 -2638 -2515 -2515 -2638 -2387 -2754 -2260 -2875 -2121 -2979 -1979 -3088 -1828 -3185 -1676 -3272 -1528 -3369 -1361 -3459 -1195 -3534 -1027 -3609 -847 -3680 -671 -3743 -483 -3808 -289 -3860 -101 -3905 10860 0 86 3358 252 3313 415 3260 574 3212 727 3148 877 3091 1023 3025 1165 2956 1304 2882 1443 2815 1567 2728 1694 2646 1813 2552 1938 2462 2050 2364 2162 2264 2263 2162 2365 2050 2462 1938 2552 1813 2646 1694 2728 1567 2815 1442 2881 1305 2957 1165 3024 1023 3092 877 3148 727 3212 573 3260 416 3313 251 3357 87 0 0zm65166 -65166l10860 0 0 0 -101 3905 -289 3860 -483 3808 -671 3743 -847 3680 -1027 3609 -1195 3534 -1361 3459 -1529 3369 -1675 3272 -1829 3185 -1978 3088 -2121 2979 -2260 2875 -2387 2754 -2511 2638 -2642 2515 -2754 2387 -2875 2260 -2979 2121 -3088 1978 -3185 1829 -3272 1675 -3369 1529 -3459 1361 -3534 1195 -3609 1027 -3680 847 -3743 671 -3808 483 -3860 289 -3905 101 0 -10860 3358 -87 3313 -251 3260 -416 3212 -573 3148 -727 3091 -877 3025 -1023 2956 -1165 2882 -1305 2815 -1442 2728 -1567 2646 -1694 2552 -1813 2462 -1938 2364 -2050 2268 -2162 2158 -2264 2050 -2364 1938 -2462 1813 -2552 1694 -2646 1567 -2728 1442 -2815 1305 -2882 1165 -2956 1023 -3025 877 -3091 727 -3148 573 -3212 416 -3260 251 -3313 87 -3358 0 0z"/>
  </g>
 </g>
</svg>
