<?xml version="1.0" encoding="UTF-8"?>
<!DOCTYPE svg PUBLIC "-//W3C//DTD SVG 1.1//EN" "http://www.w3.org/Graphics/SVG/1.1/DTD/svg11.dtd">
<!-- Creator: CorelDRAW X8 -->
<svg xmlns="http://www.w3.org/2000/svg" xml:space="preserve" width="45px" height="45px" version="1.1" shape-rendering="geometricPrecision" text-rendering="geometricPrecision" image-rendering="optimizeQuality" fill-rule="evenodd" clip-rule="evenodd"
viewBox="0 0 180388 180388"
 >
 <g id="Слой_x0020_1">
  <metadata id="CorelCorpID_0Corel-Layer"/>
  <polygon id="Rectangle-2" fill="#CCCCCC" points="45099,51541 70868,67475 70868,135293 45099,120404 "/>
  <polygon id="Rectangle-2-Copy" fill="#CCCCCC" points="135293,67729 135293,122405 109525,110427 "/>
  <polygon id="Rectangle-2-Copy-3" fill="#CCCCCC" points="79853,83801 102723,125699 79853,112290 "/>
  <polygon id="Rectangle-2-Copy-2" fill="#CCCCCC" points="128851,61451 101224,109525 83752,74527 101224,45095 "/>
  <g>
   <path id="Oval" fill="#CCCCCC" fill-rule="nonzero" d="M90194 12884l0 -12884 0 0 4633 120 4579 342 4517 574 4441 796 4366 1004 4282 1219 4192 1418 4104 1614 3997 1814 3881 1987 3779 2170 3663 2347 3535 2516 3410 2681 3263 2828 3139 2983 2983 3139 2828 3263 2681 3410 2516 3535 2347 3663 2170 3779 1987 3881 1814 3997 1614 4104 1418 4192 1219 4282 1004 4366 796 4441 574 4517 342 4579 120 4633 -12884 0 -102 -3984 -298 -3930 -494 -3868 -680 -3810 -863 -3734 -1040 -3668 -1214 -3588 -1382 -3508 -1547 -3419 -1712 -3339 -1859 -3236 -2009 -3139 -2152 -3028 -2298 -2921 -2437 -2809 -2556 -2686 -2685 -2556 -2810 -2437 -2921 -2298 -3028 -2152 -3139 -2009 -3236 -1859 -3339 -1711 -3419 -1548 -3508 -1382 -3588 -1214 -3668 -1040 -3734 -863 -3810 -680 -3868 -494 -3930 -298 -3984 -102 0 0zm-77310 77310l-12884 0 0 0 120 -4633 342 -4579 574 -4517 796 -4441 1004 -4366 1219 -4282 1418 -4192 1614 -4104 1814 -3997 1987 -3881 2170 -3779 2347 -3663 2516 -3535 2681 -3410 2832 -3268 2984 -3134 3129 -2979 3268 -2832 3410 -2681 3535 -2516 3663 -2347 3779 -2170 3881 -1987 3997 -1814 4104 -1614 4192 -1418 4282 -1219 4366 -1004 4441 -796 4517 -574 4579 -342 4633 -120 0 12884 -3984 102 -3930 298 -3868 494 -3810 680 -3734 863 -3668 1040 -3588 1214 -3508 1382 -3419 1548 -3339 1711 -3236 1859 -3139 2009 -3028 2152 -2921 2298 -2805 2432 -2685 2561 -2566 2690 -2432 2805 -2298 2921 -2152 3028 -2009 3139 -1859 3236 -1711 3339 -1548 3419 -1382 3508 -1214 3588 -1040 3668 -863 3734 -680 3810 -494 3868 -298 3930 -102 3984 0 0zm77310 77310l0 12884 0 0 -4633 -120 -4579 -342 -4517 -574 -4441 -796 -4366 -1004 -4282 -1219 -4192 -1418 -4104 -1614 -3997 -1814 -3881 -1987 -3779 -2170 -3663 -2347 -3535 -2516 -3410 -2681 -3268 -2832 -3129 -2984 -2984 -3129 -2832 -3268 -2681 -3410 -2516 -3535 -2347 -3663 -2170 -3779 -1987 -3881 -1814 -3997 -1614 -4104 -1418 -4192 -1219 -4282 -1004 -4366 -796 -4441 -574 -4517 -342 -4579 -120 -4633 12884 0 102 3984 298 3930 494 3868 680 3810 863 3734 1040 3668 1214 3588 1382 3508 1548 3419 1711 3339 1859 3236 2009 3139 2152 3028 2298 2921 2432 2805 2566 2685 2685 2566 2805 2432 2921 2298 3028 2152 3139 2009 3236 1859 3339 1712 3419 1547 3508 1382 3588 1214 3668 1040 3734 863 3810 680 3868 494 3930 298 3984 102 0 0zm77310 -77310l12884 0 0 0 -120 4633 -342 4579 -574 4517 -796 4441 -1004 4366 -1219 4282 -1418 4192 -1614 4104 -1814 3997 -1987 3881 -2170 3779 -2347 3663 -2516 3535 -2681 3410 -2832 3268 -2979 3129 -3134 2984 -3268 2832 -3410 2681 -3535 2516 -3663 2347 -3779 2170 -3881 1987 -3997 1814 -4104 1614 -4192 1418 -4282 1219 -4366 1004 -4441 796 -4517 574 -4579 342 -4633 120 0 -12884 3984 -102 3930 -298 3868 -494 3810 -680 3734 -863 3668 -1040 3588 -1214 3508 -1382 3419 -1547 3339 -1712 3236 -1859 3139 -2009 3028 -2152 2921 -2298 2805 -2432 2690 -2566 2561 -2685 2432 -2805 2298 -2921 2152 -3028 2009 -3139 1859 -3236 1712 -3339 1547 -3419 1382 -3508 1214 -3588 1040 -3668 863 -3734 680 -3810 494 -3868 298 -3930 102 -3984 0 0z"/>
  </g>
 </g>
</svg>
