<?xml version="1.0" encoding="UTF-8"?>
<!DOCTYPE svg PUBLIC "-//W3C//DTD SVG 1.1//EN" "http://www.w3.org/Graphics/SVG/1.1/DTD/svg11.dtd">
<!-- Creator: CorelDRAW X8 -->
<svg xmlns="http://www.w3.org/2000/svg" xml:space="preserve" width="45px" height="45px" version="1.1" shape-rendering="geometricPrecision" text-rendering="geometricPrecision" image-rendering="optimizeQuality" fill-rule="evenodd" clip-rule="evenodd"
viewBox="0 0 250368 250362"
 >
 <g id="Слой_x0020_1">
  <metadata id="CorelCorpID_0Corel-Layer"/>
  <g>
   <path id="Oval" fill="#CCCCCC" fill-rule="nonzero" d="M125181 17882l0 -17882 0 0 6430 167 6355 475 6270 796 6164 1104 6059 1395 5942 1690 5819 1969 5696 2240 5541 2517 5399 2759 5239 3011 5084 3258 4906 3492 4726 3715 4542 3931 4350 4140 4140 4350 3937 4542 3715 4726 3486 4900 3264 5090 3012 5245 2764 5393 2505 5541 2246 5696 1969 5819 1690 5942 1395 6059 1104 6164 796 6270 476 6355 166 6430 -17882 0 -142 -5529 -413 -5454 -685 -5369 -944 -5288 -1197 -5183 -1444 -5091 -1685 -4979 -1925 -4869 -2147 -4751 -2370 -4628 -2579 -4492 -2795 -4350 -2993 -4209 -3184 -4060 -3369 -3887 -3560 -3734 -3721 -3548 -3900 -3375 -4060 -3196 -4202 -2987 -4357 -2789 -4486 -2579 -4634 -2376 -4751 -2147 -4869 -1919 -4979 -1685 -5091 -1443 -5183 -1198 -5288 -944 -5369 -685 -5454 -413 -5529 -142 0 0zm-107299 107299l-17882 0 0 0 167 -6430 475 -6355 796 -6270 1104 -6164 1395 -6059 1690 -5942 1969 -5819 2240 -5696 2517 -5547 2759 -5387 3011 -5245 3258 -5084 3492 -4906 3721 -4733 3931 -4535 4140 -4350 4344 -4134 4535 -3931 4733 -3721 4906 -3492 5084 -3258 5245 -3011 5387 -2759 5547 -2517 5696 -2240 5819 -1969 5942 -1690 6059 -1395 6164 -1104 6270 -796 6355 -475 6430 -167 0 17882 -5529 142 -5454 413 -5369 685 -5288 944 -5183 1198 -5091 1443 -4979 1685 -4869 1919 -4745 2147 -4634 2376 -4492 2579 -4357 2789 -4202 2987 -4054 3190 -3893 3375 -3727 3554 -3561 3734 -3375 3893 -3190 4054 -2987 4202 -2789 4357 -2579 4492 -2376 4634 -2147 4745 -1919 4869 -1685 4979 -1443 5091 -1198 5183 -944 5288 -685 5369 -413 5454 -142 5529 0 0zm107299 107299l0 17882 0 0 -6430 -167 -6355 -475 -6270 -796 -6164 -1104 -6059 -1395 -5942 -1690 -5819 -1969 -5696 -2240 -5547 -2517 -5387 -2759 -5245 -3011 -5084 -3258 -4906 -3492 -4733 -3721 -4535 -3931 -4344 -4140 -4140 -4344 -3931 -4535 -3721 -4733 -3492 -4906 -3258 -5084 -3011 -5245 -2759 -5387 -2517 -5547 -2240 -5696 -1969 -5819 -1690 -5942 -1395 -6059 -1104 -6164 -796 -6270 -475 -6355 -167 -6430 17882 0 142 5529 413 5454 685 5369 944 5288 1198 5183 1443 5091 1685 4979 1919 4869 2147 4745 2376 4634 2579 4492 2789 4357 2987 4202 3190 4054 3375 3893 3561 3727 3727 3561 3893 3375 4054 3190 4202 2987 4357 2789 4492 2579 4634 2376 4745 2147 4869 1919 4979 1685 5091 1443 5183 1198 5288 944 5369 685 5454 413 5529 142 0 0zm107305 -107299l17882 0 0 0 -166 6430 -476 6355 -796 6270 -1104 6164 -1395 6059 -1690 5942 -1969 5819 -2246 5696 -2505 5541 -2764 5393 -3012 5245 -3264 5090 -3486 4900 -3715 4726 -3937 4542 -4140 4344 -4344 4140 -4548 3937 -4726 3715 -4906 3492 -5084 3258 -5239 3011 -5399 2759 -5541 2517 -5696 2240 -5819 1969 -5942 1690 -6059 1395 -6164 1104 -6270 796 -6355 475 -6430 167 0 -17882 5529 -142 5454 -413 5369 -685 5288 -944 5183 -1198 5091 -1443 4979 -1685 4869 -1919 4751 -2147 4634 -2376 4486 -2579 4357 -2789 4202 -2987 4060 -3196 3894 -3369 3727 -3561 3560 -3727 3369 -3887 3184 -4060 2993 -4209 2795 -4350 2579 -4492 2370 -4628 2147 -4751 1925 -4869 1685 -4979 1444 -5091 1197 -5183 944 -5288 685 -5369 413 -5454 142 -5529 0 0z"/>
  </g>
  <path id="telegram-copy" fill="#CCCCCC" fill-rule="nonzero" d="M55862 118696l28847 9712 11162 32401c716,2080 3523,2845 5393,1469l16080 -11829c1679,-1240 4085,-1302 5844,-148l29001 18999c2000,1308 4826,321 5325,-1857l21245 -92212c550,-2382 -2042,-4363 -4553,-3487l-118375 41213c-2925,1012 -2900,4745 31,5739zm36338 80l58249 -29230c1043,-524 2123,630 1222,1308l-48068 36400c-1691,1284 -2777,2999 -3086,4863l-1635 9885c-222,1320 -2499,1450 -2943,173l-6300 -18024c-716,-2055 333,-4252 2561,-5375z"/>
 </g>
</svg>
