<?xml version="1.0" encoding="UTF-8"?>
<!DOCTYPE svg PUBLIC "-//W3C//DTD SVG 1.1//EN" "http://www.w3.org/Graphics/SVG/1.1/DTD/svg11.dtd">
<!-- Creator: CorelDRAW X8 -->
<svg xmlns="http://www.w3.org/2000/svg" xml:space="preserve" width="45px" height="45px" version="1.1" shape-rendering="geometricPrecision" text-rendering="geometricPrecision" image-rendering="optimizeQuality" fill-rule="evenodd" clip-rule="evenodd"
viewBox="0 0 198917 198912"
 >
 <g id="Слой_x0020_1">
  <metadata id="CorelCorpID_0Corel-Layer"/>
  <path id="twitter-copy" fill="#CCCCCC" fill-rule="nonzero" d="M156295 73179c-3667,1573 -7594,2637 -11722,3113 4216,-2442 7442,-6315 8971,-10913 -3956,2260 -8314,3902 -12966,4795 -3721,-3844 -9016,-6236 -14889,-6236 -11266,0 -20404,8834 -20404,19727 0,1544 181,3054 529,4501 -16957,-829 -31988,-8683 -42048,-20625 -1760,2912 -2760,6304 -2760,9922 0,6849 3603,12889 9074,16424 -3348,-108 -6490,-996 -9241,-2476l0 245c0,9560 7035,17536 16360,19350 -1706,446 -3510,691 -5373,691 -1319,0 -2594,-127 -3844,-363 2598,7844 10129,13546 19056,13703 -6976,5290 -15781,8437 -25341,8437 -1642,0 -3265,-98 -4863,-275 9030,5614 19752,8884 31273,8884 37533,0 58045,-30072 58045,-56153l-64 -2549c4005,-2770 7476,-6241 10207,-10202z"/>
  <g>
   <path id="Oval-Copy-2" fill="#CCCCCC" fill-rule="nonzero" d="M99456 14207l0 -14207 0 0 5108 132 5050 378 4981 632 4897 878 4814 1108 4721 1343 4623 1564 4525 1779 4403 2001 4289 2191 4163 2392 4039 2589 3898 2775 3755 2951 3608 3123 3456 3289 3290 3457 3128 3608 2951 3755 2770 3893 2593 4044 2392 4167 2197 4285 1990 4402 1785 4525 1564 4623 1343 4721 1108 4815 877 4897 633 4981 377 5049 133 5109 -14208 0 -112 -4393 -329 -4334 -544 -4265 -750 -4201 -951 -4118 -1147 -4045 -1339 -3956 -1529 -3868 -1706 -3775 -1883 -3677 -2049 -3569 -2221 -3456 -2378 -3343 -2529 -3226 -2677 -3089 -2829 -2966 -2956 -2818 -3098 -2682 -3226 -2540 -3339 -2372 -3461 -2216 -3564 -2050 -3682 -1887 -3774 -1706 -3868 -1525 -3957 -1338 -4044 -1147 -4118 -951 -4202 -750 -4265 -545 -4334 -328 -4392 -113 0 0zm-85249 85249l-14207 0 0 0 132 -5109 378 -5049 632 -4981 878 -4897 1108 -4815 1343 -4721 1564 -4623 1784 -4525 1991 -4402 2196 -4285 2392 -4167 2589 -4044 2780 -3893 2946 -3755 3128 -3608 3289 -3457 3457 -3289 3603 -3118 3755 -2956 3902 -2775 4035 -2589 4167 -2392 4285 -2191 4407 -2001 4520 -1779 4628 -1564 4716 -1343 4819 -1108 4893 -878 4981 -632 5049 -378 5109 -132 0 14207 -4393 113 -4334 328 -4265 545 -4196 750 -4123 951 -4040 1147 -3961 1338 -3863 1525 -3780 1706 -3677 1887 -3569 2050 -3456 2216 -3343 2372 -3216 2535 -3104 2687 -2956 2818 -2828 2966 -2677 3089 -2535 3226 -2377 3343 -2216 3456 -2050 3569 -1882 3677 -1706 3775 -1530 3868 -1338 3956 -1147 4045 -951 4118 -750 4201 -545 4265 -328 4334 -113 4393 0 0zm85249 85248l0 14208 0 0 -5109 -133 -5049 -377 -4981 -633 -4893 -877 -4819 -1108 -4716 -1343 -4628 -1564 -4520 -1780 -4407 -2000 -4285 -2191 -4167 -2393 -4035 -2588 -3902 -2775 -3755 -2956 -3608 -3123 -3452 -3290 -3289 -3451 -3128 -3608 -2946 -3755 -2780 -3893 -2589 -4044 -2392 -4168 -2196 -4284 -1991 -4403 -1784 -4525 -1564 -4623 -1343 -4721 -1108 -4814 -878 -4897 -632 -4981 -378 -5050 -132 -5108 14207 0 113 4392 328 4334 545 4265 750 4202 951 4118 1147 4044 1338 3957 1530 3868 1706 3774 1882 3677 2050 3569 2216 3456 2377 3344 2535 3226 2677 3088 2828 2961 2961 2829 3099 2682 3216 2534 3343 2373 3456 2216 3569 2049 3677 1888 3780 1706 3863 1524 3961 1339 4040 1147 4123 951 4196 750 4265 544 4334 329 4393 112 0 0zm85253 -85248l14208 0 0 0 -133 5108 -377 5050 -633 4981 -877 4897 -1108 4814 -1343 4721 -1564 4623 -1785 4525 -1990 4403 -2197 4284 -2392 4168 -2593 4044 -2770 3893 -2951 3755 -3128 3608 -3290 3451 -3451 3290 -3613 3128 -3755 2951 -3898 2775 -4039 2588 -4163 2393 -4289 2191 -4403 2000 -4525 1780 -4623 1564 -4721 1343 -4814 1108 -4897 877 -4981 633 -5050 377 -5108 133 0 -14208 4392 -112 4334 -329 4265 -544 4202 -750 4118 -951 4044 -1147 3957 -1339 3868 -1524 3774 -1706 3682 -1888 3564 -2049 3461 -2216 3339 -2373 3226 -2539 3093 -2677 2961 -2829 2829 -2961 2677 -3088 2529 -3226 2378 -3344 2221 -3456 2049 -3569 1883 -3677 1706 -3774 1529 -3868 1339 -3957 1147 -4044 951 -4118 750 -4202 544 -4265 329 -4334 112 -4392 0 0z"/>
  </g>
 </g>
</svg>
