<?xml version="1.0" encoding="UTF-8"?>
<!DOCTYPE svg PUBLIC "-//W3C//DTD SVG 1.1//EN" "http://www.w3.org/Graphics/SVG/1.1/DTD/svg11.dtd">
<!-- Creator: CorelDRAW X8 -->
<svg xmlns="http://www.w3.org/2000/svg" xml:space="preserve" width="60px" height="60px" version="1.1" shape-rendering="geometricPrecision" text-rendering="geometricPrecision" image-rendering="optimizeQuality" fill-rule="evenodd" clip-rule="evenodd"
viewBox="0 0 200608 200435"
 >
 <g id="Слой_x0020_1">
  <metadata id="CorelCorpID_0Corel-Layer"/>
  <path fill="#00A9D3" d="M180404 154222c-1316,0 -2647,-334 -3869,-1037 -3712,-2145 -4981,-6886 -2840,-10599 11321,-19602 14326,-42437 8465,-64306 -5857,-21861 -19881,-40140 -39483,-51453 -26139,-15093 -58611,-15089 -84746,0 -3708,2137 -8454,868 -10595,-2841 -2145,-3712 -872,-8457 2837,-10598 15461,-8925 32797,-13388 50129,-13388 17336,0 34671,4463 50129,13388 23193,13391 39782,35013 46716,60881 6933,25868 3374,52883 -10017,76076 -1438,2490 -4047,3877 -6726,3877z"/>
  <path fill="#00A9D3" d="M133520 107974l-66432 0c-4286,0 -7759,-3473 -7759,-7759 0,-4285 3473,-7758 7759,-7758l66432 0c4286,0 7758,3473 7758,7758 0,4286 -3472,7759 -7758,7759z"/>
  <path fill="#00A9D3" d="M146554 81752l-61388 0c-4286,0 -7758,-3476 -7758,-7758 0,-4282 3472,-7755 7758,-7755l61388 0c4282,0 7758,3473 7758,7755 0,4282 -3476,7758 -7758,7758z"/>
  <path fill="#00A9D3" d="M85174 81752c-2683,0 -5288,-1390 -6725,-3877l-31125 -53904c-2140,-3709 -868,-8454 2841,-10595 3708,-2137 8453,-868 10598,2840l31120 53901c2145,3708 873,8453 -2840,10598 -1218,703 -2553,1037 -3869,1037z"/>
  <path fill="#232531" d="M115442 134195l-61388 0c-4286,0 -7759,-3476 -7759,-7758 0,-4286 3473,-7758 7759,-7758l61388 0c4285,0 7758,3472 7758,7758 0,4282 -3473,7758 -7758,7758z"/>
  <path fill="#232531" d="M146570 188096c-2683,0 -5288,-1391 -6726,-3881l-31120 -53901c-2141,-3708 -872,-8454 2840,-10598 3717,-2141 8458,-869 10595,2844l31120 53900c2141,3709 872,8454 -2840,10595 -1222,707 -2553,1041 -3869,1041z"/>
  <path fill="#232531" d="M100306 200435c-17336,0 -34672,-4463 -50133,-13392 -23189,-13392 -39783,-35013 -46712,-60881 -6934,-25868 -3375,-52883 10017,-76076 2145,-3708 6886,-4981 10595,-2836 3708,2141 4981,6882 2840,10595 -11318,19602 -14327,42441 -8466,64306 5858,21865 19882,40136 39484,51453 26139,15097 58607,15097 84746,4 3716,-2145 8453,-872 10594,2840 2141,3709 872,8454 -2840,10595 -15458,8925 -32793,13392 -50125,13392z"/>
 </g>
</svg>
