<?xml version="1.0" encoding="UTF-8"?>
<!DOCTYPE svg PUBLIC "-//W3C//DTD SVG 1.1//EN" "http://www.w3.org/Graphics/SVG/1.1/DTD/svg11.dtd">
<!-- Creator: CorelDRAW X8 -->
<svg xmlns="http://www.w3.org/2000/svg" xml:space="preserve" width="123px" height="50px" version="1.1" shape-rendering="geometricPrecision" text-rendering="geometricPrecision" image-rendering="optimizeQuality" fill-rule="evenodd" clip-rule="evenodd"
viewBox="0 0 1000971 410891"
 >
 <g id="Слой_x0020_1">
  <metadata id="CorelCorpID_0Corel-Layer"/>
  <path fill="#00A9D3" d="M369829 316155c-2698,0 -5428,-684 -7933,-2126 -7610,-4397 -10211,-14117 -5822,-21727 23209,-40185 29370,-86997 17354,-131829 -12007,-44815 -40756,-82286 -80941,-105479 -53585,-30940 -120152,-30931 -173729,0 -7602,4381 -17330,1780 -21719,-5822 -4397,-7610 -1787,-17338 5815,-21727 31697,-18297 67235,-27445 102765,-27445 35538,0 71076,9148 102765,27445 47545,27453 81553,71777 95767,124806 14213,53030 6917,108410 -20536,155956 -2947,5105 -8294,7948 -13786,7948z"/>
  <path fill="#00A9D3" d="M273715 221346l-136185 0c-8786,0 -15905,-7119 -15905,-15904 0,-8786 7119,-15905 15905,-15905l136185 0c8786,0 15905,7119 15905,15905 0,8785 -7119,15904 -15905,15904z"/>
  <path fill="#00A9D3" d="M300435 167592l-125845 0c-8786,0 -15904,-7127 -15904,-15905 0,-8777 7118,-15896 15904,-15896l125845 0c8778,0 15905,7119 15905,15896 0,8778 -7127,15905 -15905,15905z"/>
  <path fill="#00A9D3" d="M174606 167592c-5500,0 -10839,-2851 -13786,-7948l-63805 -110504c-4389,-7602 -1780,-17330 5823,-21719 7602,-4381 17330,-1780 21727,5822l63796 110496c4397,7602 1788,17330 -5822,21727 -2497,1442 -5235,2126 -7933,2126z"/>
  <path fill="#232531" d="M236655 275101l-125845 0c-8786,0 -15905,-7127 -15905,-15905 0,-8786 7119,-15905 15905,-15905l125845 0c8786,0 15905,7119 15905,15905 0,8778 -7119,15905 -15905,15905z"/>
  <path fill="#232531" d="M300468 385597c-5501,0 -10840,-2851 -13787,-7957l-63796 -110496c-4389,-7602 -1788,-17330 5822,-21727 7618,-4389 17338,-1780 21719,5830l63796 110496c4389,7602 1788,17331 -5822,21719 -2505,1450 -5235,2135 -7932,2135z"/>
  <path fill="#232531" d="M205627 410891c-35538,0 -71076,-9148 -102773,-27453 -47538,-27453 -81554,-71777 -95759,-124806 -14214,-53029 -6918,-108410 20535,-155956 4397,-7602 14117,-10211 21719,-5814 7602,4389 10211,14109 5823,21719 -23201,40185 -29370,87006 -17355,131829 12007,44823 40757,82278 80941,105479 53586,30948 120144,30948 173729,8 7618,-4397 17330,-1788 21719,5822 4389,7602 1788,17330 -5822,21719 -31689,18297 -67227,27453 -102757,27453z"/>
  <path fill="#00A9D3" fill-rule="nonzero" d="M546207 143554l108708 0c4260,0 6386,2512 6386,7546 0,4904 -2126,7352 -6386,7352l-108708 0 0 23322c0,10630 9994,15945 29981,15945l78727 0c4518,0 6773,2351 6773,7062 0,4961 -2255,7441 -6773,7441l-79307 0c-31986,0 -47972,-9929 -47972,-29788l0 -63249c0,-20245 16566,-30376 49712,-30376l21469 0c4260,0 6386,2456 6386,7353 0,4775 -2126,7159 -6386,7159l-14503 0c-25408,0 -38107,5291 -38107,15864l0 24369z"/>
  <path fill="#00A9D3" fill-rule="nonzero" d="M830754 200811c0,4131 -1136,7224 -3391,9285 -2255,2062 -4864,3093 -7835,3093 -1289,0 -2674,-258 -4156,-773 -1482,-508 -2931,-1482 -4348,-2900l-109103 -97490 0 93238c0,5283 -3028,7925 -9092,7925 -5935,0 -8899,-2642 -8899,-7925l0 -105809c0,-3873 1160,-6676 3487,-8415 2319,-1748 4896,-2617 7731,-2617 1804,0 3487,233 5033,676 1546,459 3028,1393 4446,2811l108136 95557 0 -92079c0,-5025 3092,-7545 9285,-7545 5798,0 8706,2520 8706,7545l0 105423z"/>
  <path fill="#00A9D3" fill-rule="nonzero" d="M1000971 180147c0,13932 -7425,23475 -22275,28637l9318 5210c1030,644 1900,1643 2609,2996 709,1345 1063,2536 1063,3567 0,2191 -838,3994 -2513,5412 -1675,1409 -3616,2118 -5806,2118 -1288,0 -2770,-451 -4445,-1353l-25730 -15092 -51837 0c-31601,0 -47393,-10509 -47393,-31527l0 -60157c0,-20760 15752,-31149 47264,-31149l51515 0c32156,0 48230,10324 48230,30964l0 60374zm-18570 -60543l0 0c0,-10855 -11605,-16283 -34814,-16283l-41014 0c-22693,0 -34040,5428 -34040,16283l0 61058c0,11371 11347,17057 34040,17057l49132 0c17797,0 26696,-5621 26696,-16863l0 -61252z"/>
  <path fill="#232531" fill-rule="nonzero" d="M535271 297367l43849 0c1715,0 2569,1015 2569,3044 0,1973 -854,2964 -2569,2964l-43849 0 0 9406c0,4284 4026,6434 12095,6434l31754 0c1820,0 2730,950 2730,2843 0,2005 -910,3004 -2730,3004l-31987 0c-12901,0 -19352,-4003 -19352,-12015l0 -25513c0,-8165 6684,-12248 20052,-12248l8658 0c1715,0 2576,990 2576,2963 0,1925 -861,2891 -2576,2891l-5847 0c-10252,0 -15373,2134 -15373,6394l0 9833z"/>
  <path fill="#232531" fill-rule="nonzero" d="M650035 320463c0,1659 -451,2908 -1361,3745 -910,830 -1965,1248 -3165,1248 -515,0 -1079,-104 -1675,-314 -596,-209 -1184,-596 -1756,-1167l-44002 -39324 0 37600c0,2134 -1224,3205 -3672,3205 -2391,0 -3583,-1071 -3583,-3205l0 -42673c0,-1562 467,-2690 1401,-3390 934,-709 1981,-1055 3125,-1055 724,0 1401,88 2029,274 620,177 1216,555 1796,1127l43607 38542 0 -37133c0,-2029 1248,-3044 3745,-3044 2343,0 3511,1015 3511,3044l0 42520z"/>
  <path fill="#232531" fill-rule="nonzero" d="M666890 297367l43841 0c1723,0 2577,1015 2577,3044 0,1973 -854,2964 -2577,2964l-43841 0 0 9406c0,4284 4026,6434 12088,6434l31753 0c1820,0 2738,950 2738,2843 0,2005 -918,3004 -2738,3004l-31987 0c-12901,0 -19343,-4003 -19343,-12015l0 -25513c0,-8165 6676,-12248 20044,-12248l8665 0c1715,0 2577,990 2577,2963 0,1925 -862,2891 -2577,2891l-5855 0c-10243,0 -15365,2134 -15365,6394l0 9833z"/>
  <path fill="#232531" fill-rule="nonzero" d="M741550 281140c-8319,0 -12482,1957 -12482,5863l0 25407c0,4534 4574,6805 13730,6805l27308 0c1820,0 2730,950 2730,2843 0,2005 -910,3004 -2730,3004l-28323 0c-13368,0 -20052,-4156 -20052,-12483l0 -25592c0,-7796 6531,-11701 19585,-11701l28790 0c1820,0 2730,966 2730,2891 0,1973 -910,2963 -2730,2963l-28556 0z"/>
  <path fill="#232531" fill-rule="nonzero" d="M840248 311331c0,9157 -8190,13731 -24578,13731l-11153 0c-15454,0 -23177,-4574 -23177,-13731l0 -33388c0,-2029 1208,-3044 3632,-3044 2569,0 3857,1015 3857,3044l0 32905c0,5581 4880,8367 14641,8367l13473 0c10646,0 15969,-2786 15969,-8367l0 -32905c0,-2029 1224,-3044 3664,-3044 2448,0 3672,1015 3672,3044l0 33388z"/>
  <path fill="#232531" fill-rule="nonzero" d="M908514 311331c0,9157 -8190,13731 -24578,13731l-11154 0c-15445,0 -23176,-4574 -23176,-13731l0 -33388c0,-2029 1208,-3044 3632,-3044 2569,0 3857,1015 3857,3044l0 32905c0,5581 4880,8367 14649,8367l13472 0c10638,0 15962,-2786 15962,-8367l0 -32905c0,-2029 1224,-3044 3672,-3044 2440,0 3664,1015 3664,3044l0 33388z"/>
  <path fill="#232531" fill-rule="nonzero" d="M999175 322251c0,2134 -1280,3205 -3825,3205 -2343,0 -3511,-1071 -3511,-3205l0 -36279 -27856 36827c-1296,1771 -2963,2657 -4993,2657 -2182,0 -3921,-886 -5226,-2657l-28323 -36746 0 36198c0,2134 -1191,3205 -3583,3205 -2448,0 -3672,-1071 -3672,-3205l0 -43140c0,-2811 1377,-4212 4139,-4212 1925,0 3559,854 4912,2569l31834 40652 31206 -41038c1143,-1458 2657,-2183 4525,-2183 2916,0 4373,1458 4373,4365l0 42987z"/>
 </g>
</svg>
