<?xml version="1.0" encoding="UTF-8"?>
<!DOCTYPE svg PUBLIC "-//W3C//DTD SVG 1.1//EN" "http://www.w3.org/Graphics/SVG/1.1/DTD/svg11.dtd">
<!-- Creator: CorelDRAW X8 -->
<svg xmlns="http://www.w3.org/2000/svg" xml:space="preserve" width="48px" height="61px" version="1.1" shape-rendering="geometricPrecision" text-rendering="geometricPrecision" image-rendering="optimizeQuality" fill-rule="evenodd" clip-rule="evenodd"
viewBox="0 0 1325288 1672151"
 >
 <g id="Слой_x0020_1">
  <metadata id="CorelCorpID_0Corel-Layer"/>
  <g id="_930029424">
   <path fill="#00ADD9" d="M1325288 156760c0,86594 -70199,156793 -156793,156793 -86594,0 -156792,-70199 -156792,-156793 0,-86561 70198,-156760 156792,-156760 86594,0 156793,70199 156793,156760z"/>
   <path fill="white" fill-rule="nonzero" d="M1195690 76542c0,14996 -12199,27195 -27195,27195 -14996,0 -27195,-12199 -27195,-27195l0 -2830c0,-14996 12199,-27195 27195,-27195 14996,0 27195,12199 27195,27195l0 2830zm-33 169870c0,17045 -12166,30870 -27162,30870 -14996,0 -27162,-13825 -27162,-30870l0 -89684c0,-17046 12166,-30871 27162,-30871 14996,0 27162,13825 27162,30871l0 89684z"/>
   <path fill="#00ADD9" fill-rule="nonzero" d="M591225 274452c13012,-7547 28496,-7026 40662,0l567902 328061c13792,6506 23323,20526 23323,36791l0 660415c-130,13988 -7384,27586 -20331,35100 -186785,108649 -373895,216289 -560647,324938 -16070,16492 -45086,16492 -61156,0 -186752,-108649 -373862,-216354 -560647,-324938 -12947,-7514 -20201,-21112 -20233,-35100l-98 -660415c0,-15940 9173,-29732 22510,-36401l568715 -328451zm20331 81942l-204351 118017 204351 118018 204351 -118018 -204351 -118017zm-81096 282877l-204351 -118017 -204351 118017 204351 118050 204351 -118050zm81064 46908l-204286 118017 204318 118018 204318 -118018 -204350 -118017zm81161 -46875l204286 118050 204351 -118050 -204319 -118017 -204318 118017zm163266 235449l-203050 117269 553 236197 201944 -116651 553 -236815zm-285740 117269l-203050 -117269 553 236815 201944 116651 553 -236197zm571577 -282357l-204513 118115 0 236490 204513 -118115 0 -236490zm-855951 118083l-204513 -118115 0 236522 204513 118115 0 -236522zm0 331314l-204513 -118961 0 236360 204513 118928 0 -236327zm855951 -118961l-204513 118961 0 236327 204513 -118928 0 -236360zm-774627 165087l553 236686 201944 117431 553 -236002 -203050 -118115zm488237 236686l553 -236686 -203050 118115 553 236002 201944 -117431z"/>
  </g>
 </g>
</svg>
