<?xml version="1.0" encoding="UTF-8"?>
<!DOCTYPE svg PUBLIC "-//W3C//DTD SVG 1.1//EN" "http://www.w3.org/Graphics/SVG/1.1/DTD/svg11.dtd">
<!-- Creator: CorelDRAW X8 -->
<svg xmlns="http://www.w3.org/2000/svg" xml:space="preserve" width="27px" height="32px" version="1.1" shape-rendering="geometricPrecision" text-rendering="geometricPrecision" image-rendering="optimizeQuality" fill-rule="evenodd" clip-rule="evenodd"
viewBox="0 0 1237358 1418840"
 >
 <g id="Слой_x0020_1">
  <metadata id="CorelCorpID_0Corel-Layer"/>
  <path fill="#00ADD9" fill-rule="nonzero" d="M108495 372053l218533 126197 218532 -126197 -218532 -126251 -218533 126251zm837717 526370l-106 252819 218745 -127207 0 -252766 -218639 127154zm-291412 168298l-53 15894 585 236607 217841 -126729 532 -242719 0 -10313 -218905 127260zm-72773 -84787l584 -239955 -53 -12705 -218904 -126409 0 5794 531 235224 53 12226 217789 125825zm36626 -315227l218479 -126197 -219330 -126728 -218532 126197 219383 126728zm592711 -329420c14991,4412 25994,18340 25994,34766l-106 333566 53 904 53 1860 -106 336384c-53,12439 -6485,24559 -18021,31257l-291890 169680c-2392,1435 -4997,2552 -7708,3349l-276156 160590c-6379,5741 -14831,9197 -24080,9197l-213 0 -425 0 -160 0 -425 0 -213 0c-9249,0 -17701,-3456 -24080,-9197l-276156 -160590c-2711,-797 -5316,-1914 -7708,-3349l-291890 -169680c-11535,-6698 -17968,-18818 -18021,-31257l-106 -336384 53 -1860 53 -904 -106 -333566c0,-14034 8027,-26260 19775,-32267l797 -425 213 -107 287106 -165853 957 -584 53 0 532 -319 290189 -167607c11588,-6698 25410,-6273 36254,0l290827 167926 0 53 797 425 798 478 106 107 282960 163407zm-629337 981935l584 -236607 -53 -15894 -218904 -127260 0 10313 531 242719 217842 126729zm291093 -463113l585 -247450 0 -5794 -218905 126409 -53 12705 585 239955 217788 -125825zm291731 -168511l0 -252872 -218639 126303 -106 252979 218745 -126410zm-1092344 0l218746 126410 -107 -252979 0 -53 -218639 -126250 0 252872zm218639 210825l-218639 -127154 0 252766 218746 127207 -107 -252819zm108070 -694350l218533 126198 218585 -126198 -218585 -126197 -218533 126197zm509360 41783l-218532 126197 218532 126250 218479 -126250 -218479 -126197z"/>
 </g>
</svg>
