<?xml version="1.0" encoding="UTF-8"?>
<!DOCTYPE svg PUBLIC "-//W3C//DTD SVG 1.1//EN" "http://www.w3.org/Graphics/SVG/1.1/DTD/svg11.dtd">
<!-- Creator: CorelDRAW X8 -->
<svg xmlns="http://www.w3.org/2000/svg" xml:space="preserve" width="51px" height="51px" version="1.1" shape-rendering="geometricPrecision" text-rendering="geometricPrecision" image-rendering="optimizeQuality" fill-rule="evenodd" clip-rule="evenodd"
viewBox="0 0 9332488 9321506"
 >
 <g id="Слой_x0020_1">
  <metadata id="CorelCorpID_0Corel-Layer"/>
  <path fill="#00ADD9" fill-rule="nonzero" d="M8077404 1713924l113472 0c193355,0 369269,79021 496522,206274l22177 24546c114118,125314 184096,291108 184096,471975l0 1448653 115841 0c178282,0 322976,144693 322976,322976l0 2658735c0,178282 -144694,322975 -322976,322975l-115841 0 0 1448653c0,193355 -79021,369269 -206273,496522 -127253,127252 -303167,206273 -496522,206273l-7488081 0c-192709,0 -368192,-79452 -495875,-206919 -127899,-126607 -206920,-302521 -206920,-495876l0 -6201992c0,-192278 79237,-367762 206274,-495230 118209,-117778 275821,-194000 449582,-205843l6639086 -1697990c46939,-11842 93878,-17656 139310,-17656 162134,0 307473,70409 419223,180005 94524,92802 165578,218332 199599,350752 16148,58566 24330,119070 24330,179359l0 1003808zm-1625213 4126767c-178282,0 -322975,-144693 -322975,-322976 0,-178282 144693,-322975 322975,-322975l49308 0c178282,0 322975,144693 322975,322975 0,178283 -144693,322976 -322975,322976l-49308 0zm96462 -1329368c-276467,0 -528173,113257 -710546,295630 -215748,215748 -315870,503412 -291755,798396 46939,515469 484033,918758 1002301,918758l2030440 0 107443 0 0 -2012784 -2137883 0zm865359 -3857836l-4145499 1060222 4162940 0 0 -1003593 -2799 -20455c-1938,-13350 -7536,-25623 -14642,-36174zm776864 1706388l-7488081 0c-32728,0 -56844,24116 -56844,56844l0 6201992c0,15288 6460,29714 16795,40049 9259,10551 23685,16795 40049,16795l7488081 0c15288,0 29714,-6459 40049,-16795 10336,-10335 16795,-24761 16795,-40049l0 -1448653 -1699067 0c-454319,0 -867728,-186034 -1167018,-485324 -314148,-315871 -480588,-722820 -485110,-1167019 0,-454534 185819,-867943 485110,-1167234 299290,-299290 712484,-485109 1167018,-485109l1699067 0 0 -1448653c0,-13135 -4091,-24977 -10335,-33805l-6460 -6244c-10335,-10335 -24761,-16795 -40049,-16795z"/>
 </g>
</svg>
